G04 #@! TF.GenerationSoftware,KiCad,Pcbnew,(6.0.2)*
G04 #@! TF.CreationDate,2023-01-26T14:19:39+00:00*
G04 #@! TF.ProjectId,bomb-diffusal-combolock,626f6d62-2d64-4696-9666-7573616c2d63,rev?*
G04 #@! TF.SameCoordinates,Original*
G04 #@! TF.FileFunction,Legend,Top*
G04 #@! TF.FilePolarity,Positive*
%FSLAX46Y46*%
G04 Gerber Fmt 4.6, Leading zero omitted, Abs format (unit mm)*
G04 Created by KiCad (PCBNEW (6.0.2)) date 2023-01-26 14:19:39*
%MOMM*%
%LPD*%
G01*
G04 APERTURE LIST*
G04 Aperture macros list*
%AMRoundRect*
0 Rectangle with rounded corners*
0 $1 Rounding radius*
0 $2 $3 $4 $5 $6 $7 $8 $9 X,Y pos of 4 corners*
0 Add a 4 corners polygon primitive as box body*
4,1,4,$2,$3,$4,$5,$6,$7,$8,$9,$2,$3,0*
0 Add four circle primitives for the rounded corners*
1,1,$1+$1,$2,$3*
1,1,$1+$1,$4,$5*
1,1,$1+$1,$6,$7*
1,1,$1+$1,$8,$9*
0 Add four rect primitives between the rounded corners*
20,1,$1+$1,$2,$3,$4,$5,0*
20,1,$1+$1,$4,$5,$6,$7,0*
20,1,$1+$1,$6,$7,$8,$9,0*
20,1,$1+$1,$8,$9,$2,$3,0*%
G04 Aperture macros list end*
%ADD10C,0.300000*%
%ADD11C,0.120000*%
%ADD12RoundRect,0.166666X0.233334X0.433334X-0.233334X0.433334X-0.233334X-0.433334X0.233334X-0.433334X0*%
%ADD13O,0.800000X1.200000*%
%ADD14R,2.000000X2.000000*%
%ADD15C,2.000000*%
%ADD16R,3.200000X2.000000*%
%ADD17R,1.600000X1.600000*%
%ADD18O,1.600000X1.600000*%
%ADD19R,1.700000X1.700000*%
%ADD20O,1.700000X1.700000*%
%ADD21C,1.600000*%
G04 APERTURE END LIST*
D10*
X138776285Y-118645714D02*
X138704857Y-118717142D01*
X138490571Y-118788571D01*
X138347714Y-118788571D01*
X138133428Y-118717142D01*
X137990571Y-118574285D01*
X137919142Y-118431428D01*
X137847714Y-118145714D01*
X137847714Y-117931428D01*
X137919142Y-117645714D01*
X137990571Y-117502857D01*
X138133428Y-117360000D01*
X138347714Y-117288571D01*
X138490571Y-117288571D01*
X138704857Y-117360000D01*
X138776285Y-117431428D01*
X139633428Y-118788571D02*
X139490571Y-118717142D01*
X139419142Y-118645714D01*
X139347714Y-118502857D01*
X139347714Y-118074285D01*
X139419142Y-117931428D01*
X139490571Y-117860000D01*
X139633428Y-117788571D01*
X139847714Y-117788571D01*
X139990571Y-117860000D01*
X140062000Y-117931428D01*
X140133428Y-118074285D01*
X140133428Y-118502857D01*
X140062000Y-118645714D01*
X139990571Y-118717142D01*
X139847714Y-118788571D01*
X139633428Y-118788571D01*
X140776285Y-118788571D02*
X140776285Y-117788571D01*
X140776285Y-117931428D02*
X140847714Y-117860000D01*
X140990571Y-117788571D01*
X141204857Y-117788571D01*
X141347714Y-117860000D01*
X141419142Y-118002857D01*
X141419142Y-118788571D01*
X141419142Y-118002857D02*
X141490571Y-117860000D01*
X141633428Y-117788571D01*
X141847714Y-117788571D01*
X141990571Y-117860000D01*
X142062000Y-118002857D01*
X142062000Y-118788571D01*
X142776285Y-118788571D02*
X142776285Y-117288571D01*
X142776285Y-117860000D02*
X142919142Y-117788571D01*
X143204857Y-117788571D01*
X143347714Y-117860000D01*
X143419142Y-117931428D01*
X143490571Y-118074285D01*
X143490571Y-118502857D01*
X143419142Y-118645714D01*
X143347714Y-118717142D01*
X143204857Y-118788571D01*
X142919142Y-118788571D01*
X142776285Y-118717142D01*
X144347714Y-118788571D02*
X144204857Y-118717142D01*
X144133428Y-118645714D01*
X144062000Y-118502857D01*
X144062000Y-118074285D01*
X144133428Y-117931428D01*
X144204857Y-117860000D01*
X144347714Y-117788571D01*
X144562000Y-117788571D01*
X144704857Y-117860000D01*
X144776285Y-117931428D01*
X144847714Y-118074285D01*
X144847714Y-118502857D01*
X144776285Y-118645714D01*
X144704857Y-118717142D01*
X144562000Y-118788571D01*
X144347714Y-118788571D01*
X146204857Y-118788571D02*
X145490571Y-118788571D01*
X145490571Y-117288571D01*
X146919142Y-118788571D02*
X146776285Y-118717142D01*
X146704857Y-118645714D01*
X146633428Y-118502857D01*
X146633428Y-118074285D01*
X146704857Y-117931428D01*
X146776285Y-117860000D01*
X146919142Y-117788571D01*
X147133428Y-117788571D01*
X147276285Y-117860000D01*
X147347714Y-117931428D01*
X147419142Y-118074285D01*
X147419142Y-118502857D01*
X147347714Y-118645714D01*
X147276285Y-118717142D01*
X147133428Y-118788571D01*
X146919142Y-118788571D01*
X148704857Y-118717142D02*
X148562000Y-118788571D01*
X148276285Y-118788571D01*
X148133428Y-118717142D01*
X148062000Y-118645714D01*
X147990571Y-118502857D01*
X147990571Y-118074285D01*
X148062000Y-117931428D01*
X148133428Y-117860000D01*
X148276285Y-117788571D01*
X148562000Y-117788571D01*
X148704857Y-117860000D01*
X149347714Y-118788571D02*
X149347714Y-117288571D01*
X149490571Y-118217142D02*
X149919142Y-118788571D01*
X149919142Y-117788571D02*
X149347714Y-118360000D01*
X151562000Y-117788571D02*
X151919142Y-118788571D01*
X152276285Y-117788571D01*
X153633428Y-118788571D02*
X152776285Y-118788571D01*
X153204857Y-118788571D02*
X153204857Y-117288571D01*
X153062000Y-117502857D01*
X152919142Y-117645714D01*
X152776285Y-117717142D01*
X154276285Y-118645714D02*
X154347714Y-118717142D01*
X154276285Y-118788571D01*
X154204857Y-118717142D01*
X154276285Y-118645714D01*
X154276285Y-118788571D01*
X155276285Y-117288571D02*
X155419142Y-117288571D01*
X155562000Y-117360000D01*
X155633428Y-117431428D01*
X155704857Y-117574285D01*
X155776285Y-117860000D01*
X155776285Y-118217142D01*
X155704857Y-118502857D01*
X155633428Y-118645714D01*
X155562000Y-118717142D01*
X155419142Y-118788571D01*
X155276285Y-118788571D01*
X155133428Y-118717142D01*
X155062000Y-118645714D01*
X154990571Y-118502857D01*
X154919142Y-118217142D01*
X154919142Y-117860000D01*
X154990571Y-117574285D01*
X155062000Y-117431428D01*
X155133428Y-117360000D01*
X155276285Y-117288571D01*
D11*
X141524000Y-83386000D02*
X141824000Y-83386000D01*
X133324000Y-79876000D02*
X142774000Y-79876000D01*
X142774000Y-81376000D02*
X142164000Y-81376000D01*
X133369000Y-82726000D02*
X133979000Y-82726000D01*
X133324000Y-83186000D02*
X142774000Y-83176000D01*
X134014000Y-83226000D02*
X134014000Y-79876000D01*
X133369000Y-81426000D02*
X133979000Y-81426000D01*
X141524000Y-83186000D02*
X141524000Y-83386000D01*
X142164000Y-83176000D02*
X142164000Y-79876000D01*
X143034000Y-83436000D02*
X143034000Y-82186000D01*
X142774000Y-82676000D02*
X142164000Y-82676000D01*
X142774000Y-83176000D02*
X142774000Y-79876000D01*
X133324000Y-79876000D02*
X133324000Y-83186000D01*
X141824000Y-83386000D02*
X141824000Y-83186000D01*
X141524000Y-83286000D02*
X141824000Y-83286000D01*
X141784000Y-83436000D02*
X143034000Y-83436000D01*
X133369000Y-106064000D02*
X133979000Y-106064000D01*
X141524000Y-108024000D02*
X141824000Y-108024000D01*
X141524000Y-107924000D02*
X141824000Y-107924000D01*
X142774000Y-106014000D02*
X142164000Y-106014000D01*
X133324000Y-104514000D02*
X142774000Y-104514000D01*
X141824000Y-108024000D02*
X141824000Y-107824000D01*
X134014000Y-107864000D02*
X134014000Y-104514000D01*
X133369000Y-107364000D02*
X133979000Y-107364000D01*
X141784000Y-108074000D02*
X143034000Y-108074000D01*
X133324000Y-104514000D02*
X133324000Y-107824000D01*
X142774000Y-107314000D02*
X142164000Y-107314000D01*
X141524000Y-107824000D02*
X141524000Y-108024000D01*
X142774000Y-107814000D02*
X142774000Y-104514000D01*
X133324000Y-107824000D02*
X142774000Y-107814000D01*
X142164000Y-107814000D02*
X142164000Y-104514000D01*
X143034000Y-108074000D02*
X143034000Y-106824000D01*
X146268400Y-99840000D02*
X142168400Y-99840000D01*
X147768400Y-93940000D02*
X148768400Y-93940000D01*
X150268400Y-88040000D02*
X154368400Y-88040000D01*
X140468400Y-89840000D02*
X141068400Y-89840000D01*
X154368400Y-99840000D02*
X150268400Y-99840000D01*
X146268400Y-88040000D02*
X142168400Y-88040000D01*
X148268400Y-93440000D02*
X148268400Y-94440000D01*
X154368400Y-97440000D02*
X154368400Y-99840000D01*
X141068400Y-89840000D02*
X140768400Y-90140000D01*
X142168400Y-88040000D02*
X142168400Y-99840000D01*
X154368400Y-88040000D02*
X154368400Y-90440000D01*
X154368400Y-92640000D02*
X154368400Y-95240000D01*
X140768400Y-90140000D02*
X140468400Y-89840000D01*
X151268400Y-93940000D02*
G75*
G03*
X151268400Y-93940000I-3000000J0D01*
G01*
X113408000Y-75054000D02*
X113408000Y-118494000D01*
X131448000Y-75054000D02*
X113408000Y-75054000D01*
X128778000Y-113284000D02*
X131448000Y-113284000D01*
X131448000Y-118494000D02*
X131448000Y-115824000D01*
X116078000Y-77724000D02*
X113408000Y-77724000D01*
X128778000Y-77724000D02*
X131448000Y-77724000D01*
X116078000Y-115824000D02*
X113408000Y-115824000D01*
X116078000Y-115824000D02*
X116078000Y-77724000D01*
X113408000Y-118494000D02*
X131448000Y-118494000D01*
X131448000Y-113284000D02*
X131448000Y-75054000D01*
X128778000Y-113284000D02*
X128778000Y-77724000D01*
X128778000Y-115824000D02*
X131448000Y-115824000D01*
X128778000Y-113284000D02*
X128778000Y-115824000D01*
X101438400Y-90110000D02*
X102768400Y-90110000D01*
X101438400Y-92710000D02*
X101438400Y-102930000D01*
X101438400Y-91440000D02*
X101438400Y-90110000D01*
X104098400Y-92710000D02*
X104098400Y-102930000D01*
X101438400Y-102930000D02*
X104098400Y-102930000D01*
X101438400Y-92710000D02*
X104098400Y-92710000D01*
X145336000Y-113480000D02*
X145336000Y-110040000D01*
X136096000Y-113480000D02*
X145336000Y-113480000D01*
X146026000Y-111760000D02*
X145336000Y-111760000D01*
X135406000Y-111760000D02*
X136096000Y-111760000D01*
X145336000Y-110040000D02*
X136096000Y-110040000D01*
X136096000Y-110040000D02*
X136096000Y-113480000D01*
X156270000Y-107890000D02*
X153610000Y-107890000D01*
X153610000Y-110490000D02*
X153610000Y-107890000D01*
X156270000Y-111760000D02*
X156270000Y-113090000D01*
X156270000Y-110490000D02*
X153610000Y-110490000D01*
X156270000Y-113090000D02*
X154940000Y-113090000D01*
X156270000Y-110490000D02*
X156270000Y-107890000D01*
%LPC*%
D12*
X141224000Y-81026000D03*
D13*
X139974000Y-81026000D03*
X138724000Y-81026000D03*
X137474000Y-81026000D03*
X136224000Y-81026000D03*
X134974000Y-81026000D03*
D12*
X141224000Y-105664000D03*
D13*
X139974000Y-105664000D03*
X138724000Y-105664000D03*
X137474000Y-105664000D03*
X136224000Y-105664000D03*
X134974000Y-105664000D03*
D14*
X140768400Y-91440000D03*
D15*
X140768400Y-96440000D03*
X140768400Y-93940000D03*
D16*
X148268400Y-88340000D03*
X148268400Y-99540000D03*
D15*
X155268400Y-96440000D03*
X155268400Y-91440000D03*
D17*
X130048000Y-114554000D03*
D18*
X130048000Y-112014000D03*
X130048000Y-109474000D03*
X130048000Y-106934000D03*
X130048000Y-104394000D03*
X130048000Y-101854000D03*
X130048000Y-99314000D03*
X130048000Y-96774000D03*
X130048000Y-94234000D03*
X130048000Y-91694000D03*
X130048000Y-89154000D03*
X130048000Y-86614000D03*
X130048000Y-84074000D03*
X130048000Y-81534000D03*
X130048000Y-78994000D03*
X114808000Y-78994000D03*
X114808000Y-81534000D03*
X114808000Y-84074000D03*
X114808000Y-86614000D03*
X114808000Y-89154000D03*
X114808000Y-91694000D03*
X114808000Y-94234000D03*
X114808000Y-96774000D03*
X114808000Y-99314000D03*
X114808000Y-101854000D03*
X114808000Y-104394000D03*
X114808000Y-106934000D03*
X114808000Y-109474000D03*
X114808000Y-112014000D03*
X114808000Y-114554000D03*
D19*
X102768400Y-91440000D03*
D20*
X102768400Y-93980000D03*
X102768400Y-96520000D03*
X102768400Y-99060000D03*
X102768400Y-101600000D03*
D21*
X134366000Y-111760000D03*
D18*
X147066000Y-111760000D03*
D19*
X154940000Y-111760000D03*
D20*
X154940000Y-109220000D03*
M02*
