%FSLAX45Y45*%
G04 Gerber Fmt 4.5, Leading zero omitted, Abs format (unit mm)*
G04 Created by KiCad (PCBNEW (6.0.2)) date 2023-01-26 14:19:44*
%MOMM*%
%LPD*%
G01*
G04 APERTURE LIST*
%TA.AperFunction,Profile*%
%ADD10C,0.100000*%
%TD*%
%ADD11C,0.200000*%
G04 APERTURE END LIST*
D10*
X9906000Y-7493000D02*
X15722600Y-7493000D01*
X15722600Y-7493000D02*
X15722600Y-12039600D01*
X15722600Y-12039600D02*
X9906000Y-12039600D01*
X9906000Y-12039600D02*
X9906000Y-7493000D01*
D11*
X10158619Y-12355076D02*
X10158619Y-12155076D01*
X10206238Y-12155076D01*
X10234810Y-12164600D01*
X10253857Y-12183648D01*
X10263381Y-12202695D01*
X10272905Y-12240790D01*
X10272905Y-12269362D01*
X10263381Y-12307457D01*
X10253857Y-12326505D01*
X10234810Y-12345552D01*
X10206238Y-12355076D01*
X10158619Y-12355076D01*
X10358619Y-12355076D02*
X10358619Y-12221743D01*
X10358619Y-12259838D02*
X10368143Y-12240790D01*
X10377667Y-12231267D01*
X10396714Y-12221743D01*
X10415762Y-12221743D01*
X10482429Y-12355076D02*
X10482429Y-12221743D01*
X10482429Y-12155076D02*
X10472905Y-12164600D01*
X10482429Y-12174124D01*
X10491952Y-12164600D01*
X10482429Y-12155076D01*
X10482429Y-12174124D01*
X10606238Y-12355076D02*
X10587190Y-12345552D01*
X10577667Y-12326505D01*
X10577667Y-12155076D01*
X10711000Y-12355076D02*
X10691952Y-12345552D01*
X10682429Y-12326505D01*
X10682429Y-12155076D01*
X10939571Y-12355076D02*
X10939571Y-12155076D01*
X11006238Y-12297933D01*
X11072905Y-12155076D01*
X11072905Y-12355076D01*
X11253857Y-12355076D02*
X11253857Y-12250314D01*
X11244333Y-12231267D01*
X11225286Y-12221743D01*
X11187190Y-12221743D01*
X11168143Y-12231267D01*
X11253857Y-12345552D02*
X11234809Y-12355076D01*
X11187190Y-12355076D01*
X11168143Y-12345552D01*
X11158619Y-12326505D01*
X11158619Y-12307457D01*
X11168143Y-12288409D01*
X11187190Y-12278886D01*
X11234809Y-12278886D01*
X11253857Y-12269362D01*
X11349095Y-12221743D02*
X11349095Y-12421743D01*
X11349095Y-12231267D02*
X11368143Y-12221743D01*
X11406238Y-12221743D01*
X11425286Y-12231267D01*
X11434809Y-12240790D01*
X11444333Y-12259838D01*
X11444333Y-12316981D01*
X11434809Y-12336028D01*
X11425286Y-12345552D01*
X11406238Y-12355076D01*
X11368143Y-12355076D01*
X11349095Y-12345552D01*
X11530048Y-12336028D02*
X11539571Y-12345552D01*
X11530048Y-12355076D01*
X11520524Y-12345552D01*
X11530048Y-12336028D01*
X11530048Y-12355076D01*
X11530048Y-12231267D02*
X11539571Y-12240790D01*
X11530048Y-12250314D01*
X11520524Y-12240790D01*
X11530048Y-12231267D01*
X11530048Y-12250314D01*
M02*
