%FSLAX45Y45*%
G04 Gerber Fmt 4.5, Leading zero omitted, Abs format (unit mm)*
G04 Created by KiCad (PCBNEW (6.0.2)) date 2023-01-26 14:19:44*
%MOMM*%
%LPD*%
G01*
G04 APERTURE LIST*
%TA.AperFunction,Profile*%
%ADD10C,0.100000*%
%TD*%
%ADD11C,0.200000*%
%ADD12C,0.040000*%
%ADD13C,0.050000*%
%ADD14C,0.080000*%
%ADD15C,0.100000*%
%ADD16C,0.110000*%
%ADD17C,0.150000*%
G04 APERTURE END LIST*
D10*
X9906000Y-7493000D02*
X15722600Y-7493000D01*
X15722600Y-7493000D02*
X15722600Y-12039600D01*
X15722600Y-12039600D02*
X9906000Y-12039600D01*
X9906000Y-12039600D02*
X9906000Y-7493000D01*
D11*
D12*
X11689400Y-10368600D02*
X11729400Y-10408600D01*
X11729400Y-10368600D02*
X11689400Y-10408600D01*
X15194600Y-9301800D02*
X15234600Y-9341800D01*
X15234600Y-9301800D02*
X15194600Y-9341800D01*
D13*
X13522400Y-8102600D02*
G75*
G03*
X13522400Y-8102600I-25000J0D01*
G01*
X13522400Y-10566400D02*
G75*
G03*
X13522400Y-10566400I-25000J0D01*
G01*
X13647400Y-8102600D02*
G75*
G03*
X13647400Y-8102600I-25000J0D01*
G01*
X13647400Y-10566400D02*
G75*
G03*
X13647400Y-10566400I-25000J0D01*
G01*
X13772400Y-8102600D02*
G75*
G03*
X13772400Y-8102600I-25000J0D01*
G01*
X13772400Y-10566400D02*
G75*
G03*
X13772400Y-10566400I-25000J0D01*
G01*
X13897400Y-8102600D02*
G75*
G03*
X13897400Y-8102600I-25000J0D01*
G01*
X13897400Y-10566400D02*
G75*
G03*
X13897400Y-10566400I-25000J0D01*
G01*
X14022400Y-8102600D02*
G75*
G03*
X14022400Y-8102600I-25000J0D01*
G01*
X14022400Y-10566400D02*
G75*
G03*
X14022400Y-10566400I-25000J0D01*
G01*
X14147400Y-8102600D02*
G75*
G03*
X14147400Y-8102600I-25000J0D01*
G01*
X14147400Y-10566400D02*
G75*
G03*
X14147400Y-10566400I-25000J0D01*
G01*
D14*
X13436600Y-11136000D02*
X13436600Y-11216000D01*
X13396600Y-11176000D02*
X13476600Y-11176000D01*
X14706600Y-11136000D02*
X14706600Y-11216000D01*
X14666600Y-11176000D02*
X14746600Y-11176000D01*
D15*
X10312196Y-9179356D02*
X10312196Y-9108644D01*
X10241484Y-9108644D01*
X10241484Y-9179356D01*
X10312196Y-9179356D01*
X10312196Y-9433356D02*
X10312196Y-9362644D01*
X10241484Y-9362644D01*
X10241484Y-9433356D01*
X10312196Y-9433356D01*
X10312196Y-9687356D02*
X10312196Y-9616644D01*
X10241484Y-9616644D01*
X10241484Y-9687356D01*
X10312196Y-9687356D01*
X10312196Y-9941356D02*
X10312196Y-9870644D01*
X10241484Y-9870644D01*
X10241484Y-9941356D01*
X10312196Y-9941356D01*
X10312196Y-10195356D02*
X10312196Y-10124644D01*
X10241484Y-10124644D01*
X10241484Y-10195356D01*
X10312196Y-10195356D01*
X11516156Y-7934756D02*
X11516156Y-7864044D01*
X11445444Y-7864044D01*
X11445444Y-7934756D01*
X11516156Y-7934756D01*
X11516156Y-8188756D02*
X11516156Y-8118044D01*
X11445444Y-8118044D01*
X11445444Y-8188756D01*
X11516156Y-8188756D01*
X11516156Y-8442756D02*
X11516156Y-8372044D01*
X11445444Y-8372044D01*
X11445444Y-8442756D01*
X11516156Y-8442756D01*
X11516156Y-8696756D02*
X11516156Y-8626044D01*
X11445444Y-8626044D01*
X11445444Y-8696756D01*
X11516156Y-8696756D01*
X11516156Y-8950756D02*
X11516156Y-8880044D01*
X11445444Y-8880044D01*
X11445444Y-8950756D01*
X11516156Y-8950756D01*
X11516156Y-9204756D02*
X11516156Y-9134044D01*
X11445444Y-9134044D01*
X11445444Y-9204756D01*
X11516156Y-9204756D01*
X11516156Y-9458756D02*
X11516156Y-9388044D01*
X11445444Y-9388044D01*
X11445444Y-9458756D01*
X11516156Y-9458756D01*
X11516156Y-9712756D02*
X11516156Y-9642044D01*
X11445444Y-9642044D01*
X11445444Y-9712756D01*
X11516156Y-9712756D01*
X11516156Y-9966756D02*
X11516156Y-9896044D01*
X11445444Y-9896044D01*
X11445444Y-9966756D01*
X11516156Y-9966756D01*
X11516156Y-10220756D02*
X11516156Y-10150044D01*
X11445444Y-10150044D01*
X11445444Y-10220756D01*
X11516156Y-10220756D01*
X11516156Y-10474756D02*
X11516156Y-10404044D01*
X11445444Y-10404044D01*
X11445444Y-10474756D01*
X11516156Y-10474756D01*
X11516156Y-10728756D02*
X11516156Y-10658044D01*
X11445444Y-10658044D01*
X11445444Y-10728756D01*
X11516156Y-10728756D01*
X11516156Y-10982756D02*
X11516156Y-10912044D01*
X11445444Y-10912044D01*
X11445444Y-10982756D01*
X11516156Y-10982756D01*
X11516156Y-11236756D02*
X11516156Y-11166044D01*
X11445444Y-11166044D01*
X11445444Y-11236756D01*
X11516156Y-11236756D01*
X11516156Y-11490756D02*
X11516156Y-11420044D01*
X11445444Y-11420044D01*
X11445444Y-11490756D01*
X11516156Y-11490756D01*
X13040156Y-7934756D02*
X13040156Y-7864044D01*
X12969444Y-7864044D01*
X12969444Y-7934756D01*
X13040156Y-7934756D01*
X13040156Y-8188756D02*
X13040156Y-8118044D01*
X12969444Y-8118044D01*
X12969444Y-8188756D01*
X13040156Y-8188756D01*
X13040156Y-8442756D02*
X13040156Y-8372044D01*
X12969444Y-8372044D01*
X12969444Y-8442756D01*
X13040156Y-8442756D01*
X13040156Y-8696756D02*
X13040156Y-8626044D01*
X12969444Y-8626044D01*
X12969444Y-8696756D01*
X13040156Y-8696756D01*
X13040156Y-8950756D02*
X13040156Y-8880044D01*
X12969444Y-8880044D01*
X12969444Y-8950756D01*
X13040156Y-8950756D01*
X13040156Y-9204756D02*
X13040156Y-9134044D01*
X12969444Y-9134044D01*
X12969444Y-9204756D01*
X13040156Y-9204756D01*
X13040156Y-9458756D02*
X13040156Y-9388044D01*
X12969444Y-9388044D01*
X12969444Y-9458756D01*
X13040156Y-9458756D01*
X13040156Y-9712756D02*
X13040156Y-9642044D01*
X12969444Y-9642044D01*
X12969444Y-9712756D01*
X13040156Y-9712756D01*
X13040156Y-9966756D02*
X13040156Y-9896044D01*
X12969444Y-9896044D01*
X12969444Y-9966756D01*
X13040156Y-9966756D01*
X13040156Y-10220756D02*
X13040156Y-10150044D01*
X12969444Y-10150044D01*
X12969444Y-10220756D01*
X13040156Y-10220756D01*
X13040156Y-10474756D02*
X13040156Y-10404044D01*
X12969444Y-10404044D01*
X12969444Y-10474756D01*
X13040156Y-10474756D01*
X13040156Y-10728756D02*
X13040156Y-10658044D01*
X12969444Y-10658044D01*
X12969444Y-10728756D01*
X13040156Y-10728756D01*
X13040156Y-10982756D02*
X13040156Y-10912044D01*
X12969444Y-10912044D01*
X12969444Y-10982756D01*
X13040156Y-10982756D01*
X13040156Y-11236756D02*
X13040156Y-11166044D01*
X12969444Y-11166044D01*
X12969444Y-11236756D01*
X13040156Y-11236756D01*
X13040156Y-11490756D02*
X13040156Y-11420044D01*
X12969444Y-11420044D01*
X12969444Y-11490756D01*
X13040156Y-11490756D01*
X15529356Y-10957356D02*
X15529356Y-10886644D01*
X15458644Y-10886644D01*
X15458644Y-10957356D01*
X15529356Y-10957356D01*
X15529356Y-11211356D02*
X15529356Y-11140644D01*
X15458644Y-11140644D01*
X15458644Y-11211356D01*
X15529356Y-11211356D01*
D16*
X14076840Y-9199000D02*
X14131840Y-9144000D01*
X14076840Y-9089000D01*
X14021840Y-9144000D01*
X14076840Y-9199000D01*
X14076840Y-9449000D02*
X14131840Y-9394000D01*
X14076840Y-9339000D01*
X14021840Y-9394000D01*
X14076840Y-9449000D01*
X14076840Y-9699000D02*
X14131840Y-9644000D01*
X14076840Y-9589000D01*
X14021840Y-9644000D01*
X14076840Y-9699000D01*
X15526840Y-9199000D02*
X15581840Y-9144000D01*
X15526840Y-9089000D01*
X15471840Y-9144000D01*
X15526840Y-9199000D01*
X15526840Y-9699000D02*
X15581840Y-9644000D01*
X15526840Y-9589000D01*
X15471840Y-9644000D01*
X15526840Y-9699000D01*
D17*
X14751840Y-8759000D02*
X14901840Y-8909000D01*
X14901840Y-8759000D02*
X14751840Y-8909000D01*
X14901840Y-8834000D02*
G75*
G03*
X14901840Y-8834000I-75000J0D01*
G01*
D11*
X14761840Y-8899000D02*
X14891840Y-8899000D01*
X14761840Y-8769000D02*
X14891840Y-8769000D01*
X14891840Y-8899000D02*
G75*
G03*
X14891840Y-8769000I0J65000D01*
G01*
X14761840Y-8769000D02*
G75*
G03*
X14761840Y-8899000I0J-65000D01*
G01*
D17*
X14751840Y-9879000D02*
X14901840Y-10029000D01*
X14901840Y-9879000D02*
X14751840Y-10029000D01*
X14901840Y-9954000D02*
G75*
G03*
X14901840Y-9954000I-75000J0D01*
G01*
D11*
X14761840Y-10019000D02*
X14891840Y-10019000D01*
X14761840Y-9889000D02*
X14891840Y-9889000D01*
X14891840Y-10019000D02*
G75*
G03*
X14891840Y-9889000I0J65000D01*
G01*
X14761840Y-9889000D02*
G75*
G03*
X14761840Y-10019000I0J-65000D01*
G01*
X10158619Y-12355076D02*
X10158619Y-12155076D01*
X10206238Y-12155076D01*
X10234810Y-12164600D01*
X10253857Y-12183648D01*
X10263381Y-12202695D01*
X10272905Y-12240790D01*
X10272905Y-12269362D01*
X10263381Y-12307457D01*
X10253857Y-12326505D01*
X10234810Y-12345552D01*
X10206238Y-12355076D01*
X10158619Y-12355076D01*
X10358619Y-12355076D02*
X10358619Y-12221743D01*
X10358619Y-12259838D02*
X10368143Y-12240790D01*
X10377667Y-12231267D01*
X10396714Y-12221743D01*
X10415762Y-12221743D01*
X10482429Y-12355076D02*
X10482429Y-12221743D01*
X10482429Y-12155076D02*
X10472905Y-12164600D01*
X10482429Y-12174124D01*
X10491952Y-12164600D01*
X10482429Y-12155076D01*
X10482429Y-12174124D01*
X10606238Y-12355076D02*
X10587190Y-12345552D01*
X10577667Y-12326505D01*
X10577667Y-12155076D01*
X10711000Y-12355076D02*
X10691952Y-12345552D01*
X10682429Y-12326505D01*
X10682429Y-12155076D01*
X10939571Y-12355076D02*
X10939571Y-12155076D01*
X11006238Y-12297933D01*
X11072905Y-12155076D01*
X11072905Y-12355076D01*
X11253857Y-12355076D02*
X11253857Y-12250314D01*
X11244333Y-12231267D01*
X11225286Y-12221743D01*
X11187190Y-12221743D01*
X11168143Y-12231267D01*
X11253857Y-12345552D02*
X11234809Y-12355076D01*
X11187190Y-12355076D01*
X11168143Y-12345552D01*
X11158619Y-12326505D01*
X11158619Y-12307457D01*
X11168143Y-12288409D01*
X11187190Y-12278886D01*
X11234809Y-12278886D01*
X11253857Y-12269362D01*
X11349095Y-12221743D02*
X11349095Y-12421743D01*
X11349095Y-12231267D02*
X11368143Y-12221743D01*
X11406238Y-12221743D01*
X11425286Y-12231267D01*
X11434809Y-12240790D01*
X11444333Y-12259838D01*
X11444333Y-12316981D01*
X11434809Y-12336028D01*
X11425286Y-12345552D01*
X11406238Y-12355076D01*
X11368143Y-12355076D01*
X11349095Y-12345552D01*
X11530048Y-12336028D02*
X11539571Y-12345552D01*
X11530048Y-12355076D01*
X11520524Y-12345552D01*
X11530048Y-12336028D01*
X11530048Y-12355076D01*
X11530048Y-12231267D02*
X11539571Y-12240790D01*
X11530048Y-12250314D01*
X11520524Y-12240790D01*
X11530048Y-12231267D01*
X11530048Y-12250314D01*
D12*
X9861000Y-12664600D02*
X9901000Y-12704600D01*
X9901000Y-12664600D02*
X9861000Y-12704600D01*
D11*
X10196714Y-12575076D02*
X10215762Y-12575076D01*
X10234810Y-12584600D01*
X10244333Y-12594124D01*
X10253857Y-12613171D01*
X10263381Y-12651267D01*
X10263381Y-12698886D01*
X10253857Y-12736981D01*
X10244333Y-12756028D01*
X10234810Y-12765552D01*
X10215762Y-12775076D01*
X10196714Y-12775076D01*
X10177667Y-12765552D01*
X10168143Y-12756028D01*
X10158619Y-12736981D01*
X10149095Y-12698886D01*
X10149095Y-12651267D01*
X10158619Y-12613171D01*
X10168143Y-12594124D01*
X10177667Y-12584600D01*
X10196714Y-12575076D01*
X10349095Y-12756028D02*
X10358619Y-12765552D01*
X10349095Y-12775076D01*
X10339571Y-12765552D01*
X10349095Y-12756028D01*
X10349095Y-12775076D01*
X10530048Y-12641743D02*
X10530048Y-12775076D01*
X10482429Y-12565552D02*
X10434810Y-12708409D01*
X10558619Y-12708409D01*
X10672905Y-12575076D02*
X10691952Y-12575076D01*
X10711000Y-12584600D01*
X10720524Y-12594124D01*
X10730048Y-12613171D01*
X10739571Y-12651267D01*
X10739571Y-12698886D01*
X10730048Y-12736981D01*
X10720524Y-12756028D01*
X10711000Y-12765552D01*
X10691952Y-12775076D01*
X10672905Y-12775076D01*
X10653857Y-12765552D01*
X10644333Y-12756028D01*
X10634810Y-12736981D01*
X10625286Y-12698886D01*
X10625286Y-12651267D01*
X10634810Y-12613171D01*
X10644333Y-12594124D01*
X10653857Y-12584600D01*
X10672905Y-12575076D01*
X10863381Y-12575076D02*
X10882429Y-12575076D01*
X10901476Y-12584600D01*
X10911000Y-12594124D01*
X10920524Y-12613171D01*
X10930048Y-12651267D01*
X10930048Y-12698886D01*
X10920524Y-12736981D01*
X10911000Y-12756028D01*
X10901476Y-12765552D01*
X10882429Y-12775076D01*
X10863381Y-12775076D01*
X10844333Y-12765552D01*
X10834810Y-12756028D01*
X10825286Y-12736981D01*
X10815762Y-12698886D01*
X10815762Y-12651267D01*
X10825286Y-12613171D01*
X10834810Y-12594124D01*
X10844333Y-12584600D01*
X10863381Y-12575076D01*
X11015762Y-12775076D02*
X11015762Y-12641743D01*
X11015762Y-12660790D02*
X11025286Y-12651267D01*
X11044333Y-12641743D01*
X11072905Y-12641743D01*
X11091952Y-12651267D01*
X11101476Y-12670314D01*
X11101476Y-12775076D01*
X11101476Y-12670314D02*
X11111000Y-12651267D01*
X11130048Y-12641743D01*
X11158619Y-12641743D01*
X11177667Y-12651267D01*
X11187190Y-12670314D01*
X11187190Y-12775076D01*
X11282428Y-12775076D02*
X11282428Y-12641743D01*
X11282428Y-12660790D02*
X11291952Y-12651267D01*
X11311000Y-12641743D01*
X11339571Y-12641743D01*
X11358619Y-12651267D01*
X11368143Y-12670314D01*
X11368143Y-12775076D01*
X11368143Y-12670314D02*
X11377667Y-12651267D01*
X11396714Y-12641743D01*
X11425286Y-12641743D01*
X11444333Y-12651267D01*
X11453857Y-12670314D01*
X11453857Y-12775076D01*
X11844333Y-12565552D02*
X11672905Y-12822695D01*
X12101476Y-12575076D02*
X12120524Y-12575076D01*
X12139571Y-12584600D01*
X12149095Y-12594124D01*
X12158619Y-12613171D01*
X12168143Y-12651267D01*
X12168143Y-12698886D01*
X12158619Y-12736981D01*
X12149095Y-12756028D01*
X12139571Y-12765552D01*
X12120524Y-12775076D01*
X12101476Y-12775076D01*
X12082428Y-12765552D01*
X12072905Y-12756028D01*
X12063381Y-12736981D01*
X12053857Y-12698886D01*
X12053857Y-12651267D01*
X12063381Y-12613171D01*
X12072905Y-12594124D01*
X12082428Y-12584600D01*
X12101476Y-12575076D01*
X12253857Y-12756028D02*
X12263381Y-12765552D01*
X12253857Y-12775076D01*
X12244333Y-12765552D01*
X12253857Y-12756028D01*
X12253857Y-12775076D01*
X12387190Y-12575076D02*
X12406238Y-12575076D01*
X12425286Y-12584600D01*
X12434809Y-12594124D01*
X12444333Y-12613171D01*
X12453857Y-12651267D01*
X12453857Y-12698886D01*
X12444333Y-12736981D01*
X12434809Y-12756028D01*
X12425286Y-12765552D01*
X12406238Y-12775076D01*
X12387190Y-12775076D01*
X12368143Y-12765552D01*
X12358619Y-12756028D01*
X12349095Y-12736981D01*
X12339571Y-12698886D01*
X12339571Y-12651267D01*
X12349095Y-12613171D01*
X12358619Y-12594124D01*
X12368143Y-12584600D01*
X12387190Y-12575076D01*
X12644333Y-12775076D02*
X12530048Y-12775076D01*
X12587190Y-12775076D02*
X12587190Y-12575076D01*
X12568143Y-12603648D01*
X12549095Y-12622695D01*
X12530048Y-12632219D01*
X12825286Y-12575076D02*
X12730048Y-12575076D01*
X12720524Y-12670314D01*
X12730048Y-12660790D01*
X12749095Y-12651267D01*
X12796714Y-12651267D01*
X12815762Y-12660790D01*
X12825286Y-12670314D01*
X12834809Y-12689362D01*
X12834809Y-12736981D01*
X12825286Y-12756028D01*
X12815762Y-12765552D01*
X12796714Y-12775076D01*
X12749095Y-12775076D01*
X12730048Y-12765552D01*
X12720524Y-12756028D01*
X12901476Y-12575076D02*
X13034809Y-12575076D01*
X12949095Y-12775076D01*
X13101476Y-12575076D02*
X13101476Y-12613171D01*
X13177667Y-12575076D02*
X13177667Y-12613171D01*
X13472905Y-12851267D02*
X13463381Y-12841743D01*
X13444333Y-12813171D01*
X13434809Y-12794124D01*
X13425286Y-12765552D01*
X13415762Y-12717933D01*
X13415762Y-12679838D01*
X13425286Y-12632219D01*
X13434809Y-12603648D01*
X13444333Y-12584600D01*
X13463381Y-12556028D01*
X13472905Y-12546505D01*
X13539571Y-12594124D02*
X13549095Y-12584600D01*
X13568143Y-12575076D01*
X13615762Y-12575076D01*
X13634809Y-12584600D01*
X13644333Y-12594124D01*
X13653857Y-12613171D01*
X13653857Y-12632219D01*
X13644333Y-12660790D01*
X13530048Y-12775076D01*
X13653857Y-12775076D01*
X13891952Y-12775076D02*
X13891952Y-12575076D01*
X13977667Y-12775076D02*
X13977667Y-12670314D01*
X13968143Y-12651267D01*
X13949095Y-12641743D01*
X13920524Y-12641743D01*
X13901476Y-12651267D01*
X13891952Y-12660790D01*
X14101476Y-12775076D02*
X14082428Y-12765552D01*
X14072905Y-12756028D01*
X14063381Y-12736981D01*
X14063381Y-12679838D01*
X14072905Y-12660790D01*
X14082428Y-12651267D01*
X14101476Y-12641743D01*
X14130048Y-12641743D01*
X14149095Y-12651267D01*
X14158619Y-12660790D01*
X14168143Y-12679838D01*
X14168143Y-12736981D01*
X14158619Y-12756028D01*
X14149095Y-12765552D01*
X14130048Y-12775076D01*
X14101476Y-12775076D01*
X14282428Y-12775076D02*
X14263381Y-12765552D01*
X14253857Y-12746505D01*
X14253857Y-12575076D01*
X14434809Y-12765552D02*
X14415762Y-12775076D01*
X14377667Y-12775076D01*
X14358619Y-12765552D01*
X14349095Y-12746505D01*
X14349095Y-12670314D01*
X14358619Y-12651267D01*
X14377667Y-12641743D01*
X14415762Y-12641743D01*
X14434809Y-12651267D01*
X14444333Y-12670314D01*
X14444333Y-12689362D01*
X14349095Y-12708409D01*
X14520524Y-12765552D02*
X14539571Y-12775076D01*
X14577667Y-12775076D01*
X14596714Y-12765552D01*
X14606238Y-12746505D01*
X14606238Y-12736981D01*
X14596714Y-12717933D01*
X14577667Y-12708409D01*
X14549095Y-12708409D01*
X14530048Y-12698886D01*
X14520524Y-12679838D01*
X14520524Y-12670314D01*
X14530048Y-12651267D01*
X14549095Y-12641743D01*
X14577667Y-12641743D01*
X14596714Y-12651267D01*
X14672905Y-12851267D02*
X14682428Y-12841743D01*
X14701476Y-12813171D01*
X14711000Y-12794124D01*
X14720524Y-12765552D01*
X14730048Y-12717933D01*
X14730048Y-12679838D01*
X14720524Y-12632219D01*
X14711000Y-12603648D01*
X14701476Y-12584600D01*
X14682428Y-12556028D01*
X14672905Y-12546505D01*
D13*
X9901000Y-12948600D02*
G75*
G03*
X9901000Y-12948600I-25000J0D01*
G01*
D11*
X10196714Y-12839076D02*
X10215762Y-12839076D01*
X10234810Y-12848600D01*
X10244333Y-12858124D01*
X10253857Y-12877171D01*
X10263381Y-12915267D01*
X10263381Y-12962886D01*
X10253857Y-13000981D01*
X10244333Y-13020028D01*
X10234810Y-13029552D01*
X10215762Y-13039076D01*
X10196714Y-13039076D01*
X10177667Y-13029552D01*
X10168143Y-13020028D01*
X10158619Y-13000981D01*
X10149095Y-12962886D01*
X10149095Y-12915267D01*
X10158619Y-12877171D01*
X10168143Y-12858124D01*
X10177667Y-12848600D01*
X10196714Y-12839076D01*
X10349095Y-13020028D02*
X10358619Y-13029552D01*
X10349095Y-13039076D01*
X10339571Y-13029552D01*
X10349095Y-13020028D01*
X10349095Y-13039076D01*
X10539571Y-12839076D02*
X10444333Y-12839076D01*
X10434810Y-12934314D01*
X10444333Y-12924790D01*
X10463381Y-12915267D01*
X10511000Y-12915267D01*
X10530048Y-12924790D01*
X10539571Y-12934314D01*
X10549095Y-12953362D01*
X10549095Y-13000981D01*
X10539571Y-13020028D01*
X10530048Y-13029552D01*
X10511000Y-13039076D01*
X10463381Y-13039076D01*
X10444333Y-13029552D01*
X10434810Y-13020028D01*
X10672905Y-12839076D02*
X10691952Y-12839076D01*
X10711000Y-12848600D01*
X10720524Y-12858124D01*
X10730048Y-12877171D01*
X10739571Y-12915267D01*
X10739571Y-12962886D01*
X10730048Y-13000981D01*
X10720524Y-13020028D01*
X10711000Y-13029552D01*
X10691952Y-13039076D01*
X10672905Y-13039076D01*
X10653857Y-13029552D01*
X10644333Y-13020028D01*
X10634810Y-13000981D01*
X10625286Y-12962886D01*
X10625286Y-12915267D01*
X10634810Y-12877171D01*
X10644333Y-12858124D01*
X10653857Y-12848600D01*
X10672905Y-12839076D01*
X10863381Y-12839076D02*
X10882429Y-12839076D01*
X10901476Y-12848600D01*
X10911000Y-12858124D01*
X10920524Y-12877171D01*
X10930048Y-12915267D01*
X10930048Y-12962886D01*
X10920524Y-13000981D01*
X10911000Y-13020028D01*
X10901476Y-13029552D01*
X10882429Y-13039076D01*
X10863381Y-13039076D01*
X10844333Y-13029552D01*
X10834810Y-13020028D01*
X10825286Y-13000981D01*
X10815762Y-12962886D01*
X10815762Y-12915267D01*
X10825286Y-12877171D01*
X10834810Y-12858124D01*
X10844333Y-12848600D01*
X10863381Y-12839076D01*
X11015762Y-13039076D02*
X11015762Y-12905743D01*
X11015762Y-12924790D02*
X11025286Y-12915267D01*
X11044333Y-12905743D01*
X11072905Y-12905743D01*
X11091952Y-12915267D01*
X11101476Y-12934314D01*
X11101476Y-13039076D01*
X11101476Y-12934314D02*
X11111000Y-12915267D01*
X11130048Y-12905743D01*
X11158619Y-12905743D01*
X11177667Y-12915267D01*
X11187190Y-12934314D01*
X11187190Y-13039076D01*
X11282428Y-13039076D02*
X11282428Y-12905743D01*
X11282428Y-12924790D02*
X11291952Y-12915267D01*
X11311000Y-12905743D01*
X11339571Y-12905743D01*
X11358619Y-12915267D01*
X11368143Y-12934314D01*
X11368143Y-13039076D01*
X11368143Y-12934314D02*
X11377667Y-12915267D01*
X11396714Y-12905743D01*
X11425286Y-12905743D01*
X11444333Y-12915267D01*
X11453857Y-12934314D01*
X11453857Y-13039076D01*
X11844333Y-12829552D02*
X11672905Y-13086695D01*
X12101476Y-12839076D02*
X12120524Y-12839076D01*
X12139571Y-12848600D01*
X12149095Y-12858124D01*
X12158619Y-12877171D01*
X12168143Y-12915267D01*
X12168143Y-12962886D01*
X12158619Y-13000981D01*
X12149095Y-13020028D01*
X12139571Y-13029552D01*
X12120524Y-13039076D01*
X12101476Y-13039076D01*
X12082428Y-13029552D01*
X12072905Y-13020028D01*
X12063381Y-13000981D01*
X12053857Y-12962886D01*
X12053857Y-12915267D01*
X12063381Y-12877171D01*
X12072905Y-12858124D01*
X12082428Y-12848600D01*
X12101476Y-12839076D01*
X12253857Y-13020028D02*
X12263381Y-13029552D01*
X12253857Y-13039076D01*
X12244333Y-13029552D01*
X12253857Y-13020028D01*
X12253857Y-13039076D01*
X12387190Y-12839076D02*
X12406238Y-12839076D01*
X12425286Y-12848600D01*
X12434809Y-12858124D01*
X12444333Y-12877171D01*
X12453857Y-12915267D01*
X12453857Y-12962886D01*
X12444333Y-13000981D01*
X12434809Y-13020028D01*
X12425286Y-13029552D01*
X12406238Y-13039076D01*
X12387190Y-13039076D01*
X12368143Y-13029552D01*
X12358619Y-13020028D01*
X12349095Y-13000981D01*
X12339571Y-12962886D01*
X12339571Y-12915267D01*
X12349095Y-12877171D01*
X12358619Y-12858124D01*
X12368143Y-12848600D01*
X12387190Y-12839076D01*
X12644333Y-13039076D02*
X12530048Y-13039076D01*
X12587190Y-13039076D02*
X12587190Y-12839076D01*
X12568143Y-12867648D01*
X12549095Y-12886695D01*
X12530048Y-12896219D01*
X12739571Y-13039076D02*
X12777667Y-13039076D01*
X12796714Y-13029552D01*
X12806238Y-13020028D01*
X12825286Y-12991457D01*
X12834809Y-12953362D01*
X12834809Y-12877171D01*
X12825286Y-12858124D01*
X12815762Y-12848600D01*
X12796714Y-12839076D01*
X12758619Y-12839076D01*
X12739571Y-12848600D01*
X12730048Y-12858124D01*
X12720524Y-12877171D01*
X12720524Y-12924790D01*
X12730048Y-12943838D01*
X12739571Y-12953362D01*
X12758619Y-12962886D01*
X12796714Y-12962886D01*
X12815762Y-12953362D01*
X12825286Y-12943838D01*
X12834809Y-12924790D01*
X12901476Y-12839076D02*
X13034809Y-12839076D01*
X12949095Y-13039076D01*
X13101476Y-12839076D02*
X13101476Y-12877171D01*
X13177667Y-12839076D02*
X13177667Y-12877171D01*
X13472905Y-13115267D02*
X13463381Y-13105743D01*
X13444333Y-13077171D01*
X13434809Y-13058124D01*
X13425286Y-13029552D01*
X13415762Y-12981933D01*
X13415762Y-12943838D01*
X13425286Y-12896219D01*
X13434809Y-12867648D01*
X13444333Y-12848600D01*
X13463381Y-12820028D01*
X13472905Y-12810505D01*
X13653857Y-13039076D02*
X13539571Y-13039076D01*
X13596714Y-13039076D02*
X13596714Y-12839076D01*
X13577667Y-12867648D01*
X13558619Y-12886695D01*
X13539571Y-12896219D01*
X13730048Y-12858124D02*
X13739571Y-12848600D01*
X13758619Y-12839076D01*
X13806238Y-12839076D01*
X13825286Y-12848600D01*
X13834809Y-12858124D01*
X13844333Y-12877171D01*
X13844333Y-12896219D01*
X13834809Y-12924790D01*
X13720524Y-13039076D01*
X13844333Y-13039076D01*
X14082428Y-13039076D02*
X14082428Y-12839076D01*
X14168143Y-13039076D02*
X14168143Y-12934314D01*
X14158619Y-12915267D01*
X14139571Y-12905743D01*
X14111000Y-12905743D01*
X14091952Y-12915267D01*
X14082428Y-12924790D01*
X14291952Y-13039076D02*
X14272905Y-13029552D01*
X14263381Y-13020028D01*
X14253857Y-13000981D01*
X14253857Y-12943838D01*
X14263381Y-12924790D01*
X14272905Y-12915267D01*
X14291952Y-12905743D01*
X14320524Y-12905743D01*
X14339571Y-12915267D01*
X14349095Y-12924790D01*
X14358619Y-12943838D01*
X14358619Y-13000981D01*
X14349095Y-13020028D01*
X14339571Y-13029552D01*
X14320524Y-13039076D01*
X14291952Y-13039076D01*
X14472905Y-13039076D02*
X14453857Y-13029552D01*
X14444333Y-13010505D01*
X14444333Y-12839076D01*
X14625286Y-13029552D02*
X14606238Y-13039076D01*
X14568143Y-13039076D01*
X14549095Y-13029552D01*
X14539571Y-13010505D01*
X14539571Y-12934314D01*
X14549095Y-12915267D01*
X14568143Y-12905743D01*
X14606238Y-12905743D01*
X14625286Y-12915267D01*
X14634809Y-12934314D01*
X14634809Y-12953362D01*
X14539571Y-12972409D01*
X14711000Y-13029552D02*
X14730048Y-13039076D01*
X14768143Y-13039076D01*
X14787190Y-13029552D01*
X14796714Y-13010505D01*
X14796714Y-13000981D01*
X14787190Y-12981933D01*
X14768143Y-12972409D01*
X14739571Y-12972409D01*
X14720524Y-12962886D01*
X14711000Y-12943838D01*
X14711000Y-12934314D01*
X14720524Y-12915267D01*
X14739571Y-12905743D01*
X14768143Y-12905743D01*
X14787190Y-12915267D01*
X14863381Y-13115267D02*
X14872905Y-13105743D01*
X14891952Y-13077171D01*
X14901476Y-13058124D01*
X14911000Y-13029552D01*
X14920524Y-12981933D01*
X14920524Y-12943838D01*
X14911000Y-12896219D01*
X14901476Y-12867648D01*
X14891952Y-12848600D01*
X14872905Y-12820028D01*
X14863381Y-12810505D01*
D14*
X9861000Y-13172600D02*
X9861000Y-13252600D01*
X9821000Y-13212600D02*
X9901000Y-13212600D01*
D11*
X10196714Y-13103076D02*
X10215762Y-13103076D01*
X10234810Y-13112600D01*
X10244333Y-13122124D01*
X10253857Y-13141171D01*
X10263381Y-13179267D01*
X10263381Y-13226886D01*
X10253857Y-13264981D01*
X10244333Y-13284028D01*
X10234810Y-13293552D01*
X10215762Y-13303076D01*
X10196714Y-13303076D01*
X10177667Y-13293552D01*
X10168143Y-13284028D01*
X10158619Y-13264981D01*
X10149095Y-13226886D01*
X10149095Y-13179267D01*
X10158619Y-13141171D01*
X10168143Y-13122124D01*
X10177667Y-13112600D01*
X10196714Y-13103076D01*
X10349095Y-13284028D02*
X10358619Y-13293552D01*
X10349095Y-13303076D01*
X10339571Y-13293552D01*
X10349095Y-13284028D01*
X10349095Y-13303076D01*
X10472905Y-13188790D02*
X10453857Y-13179267D01*
X10444333Y-13169743D01*
X10434810Y-13150695D01*
X10434810Y-13141171D01*
X10444333Y-13122124D01*
X10453857Y-13112600D01*
X10472905Y-13103076D01*
X10511000Y-13103076D01*
X10530048Y-13112600D01*
X10539571Y-13122124D01*
X10549095Y-13141171D01*
X10549095Y-13150695D01*
X10539571Y-13169743D01*
X10530048Y-13179267D01*
X10511000Y-13188790D01*
X10472905Y-13188790D01*
X10453857Y-13198314D01*
X10444333Y-13207838D01*
X10434810Y-13226886D01*
X10434810Y-13264981D01*
X10444333Y-13284028D01*
X10453857Y-13293552D01*
X10472905Y-13303076D01*
X10511000Y-13303076D01*
X10530048Y-13293552D01*
X10539571Y-13284028D01*
X10549095Y-13264981D01*
X10549095Y-13226886D01*
X10539571Y-13207838D01*
X10530048Y-13198314D01*
X10511000Y-13188790D01*
X10672905Y-13103076D02*
X10691952Y-13103076D01*
X10711000Y-13112600D01*
X10720524Y-13122124D01*
X10730048Y-13141171D01*
X10739571Y-13179267D01*
X10739571Y-13226886D01*
X10730048Y-13264981D01*
X10720524Y-13284028D01*
X10711000Y-13293552D01*
X10691952Y-13303076D01*
X10672905Y-13303076D01*
X10653857Y-13293552D01*
X10644333Y-13284028D01*
X10634810Y-13264981D01*
X10625286Y-13226886D01*
X10625286Y-13179267D01*
X10634810Y-13141171D01*
X10644333Y-13122124D01*
X10653857Y-13112600D01*
X10672905Y-13103076D01*
X10863381Y-13103076D02*
X10882429Y-13103076D01*
X10901476Y-13112600D01*
X10911000Y-13122124D01*
X10920524Y-13141171D01*
X10930048Y-13179267D01*
X10930048Y-13226886D01*
X10920524Y-13264981D01*
X10911000Y-13284028D01*
X10901476Y-13293552D01*
X10882429Y-13303076D01*
X10863381Y-13303076D01*
X10844333Y-13293552D01*
X10834810Y-13284028D01*
X10825286Y-13264981D01*
X10815762Y-13226886D01*
X10815762Y-13179267D01*
X10825286Y-13141171D01*
X10834810Y-13122124D01*
X10844333Y-13112600D01*
X10863381Y-13103076D01*
X11015762Y-13303076D02*
X11015762Y-13169743D01*
X11015762Y-13188790D02*
X11025286Y-13179267D01*
X11044333Y-13169743D01*
X11072905Y-13169743D01*
X11091952Y-13179267D01*
X11101476Y-13198314D01*
X11101476Y-13303076D01*
X11101476Y-13198314D02*
X11111000Y-13179267D01*
X11130048Y-13169743D01*
X11158619Y-13169743D01*
X11177667Y-13179267D01*
X11187190Y-13198314D01*
X11187190Y-13303076D01*
X11282428Y-13303076D02*
X11282428Y-13169743D01*
X11282428Y-13188790D02*
X11291952Y-13179267D01*
X11311000Y-13169743D01*
X11339571Y-13169743D01*
X11358619Y-13179267D01*
X11368143Y-13198314D01*
X11368143Y-13303076D01*
X11368143Y-13198314D02*
X11377667Y-13179267D01*
X11396714Y-13169743D01*
X11425286Y-13169743D01*
X11444333Y-13179267D01*
X11453857Y-13198314D01*
X11453857Y-13303076D01*
X11844333Y-13093552D02*
X11672905Y-13350695D01*
X12101476Y-13103076D02*
X12120524Y-13103076D01*
X12139571Y-13112600D01*
X12149095Y-13122124D01*
X12158619Y-13141171D01*
X12168143Y-13179267D01*
X12168143Y-13226886D01*
X12158619Y-13264981D01*
X12149095Y-13284028D01*
X12139571Y-13293552D01*
X12120524Y-13303076D01*
X12101476Y-13303076D01*
X12082428Y-13293552D01*
X12072905Y-13284028D01*
X12063381Y-13264981D01*
X12053857Y-13226886D01*
X12053857Y-13179267D01*
X12063381Y-13141171D01*
X12072905Y-13122124D01*
X12082428Y-13112600D01*
X12101476Y-13103076D01*
X12253857Y-13284028D02*
X12263381Y-13293552D01*
X12253857Y-13303076D01*
X12244333Y-13293552D01*
X12253857Y-13284028D01*
X12253857Y-13303076D01*
X12387190Y-13103076D02*
X12406238Y-13103076D01*
X12425286Y-13112600D01*
X12434809Y-13122124D01*
X12444333Y-13141171D01*
X12453857Y-13179267D01*
X12453857Y-13226886D01*
X12444333Y-13264981D01*
X12434809Y-13284028D01*
X12425286Y-13293552D01*
X12406238Y-13303076D01*
X12387190Y-13303076D01*
X12368143Y-13293552D01*
X12358619Y-13284028D01*
X12349095Y-13264981D01*
X12339571Y-13226886D01*
X12339571Y-13179267D01*
X12349095Y-13141171D01*
X12358619Y-13122124D01*
X12368143Y-13112600D01*
X12387190Y-13103076D01*
X12520524Y-13103076D02*
X12644333Y-13103076D01*
X12577667Y-13179267D01*
X12606238Y-13179267D01*
X12625286Y-13188790D01*
X12634809Y-13198314D01*
X12644333Y-13217362D01*
X12644333Y-13264981D01*
X12634809Y-13284028D01*
X12625286Y-13293552D01*
X12606238Y-13303076D01*
X12549095Y-13303076D01*
X12530048Y-13293552D01*
X12520524Y-13284028D01*
X12834809Y-13303076D02*
X12720524Y-13303076D01*
X12777667Y-13303076D02*
X12777667Y-13103076D01*
X12758619Y-13131648D01*
X12739571Y-13150695D01*
X12720524Y-13160219D01*
X13015762Y-13103076D02*
X12920524Y-13103076D01*
X12911000Y-13198314D01*
X12920524Y-13188790D01*
X12939571Y-13179267D01*
X12987190Y-13179267D01*
X13006238Y-13188790D01*
X13015762Y-13198314D01*
X13025286Y-13217362D01*
X13025286Y-13264981D01*
X13015762Y-13284028D01*
X13006238Y-13293552D01*
X12987190Y-13303076D01*
X12939571Y-13303076D01*
X12920524Y-13293552D01*
X12911000Y-13284028D01*
X13101476Y-13103076D02*
X13101476Y-13141171D01*
X13177667Y-13103076D02*
X13177667Y-13141171D01*
X13472905Y-13379267D02*
X13463381Y-13369743D01*
X13444333Y-13341171D01*
X13434809Y-13322124D01*
X13425286Y-13293552D01*
X13415762Y-13245933D01*
X13415762Y-13207838D01*
X13425286Y-13160219D01*
X13434809Y-13131648D01*
X13444333Y-13112600D01*
X13463381Y-13084028D01*
X13472905Y-13074505D01*
X13539571Y-13122124D02*
X13549095Y-13112600D01*
X13568143Y-13103076D01*
X13615762Y-13103076D01*
X13634809Y-13112600D01*
X13644333Y-13122124D01*
X13653857Y-13141171D01*
X13653857Y-13160219D01*
X13644333Y-13188790D01*
X13530048Y-13303076D01*
X13653857Y-13303076D01*
X13891952Y-13303076D02*
X13891952Y-13103076D01*
X13977667Y-13303076D02*
X13977667Y-13198314D01*
X13968143Y-13179267D01*
X13949095Y-13169743D01*
X13920524Y-13169743D01*
X13901476Y-13179267D01*
X13891952Y-13188790D01*
X14101476Y-13303076D02*
X14082428Y-13293552D01*
X14072905Y-13284028D01*
X14063381Y-13264981D01*
X14063381Y-13207838D01*
X14072905Y-13188790D01*
X14082428Y-13179267D01*
X14101476Y-13169743D01*
X14130048Y-13169743D01*
X14149095Y-13179267D01*
X14158619Y-13188790D01*
X14168143Y-13207838D01*
X14168143Y-13264981D01*
X14158619Y-13284028D01*
X14149095Y-13293552D01*
X14130048Y-13303076D01*
X14101476Y-13303076D01*
X14282428Y-13303076D02*
X14263381Y-13293552D01*
X14253857Y-13274505D01*
X14253857Y-13103076D01*
X14434809Y-13293552D02*
X14415762Y-13303076D01*
X14377667Y-13303076D01*
X14358619Y-13293552D01*
X14349095Y-13274505D01*
X14349095Y-13198314D01*
X14358619Y-13179267D01*
X14377667Y-13169743D01*
X14415762Y-13169743D01*
X14434809Y-13179267D01*
X14444333Y-13198314D01*
X14444333Y-13217362D01*
X14349095Y-13236409D01*
X14520524Y-13293552D02*
X14539571Y-13303076D01*
X14577667Y-13303076D01*
X14596714Y-13293552D01*
X14606238Y-13274505D01*
X14606238Y-13264981D01*
X14596714Y-13245933D01*
X14577667Y-13236409D01*
X14549095Y-13236409D01*
X14530048Y-13226886D01*
X14520524Y-13207838D01*
X14520524Y-13198314D01*
X14530048Y-13179267D01*
X14549095Y-13169743D01*
X14577667Y-13169743D01*
X14596714Y-13179267D01*
X14672905Y-13379267D02*
X14682428Y-13369743D01*
X14701476Y-13341171D01*
X14711000Y-13322124D01*
X14720524Y-13293552D01*
X14730048Y-13245933D01*
X14730048Y-13207838D01*
X14720524Y-13160219D01*
X14711000Y-13131648D01*
X14701476Y-13112600D01*
X14682428Y-13084028D01*
X14672905Y-13074505D01*
D15*
X9886356Y-13511956D02*
X9886356Y-13441244D01*
X9815644Y-13441244D01*
X9815644Y-13511956D01*
X9886356Y-13511956D01*
D11*
X10263381Y-13567076D02*
X10149095Y-13567076D01*
X10206238Y-13567076D02*
X10206238Y-13367076D01*
X10187190Y-13395648D01*
X10168143Y-13414695D01*
X10149095Y-13424219D01*
X10349095Y-13548028D02*
X10358619Y-13557552D01*
X10349095Y-13567076D01*
X10339571Y-13557552D01*
X10349095Y-13548028D01*
X10349095Y-13567076D01*
X10482429Y-13367076D02*
X10501476Y-13367076D01*
X10520524Y-13376600D01*
X10530048Y-13386124D01*
X10539571Y-13405171D01*
X10549095Y-13443267D01*
X10549095Y-13490886D01*
X10539571Y-13528981D01*
X10530048Y-13548028D01*
X10520524Y-13557552D01*
X10501476Y-13567076D01*
X10482429Y-13567076D01*
X10463381Y-13557552D01*
X10453857Y-13548028D01*
X10444333Y-13528981D01*
X10434810Y-13490886D01*
X10434810Y-13443267D01*
X10444333Y-13405171D01*
X10453857Y-13386124D01*
X10463381Y-13376600D01*
X10482429Y-13367076D01*
X10672905Y-13367076D02*
X10691952Y-13367076D01*
X10711000Y-13376600D01*
X10720524Y-13386124D01*
X10730048Y-13405171D01*
X10739571Y-13443267D01*
X10739571Y-13490886D01*
X10730048Y-13528981D01*
X10720524Y-13548028D01*
X10711000Y-13557552D01*
X10691952Y-13567076D01*
X10672905Y-13567076D01*
X10653857Y-13557552D01*
X10644333Y-13548028D01*
X10634810Y-13528981D01*
X10625286Y-13490886D01*
X10625286Y-13443267D01*
X10634810Y-13405171D01*
X10644333Y-13386124D01*
X10653857Y-13376600D01*
X10672905Y-13367076D01*
X10863381Y-13367076D02*
X10882429Y-13367076D01*
X10901476Y-13376600D01*
X10911000Y-13386124D01*
X10920524Y-13405171D01*
X10930048Y-13443267D01*
X10930048Y-13490886D01*
X10920524Y-13528981D01*
X10911000Y-13548028D01*
X10901476Y-13557552D01*
X10882429Y-13567076D01*
X10863381Y-13567076D01*
X10844333Y-13557552D01*
X10834810Y-13548028D01*
X10825286Y-13528981D01*
X10815762Y-13490886D01*
X10815762Y-13443267D01*
X10825286Y-13405171D01*
X10834810Y-13386124D01*
X10844333Y-13376600D01*
X10863381Y-13367076D01*
X11015762Y-13567076D02*
X11015762Y-13433743D01*
X11015762Y-13452790D02*
X11025286Y-13443267D01*
X11044333Y-13433743D01*
X11072905Y-13433743D01*
X11091952Y-13443267D01*
X11101476Y-13462314D01*
X11101476Y-13567076D01*
X11101476Y-13462314D02*
X11111000Y-13443267D01*
X11130048Y-13433743D01*
X11158619Y-13433743D01*
X11177667Y-13443267D01*
X11187190Y-13462314D01*
X11187190Y-13567076D01*
X11282428Y-13567076D02*
X11282428Y-13433743D01*
X11282428Y-13452790D02*
X11291952Y-13443267D01*
X11311000Y-13433743D01*
X11339571Y-13433743D01*
X11358619Y-13443267D01*
X11368143Y-13462314D01*
X11368143Y-13567076D01*
X11368143Y-13462314D02*
X11377667Y-13443267D01*
X11396714Y-13433743D01*
X11425286Y-13433743D01*
X11444333Y-13443267D01*
X11453857Y-13462314D01*
X11453857Y-13567076D01*
X11844333Y-13357552D02*
X11672905Y-13614695D01*
X12101476Y-13367076D02*
X12120524Y-13367076D01*
X12139571Y-13376600D01*
X12149095Y-13386124D01*
X12158619Y-13405171D01*
X12168143Y-13443267D01*
X12168143Y-13490886D01*
X12158619Y-13528981D01*
X12149095Y-13548028D01*
X12139571Y-13557552D01*
X12120524Y-13567076D01*
X12101476Y-13567076D01*
X12082428Y-13557552D01*
X12072905Y-13548028D01*
X12063381Y-13528981D01*
X12053857Y-13490886D01*
X12053857Y-13443267D01*
X12063381Y-13405171D01*
X12072905Y-13386124D01*
X12082428Y-13376600D01*
X12101476Y-13367076D01*
X12253857Y-13548028D02*
X12263381Y-13557552D01*
X12253857Y-13567076D01*
X12244333Y-13557552D01*
X12253857Y-13548028D01*
X12253857Y-13567076D01*
X12387190Y-13367076D02*
X12406238Y-13367076D01*
X12425286Y-13376600D01*
X12434809Y-13386124D01*
X12444333Y-13405171D01*
X12453857Y-13443267D01*
X12453857Y-13490886D01*
X12444333Y-13528981D01*
X12434809Y-13548028D01*
X12425286Y-13557552D01*
X12406238Y-13567076D01*
X12387190Y-13567076D01*
X12368143Y-13557552D01*
X12358619Y-13548028D01*
X12349095Y-13528981D01*
X12339571Y-13490886D01*
X12339571Y-13443267D01*
X12349095Y-13405171D01*
X12358619Y-13386124D01*
X12368143Y-13376600D01*
X12387190Y-13367076D01*
X12520524Y-13367076D02*
X12644333Y-13367076D01*
X12577667Y-13443267D01*
X12606238Y-13443267D01*
X12625286Y-13452790D01*
X12634809Y-13462314D01*
X12644333Y-13481362D01*
X12644333Y-13528981D01*
X12634809Y-13548028D01*
X12625286Y-13557552D01*
X12606238Y-13567076D01*
X12549095Y-13567076D01*
X12530048Y-13557552D01*
X12520524Y-13548028D01*
X12739571Y-13567076D02*
X12777667Y-13567076D01*
X12796714Y-13557552D01*
X12806238Y-13548028D01*
X12825286Y-13519457D01*
X12834809Y-13481362D01*
X12834809Y-13405171D01*
X12825286Y-13386124D01*
X12815762Y-13376600D01*
X12796714Y-13367076D01*
X12758619Y-13367076D01*
X12739571Y-13376600D01*
X12730048Y-13386124D01*
X12720524Y-13405171D01*
X12720524Y-13452790D01*
X12730048Y-13471838D01*
X12739571Y-13481362D01*
X12758619Y-13490886D01*
X12796714Y-13490886D01*
X12815762Y-13481362D01*
X12825286Y-13471838D01*
X12834809Y-13452790D01*
X13006238Y-13433743D02*
X13006238Y-13567076D01*
X12958619Y-13357552D02*
X12911000Y-13500409D01*
X13034809Y-13500409D01*
X13101476Y-13367076D02*
X13101476Y-13405171D01*
X13177667Y-13367076D02*
X13177667Y-13405171D01*
X13472905Y-13643267D02*
X13463381Y-13633743D01*
X13444333Y-13605171D01*
X13434809Y-13586124D01*
X13425286Y-13557552D01*
X13415762Y-13509933D01*
X13415762Y-13471838D01*
X13425286Y-13424219D01*
X13434809Y-13395648D01*
X13444333Y-13376600D01*
X13463381Y-13348028D01*
X13472905Y-13338505D01*
X13530048Y-13367076D02*
X13653857Y-13367076D01*
X13587190Y-13443267D01*
X13615762Y-13443267D01*
X13634809Y-13452790D01*
X13644333Y-13462314D01*
X13653857Y-13481362D01*
X13653857Y-13528981D01*
X13644333Y-13548028D01*
X13634809Y-13557552D01*
X13615762Y-13567076D01*
X13558619Y-13567076D01*
X13539571Y-13557552D01*
X13530048Y-13548028D01*
X13720524Y-13367076D02*
X13853857Y-13367076D01*
X13768143Y-13567076D01*
X14082428Y-13567076D02*
X14082428Y-13367076D01*
X14168143Y-13567076D02*
X14168143Y-13462314D01*
X14158619Y-13443267D01*
X14139571Y-13433743D01*
X14111000Y-13433743D01*
X14091952Y-13443267D01*
X14082428Y-13452790D01*
X14291952Y-13567076D02*
X14272905Y-13557552D01*
X14263381Y-13548028D01*
X14253857Y-13528981D01*
X14253857Y-13471838D01*
X14263381Y-13452790D01*
X14272905Y-13443267D01*
X14291952Y-13433743D01*
X14320524Y-13433743D01*
X14339571Y-13443267D01*
X14349095Y-13452790D01*
X14358619Y-13471838D01*
X14358619Y-13528981D01*
X14349095Y-13548028D01*
X14339571Y-13557552D01*
X14320524Y-13567076D01*
X14291952Y-13567076D01*
X14472905Y-13567076D02*
X14453857Y-13557552D01*
X14444333Y-13538505D01*
X14444333Y-13367076D01*
X14625286Y-13557552D02*
X14606238Y-13567076D01*
X14568143Y-13567076D01*
X14549095Y-13557552D01*
X14539571Y-13538505D01*
X14539571Y-13462314D01*
X14549095Y-13443267D01*
X14568143Y-13433743D01*
X14606238Y-13433743D01*
X14625286Y-13443267D01*
X14634809Y-13462314D01*
X14634809Y-13481362D01*
X14539571Y-13500409D01*
X14711000Y-13557552D02*
X14730048Y-13567076D01*
X14768143Y-13567076D01*
X14787190Y-13557552D01*
X14796714Y-13538505D01*
X14796714Y-13528981D01*
X14787190Y-13509933D01*
X14768143Y-13500409D01*
X14739571Y-13500409D01*
X14720524Y-13490886D01*
X14711000Y-13471838D01*
X14711000Y-13462314D01*
X14720524Y-13443267D01*
X14739571Y-13433743D01*
X14768143Y-13433743D01*
X14787190Y-13443267D01*
X14863381Y-13643267D02*
X14872905Y-13633743D01*
X14891952Y-13605171D01*
X14901476Y-13586124D01*
X14911000Y-13557552D01*
X14920524Y-13509933D01*
X14920524Y-13471838D01*
X14911000Y-13424219D01*
X14901476Y-13395648D01*
X14891952Y-13376600D01*
X14872905Y-13348028D01*
X14863381Y-13338505D01*
D16*
X9846000Y-13795600D02*
X9901000Y-13740600D01*
X9846000Y-13685600D01*
X9791000Y-13740600D01*
X9846000Y-13795600D01*
D11*
X10263381Y-13831076D02*
X10149095Y-13831076D01*
X10206238Y-13831076D02*
X10206238Y-13631076D01*
X10187190Y-13659648D01*
X10168143Y-13678695D01*
X10149095Y-13688219D01*
X10349095Y-13812028D02*
X10358619Y-13821552D01*
X10349095Y-13831076D01*
X10339571Y-13821552D01*
X10349095Y-13812028D01*
X10349095Y-13831076D01*
X10549095Y-13831076D02*
X10434810Y-13831076D01*
X10491952Y-13831076D02*
X10491952Y-13631076D01*
X10472905Y-13659648D01*
X10453857Y-13678695D01*
X10434810Y-13688219D01*
X10672905Y-13631076D02*
X10691952Y-13631076D01*
X10711000Y-13640600D01*
X10720524Y-13650124D01*
X10730048Y-13669171D01*
X10739571Y-13707267D01*
X10739571Y-13754886D01*
X10730048Y-13792981D01*
X10720524Y-13812028D01*
X10711000Y-13821552D01*
X10691952Y-13831076D01*
X10672905Y-13831076D01*
X10653857Y-13821552D01*
X10644333Y-13812028D01*
X10634810Y-13792981D01*
X10625286Y-13754886D01*
X10625286Y-13707267D01*
X10634810Y-13669171D01*
X10644333Y-13650124D01*
X10653857Y-13640600D01*
X10672905Y-13631076D01*
X10863381Y-13631076D02*
X10882429Y-13631076D01*
X10901476Y-13640600D01*
X10911000Y-13650124D01*
X10920524Y-13669171D01*
X10930048Y-13707267D01*
X10930048Y-13754886D01*
X10920524Y-13792981D01*
X10911000Y-13812028D01*
X10901476Y-13821552D01*
X10882429Y-13831076D01*
X10863381Y-13831076D01*
X10844333Y-13821552D01*
X10834810Y-13812028D01*
X10825286Y-13792981D01*
X10815762Y-13754886D01*
X10815762Y-13707267D01*
X10825286Y-13669171D01*
X10834810Y-13650124D01*
X10844333Y-13640600D01*
X10863381Y-13631076D01*
X11015762Y-13831076D02*
X11015762Y-13697743D01*
X11015762Y-13716790D02*
X11025286Y-13707267D01*
X11044333Y-13697743D01*
X11072905Y-13697743D01*
X11091952Y-13707267D01*
X11101476Y-13726314D01*
X11101476Y-13831076D01*
X11101476Y-13726314D02*
X11111000Y-13707267D01*
X11130048Y-13697743D01*
X11158619Y-13697743D01*
X11177667Y-13707267D01*
X11187190Y-13726314D01*
X11187190Y-13831076D01*
X11282428Y-13831076D02*
X11282428Y-13697743D01*
X11282428Y-13716790D02*
X11291952Y-13707267D01*
X11311000Y-13697743D01*
X11339571Y-13697743D01*
X11358619Y-13707267D01*
X11368143Y-13726314D01*
X11368143Y-13831076D01*
X11368143Y-13726314D02*
X11377667Y-13707267D01*
X11396714Y-13697743D01*
X11425286Y-13697743D01*
X11444333Y-13707267D01*
X11453857Y-13726314D01*
X11453857Y-13831076D01*
X11844333Y-13621552D02*
X11672905Y-13878695D01*
X12101476Y-13631076D02*
X12120524Y-13631076D01*
X12139571Y-13640600D01*
X12149095Y-13650124D01*
X12158619Y-13669171D01*
X12168143Y-13707267D01*
X12168143Y-13754886D01*
X12158619Y-13792981D01*
X12149095Y-13812028D01*
X12139571Y-13821552D01*
X12120524Y-13831076D01*
X12101476Y-13831076D01*
X12082428Y-13821552D01*
X12072905Y-13812028D01*
X12063381Y-13792981D01*
X12053857Y-13754886D01*
X12053857Y-13707267D01*
X12063381Y-13669171D01*
X12072905Y-13650124D01*
X12082428Y-13640600D01*
X12101476Y-13631076D01*
X12253857Y-13812028D02*
X12263381Y-13821552D01*
X12253857Y-13831076D01*
X12244333Y-13821552D01*
X12253857Y-13812028D01*
X12253857Y-13831076D01*
X12387190Y-13631076D02*
X12406238Y-13631076D01*
X12425286Y-13640600D01*
X12434809Y-13650124D01*
X12444333Y-13669171D01*
X12453857Y-13707267D01*
X12453857Y-13754886D01*
X12444333Y-13792981D01*
X12434809Y-13812028D01*
X12425286Y-13821552D01*
X12406238Y-13831076D01*
X12387190Y-13831076D01*
X12368143Y-13821552D01*
X12358619Y-13812028D01*
X12349095Y-13792981D01*
X12339571Y-13754886D01*
X12339571Y-13707267D01*
X12349095Y-13669171D01*
X12358619Y-13650124D01*
X12368143Y-13640600D01*
X12387190Y-13631076D01*
X12625286Y-13697743D02*
X12625286Y-13831076D01*
X12577667Y-13621552D02*
X12530048Y-13764409D01*
X12653857Y-13764409D01*
X12711000Y-13631076D02*
X12834809Y-13631076D01*
X12768143Y-13707267D01*
X12796714Y-13707267D01*
X12815762Y-13716790D01*
X12825286Y-13726314D01*
X12834809Y-13745362D01*
X12834809Y-13792981D01*
X12825286Y-13812028D01*
X12815762Y-13821552D01*
X12796714Y-13831076D01*
X12739571Y-13831076D01*
X12720524Y-13821552D01*
X12711000Y-13812028D01*
X12901476Y-13631076D02*
X13025286Y-13631076D01*
X12958619Y-13707267D01*
X12987190Y-13707267D01*
X13006238Y-13716790D01*
X13015762Y-13726314D01*
X13025286Y-13745362D01*
X13025286Y-13792981D01*
X13015762Y-13812028D01*
X13006238Y-13821552D01*
X12987190Y-13831076D01*
X12930048Y-13831076D01*
X12911000Y-13821552D01*
X12901476Y-13812028D01*
X13101476Y-13631076D02*
X13101476Y-13669171D01*
X13177667Y-13631076D02*
X13177667Y-13669171D01*
X13472905Y-13907267D02*
X13463381Y-13897743D01*
X13444333Y-13869171D01*
X13434809Y-13850124D01*
X13425286Y-13821552D01*
X13415762Y-13773933D01*
X13415762Y-13735838D01*
X13425286Y-13688219D01*
X13434809Y-13659648D01*
X13444333Y-13640600D01*
X13463381Y-13612028D01*
X13472905Y-13602505D01*
X13644333Y-13631076D02*
X13549095Y-13631076D01*
X13539571Y-13726314D01*
X13549095Y-13716790D01*
X13568143Y-13707267D01*
X13615762Y-13707267D01*
X13634809Y-13716790D01*
X13644333Y-13726314D01*
X13653857Y-13745362D01*
X13653857Y-13792981D01*
X13644333Y-13812028D01*
X13634809Y-13821552D01*
X13615762Y-13831076D01*
X13568143Y-13831076D01*
X13549095Y-13821552D01*
X13539571Y-13812028D01*
X13891952Y-13831076D02*
X13891952Y-13631076D01*
X13977667Y-13831076D02*
X13977667Y-13726314D01*
X13968143Y-13707267D01*
X13949095Y-13697743D01*
X13920524Y-13697743D01*
X13901476Y-13707267D01*
X13891952Y-13716790D01*
X14101476Y-13831076D02*
X14082428Y-13821552D01*
X14072905Y-13812028D01*
X14063381Y-13792981D01*
X14063381Y-13735838D01*
X14072905Y-13716790D01*
X14082428Y-13707267D01*
X14101476Y-13697743D01*
X14130048Y-13697743D01*
X14149095Y-13707267D01*
X14158619Y-13716790D01*
X14168143Y-13735838D01*
X14168143Y-13792981D01*
X14158619Y-13812028D01*
X14149095Y-13821552D01*
X14130048Y-13831076D01*
X14101476Y-13831076D01*
X14282428Y-13831076D02*
X14263381Y-13821552D01*
X14253857Y-13802505D01*
X14253857Y-13631076D01*
X14434809Y-13821552D02*
X14415762Y-13831076D01*
X14377667Y-13831076D01*
X14358619Y-13821552D01*
X14349095Y-13802505D01*
X14349095Y-13726314D01*
X14358619Y-13707267D01*
X14377667Y-13697743D01*
X14415762Y-13697743D01*
X14434809Y-13707267D01*
X14444333Y-13726314D01*
X14444333Y-13745362D01*
X14349095Y-13764409D01*
X14520524Y-13821552D02*
X14539571Y-13831076D01*
X14577667Y-13831076D01*
X14596714Y-13821552D01*
X14606238Y-13802505D01*
X14606238Y-13792981D01*
X14596714Y-13773933D01*
X14577667Y-13764409D01*
X14549095Y-13764409D01*
X14530048Y-13754886D01*
X14520524Y-13735838D01*
X14520524Y-13726314D01*
X14530048Y-13707267D01*
X14549095Y-13697743D01*
X14577667Y-13697743D01*
X14596714Y-13707267D01*
X14672905Y-13907267D02*
X14682428Y-13897743D01*
X14701476Y-13869171D01*
X14711000Y-13850124D01*
X14720524Y-13821552D01*
X14730048Y-13773933D01*
X14730048Y-13735838D01*
X14720524Y-13688219D01*
X14711000Y-13659648D01*
X14701476Y-13640600D01*
X14682428Y-13612028D01*
X14672905Y-13602505D01*
D17*
X9751000Y-13929600D02*
X9901000Y-14079600D01*
X9901000Y-13929600D02*
X9751000Y-14079600D01*
X9901000Y-14004600D02*
G75*
G03*
X9901000Y-14004600I-75000J0D01*
G01*
D11*
X10263381Y-14095076D02*
X10149095Y-14095076D01*
X10206238Y-14095076D02*
X10206238Y-13895076D01*
X10187190Y-13923648D01*
X10168143Y-13942695D01*
X10149095Y-13952219D01*
X10349095Y-14076028D02*
X10358619Y-14085552D01*
X10349095Y-14095076D01*
X10339571Y-14085552D01*
X10349095Y-14076028D01*
X10349095Y-14095076D01*
X10539571Y-13895076D02*
X10444333Y-13895076D01*
X10434810Y-13990314D01*
X10444333Y-13980790D01*
X10463381Y-13971267D01*
X10511000Y-13971267D01*
X10530048Y-13980790D01*
X10539571Y-13990314D01*
X10549095Y-14009362D01*
X10549095Y-14056981D01*
X10539571Y-14076028D01*
X10530048Y-14085552D01*
X10511000Y-14095076D01*
X10463381Y-14095076D01*
X10444333Y-14085552D01*
X10434810Y-14076028D01*
X10672905Y-13895076D02*
X10691952Y-13895076D01*
X10711000Y-13904600D01*
X10720524Y-13914124D01*
X10730048Y-13933171D01*
X10739571Y-13971267D01*
X10739571Y-14018886D01*
X10730048Y-14056981D01*
X10720524Y-14076028D01*
X10711000Y-14085552D01*
X10691952Y-14095076D01*
X10672905Y-14095076D01*
X10653857Y-14085552D01*
X10644333Y-14076028D01*
X10634810Y-14056981D01*
X10625286Y-14018886D01*
X10625286Y-13971267D01*
X10634810Y-13933171D01*
X10644333Y-13914124D01*
X10653857Y-13904600D01*
X10672905Y-13895076D01*
X10863381Y-13895076D02*
X10882429Y-13895076D01*
X10901476Y-13904600D01*
X10911000Y-13914124D01*
X10920524Y-13933171D01*
X10930048Y-13971267D01*
X10930048Y-14018886D01*
X10920524Y-14056981D01*
X10911000Y-14076028D01*
X10901476Y-14085552D01*
X10882429Y-14095076D01*
X10863381Y-14095076D01*
X10844333Y-14085552D01*
X10834810Y-14076028D01*
X10825286Y-14056981D01*
X10815762Y-14018886D01*
X10815762Y-13971267D01*
X10825286Y-13933171D01*
X10834810Y-13914124D01*
X10844333Y-13904600D01*
X10863381Y-13895076D01*
X11015762Y-14095076D02*
X11015762Y-13961743D01*
X11015762Y-13980790D02*
X11025286Y-13971267D01*
X11044333Y-13961743D01*
X11072905Y-13961743D01*
X11091952Y-13971267D01*
X11101476Y-13990314D01*
X11101476Y-14095076D01*
X11101476Y-13990314D02*
X11111000Y-13971267D01*
X11130048Y-13961743D01*
X11158619Y-13961743D01*
X11177667Y-13971267D01*
X11187190Y-13990314D01*
X11187190Y-14095076D01*
X11282428Y-14095076D02*
X11282428Y-13961743D01*
X11282428Y-13980790D02*
X11291952Y-13971267D01*
X11311000Y-13961743D01*
X11339571Y-13961743D01*
X11358619Y-13971267D01*
X11368143Y-13990314D01*
X11368143Y-14095076D01*
X11368143Y-13990314D02*
X11377667Y-13971267D01*
X11396714Y-13961743D01*
X11425286Y-13961743D01*
X11444333Y-13971267D01*
X11453857Y-13990314D01*
X11453857Y-14095076D01*
X11844333Y-13885552D02*
X11672905Y-14142695D01*
X12101476Y-13895076D02*
X12120524Y-13895076D01*
X12139571Y-13904600D01*
X12149095Y-13914124D01*
X12158619Y-13933171D01*
X12168143Y-13971267D01*
X12168143Y-14018886D01*
X12158619Y-14056981D01*
X12149095Y-14076028D01*
X12139571Y-14085552D01*
X12120524Y-14095076D01*
X12101476Y-14095076D01*
X12082428Y-14085552D01*
X12072905Y-14076028D01*
X12063381Y-14056981D01*
X12053857Y-14018886D01*
X12053857Y-13971267D01*
X12063381Y-13933171D01*
X12072905Y-13914124D01*
X12082428Y-13904600D01*
X12101476Y-13895076D01*
X12253857Y-14076028D02*
X12263381Y-14085552D01*
X12253857Y-14095076D01*
X12244333Y-14085552D01*
X12253857Y-14076028D01*
X12253857Y-14095076D01*
X12387190Y-13895076D02*
X12406238Y-13895076D01*
X12425286Y-13904600D01*
X12434809Y-13914124D01*
X12444333Y-13933171D01*
X12453857Y-13971267D01*
X12453857Y-14018886D01*
X12444333Y-14056981D01*
X12434809Y-14076028D01*
X12425286Y-14085552D01*
X12406238Y-14095076D01*
X12387190Y-14095076D01*
X12368143Y-14085552D01*
X12358619Y-14076028D01*
X12349095Y-14056981D01*
X12339571Y-14018886D01*
X12339571Y-13971267D01*
X12349095Y-13933171D01*
X12358619Y-13914124D01*
X12368143Y-13904600D01*
X12387190Y-13895076D01*
X12634809Y-13895076D02*
X12539571Y-13895076D01*
X12530048Y-13990314D01*
X12539571Y-13980790D01*
X12558619Y-13971267D01*
X12606238Y-13971267D01*
X12625286Y-13980790D01*
X12634809Y-13990314D01*
X12644333Y-14009362D01*
X12644333Y-14056981D01*
X12634809Y-14076028D01*
X12625286Y-14085552D01*
X12606238Y-14095076D01*
X12558619Y-14095076D01*
X12539571Y-14085552D01*
X12530048Y-14076028D01*
X12739571Y-14095076D02*
X12777667Y-14095076D01*
X12796714Y-14085552D01*
X12806238Y-14076028D01*
X12825286Y-14047457D01*
X12834809Y-14009362D01*
X12834809Y-13933171D01*
X12825286Y-13914124D01*
X12815762Y-13904600D01*
X12796714Y-13895076D01*
X12758619Y-13895076D01*
X12739571Y-13904600D01*
X12730048Y-13914124D01*
X12720524Y-13933171D01*
X12720524Y-13980790D01*
X12730048Y-13999838D01*
X12739571Y-14009362D01*
X12758619Y-14018886D01*
X12796714Y-14018886D01*
X12815762Y-14009362D01*
X12825286Y-13999838D01*
X12834809Y-13980790D01*
X13025286Y-14095076D02*
X12911000Y-14095076D01*
X12968143Y-14095076D02*
X12968143Y-13895076D01*
X12949095Y-13923648D01*
X12930048Y-13942695D01*
X12911000Y-13952219D01*
X13101476Y-13895076D02*
X13101476Y-13933171D01*
X13177667Y-13895076D02*
X13177667Y-13933171D01*
X13472905Y-14171267D02*
X13463381Y-14161743D01*
X13444333Y-14133171D01*
X13434809Y-14114124D01*
X13425286Y-14085552D01*
X13415762Y-14037933D01*
X13415762Y-13999838D01*
X13425286Y-13952219D01*
X13434809Y-13923648D01*
X13444333Y-13904600D01*
X13463381Y-13876028D01*
X13472905Y-13866505D01*
X13587190Y-13895076D02*
X13606238Y-13895076D01*
X13625286Y-13904600D01*
X13634809Y-13914124D01*
X13644333Y-13933171D01*
X13653857Y-13971267D01*
X13653857Y-14018886D01*
X13644333Y-14056981D01*
X13634809Y-14076028D01*
X13625286Y-14085552D01*
X13606238Y-14095076D01*
X13587190Y-14095076D01*
X13568143Y-14085552D01*
X13558619Y-14076028D01*
X13549095Y-14056981D01*
X13539571Y-14018886D01*
X13539571Y-13971267D01*
X13549095Y-13933171D01*
X13558619Y-13914124D01*
X13568143Y-13904600D01*
X13587190Y-13895076D01*
X13891952Y-14095076D02*
X13891952Y-13895076D01*
X13977667Y-14095076D02*
X13977667Y-13990314D01*
X13968143Y-13971267D01*
X13949095Y-13961743D01*
X13920524Y-13961743D01*
X13901476Y-13971267D01*
X13891952Y-13980790D01*
X14101476Y-14095076D02*
X14082428Y-14085552D01*
X14072905Y-14076028D01*
X14063381Y-14056981D01*
X14063381Y-13999838D01*
X14072905Y-13980790D01*
X14082428Y-13971267D01*
X14101476Y-13961743D01*
X14130048Y-13961743D01*
X14149095Y-13971267D01*
X14158619Y-13980790D01*
X14168143Y-13999838D01*
X14168143Y-14056981D01*
X14158619Y-14076028D01*
X14149095Y-14085552D01*
X14130048Y-14095076D01*
X14101476Y-14095076D01*
X14282428Y-14095076D02*
X14263381Y-14085552D01*
X14253857Y-14066505D01*
X14253857Y-13895076D01*
X14434809Y-14085552D02*
X14415762Y-14095076D01*
X14377667Y-14095076D01*
X14358619Y-14085552D01*
X14349095Y-14066505D01*
X14349095Y-13990314D01*
X14358619Y-13971267D01*
X14377667Y-13961743D01*
X14415762Y-13961743D01*
X14434809Y-13971267D01*
X14444333Y-13990314D01*
X14444333Y-14009362D01*
X14349095Y-14028409D01*
X14520524Y-14085552D02*
X14539571Y-14095076D01*
X14577667Y-14095076D01*
X14596714Y-14085552D01*
X14606238Y-14066505D01*
X14606238Y-14056981D01*
X14596714Y-14037933D01*
X14577667Y-14028409D01*
X14549095Y-14028409D01*
X14530048Y-14018886D01*
X14520524Y-13999838D01*
X14520524Y-13990314D01*
X14530048Y-13971267D01*
X14549095Y-13961743D01*
X14577667Y-13961743D01*
X14596714Y-13971267D01*
X14844333Y-14018886D02*
X14996714Y-14018886D01*
X14920524Y-14095076D02*
X14920524Y-13942695D01*
X15234809Y-13914124D02*
X15244333Y-13904600D01*
X15263381Y-13895076D01*
X15311000Y-13895076D01*
X15330048Y-13904600D01*
X15339571Y-13914124D01*
X15349095Y-13933171D01*
X15349095Y-13952219D01*
X15339571Y-13980790D01*
X15225286Y-14095076D01*
X15349095Y-14095076D01*
X15577667Y-14085552D02*
X15596714Y-14095076D01*
X15634809Y-14095076D01*
X15653857Y-14085552D01*
X15663381Y-14066505D01*
X15663381Y-14056981D01*
X15653857Y-14037933D01*
X15634809Y-14028409D01*
X15606238Y-14028409D01*
X15587190Y-14018886D01*
X15577667Y-13999838D01*
X15577667Y-13990314D01*
X15587190Y-13971267D01*
X15606238Y-13961743D01*
X15634809Y-13961743D01*
X15653857Y-13971267D01*
X15777667Y-14095076D02*
X15758619Y-14085552D01*
X15749095Y-14066505D01*
X15749095Y-13895076D01*
X15882428Y-14095076D02*
X15863381Y-14085552D01*
X15853857Y-14076028D01*
X15844333Y-14056981D01*
X15844333Y-13999838D01*
X15853857Y-13980790D01*
X15863381Y-13971267D01*
X15882428Y-13961743D01*
X15911000Y-13961743D01*
X15930048Y-13971267D01*
X15939571Y-13980790D01*
X15949095Y-13999838D01*
X15949095Y-14056981D01*
X15939571Y-14076028D01*
X15930048Y-14085552D01*
X15911000Y-14095076D01*
X15882428Y-14095076D01*
X16006238Y-13961743D02*
X16082428Y-13961743D01*
X16034809Y-13895076D02*
X16034809Y-14066505D01*
X16044333Y-14085552D01*
X16063381Y-14095076D01*
X16082428Y-14095076D01*
X16139571Y-14085552D02*
X16158619Y-14095076D01*
X16196714Y-14095076D01*
X16215762Y-14085552D01*
X16225286Y-14066505D01*
X16225286Y-14056981D01*
X16215762Y-14037933D01*
X16196714Y-14028409D01*
X16168143Y-14028409D01*
X16149095Y-14018886D01*
X16139571Y-13999838D01*
X16139571Y-13990314D01*
X16149095Y-13971267D01*
X16168143Y-13961743D01*
X16196714Y-13961743D01*
X16215762Y-13971267D01*
X16291952Y-14171267D02*
X16301476Y-14161743D01*
X16320524Y-14133171D01*
X16330048Y-14114124D01*
X16339571Y-14085552D01*
X16349095Y-14037933D01*
X16349095Y-13999838D01*
X16339571Y-13952219D01*
X16330048Y-13923648D01*
X16320524Y-13904600D01*
X16301476Y-13876028D01*
X16291952Y-13866505D01*
M02*
