G04 #@! TF.GenerationSoftware,KiCad,Pcbnew,(6.0.2)*
G04 #@! TF.CreationDate,2023-01-26T14:19:39+00:00*
G04 #@! TF.ProjectId,bomb-diffusal-combolock,626f6d62-2d64-4696-9666-7573616c2d63,rev?*
G04 #@! TF.SameCoordinates,Original*
G04 #@! TF.FileFunction,Copper,L1,Top*
G04 #@! TF.FilePolarity,Positive*
%FSLAX46Y46*%
G04 Gerber Fmt 4.6, Leading zero omitted, Abs format (unit mm)*
G04 Created by KiCad (PCBNEW (6.0.2)) date 2023-01-26 14:19:39*
%MOMM*%
%LPD*%
G01*
G04 APERTURE LIST*
G04 Aperture macros list*
%AMRoundRect*
0 Rectangle with rounded corners*
0 $1 Rounding radius*
0 $2 $3 $4 $5 $6 $7 $8 $9 X,Y pos of 4 corners*
0 Add a 4 corners polygon primitive as box body*
4,1,4,$2,$3,$4,$5,$6,$7,$8,$9,$2,$3,0*
0 Add four circle primitives for the rounded corners*
1,1,$1+$1,$2,$3*
1,1,$1+$1,$4,$5*
1,1,$1+$1,$6,$7*
1,1,$1+$1,$8,$9*
0 Add four rect primitives between the rounded corners*
20,1,$1+$1,$2,$3,$4,$5,0*
20,1,$1+$1,$4,$5,$6,$7,0*
20,1,$1+$1,$6,$7,$8,$9,0*
20,1,$1+$1,$8,$9,$2,$3,0*%
G04 Aperture macros list end*
G04 #@! TA.AperFunction,ComponentPad*
%ADD10RoundRect,0.166666X0.233334X0.433334X-0.233334X0.433334X-0.233334X-0.433334X0.233334X-0.433334X0*%
G04 #@! TD*
G04 #@! TA.AperFunction,ComponentPad*
%ADD11O,0.800000X1.200000*%
G04 #@! TD*
G04 #@! TA.AperFunction,ComponentPad*
%ADD12R,2.000000X2.000000*%
G04 #@! TD*
G04 #@! TA.AperFunction,ComponentPad*
%ADD13C,2.000000*%
G04 #@! TD*
G04 #@! TA.AperFunction,ComponentPad*
%ADD14R,3.200000X2.000000*%
G04 #@! TD*
G04 #@! TA.AperFunction,ComponentPad*
%ADD15R,1.600000X1.600000*%
G04 #@! TD*
G04 #@! TA.AperFunction,ComponentPad*
%ADD16O,1.600000X1.600000*%
G04 #@! TD*
G04 #@! TA.AperFunction,ComponentPad*
%ADD17R,1.700000X1.700000*%
G04 #@! TD*
G04 #@! TA.AperFunction,ComponentPad*
%ADD18O,1.700000X1.700000*%
G04 #@! TD*
G04 #@! TA.AperFunction,ComponentPad*
%ADD19C,1.600000*%
G04 #@! TD*
G04 #@! TA.AperFunction,ViaPad*
%ADD20C,0.800000*%
G04 #@! TD*
G04 #@! TA.AperFunction,Conductor*
%ADD21C,0.800000*%
G04 #@! TD*
G04 APERTURE END LIST*
D10*
X141224000Y-81026000D03*
D11*
X139974000Y-81026000D03*
X138724000Y-81026000D03*
X137474000Y-81026000D03*
X136224000Y-81026000D03*
X134974000Y-81026000D03*
D10*
X141224000Y-105664000D03*
D11*
X139974000Y-105664000D03*
X138724000Y-105664000D03*
X137474000Y-105664000D03*
X136224000Y-105664000D03*
X134974000Y-105664000D03*
D12*
X140768400Y-91440000D03*
D13*
X140768400Y-96440000D03*
X140768400Y-93940000D03*
D14*
X148268400Y-88340000D03*
X148268400Y-99540000D03*
D13*
X155268400Y-96440000D03*
X155268400Y-91440000D03*
D15*
X130048000Y-114554000D03*
D16*
X130048000Y-112014000D03*
X130048000Y-109474000D03*
X130048000Y-106934000D03*
X130048000Y-104394000D03*
X130048000Y-101854000D03*
X130048000Y-99314000D03*
X130048000Y-96774000D03*
X130048000Y-94234000D03*
X130048000Y-91694000D03*
X130048000Y-89154000D03*
X130048000Y-86614000D03*
X130048000Y-84074000D03*
X130048000Y-81534000D03*
X130048000Y-78994000D03*
X114808000Y-78994000D03*
X114808000Y-81534000D03*
X114808000Y-84074000D03*
X114808000Y-86614000D03*
X114808000Y-89154000D03*
X114808000Y-91694000D03*
X114808000Y-94234000D03*
X114808000Y-96774000D03*
X114808000Y-99314000D03*
X114808000Y-101854000D03*
X114808000Y-104394000D03*
X114808000Y-106934000D03*
X114808000Y-109474000D03*
X114808000Y-112014000D03*
X114808000Y-114554000D03*
D17*
X102768400Y-91440000D03*
D18*
X102768400Y-93980000D03*
X102768400Y-96520000D03*
X102768400Y-99060000D03*
X102768400Y-101600000D03*
D19*
X134366000Y-111760000D03*
D16*
X147066000Y-111760000D03*
D17*
X154940000Y-111760000D03*
D18*
X154940000Y-109220000D03*
D20*
X152146000Y-93218000D03*
X117094000Y-103886000D03*
D21*
X140768400Y-96440000D02*
X130382000Y-96440000D01*
X130382000Y-96440000D02*
X130048000Y-96774000D01*
X136906000Y-91440000D02*
X140768400Y-91440000D01*
X134112000Y-94234000D02*
X136906000Y-91440000D01*
X130048000Y-94234000D02*
X134112000Y-94234000D01*
X130048000Y-86614000D02*
X140970000Y-86614000D01*
X140970000Y-86614000D02*
X154940000Y-100584000D01*
X154940000Y-100584000D02*
X154940000Y-109220000D01*
X138724000Y-111355534D02*
X132240014Y-117839520D01*
X132240014Y-117839520D02*
X127855985Y-117839519D01*
X117094000Y-105918000D02*
X117094000Y-103886000D01*
X117094000Y-107077534D02*
X117094000Y-105918000D01*
X138724000Y-105664000D02*
X138724000Y-111355534D01*
X127855985Y-117839519D02*
X117094000Y-107077534D01*
X131826000Y-116840000D02*
X128270000Y-116840000D01*
X137474000Y-105664000D02*
X137474000Y-111192000D01*
X137474000Y-111192000D02*
X131826000Y-116840000D01*
X118872000Y-103378000D02*
X114808000Y-99314000D01*
X128270000Y-116840000D02*
X118872000Y-107442000D01*
X118872000Y-107442000D02*
X118872000Y-103378000D01*
X155268400Y-89736400D02*
X155268400Y-91440000D01*
X130048000Y-84074000D02*
X149606000Y-84074000D01*
X149606000Y-84074000D02*
X155268400Y-89736400D01*
G04 #@! TA.AperFunction,Conductor*
G36*
X156660121Y-75458002D02*
G01*
X156706614Y-75511658D01*
X156718000Y-75564000D01*
X156718000Y-90473726D01*
X156697998Y-90541847D01*
X156644342Y-90588340D01*
X156574068Y-90598444D01*
X156509488Y-90568950D01*
X156492607Y-90550558D01*
X156492576Y-90550584D01*
X156491838Y-90549720D01*
X156338369Y-90370031D01*
X156221069Y-90269847D01*
X156182260Y-90210396D01*
X156176900Y-90174036D01*
X156176900Y-89817817D01*
X156178451Y-89798105D01*
X156179620Y-89790725D01*
X156180652Y-89784210D01*
X156177073Y-89715920D01*
X156176900Y-89709326D01*
X156176900Y-89688790D01*
X156176556Y-89685516D01*
X156174753Y-89668358D01*
X156174236Y-89661784D01*
X156171003Y-89600096D01*
X156171003Y-89600094D01*
X156170657Y-89593497D01*
X156167015Y-89579904D01*
X156163414Y-89560475D01*
X156162632Y-89553039D01*
X156161942Y-89546472D01*
X156140807Y-89481425D01*
X156138935Y-89475106D01*
X156122938Y-89415403D01*
X156122937Y-89415400D01*
X156121230Y-89409030D01*
X156114838Y-89396485D01*
X156107274Y-89378223D01*
X156104968Y-89371126D01*
X156102927Y-89364844D01*
X156068736Y-89305623D01*
X156065588Y-89299826D01*
X156037526Y-89244751D01*
X156037524Y-89244748D01*
X156034529Y-89238870D01*
X156025673Y-89227933D01*
X156014473Y-89211637D01*
X156010743Y-89205176D01*
X156010740Y-89205172D01*
X156007440Y-89199456D01*
X156003023Y-89194550D01*
X156003019Y-89194545D01*
X155961678Y-89148631D01*
X155957394Y-89143616D01*
X155946548Y-89130223D01*
X155944472Y-89127659D01*
X155929957Y-89113144D01*
X155925416Y-89108359D01*
X155884073Y-89062443D01*
X155879653Y-89057534D01*
X155868265Y-89049260D01*
X155853232Y-89036419D01*
X150305981Y-83489168D01*
X150293140Y-83474135D01*
X150288746Y-83468087D01*
X150288745Y-83468086D01*
X150284866Y-83462747D01*
X150234041Y-83416984D01*
X150229256Y-83412443D01*
X150214741Y-83397928D01*
X150207282Y-83391888D01*
X150198784Y-83385006D01*
X150193769Y-83380722D01*
X150147855Y-83339381D01*
X150147850Y-83339377D01*
X150142944Y-83334960D01*
X150137228Y-83331660D01*
X150137224Y-83331657D01*
X150130763Y-83327927D01*
X150114466Y-83316727D01*
X150108660Y-83312025D01*
X150108658Y-83312024D01*
X150103530Y-83307871D01*
X150042577Y-83276814D01*
X150036782Y-83273667D01*
X149983279Y-83242777D01*
X149983278Y-83242776D01*
X149977556Y-83239473D01*
X149971274Y-83237432D01*
X149971272Y-83237431D01*
X149964174Y-83235125D01*
X149945907Y-83227559D01*
X149933370Y-83221171D01*
X149867299Y-83203467D01*
X149860997Y-83201600D01*
X149795928Y-83180458D01*
X149789363Y-83179768D01*
X149789354Y-83179766D01*
X149781925Y-83178985D01*
X149762491Y-83175383D01*
X149755286Y-83173453D01*
X149755284Y-83173453D01*
X149748903Y-83171743D01*
X149742312Y-83171398D01*
X149742308Y-83171397D01*
X149680616Y-83168164D01*
X149674042Y-83167647D01*
X149656884Y-83165844D01*
X149656882Y-83165844D01*
X149653610Y-83165500D01*
X149633074Y-83165500D01*
X149626480Y-83165327D01*
X149564782Y-83162093D01*
X149564777Y-83162093D01*
X149558190Y-83161748D01*
X149544292Y-83163949D01*
X149524583Y-83165500D01*
X131042188Y-83165500D01*
X130974067Y-83145498D01*
X130953093Y-83128595D01*
X130892300Y-83067802D01*
X130887792Y-83064645D01*
X130887789Y-83064643D01*
X130809611Y-83009902D01*
X130704749Y-82936477D01*
X130699767Y-82934154D01*
X130699762Y-82934151D01*
X130665543Y-82918195D01*
X130612258Y-82871278D01*
X130592797Y-82803001D01*
X130613339Y-82735041D01*
X130665543Y-82689805D01*
X130699762Y-82673849D01*
X130699767Y-82673846D01*
X130704749Y-82671523D01*
X130809611Y-82598098D01*
X130887789Y-82543357D01*
X130887792Y-82543355D01*
X130892300Y-82540198D01*
X131054198Y-82378300D01*
X131185523Y-82190749D01*
X131187846Y-82185767D01*
X131187849Y-82185762D01*
X131279961Y-81988225D01*
X131279961Y-81988224D01*
X131282284Y-81983243D01*
X131293628Y-81940909D01*
X131340119Y-81767402D01*
X131340119Y-81767400D01*
X131341543Y-81762087D01*
X131361498Y-81534000D01*
X131341543Y-81305913D01*
X131333764Y-81276880D01*
X131332888Y-81273610D01*
X134065500Y-81273610D01*
X134080458Y-81415928D01*
X134139473Y-81597556D01*
X134234960Y-81762944D01*
X134239378Y-81767851D01*
X134239379Y-81767852D01*
X134344294Y-81884372D01*
X134362747Y-81904866D01*
X134412356Y-81940909D01*
X134511308Y-82012802D01*
X134517248Y-82017118D01*
X134523276Y-82019802D01*
X134523278Y-82019803D01*
X134670844Y-82085503D01*
X134691712Y-82094794D01*
X134785113Y-82114647D01*
X134872056Y-82133128D01*
X134872061Y-82133128D01*
X134878513Y-82134500D01*
X135069487Y-82134500D01*
X135075939Y-82133128D01*
X135075944Y-82133128D01*
X135162887Y-82114647D01*
X135256288Y-82094794D01*
X135277156Y-82085503D01*
X135424722Y-82019803D01*
X135424724Y-82019802D01*
X135430752Y-82017118D01*
X135436693Y-82012802D01*
X135524939Y-81948687D01*
X135591807Y-81924828D01*
X135660958Y-81940909D01*
X135673061Y-81948687D01*
X135761308Y-82012802D01*
X135767248Y-82017118D01*
X135773276Y-82019802D01*
X135773278Y-82019803D01*
X135920844Y-82085503D01*
X135941712Y-82094794D01*
X136035113Y-82114647D01*
X136122056Y-82133128D01*
X136122061Y-82133128D01*
X136128513Y-82134500D01*
X136319487Y-82134500D01*
X136325939Y-82133128D01*
X136325944Y-82133128D01*
X136412887Y-82114647D01*
X136506288Y-82094794D01*
X136527156Y-82085503D01*
X136674722Y-82019803D01*
X136674724Y-82019802D01*
X136680752Y-82017118D01*
X136686693Y-82012802D01*
X136774939Y-81948687D01*
X136841807Y-81924828D01*
X136910958Y-81940909D01*
X136923061Y-81948687D01*
X137011308Y-82012802D01*
X137017248Y-82017118D01*
X137023276Y-82019802D01*
X137023278Y-82019803D01*
X137170844Y-82085503D01*
X137191712Y-82094794D01*
X137285113Y-82114647D01*
X137372056Y-82133128D01*
X137372061Y-82133128D01*
X137378513Y-82134500D01*
X137569487Y-82134500D01*
X137575939Y-82133128D01*
X137575944Y-82133128D01*
X137662887Y-82114647D01*
X137756288Y-82094794D01*
X137777156Y-82085503D01*
X137924722Y-82019803D01*
X137924724Y-82019802D01*
X137930752Y-82017118D01*
X137936693Y-82012802D01*
X138024939Y-81948687D01*
X138091807Y-81924828D01*
X138160958Y-81940909D01*
X138173061Y-81948687D01*
X138261308Y-82012802D01*
X138267248Y-82017118D01*
X138273276Y-82019802D01*
X138273278Y-82019803D01*
X138420844Y-82085503D01*
X138441712Y-82094794D01*
X138535113Y-82114647D01*
X138622056Y-82133128D01*
X138622061Y-82133128D01*
X138628513Y-82134500D01*
X138819487Y-82134500D01*
X138825939Y-82133128D01*
X138825944Y-82133128D01*
X138912887Y-82114647D01*
X139006288Y-82094794D01*
X139027156Y-82085503D01*
X139174722Y-82019803D01*
X139174724Y-82019802D01*
X139180752Y-82017118D01*
X139275366Y-81948377D01*
X139342230Y-81924520D01*
X139411382Y-81940600D01*
X139423485Y-81948378D01*
X139512157Y-82012802D01*
X139523529Y-82019368D01*
X139685839Y-82091633D01*
X139698325Y-82095690D01*
X139702278Y-82096530D01*
X139716341Y-82095457D01*
X139720000Y-82085503D01*
X139720000Y-82082182D01*
X140228000Y-82082182D01*
X140231973Y-82095713D01*
X140242468Y-82097222D01*
X140249675Y-82095690D01*
X140262161Y-82091633D01*
X140424471Y-82019368D01*
X140435839Y-82012804D01*
X140443263Y-82007410D01*
X140510130Y-81983551D01*
X140582597Y-82001569D01*
X140710785Y-82079202D01*
X140718032Y-82081473D01*
X140718034Y-82081474D01*
X140768287Y-82097222D01*
X140866723Y-82128070D01*
X140936699Y-82134500D01*
X140939597Y-82134500D01*
X141224745Y-82134499D01*
X141511300Y-82134499D01*
X141514158Y-82134236D01*
X141514167Y-82134236D01*
X141547604Y-82131164D01*
X141581277Y-82128070D01*
X141587662Y-82126069D01*
X141729966Y-82081474D01*
X141729968Y-82081473D01*
X141737215Y-82079202D01*
X141876996Y-81994548D01*
X141992548Y-81878996D01*
X142077202Y-81739215D01*
X142126070Y-81583277D01*
X142132500Y-81513301D01*
X142132499Y-80538700D01*
X142126070Y-80468723D01*
X142104419Y-80399634D01*
X142079474Y-80320034D01*
X142079473Y-80320032D01*
X142077202Y-80312785D01*
X141992548Y-80173004D01*
X141876996Y-80057452D01*
X141737215Y-79972798D01*
X141729968Y-79970527D01*
X141729966Y-79970526D01*
X141666642Y-79950682D01*
X141581277Y-79923930D01*
X141511301Y-79917500D01*
X141508403Y-79917500D01*
X141223255Y-79917501D01*
X140936700Y-79917501D01*
X140933842Y-79917764D01*
X140933833Y-79917764D01*
X140900396Y-79920836D01*
X140866723Y-79923930D01*
X140860345Y-79925929D01*
X140860344Y-79925929D01*
X140718034Y-79970526D01*
X140718032Y-79970527D01*
X140710785Y-79972798D01*
X140704288Y-79976733D01*
X140582597Y-80050431D01*
X140513967Y-80068610D01*
X140443263Y-80044590D01*
X140435839Y-80039196D01*
X140424471Y-80032632D01*
X140262161Y-79960367D01*
X140249675Y-79956310D01*
X140245722Y-79955470D01*
X140231659Y-79956543D01*
X140228000Y-79966497D01*
X140228000Y-82082182D01*
X139720000Y-82082182D01*
X139720000Y-79969818D01*
X139716027Y-79956287D01*
X139705532Y-79954778D01*
X139698325Y-79956310D01*
X139685839Y-79960367D01*
X139523529Y-80032632D01*
X139512157Y-80039198D01*
X139423485Y-80103622D01*
X139356617Y-80127481D01*
X139287466Y-80111400D01*
X139275380Y-80103634D01*
X139180752Y-80034882D01*
X139174724Y-80032198D01*
X139174722Y-80032197D01*
X139012319Y-79959891D01*
X139012318Y-79959891D01*
X139006288Y-79957206D01*
X138912888Y-79937353D01*
X138825944Y-79918872D01*
X138825939Y-79918872D01*
X138819487Y-79917500D01*
X138628513Y-79917500D01*
X138622061Y-79918872D01*
X138622056Y-79918872D01*
X138535112Y-79937353D01*
X138441712Y-79957206D01*
X138435682Y-79959891D01*
X138435681Y-79959891D01*
X138273278Y-80032197D01*
X138273276Y-80032198D01*
X138267248Y-80034882D01*
X138261907Y-80038762D01*
X138261906Y-80038763D01*
X138173061Y-80103313D01*
X138106193Y-80127172D01*
X138037042Y-80111091D01*
X138024939Y-80103313D01*
X137936094Y-80038763D01*
X137936093Y-80038762D01*
X137930752Y-80034882D01*
X137924724Y-80032198D01*
X137924722Y-80032197D01*
X137762319Y-79959891D01*
X137762318Y-79959891D01*
X137756288Y-79957206D01*
X137662888Y-79937353D01*
X137575944Y-79918872D01*
X137575939Y-79918872D01*
X137569487Y-79917500D01*
X137378513Y-79917500D01*
X137372061Y-79918872D01*
X137372056Y-79918872D01*
X137285112Y-79937353D01*
X137191712Y-79957206D01*
X137185682Y-79959891D01*
X137185681Y-79959891D01*
X137023278Y-80032197D01*
X137023276Y-80032198D01*
X137017248Y-80034882D01*
X137011907Y-80038762D01*
X137011906Y-80038763D01*
X136923061Y-80103313D01*
X136856193Y-80127172D01*
X136787042Y-80111091D01*
X136774939Y-80103313D01*
X136686094Y-80038763D01*
X136686093Y-80038762D01*
X136680752Y-80034882D01*
X136674724Y-80032198D01*
X136674722Y-80032197D01*
X136512319Y-79959891D01*
X136512318Y-79959891D01*
X136506288Y-79957206D01*
X136412888Y-79937353D01*
X136325944Y-79918872D01*
X136325939Y-79918872D01*
X136319487Y-79917500D01*
X136128513Y-79917500D01*
X136122061Y-79918872D01*
X136122056Y-79918872D01*
X136035112Y-79937353D01*
X135941712Y-79957206D01*
X135935682Y-79959891D01*
X135935681Y-79959891D01*
X135773278Y-80032197D01*
X135773276Y-80032198D01*
X135767248Y-80034882D01*
X135761907Y-80038762D01*
X135761906Y-80038763D01*
X135673061Y-80103313D01*
X135606193Y-80127172D01*
X135537042Y-80111091D01*
X135524939Y-80103313D01*
X135436094Y-80038763D01*
X135436093Y-80038762D01*
X135430752Y-80034882D01*
X135424724Y-80032198D01*
X135424722Y-80032197D01*
X135262319Y-79959891D01*
X135262318Y-79959891D01*
X135256288Y-79957206D01*
X135162888Y-79937353D01*
X135075944Y-79918872D01*
X135075939Y-79918872D01*
X135069487Y-79917500D01*
X134878513Y-79917500D01*
X134872061Y-79918872D01*
X134872056Y-79918872D01*
X134785112Y-79937353D01*
X134691712Y-79957206D01*
X134685682Y-79959891D01*
X134685681Y-79959891D01*
X134523278Y-80032197D01*
X134523276Y-80032198D01*
X134517248Y-80034882D01*
X134511907Y-80038762D01*
X134511906Y-80038763D01*
X134503886Y-80044590D01*
X134362747Y-80147134D01*
X134358326Y-80152044D01*
X134358325Y-80152045D01*
X134339454Y-80173004D01*
X134234960Y-80289056D01*
X134139473Y-80454444D01*
X134080458Y-80636072D01*
X134065500Y-80778390D01*
X134065500Y-81273610D01*
X131332888Y-81273610D01*
X131283707Y-81090067D01*
X131283706Y-81090065D01*
X131282284Y-81084757D01*
X131279961Y-81079775D01*
X131187849Y-80882238D01*
X131187846Y-80882233D01*
X131185523Y-80877251D01*
X131054198Y-80689700D01*
X130892300Y-80527802D01*
X130887792Y-80524645D01*
X130887789Y-80524643D01*
X130807927Y-80468723D01*
X130704749Y-80396477D01*
X130699767Y-80394154D01*
X130699762Y-80394151D01*
X130665543Y-80378195D01*
X130612258Y-80331278D01*
X130592797Y-80263001D01*
X130613339Y-80195041D01*
X130665543Y-80149805D01*
X130699762Y-80133849D01*
X130699767Y-80133846D01*
X130704749Y-80131523D01*
X130828902Y-80044590D01*
X130887789Y-80003357D01*
X130887792Y-80003355D01*
X130892300Y-80000198D01*
X131054198Y-79838300D01*
X131185523Y-79650749D01*
X131187846Y-79645767D01*
X131187849Y-79645762D01*
X131279961Y-79448225D01*
X131279961Y-79448224D01*
X131282284Y-79443243D01*
X131341543Y-79222087D01*
X131361498Y-78994000D01*
X131341543Y-78765913D01*
X131282284Y-78544757D01*
X131279961Y-78539775D01*
X131187849Y-78342238D01*
X131187846Y-78342233D01*
X131185523Y-78337251D01*
X131054198Y-78149700D01*
X130892300Y-77987802D01*
X130887792Y-77984645D01*
X130887789Y-77984643D01*
X130809611Y-77929902D01*
X130704749Y-77856477D01*
X130699767Y-77854154D01*
X130699762Y-77854151D01*
X130502225Y-77762039D01*
X130502224Y-77762039D01*
X130497243Y-77759716D01*
X130491935Y-77758294D01*
X130491933Y-77758293D01*
X130281402Y-77701881D01*
X130281400Y-77701881D01*
X130276087Y-77700457D01*
X130048000Y-77680502D01*
X129819913Y-77700457D01*
X129814600Y-77701881D01*
X129814598Y-77701881D01*
X129604067Y-77758293D01*
X129604065Y-77758294D01*
X129598757Y-77759716D01*
X129593776Y-77762039D01*
X129593775Y-77762039D01*
X129396238Y-77854151D01*
X129396233Y-77854154D01*
X129391251Y-77856477D01*
X129286389Y-77929902D01*
X129208211Y-77984643D01*
X129208208Y-77984645D01*
X129203700Y-77987802D01*
X129041802Y-78149700D01*
X128910477Y-78337251D01*
X128908154Y-78342233D01*
X128908151Y-78342238D01*
X128816039Y-78539775D01*
X128813716Y-78544757D01*
X128754457Y-78765913D01*
X128734502Y-78994000D01*
X128754457Y-79222087D01*
X128813716Y-79443243D01*
X128816039Y-79448224D01*
X128816039Y-79448225D01*
X128908151Y-79645762D01*
X128908154Y-79645767D01*
X128910477Y-79650749D01*
X129041802Y-79838300D01*
X129203700Y-80000198D01*
X129208208Y-80003355D01*
X129208211Y-80003357D01*
X129267098Y-80044590D01*
X129391251Y-80131523D01*
X129396233Y-80133846D01*
X129396238Y-80133849D01*
X129430457Y-80149805D01*
X129483742Y-80196722D01*
X129503203Y-80264999D01*
X129482661Y-80332959D01*
X129430457Y-80378195D01*
X129396238Y-80394151D01*
X129396233Y-80394154D01*
X129391251Y-80396477D01*
X129288073Y-80468723D01*
X129208211Y-80524643D01*
X129208208Y-80524645D01*
X129203700Y-80527802D01*
X129041802Y-80689700D01*
X128910477Y-80877251D01*
X128908154Y-80882233D01*
X128908151Y-80882238D01*
X128816039Y-81079775D01*
X128813716Y-81084757D01*
X128812294Y-81090065D01*
X128812293Y-81090067D01*
X128762236Y-81276880D01*
X128754457Y-81305913D01*
X128734502Y-81534000D01*
X128754457Y-81762087D01*
X128755881Y-81767400D01*
X128755881Y-81767402D01*
X128802373Y-81940909D01*
X128813716Y-81983243D01*
X128816039Y-81988224D01*
X128816039Y-81988225D01*
X128908151Y-82185762D01*
X128908154Y-82185767D01*
X128910477Y-82190749D01*
X129041802Y-82378300D01*
X129203700Y-82540198D01*
X129208208Y-82543355D01*
X129208211Y-82543357D01*
X129286389Y-82598098D01*
X129391251Y-82671523D01*
X129396233Y-82673846D01*
X129396238Y-82673849D01*
X129430457Y-82689805D01*
X129483742Y-82736722D01*
X129503203Y-82804999D01*
X129482661Y-82872959D01*
X129430457Y-82918195D01*
X129396238Y-82934151D01*
X129396233Y-82934154D01*
X129391251Y-82936477D01*
X129286389Y-83009902D01*
X129208211Y-83064643D01*
X129208208Y-83064645D01*
X129203700Y-83067802D01*
X129041802Y-83229700D01*
X129038645Y-83234208D01*
X129038643Y-83234211D01*
X128989164Y-83304875D01*
X128910477Y-83417251D01*
X128908154Y-83422233D01*
X128908151Y-83422238D01*
X128816039Y-83619775D01*
X128813716Y-83624757D01*
X128754457Y-83845913D01*
X128734502Y-84074000D01*
X128754457Y-84302087D01*
X128813716Y-84523243D01*
X128816039Y-84528224D01*
X128816039Y-84528225D01*
X128908151Y-84725762D01*
X128908154Y-84725767D01*
X128910477Y-84730749D01*
X129041802Y-84918300D01*
X129203700Y-85080198D01*
X129208208Y-85083355D01*
X129208211Y-85083357D01*
X129286389Y-85138098D01*
X129391251Y-85211523D01*
X129396233Y-85213846D01*
X129396238Y-85213849D01*
X129430457Y-85229805D01*
X129483742Y-85276722D01*
X129503203Y-85344999D01*
X129482661Y-85412959D01*
X129430457Y-85458195D01*
X129396238Y-85474151D01*
X129396233Y-85474154D01*
X129391251Y-85476477D01*
X129286389Y-85549902D01*
X129208211Y-85604643D01*
X129208208Y-85604645D01*
X129203700Y-85607802D01*
X129041802Y-85769700D01*
X129038645Y-85774208D01*
X129038643Y-85774211D01*
X128989164Y-85844875D01*
X128910477Y-85957251D01*
X128908154Y-85962233D01*
X128908151Y-85962238D01*
X128816039Y-86159775D01*
X128813716Y-86164757D01*
X128754457Y-86385913D01*
X128734502Y-86614000D01*
X128754457Y-86842087D01*
X128755881Y-86847400D01*
X128755881Y-86847402D01*
X128767131Y-86889385D01*
X128813716Y-87063243D01*
X128816039Y-87068224D01*
X128816039Y-87068225D01*
X128908151Y-87265762D01*
X128908154Y-87265767D01*
X128910477Y-87270749D01*
X129041802Y-87458300D01*
X129203700Y-87620198D01*
X129208208Y-87623355D01*
X129208211Y-87623357D01*
X129286389Y-87678098D01*
X129391251Y-87751523D01*
X129396233Y-87753846D01*
X129396238Y-87753849D01*
X129430457Y-87769805D01*
X129483742Y-87816722D01*
X129503203Y-87884999D01*
X129482661Y-87952959D01*
X129430457Y-87998195D01*
X129396238Y-88014151D01*
X129396233Y-88014154D01*
X129391251Y-88016477D01*
X129286389Y-88089902D01*
X129208211Y-88144643D01*
X129208208Y-88144645D01*
X129203700Y-88147802D01*
X129041802Y-88309700D01*
X128910477Y-88497251D01*
X128908154Y-88502233D01*
X128908151Y-88502238D01*
X128816039Y-88699775D01*
X128813716Y-88704757D01*
X128754457Y-88925913D01*
X128734502Y-89154000D01*
X128754457Y-89382087D01*
X128755881Y-89387400D01*
X128755881Y-89387402D01*
X128811105Y-89593497D01*
X128813716Y-89603243D01*
X128816039Y-89608224D01*
X128816039Y-89608225D01*
X128908151Y-89805762D01*
X128908154Y-89805767D01*
X128910477Y-89810749D01*
X128936911Y-89848500D01*
X129035560Y-89989385D01*
X129041802Y-89998300D01*
X129203700Y-90160198D01*
X129208208Y-90163355D01*
X129208211Y-90163357D01*
X129250967Y-90193295D01*
X129391251Y-90291523D01*
X129396233Y-90293846D01*
X129396238Y-90293849D01*
X129430457Y-90309805D01*
X129483742Y-90356722D01*
X129503203Y-90424999D01*
X129482661Y-90492959D01*
X129430457Y-90538195D01*
X129396238Y-90554151D01*
X129396233Y-90554154D01*
X129391251Y-90556477D01*
X129331863Y-90598061D01*
X129208211Y-90684643D01*
X129208208Y-90684645D01*
X129203700Y-90687802D01*
X129041802Y-90849700D01*
X128910477Y-91037251D01*
X128908154Y-91042233D01*
X128908151Y-91042238D01*
X128835297Y-91198476D01*
X128813716Y-91244757D01*
X128754457Y-91465913D01*
X128734502Y-91694000D01*
X128754457Y-91922087D01*
X128755881Y-91927400D01*
X128755881Y-91927402D01*
X128810485Y-92131183D01*
X128813716Y-92143243D01*
X128816039Y-92148224D01*
X128816039Y-92148225D01*
X128908151Y-92345762D01*
X128908154Y-92345767D01*
X128910477Y-92350749D01*
X128949356Y-92406274D01*
X129034798Y-92528297D01*
X129041802Y-92538300D01*
X129203700Y-92700198D01*
X129208208Y-92703355D01*
X129208211Y-92703357D01*
X129253729Y-92735229D01*
X129391251Y-92831523D01*
X129396233Y-92833846D01*
X129396238Y-92833849D01*
X129430457Y-92849805D01*
X129483742Y-92896722D01*
X129503203Y-92964999D01*
X129482661Y-93032959D01*
X129430457Y-93078195D01*
X129396238Y-93094151D01*
X129396233Y-93094154D01*
X129391251Y-93096477D01*
X129348501Y-93126411D01*
X129208211Y-93224643D01*
X129208208Y-93224645D01*
X129203700Y-93227802D01*
X129041802Y-93389700D01*
X128910477Y-93577251D01*
X128908154Y-93582233D01*
X128908151Y-93582238D01*
X128841781Y-93724570D01*
X128813716Y-93784757D01*
X128812294Y-93790065D01*
X128812293Y-93790067D01*
X128768943Y-93951851D01*
X128754457Y-94005913D01*
X128734502Y-94234000D01*
X128754457Y-94462087D01*
X128755881Y-94467400D01*
X128755881Y-94467402D01*
X128812161Y-94677438D01*
X128813716Y-94683243D01*
X128816039Y-94688224D01*
X128816039Y-94688225D01*
X128908151Y-94885762D01*
X128908154Y-94885767D01*
X128910477Y-94890749D01*
X128935745Y-94926835D01*
X129036389Y-95070569D01*
X129041802Y-95078300D01*
X129203700Y-95240198D01*
X129208208Y-95243355D01*
X129208211Y-95243357D01*
X129286389Y-95298098D01*
X129391251Y-95371523D01*
X129396233Y-95373846D01*
X129396238Y-95373849D01*
X129430457Y-95389805D01*
X129483742Y-95436722D01*
X129503203Y-95504999D01*
X129482661Y-95572959D01*
X129430457Y-95618195D01*
X129396238Y-95634151D01*
X129396233Y-95634154D01*
X129391251Y-95636477D01*
X129348501Y-95666411D01*
X129208211Y-95764643D01*
X129208208Y-95764645D01*
X129203700Y-95767802D01*
X129041802Y-95929700D01*
X128910477Y-96117251D01*
X128908154Y-96122233D01*
X128908151Y-96122238D01*
X128841781Y-96264570D01*
X128813716Y-96324757D01*
X128812294Y-96330065D01*
X128812293Y-96330067D01*
X128768943Y-96491851D01*
X128754457Y-96545913D01*
X128734502Y-96774000D01*
X128754457Y-97002087D01*
X128755881Y-97007400D01*
X128755881Y-97007402D01*
X128812161Y-97217438D01*
X128813716Y-97223243D01*
X128816039Y-97228224D01*
X128816039Y-97228225D01*
X128908151Y-97425762D01*
X128908154Y-97425767D01*
X128910477Y-97430749D01*
X128913634Y-97435257D01*
X128999250Y-97557529D01*
X129041802Y-97618300D01*
X129203700Y-97780198D01*
X129208208Y-97783355D01*
X129208211Y-97783357D01*
X129273439Y-97829030D01*
X129391251Y-97911523D01*
X129396233Y-97913846D01*
X129396238Y-97913849D01*
X129430457Y-97929805D01*
X129483742Y-97976722D01*
X129503203Y-98044999D01*
X129482661Y-98112959D01*
X129430457Y-98158195D01*
X129396238Y-98174151D01*
X129396233Y-98174154D01*
X129391251Y-98176477D01*
X129348050Y-98206727D01*
X129208211Y-98304643D01*
X129208208Y-98304645D01*
X129203700Y-98307802D01*
X129041802Y-98469700D01*
X129038645Y-98474208D01*
X129038643Y-98474211D01*
X128983902Y-98552389D01*
X128910477Y-98657251D01*
X128908154Y-98662233D01*
X128908151Y-98662238D01*
X128816039Y-98859775D01*
X128813716Y-98864757D01*
X128754457Y-99085913D01*
X128734502Y-99314000D01*
X128754457Y-99542087D01*
X128813716Y-99763243D01*
X128816039Y-99768224D01*
X128816039Y-99768225D01*
X128908151Y-99965762D01*
X128908154Y-99965767D01*
X128910477Y-99970749D01*
X129041802Y-100158300D01*
X129203700Y-100320198D01*
X129208208Y-100323355D01*
X129208211Y-100323357D01*
X129286389Y-100378098D01*
X129391251Y-100451523D01*
X129396233Y-100453846D01*
X129396238Y-100453849D01*
X129430457Y-100469805D01*
X129483742Y-100516722D01*
X129503203Y-100584999D01*
X129482661Y-100652959D01*
X129430457Y-100698195D01*
X129396238Y-100714151D01*
X129396233Y-100714154D01*
X129391251Y-100716477D01*
X129348501Y-100746411D01*
X129208211Y-100844643D01*
X129208208Y-100844645D01*
X129203700Y-100847802D01*
X129041802Y-101009700D01*
X129038645Y-101014208D01*
X129038643Y-101014211D01*
X129014892Y-101048131D01*
X128910477Y-101197251D01*
X128908154Y-101202233D01*
X128908151Y-101202238D01*
X128841781Y-101344570D01*
X128813716Y-101404757D01*
X128812294Y-101410065D01*
X128812293Y-101410067D01*
X128768943Y-101571851D01*
X128754457Y-101625913D01*
X128734502Y-101854000D01*
X128754457Y-102082087D01*
X128755881Y-102087400D01*
X128755881Y-102087402D01*
X128812161Y-102297438D01*
X128813716Y-102303243D01*
X128816039Y-102308224D01*
X128816039Y-102308225D01*
X128908151Y-102505762D01*
X128908154Y-102505767D01*
X128910477Y-102510749D01*
X128913634Y-102515257D01*
X128999250Y-102637529D01*
X129041802Y-102698300D01*
X129203700Y-102860198D01*
X129208208Y-102863355D01*
X129208211Y-102863357D01*
X129225325Y-102875340D01*
X129391251Y-102991523D01*
X129396233Y-102993846D01*
X129396238Y-102993849D01*
X129430457Y-103009805D01*
X129483742Y-103056722D01*
X129503203Y-103124999D01*
X129482661Y-103192959D01*
X129430457Y-103238195D01*
X129396238Y-103254151D01*
X129396233Y-103254154D01*
X129391251Y-103256477D01*
X129290368Y-103327116D01*
X129208211Y-103384643D01*
X129208208Y-103384645D01*
X129203700Y-103387802D01*
X129041802Y-103549700D01*
X128910477Y-103737251D01*
X128908154Y-103742233D01*
X128908151Y-103742238D01*
X128818914Y-103933610D01*
X128813716Y-103944757D01*
X128754457Y-104165913D01*
X128734502Y-104394000D01*
X128754457Y-104622087D01*
X128755881Y-104627400D01*
X128755881Y-104627402D01*
X128805078Y-104811004D01*
X128813716Y-104843243D01*
X128816039Y-104848224D01*
X128816039Y-104848225D01*
X128908151Y-105045762D01*
X128908154Y-105045767D01*
X128910477Y-105050749D01*
X129041802Y-105238300D01*
X129203700Y-105400198D01*
X129208208Y-105403355D01*
X129208211Y-105403357D01*
X129231523Y-105419680D01*
X129391251Y-105531523D01*
X129396233Y-105533846D01*
X129396238Y-105533849D01*
X129431049Y-105550081D01*
X129484334Y-105596998D01*
X129503795Y-105665275D01*
X129483253Y-105733235D01*
X129431049Y-105778471D01*
X129396489Y-105794586D01*
X129386993Y-105800069D01*
X129208533Y-105925028D01*
X129200125Y-105932084D01*
X129046084Y-106086125D01*
X129039028Y-106094533D01*
X128914069Y-106272993D01*
X128908586Y-106282489D01*
X128816510Y-106479947D01*
X128812764Y-106490239D01*
X128766606Y-106662503D01*
X128766942Y-106676599D01*
X128774884Y-106680000D01*
X131315967Y-106680000D01*
X131329498Y-106676027D01*
X131330727Y-106667478D01*
X131283236Y-106490239D01*
X131279490Y-106479947D01*
X131187414Y-106282489D01*
X131181931Y-106272993D01*
X131056972Y-106094533D01*
X131049916Y-106086125D01*
X130895875Y-105932084D01*
X130887467Y-105925028D01*
X130709007Y-105800069D01*
X130699511Y-105794586D01*
X130664951Y-105778471D01*
X130611666Y-105731554D01*
X130592205Y-105663277D01*
X130612747Y-105595317D01*
X130664951Y-105550081D01*
X130699762Y-105533849D01*
X130699767Y-105533846D01*
X130704749Y-105531523D01*
X130864477Y-105419680D01*
X130887789Y-105403357D01*
X130887792Y-105403355D01*
X130892300Y-105400198D01*
X131054198Y-105238300D01*
X131185523Y-105050749D01*
X131187846Y-105045767D01*
X131187849Y-105045762D01*
X131279961Y-104848225D01*
X131279961Y-104848224D01*
X131282284Y-104843243D01*
X131290923Y-104811004D01*
X131340119Y-104627402D01*
X131340119Y-104627400D01*
X131341543Y-104622087D01*
X131361498Y-104394000D01*
X131341543Y-104165913D01*
X131282284Y-103944757D01*
X131277086Y-103933610D01*
X131187849Y-103742238D01*
X131187846Y-103742233D01*
X131185523Y-103737251D01*
X131054198Y-103549700D01*
X130892300Y-103387802D01*
X130887792Y-103384645D01*
X130887789Y-103384643D01*
X130805632Y-103327116D01*
X130704749Y-103256477D01*
X130699767Y-103254154D01*
X130699762Y-103254151D01*
X130665543Y-103238195D01*
X130612258Y-103191278D01*
X130592797Y-103123001D01*
X130613339Y-103055041D01*
X130665543Y-103009805D01*
X130699762Y-102993849D01*
X130699767Y-102993846D01*
X130704749Y-102991523D01*
X130870675Y-102875340D01*
X130887789Y-102863357D01*
X130887792Y-102863355D01*
X130892300Y-102860198D01*
X131054198Y-102698300D01*
X131096751Y-102637529D01*
X131182366Y-102515257D01*
X131185523Y-102510749D01*
X131187846Y-102505767D01*
X131187849Y-102505762D01*
X131279961Y-102308225D01*
X131279961Y-102308224D01*
X131282284Y-102303243D01*
X131283840Y-102297438D01*
X131340119Y-102087402D01*
X131340119Y-102087400D01*
X131341543Y-102082087D01*
X131361498Y-101854000D01*
X131341543Y-101625913D01*
X131327057Y-101571851D01*
X131283707Y-101410067D01*
X131283706Y-101410065D01*
X131282284Y-101404757D01*
X131254219Y-101344570D01*
X131187849Y-101202238D01*
X131187846Y-101202233D01*
X131185523Y-101197251D01*
X131081108Y-101048131D01*
X131057357Y-101014211D01*
X131057355Y-101014208D01*
X131054198Y-101009700D01*
X130892300Y-100847802D01*
X130887792Y-100844645D01*
X130887789Y-100844643D01*
X130747499Y-100746411D01*
X130704749Y-100716477D01*
X130699767Y-100714154D01*
X130699762Y-100714151D01*
X130665543Y-100698195D01*
X130612258Y-100651278D01*
X130594260Y-100588134D01*
X146159900Y-100588134D01*
X146166655Y-100650316D01*
X146217785Y-100786705D01*
X146305139Y-100903261D01*
X146421695Y-100990615D01*
X146558084Y-101041745D01*
X146620266Y-101048500D01*
X149916534Y-101048500D01*
X149978716Y-101041745D01*
X150115105Y-100990615D01*
X150231661Y-100903261D01*
X150319015Y-100786705D01*
X150370145Y-100650316D01*
X150376900Y-100588134D01*
X150376900Y-98491866D01*
X150370145Y-98429684D01*
X150319015Y-98293295D01*
X150231661Y-98176739D01*
X150115105Y-98089385D01*
X149978716Y-98038255D01*
X149916534Y-98031500D01*
X146620266Y-98031500D01*
X146558084Y-98038255D01*
X146421695Y-98089385D01*
X146305139Y-98176739D01*
X146217785Y-98293295D01*
X146166655Y-98429684D01*
X146159900Y-98491866D01*
X146159900Y-100588134D01*
X130594260Y-100588134D01*
X130592797Y-100583001D01*
X130613339Y-100515041D01*
X130665543Y-100469805D01*
X130699762Y-100453849D01*
X130699767Y-100453846D01*
X130704749Y-100451523D01*
X130809611Y-100378098D01*
X130887789Y-100323357D01*
X130887792Y-100323355D01*
X130892300Y-100320198D01*
X131054198Y-100158300D01*
X131185523Y-99970749D01*
X131187846Y-99965767D01*
X131187849Y-99965762D01*
X131279961Y-99768225D01*
X131279961Y-99768224D01*
X131282284Y-99763243D01*
X131341543Y-99542087D01*
X131361498Y-99314000D01*
X131341543Y-99085913D01*
X131282284Y-98864757D01*
X131279961Y-98859775D01*
X131187849Y-98662238D01*
X131187846Y-98662233D01*
X131185523Y-98657251D01*
X131112098Y-98552389D01*
X131057357Y-98474211D01*
X131057355Y-98474208D01*
X131054198Y-98469700D01*
X130892300Y-98307802D01*
X130887792Y-98304645D01*
X130887789Y-98304643D01*
X130747950Y-98206727D01*
X130704749Y-98176477D01*
X130699767Y-98174154D01*
X130699762Y-98174151D01*
X130665543Y-98158195D01*
X130612258Y-98111278D01*
X130592797Y-98043001D01*
X130613339Y-97975041D01*
X130665543Y-97929805D01*
X130699762Y-97913849D01*
X130699767Y-97913846D01*
X130704749Y-97911523D01*
X130822561Y-97829030D01*
X130887789Y-97783357D01*
X130887792Y-97783355D01*
X130892300Y-97780198D01*
X131054198Y-97618300D01*
X131096751Y-97557529D01*
X131182366Y-97435257D01*
X131185523Y-97430749D01*
X131189950Y-97421255D01*
X131236865Y-97367968D01*
X131304147Y-97348500D01*
X139502436Y-97348500D01*
X139570557Y-97368502D01*
X139598247Y-97392669D01*
X139630771Y-97430749D01*
X139698431Y-97509969D01*
X139878984Y-97664176D01*
X139883192Y-97666755D01*
X139883198Y-97666759D01*
X140017955Y-97749338D01*
X140081437Y-97788240D01*
X140086007Y-97790133D01*
X140086011Y-97790135D01*
X140296233Y-97877211D01*
X140300806Y-97879105D01*
X140381009Y-97898360D01*
X140526876Y-97933380D01*
X140526882Y-97933381D01*
X140531689Y-97934535D01*
X140768400Y-97953165D01*
X141005111Y-97934535D01*
X141009918Y-97933381D01*
X141009924Y-97933380D01*
X141155791Y-97898360D01*
X141235994Y-97879105D01*
X141240567Y-97877211D01*
X141450789Y-97790135D01*
X141450793Y-97790133D01*
X141455363Y-97788240D01*
X141518845Y-97749338D01*
X141653602Y-97666759D01*
X141653608Y-97666755D01*
X141657816Y-97664176D01*
X141838369Y-97509969D01*
X141992576Y-97329416D01*
X141995155Y-97325208D01*
X141995159Y-97325202D01*
X142114054Y-97131183D01*
X142116640Y-97126963D01*
X142118629Y-97122163D01*
X142205611Y-96912167D01*
X142205612Y-96912165D01*
X142207505Y-96907594D01*
X142239578Y-96774000D01*
X142261780Y-96681524D01*
X142261781Y-96681518D01*
X142262935Y-96676711D01*
X142281565Y-96440000D01*
X142262935Y-96203289D01*
X142243477Y-96122238D01*
X142208660Y-95977218D01*
X142207505Y-95972406D01*
X142169474Y-95880590D01*
X142118535Y-95757611D01*
X142118533Y-95757607D01*
X142116640Y-95753037D01*
X142114054Y-95748817D01*
X141995159Y-95554798D01*
X141995155Y-95554792D01*
X141992576Y-95550584D01*
X141838369Y-95370031D01*
X141675874Y-95231247D01*
X141641998Y-95185314D01*
X141632522Y-95163332D01*
X140781212Y-94312022D01*
X140767268Y-94304408D01*
X140765435Y-94304539D01*
X140758820Y-94308790D01*
X139907320Y-95160290D01*
X139886374Y-95198648D01*
X139857618Y-95234072D01*
X139848428Y-95241921D01*
X139698431Y-95370031D01*
X139695223Y-95373787D01*
X139598247Y-95487331D01*
X139538796Y-95526140D01*
X139502436Y-95531500D01*
X130875899Y-95531500D01*
X130807778Y-95511498D01*
X130761285Y-95457842D01*
X130751181Y-95387568D01*
X130780675Y-95322988D01*
X130803628Y-95302287D01*
X130887789Y-95243357D01*
X130887792Y-95243355D01*
X130892300Y-95240198D01*
X130953093Y-95179405D01*
X131015405Y-95145379D01*
X131042188Y-95142500D01*
X134030583Y-95142500D01*
X134050292Y-95144051D01*
X134064190Y-95146252D01*
X134070777Y-95145907D01*
X134070782Y-95145907D01*
X134132480Y-95142673D01*
X134139074Y-95142500D01*
X134159610Y-95142500D01*
X134162882Y-95142156D01*
X134162884Y-95142156D01*
X134180042Y-95140353D01*
X134186616Y-95139836D01*
X134248308Y-95136603D01*
X134248312Y-95136602D01*
X134254903Y-95136257D01*
X134261284Y-95134547D01*
X134261286Y-95134547D01*
X134268491Y-95132617D01*
X134287925Y-95129015D01*
X134295354Y-95128234D01*
X134295363Y-95128232D01*
X134301928Y-95127542D01*
X134366997Y-95106400D01*
X134373299Y-95104533D01*
X134439370Y-95086829D01*
X134451908Y-95080440D01*
X134470174Y-95072875D01*
X134477272Y-95070569D01*
X134477274Y-95070568D01*
X134483556Y-95068527D01*
X134542785Y-95034331D01*
X134548579Y-95031185D01*
X134562345Y-95024171D01*
X134609530Y-95000129D01*
X134620467Y-94991273D01*
X134636763Y-94980073D01*
X134643224Y-94976343D01*
X134643228Y-94976340D01*
X134648944Y-94973040D01*
X134653850Y-94968623D01*
X134653855Y-94968619D01*
X134699769Y-94927278D01*
X134704784Y-94922994D01*
X134718177Y-94912148D01*
X134720741Y-94910072D01*
X134735256Y-94895557D01*
X134740041Y-94891016D01*
X134785957Y-94849673D01*
X134790866Y-94845253D01*
X134799140Y-94833865D01*
X134811981Y-94818832D01*
X137245408Y-92385405D01*
X137307720Y-92351379D01*
X137334503Y-92348500D01*
X139133900Y-92348500D01*
X139202021Y-92368502D01*
X139248514Y-92422158D01*
X139259900Y-92474500D01*
X139259900Y-92488134D01*
X139266655Y-92550316D01*
X139317785Y-92686705D01*
X139405139Y-92803261D01*
X139412319Y-92808642D01*
X139412320Y-92808643D01*
X139512903Y-92884026D01*
X139555418Y-92940885D01*
X139560444Y-93011704D01*
X139543224Y-93050017D01*
X139544630Y-93050879D01*
X139423195Y-93249042D01*
X139418713Y-93257837D01*
X139331666Y-93467988D01*
X139328617Y-93477373D01*
X139275515Y-93698554D01*
X139273972Y-93708301D01*
X139256125Y-93935070D01*
X139256125Y-93944930D01*
X139273972Y-94171699D01*
X139275515Y-94181446D01*
X139328617Y-94402627D01*
X139331666Y-94412012D01*
X139418713Y-94622163D01*
X139423195Y-94630958D01*
X139525832Y-94798445D01*
X139536290Y-94807907D01*
X139545066Y-94804124D01*
X140679305Y-93669885D01*
X140741617Y-93635859D01*
X140812432Y-93640924D01*
X140857495Y-93669885D01*
X141988690Y-94801080D01*
X142001070Y-94807840D01*
X142008720Y-94802113D01*
X142113605Y-94630958D01*
X142118087Y-94622163D01*
X142205134Y-94412012D01*
X142208183Y-94402627D01*
X142261285Y-94181446D01*
X142262828Y-94171699D01*
X142280675Y-93944930D01*
X142280675Y-93935070D01*
X142262828Y-93708301D01*
X142261285Y-93698554D01*
X142208183Y-93477373D01*
X142205134Y-93467988D01*
X142118087Y-93257837D01*
X142113605Y-93249042D01*
X141992170Y-93050879D01*
X141994251Y-93049604D01*
X141973680Y-92992261D01*
X141989642Y-92923082D01*
X142023897Y-92884026D01*
X142124480Y-92808643D01*
X142124481Y-92808642D01*
X142131661Y-92803261D01*
X142219015Y-92686705D01*
X142270145Y-92550316D01*
X142276900Y-92488134D01*
X142276900Y-90391866D01*
X142270145Y-90329684D01*
X142219015Y-90193295D01*
X142131661Y-90076739D01*
X142015105Y-89989385D01*
X141878716Y-89938255D01*
X141816534Y-89931500D01*
X139720266Y-89931500D01*
X139658084Y-89938255D01*
X139521695Y-89989385D01*
X139405139Y-90076739D01*
X139317785Y-90193295D01*
X139266655Y-90329684D01*
X139259900Y-90391866D01*
X139259900Y-90405500D01*
X139239898Y-90473621D01*
X139186242Y-90520114D01*
X139133900Y-90531500D01*
X136987417Y-90531500D01*
X136967707Y-90529949D01*
X136960327Y-90528780D01*
X136960326Y-90528780D01*
X136953810Y-90527748D01*
X136947223Y-90528093D01*
X136947218Y-90528093D01*
X136885520Y-90531327D01*
X136878926Y-90531500D01*
X136858390Y-90531500D01*
X136855118Y-90531844D01*
X136855116Y-90531844D01*
X136837958Y-90533647D01*
X136831384Y-90534164D01*
X136769696Y-90537397D01*
X136769694Y-90537397D01*
X136763097Y-90537743D01*
X136749504Y-90541385D01*
X136730075Y-90544986D01*
X136716072Y-90546458D01*
X136651025Y-90567593D01*
X136644712Y-90569463D01*
X136624074Y-90574993D01*
X136585003Y-90585462D01*
X136585000Y-90585463D01*
X136578630Y-90587170D01*
X136566085Y-90593562D01*
X136547826Y-90601125D01*
X136534444Y-90605473D01*
X136528723Y-90608776D01*
X136475223Y-90639664D01*
X136469426Y-90642812D01*
X136414351Y-90670874D01*
X136414348Y-90670876D01*
X136408470Y-90673871D01*
X136403342Y-90678024D01*
X136403340Y-90678025D01*
X136397534Y-90682727D01*
X136381237Y-90693927D01*
X136374776Y-90697657D01*
X136374772Y-90697660D01*
X136369056Y-90700960D01*
X136364150Y-90705377D01*
X136364145Y-90705381D01*
X136318231Y-90746722D01*
X136313216Y-90751006D01*
X136310708Y-90753037D01*
X136297259Y-90763928D01*
X136282744Y-90778443D01*
X136277959Y-90782984D01*
X136227134Y-90828747D01*
X136223255Y-90834086D01*
X136223254Y-90834087D01*
X136218860Y-90840135D01*
X136206019Y-90855168D01*
X133772592Y-93288595D01*
X133710280Y-93322621D01*
X133683497Y-93325500D01*
X131042188Y-93325500D01*
X130974067Y-93305498D01*
X130953093Y-93288595D01*
X130892300Y-93227802D01*
X130887792Y-93224645D01*
X130887789Y-93224643D01*
X130747499Y-93126411D01*
X130704749Y-93096477D01*
X130699767Y-93094154D01*
X130699762Y-93094151D01*
X130665543Y-93078195D01*
X130612258Y-93031278D01*
X130592797Y-92963001D01*
X130613339Y-92895041D01*
X130665543Y-92849805D01*
X130699762Y-92833849D01*
X130699767Y-92833846D01*
X130704749Y-92831523D01*
X130842271Y-92735229D01*
X130887789Y-92703357D01*
X130887792Y-92703355D01*
X130892300Y-92700198D01*
X131054198Y-92538300D01*
X131061203Y-92528297D01*
X131146644Y-92406274D01*
X131185523Y-92350749D01*
X131187846Y-92345767D01*
X131187849Y-92345762D01*
X131279961Y-92148225D01*
X131279961Y-92148224D01*
X131282284Y-92143243D01*
X131285516Y-92131183D01*
X131340119Y-91927402D01*
X131340119Y-91927400D01*
X131341543Y-91922087D01*
X131361498Y-91694000D01*
X131341543Y-91465913D01*
X131282284Y-91244757D01*
X131260703Y-91198476D01*
X131187849Y-91042238D01*
X131187846Y-91042233D01*
X131185523Y-91037251D01*
X131054198Y-90849700D01*
X130892300Y-90687802D01*
X130887792Y-90684645D01*
X130887789Y-90684643D01*
X130764137Y-90598061D01*
X130704749Y-90556477D01*
X130699767Y-90554154D01*
X130699762Y-90554151D01*
X130665543Y-90538195D01*
X130612258Y-90491278D01*
X130592797Y-90423001D01*
X130613339Y-90355041D01*
X130665543Y-90309805D01*
X130699762Y-90293849D01*
X130699767Y-90293846D01*
X130704749Y-90291523D01*
X130845033Y-90193295D01*
X130887789Y-90163357D01*
X130887792Y-90163355D01*
X130892300Y-90160198D01*
X131054198Y-89998300D01*
X131060441Y-89989385D01*
X131159089Y-89848500D01*
X131185523Y-89810749D01*
X131187846Y-89805767D01*
X131187849Y-89805762D01*
X131279961Y-89608225D01*
X131279961Y-89608224D01*
X131282284Y-89603243D01*
X131284896Y-89593497D01*
X131340119Y-89387402D01*
X131340119Y-89387400D01*
X131341543Y-89382087D01*
X131361498Y-89154000D01*
X131341543Y-88925913D01*
X131282284Y-88704757D01*
X131279961Y-88699775D01*
X131187849Y-88502238D01*
X131187846Y-88502233D01*
X131185523Y-88497251D01*
X131054198Y-88309700D01*
X130892300Y-88147802D01*
X130887792Y-88144645D01*
X130887789Y-88144643D01*
X130809611Y-88089902D01*
X130704749Y-88016477D01*
X130699767Y-88014154D01*
X130699762Y-88014151D01*
X130665543Y-87998195D01*
X130612258Y-87951278D01*
X130592797Y-87883001D01*
X130613339Y-87815041D01*
X130665543Y-87769805D01*
X130699762Y-87753849D01*
X130699767Y-87753846D01*
X130704749Y-87751523D01*
X130809611Y-87678098D01*
X130887789Y-87623357D01*
X130887792Y-87623355D01*
X130892300Y-87620198D01*
X130953093Y-87559405D01*
X131015405Y-87525379D01*
X131042188Y-87522500D01*
X140541497Y-87522500D01*
X140609618Y-87542502D01*
X140630592Y-87559405D01*
X153994595Y-100923408D01*
X154028621Y-100985720D01*
X154031500Y-101012503D01*
X154031500Y-108153737D01*
X154011498Y-108221858D01*
X153996594Y-108240788D01*
X153880629Y-108362138D01*
X153754743Y-108546680D01*
X153660688Y-108749305D01*
X153600989Y-108964570D01*
X153577251Y-109186695D01*
X153577548Y-109191848D01*
X153577548Y-109191851D01*
X153583011Y-109286590D01*
X153590110Y-109409715D01*
X153591247Y-109414761D01*
X153591248Y-109414767D01*
X153604597Y-109474000D01*
X153639222Y-109627639D01*
X153723266Y-109834616D01*
X153839987Y-110025088D01*
X153986250Y-110193938D01*
X153990230Y-110197242D01*
X153994981Y-110201187D01*
X154034616Y-110260090D01*
X154036113Y-110331071D01*
X153998997Y-110391593D01*
X153958725Y-110416112D01*
X153862751Y-110452091D01*
X153843295Y-110459385D01*
X153726739Y-110546739D01*
X153639385Y-110663295D01*
X153588255Y-110799684D01*
X153581500Y-110861866D01*
X153581500Y-112658134D01*
X153588255Y-112720316D01*
X153639385Y-112856705D01*
X153726739Y-112973261D01*
X153843295Y-113060615D01*
X153979684Y-113111745D01*
X154041866Y-113118500D01*
X155838134Y-113118500D01*
X155900316Y-113111745D01*
X156036705Y-113060615D01*
X156153261Y-112973261D01*
X156240615Y-112856705D01*
X156291745Y-112720316D01*
X156298500Y-112658134D01*
X156298500Y-110861866D01*
X156291745Y-110799684D01*
X156240615Y-110663295D01*
X156153261Y-110546739D01*
X156036705Y-110459385D01*
X156024132Y-110454672D01*
X155918203Y-110414960D01*
X155861439Y-110372318D01*
X155836739Y-110305756D01*
X155851947Y-110236408D01*
X155873493Y-110207727D01*
X155946217Y-110135257D01*
X155978096Y-110103489D01*
X156037594Y-110020689D01*
X156105435Y-109926277D01*
X156108453Y-109922077D01*
X156207430Y-109721811D01*
X156272370Y-109508069D01*
X156301529Y-109286590D01*
X156303156Y-109220000D01*
X156284852Y-108997361D01*
X156230431Y-108780702D01*
X156141354Y-108575840D01*
X156071461Y-108467802D01*
X156022822Y-108392617D01*
X156022820Y-108392614D01*
X156020014Y-108388277D01*
X156016532Y-108384450D01*
X155881307Y-108235839D01*
X155850255Y-108171993D01*
X155848500Y-108151039D01*
X155848500Y-100665416D01*
X155850051Y-100645704D01*
X155851220Y-100638324D01*
X155852252Y-100631809D01*
X155851619Y-100619716D01*
X155848673Y-100563519D01*
X155848500Y-100556925D01*
X155848500Y-100536390D01*
X155846353Y-100515960D01*
X155845836Y-100509385D01*
X155842603Y-100447696D01*
X155842603Y-100447695D01*
X155842257Y-100441096D01*
X155838616Y-100427508D01*
X155835012Y-100408061D01*
X155834233Y-100400644D01*
X155834232Y-100400640D01*
X155833542Y-100394072D01*
X155812402Y-100329009D01*
X155810529Y-100322685D01*
X155794539Y-100263010D01*
X155794538Y-100263006D01*
X155792829Y-100256630D01*
X155786440Y-100244092D01*
X155778875Y-100225826D01*
X155776569Y-100218728D01*
X155776568Y-100218726D01*
X155774527Y-100212444D01*
X155740335Y-100153220D01*
X155737188Y-100147426D01*
X155709127Y-100092352D01*
X155709125Y-100092349D01*
X155706129Y-100086469D01*
X155697267Y-100075526D01*
X155686073Y-100059237D01*
X155679040Y-100047056D01*
X155674623Y-100042150D01*
X155674619Y-100042145D01*
X155633269Y-99996221D01*
X155628997Y-99991220D01*
X155616072Y-99975259D01*
X155601557Y-99960744D01*
X155597016Y-99955959D01*
X155555673Y-99910043D01*
X155551253Y-99905134D01*
X155539865Y-99896860D01*
X155524832Y-99884019D01*
X153313483Y-97672670D01*
X154400560Y-97672670D01*
X154406287Y-97680320D01*
X154577442Y-97785205D01*
X154586237Y-97789687D01*
X154796388Y-97876734D01*
X154805773Y-97879783D01*
X155026954Y-97932885D01*
X155036701Y-97934428D01*
X155263470Y-97952275D01*
X155273330Y-97952275D01*
X155500099Y-97934428D01*
X155509846Y-97932885D01*
X155731027Y-97879783D01*
X155740412Y-97876734D01*
X155950563Y-97789687D01*
X155959358Y-97785205D01*
X156126845Y-97682568D01*
X156136307Y-97672110D01*
X156132524Y-97663334D01*
X155281212Y-96812022D01*
X155267268Y-96804408D01*
X155265435Y-96804539D01*
X155258820Y-96808790D01*
X154407320Y-97660290D01*
X154400560Y-97672670D01*
X153313483Y-97672670D01*
X152085743Y-96444930D01*
X153756125Y-96444930D01*
X153773972Y-96671699D01*
X153775515Y-96681446D01*
X153828617Y-96902627D01*
X153831666Y-96912012D01*
X153918713Y-97122163D01*
X153923195Y-97130958D01*
X154025832Y-97298445D01*
X154036290Y-97307907D01*
X154045066Y-97304124D01*
X154896378Y-96452812D01*
X154903992Y-96438868D01*
X154903861Y-96437035D01*
X154899610Y-96430420D01*
X154048110Y-95578920D01*
X154035730Y-95572160D01*
X154028080Y-95577887D01*
X153923195Y-95749042D01*
X153918713Y-95757837D01*
X153831666Y-95967988D01*
X153828617Y-95977373D01*
X153775515Y-96198554D01*
X153773972Y-96208301D01*
X153756125Y-96435070D01*
X153756125Y-96444930D01*
X152085743Y-96444930D01*
X150848703Y-95207890D01*
X154400493Y-95207890D01*
X154404276Y-95216666D01*
X155255588Y-96067978D01*
X155269532Y-96075592D01*
X155271365Y-96075461D01*
X155277980Y-96071210D01*
X156129480Y-95219710D01*
X156136240Y-95207330D01*
X156130513Y-95199680D01*
X155959358Y-95094795D01*
X155950563Y-95090313D01*
X155740412Y-95003266D01*
X155731027Y-95000217D01*
X155509846Y-94947115D01*
X155500099Y-94945572D01*
X155273330Y-94927725D01*
X155263470Y-94927725D01*
X155036701Y-94945572D01*
X155026954Y-94947115D01*
X154805773Y-95000217D01*
X154796388Y-95003266D01*
X154586237Y-95090313D01*
X154577442Y-95094795D01*
X154409955Y-95197432D01*
X154400493Y-95207890D01*
X150848703Y-95207890D01*
X145028947Y-89388134D01*
X146159900Y-89388134D01*
X146166655Y-89450316D01*
X146217785Y-89586705D01*
X146305139Y-89703261D01*
X146421695Y-89790615D01*
X146558084Y-89841745D01*
X146620266Y-89848500D01*
X149916534Y-89848500D01*
X149978716Y-89841745D01*
X150115105Y-89790615D01*
X150231661Y-89703261D01*
X150319015Y-89586705D01*
X150370145Y-89450316D01*
X150376900Y-89388134D01*
X150376900Y-87291866D01*
X150370145Y-87229684D01*
X150319015Y-87093295D01*
X150231661Y-86976739D01*
X150115105Y-86889385D01*
X149978716Y-86838255D01*
X149916534Y-86831500D01*
X146620266Y-86831500D01*
X146558084Y-86838255D01*
X146421695Y-86889385D01*
X146305139Y-86976739D01*
X146217785Y-87093295D01*
X146166655Y-87229684D01*
X146159900Y-87291866D01*
X146159900Y-89388134D01*
X145028947Y-89388134D01*
X141669981Y-86029168D01*
X141657140Y-86014135D01*
X141652746Y-86008087D01*
X141652745Y-86008086D01*
X141648866Y-86002747D01*
X141598041Y-85956984D01*
X141593256Y-85952443D01*
X141578741Y-85937928D01*
X141571282Y-85931888D01*
X141562784Y-85925006D01*
X141557769Y-85920722D01*
X141511855Y-85879381D01*
X141511850Y-85879377D01*
X141506944Y-85874960D01*
X141501228Y-85871660D01*
X141501224Y-85871657D01*
X141494763Y-85867927D01*
X141478466Y-85856727D01*
X141472660Y-85852025D01*
X141472658Y-85852024D01*
X141467530Y-85847871D01*
X141406577Y-85816814D01*
X141400782Y-85813667D01*
X141347279Y-85782777D01*
X141347278Y-85782776D01*
X141341556Y-85779473D01*
X141335274Y-85777432D01*
X141335272Y-85777431D01*
X141328174Y-85775125D01*
X141309907Y-85767559D01*
X141297370Y-85761171D01*
X141231299Y-85743467D01*
X141224997Y-85741600D01*
X141159928Y-85720458D01*
X141153363Y-85719768D01*
X141153354Y-85719766D01*
X141145925Y-85718985D01*
X141126491Y-85715383D01*
X141119286Y-85713453D01*
X141119284Y-85713453D01*
X141112903Y-85711743D01*
X141106312Y-85711398D01*
X141106308Y-85711397D01*
X141044616Y-85708164D01*
X141038042Y-85707647D01*
X141020884Y-85705844D01*
X141020882Y-85705844D01*
X141017610Y-85705500D01*
X140997074Y-85705500D01*
X140990480Y-85705327D01*
X140928782Y-85702093D01*
X140928777Y-85702093D01*
X140922190Y-85701748D01*
X140908292Y-85703949D01*
X140888583Y-85705500D01*
X131042188Y-85705500D01*
X130974067Y-85685498D01*
X130953093Y-85668595D01*
X130892300Y-85607802D01*
X130887792Y-85604645D01*
X130887789Y-85604643D01*
X130809611Y-85549902D01*
X130704749Y-85476477D01*
X130699767Y-85474154D01*
X130699762Y-85474151D01*
X130665543Y-85458195D01*
X130612258Y-85411278D01*
X130592797Y-85343001D01*
X130613339Y-85275041D01*
X130665543Y-85229805D01*
X130699762Y-85213849D01*
X130699767Y-85213846D01*
X130704749Y-85211523D01*
X130809611Y-85138098D01*
X130887789Y-85083357D01*
X130887792Y-85083355D01*
X130892300Y-85080198D01*
X130953093Y-85019405D01*
X131015405Y-84985379D01*
X131042188Y-84982500D01*
X149177497Y-84982500D01*
X149245618Y-85002502D01*
X149266592Y-85019405D01*
X154322995Y-90075808D01*
X154357021Y-90138120D01*
X154359900Y-90164903D01*
X154359900Y-90174036D01*
X154339898Y-90242157D01*
X154315731Y-90269847D01*
X154198431Y-90370031D01*
X154044224Y-90550584D01*
X154041645Y-90554792D01*
X154041641Y-90554798D01*
X153963246Y-90682727D01*
X153920160Y-90753037D01*
X153918267Y-90757607D01*
X153918265Y-90757611D01*
X153877856Y-90855168D01*
X153829295Y-90972406D01*
X153773865Y-91203289D01*
X153755235Y-91440000D01*
X153773865Y-91676711D01*
X153775019Y-91681518D01*
X153775020Y-91681524D01*
X153779330Y-91699475D01*
X153829295Y-91907594D01*
X153831188Y-91912165D01*
X153831189Y-91912167D01*
X153837500Y-91927402D01*
X153920160Y-92126963D01*
X153922746Y-92131183D01*
X154041641Y-92325202D01*
X154041645Y-92325208D01*
X154044224Y-92329416D01*
X154198431Y-92509969D01*
X154378984Y-92664176D01*
X154383192Y-92666755D01*
X154383198Y-92666759D01*
X154574038Y-92783706D01*
X154581437Y-92788240D01*
X154586007Y-92790133D01*
X154586011Y-92790135D01*
X154796233Y-92877211D01*
X154800806Y-92879105D01*
X154874186Y-92896722D01*
X155026876Y-92933380D01*
X155026882Y-92933381D01*
X155031689Y-92934535D01*
X155268400Y-92953165D01*
X155505111Y-92934535D01*
X155509918Y-92933381D01*
X155509924Y-92933380D01*
X155662614Y-92896722D01*
X155735994Y-92879105D01*
X155740567Y-92877211D01*
X155950789Y-92790135D01*
X155950793Y-92790133D01*
X155955363Y-92788240D01*
X155962762Y-92783706D01*
X156153602Y-92666759D01*
X156153608Y-92666755D01*
X156157816Y-92664176D01*
X156338369Y-92509969D01*
X156492576Y-92329416D01*
X156493105Y-92329868D01*
X156546285Y-92288860D01*
X156617021Y-92282783D01*
X156679813Y-92315914D01*
X156714725Y-92377734D01*
X156718000Y-92406274D01*
X156718000Y-95484952D01*
X156697998Y-95553073D01*
X156644342Y-95599566D01*
X156574068Y-95609670D01*
X156507467Y-95578388D01*
X156500509Y-95572093D01*
X156491734Y-95575876D01*
X155640422Y-96427188D01*
X155632808Y-96441132D01*
X155632939Y-96442965D01*
X155637190Y-96449580D01*
X156488690Y-97301080D01*
X156501070Y-97307840D01*
X156516491Y-97296296D01*
X156583011Y-97271485D01*
X156652385Y-97286576D01*
X156702588Y-97336779D01*
X156718000Y-97397164D01*
X156718000Y-119762000D01*
X156697998Y-119830121D01*
X156644342Y-119876614D01*
X156592000Y-119888000D01*
X99694000Y-119888000D01*
X99625879Y-119867998D01*
X99579386Y-119814342D01*
X99568000Y-119762000D01*
X99568000Y-114554000D01*
X113494502Y-114554000D01*
X113514457Y-114782087D01*
X113573716Y-115003243D01*
X113576039Y-115008224D01*
X113576039Y-115008225D01*
X113668151Y-115205762D01*
X113668154Y-115205767D01*
X113670477Y-115210749D01*
X113801802Y-115398300D01*
X113963700Y-115560198D01*
X113968208Y-115563355D01*
X113968211Y-115563357D01*
X114009542Y-115592297D01*
X114151251Y-115691523D01*
X114156233Y-115693846D01*
X114156238Y-115693849D01*
X114338240Y-115778717D01*
X114358757Y-115788284D01*
X114364065Y-115789706D01*
X114364067Y-115789707D01*
X114574598Y-115846119D01*
X114574600Y-115846119D01*
X114579913Y-115847543D01*
X114808000Y-115867498D01*
X115036087Y-115847543D01*
X115041400Y-115846119D01*
X115041402Y-115846119D01*
X115251933Y-115789707D01*
X115251935Y-115789706D01*
X115257243Y-115788284D01*
X115277760Y-115778717D01*
X115459762Y-115693849D01*
X115459767Y-115693846D01*
X115464749Y-115691523D01*
X115606458Y-115592297D01*
X115647789Y-115563357D01*
X115647792Y-115563355D01*
X115652300Y-115560198D01*
X115814198Y-115398300D01*
X115945523Y-115210749D01*
X115947846Y-115205767D01*
X115947849Y-115205762D01*
X116039961Y-115008225D01*
X116039961Y-115008224D01*
X116042284Y-115003243D01*
X116101543Y-114782087D01*
X116121498Y-114554000D01*
X116101543Y-114325913D01*
X116042284Y-114104757D01*
X116039961Y-114099775D01*
X115947849Y-113902238D01*
X115947846Y-113902233D01*
X115945523Y-113897251D01*
X115814198Y-113709700D01*
X115652300Y-113547802D01*
X115647792Y-113544645D01*
X115647789Y-113544643D01*
X115569611Y-113489902D01*
X115464749Y-113416477D01*
X115459767Y-113414154D01*
X115459762Y-113414151D01*
X115424951Y-113397919D01*
X115371666Y-113351002D01*
X115352205Y-113282725D01*
X115372747Y-113214765D01*
X115424951Y-113169529D01*
X115459511Y-113153414D01*
X115469007Y-113147931D01*
X115647467Y-113022972D01*
X115655875Y-113015916D01*
X115809916Y-112861875D01*
X115816972Y-112853467D01*
X115941931Y-112675007D01*
X115947414Y-112665511D01*
X116039490Y-112468053D01*
X116043236Y-112457761D01*
X116089394Y-112285497D01*
X116089058Y-112271401D01*
X116081116Y-112268000D01*
X113540033Y-112268000D01*
X113526502Y-112271973D01*
X113525273Y-112280522D01*
X113572764Y-112457761D01*
X113576510Y-112468053D01*
X113668586Y-112665511D01*
X113674069Y-112675007D01*
X113799028Y-112853467D01*
X113806084Y-112861875D01*
X113960125Y-113015916D01*
X113968533Y-113022972D01*
X114146993Y-113147931D01*
X114156489Y-113153414D01*
X114191049Y-113169529D01*
X114244334Y-113216446D01*
X114263795Y-113284723D01*
X114243253Y-113352683D01*
X114191049Y-113397919D01*
X114156238Y-113414151D01*
X114156233Y-113414154D01*
X114151251Y-113416477D01*
X114046389Y-113489902D01*
X113968211Y-113544643D01*
X113968208Y-113544645D01*
X113963700Y-113547802D01*
X113801802Y-113709700D01*
X113670477Y-113897251D01*
X113668154Y-113902233D01*
X113668151Y-113902238D01*
X113576039Y-114099775D01*
X113573716Y-114104757D01*
X113514457Y-114325913D01*
X113494502Y-114554000D01*
X99568000Y-114554000D01*
X99568000Y-109474000D01*
X113494502Y-109474000D01*
X113514457Y-109702087D01*
X113515881Y-109707400D01*
X113515881Y-109707402D01*
X113572161Y-109917438D01*
X113573716Y-109923243D01*
X113576039Y-109928224D01*
X113576039Y-109928225D01*
X113668151Y-110125762D01*
X113668154Y-110125767D01*
X113670477Y-110130749D01*
X113724378Y-110207727D01*
X113793019Y-110305756D01*
X113801802Y-110318300D01*
X113963700Y-110480198D01*
X113968208Y-110483355D01*
X113968211Y-110483357D01*
X114026674Y-110524293D01*
X114151251Y-110611523D01*
X114156233Y-110613846D01*
X114156238Y-110613849D01*
X114191049Y-110630081D01*
X114244334Y-110676998D01*
X114263795Y-110745275D01*
X114243253Y-110813235D01*
X114191049Y-110858471D01*
X114156489Y-110874586D01*
X114146993Y-110880069D01*
X113968533Y-111005028D01*
X113960125Y-111012084D01*
X113806084Y-111166125D01*
X113799028Y-111174533D01*
X113674069Y-111352993D01*
X113668586Y-111362489D01*
X113576510Y-111559947D01*
X113572764Y-111570239D01*
X113526606Y-111742503D01*
X113526942Y-111756599D01*
X113534884Y-111760000D01*
X116075967Y-111760000D01*
X116089498Y-111756027D01*
X116090727Y-111747478D01*
X116043236Y-111570239D01*
X116039490Y-111559947D01*
X115947414Y-111362489D01*
X115941931Y-111352993D01*
X115816972Y-111174533D01*
X115809916Y-111166125D01*
X115655875Y-111012084D01*
X115647467Y-111005028D01*
X115469007Y-110880069D01*
X115459511Y-110874586D01*
X115424951Y-110858471D01*
X115371666Y-110811554D01*
X115352205Y-110743277D01*
X115372747Y-110675317D01*
X115424951Y-110630081D01*
X115459762Y-110613849D01*
X115459767Y-110613846D01*
X115464749Y-110611523D01*
X115589326Y-110524293D01*
X115647789Y-110483357D01*
X115647792Y-110483355D01*
X115652300Y-110480198D01*
X115814198Y-110318300D01*
X115822982Y-110305756D01*
X115891622Y-110207727D01*
X115945523Y-110130749D01*
X115947846Y-110125767D01*
X115947849Y-110125762D01*
X116039961Y-109928225D01*
X116039961Y-109928224D01*
X116042284Y-109923243D01*
X116043840Y-109917438D01*
X116100119Y-109707402D01*
X116100119Y-109707400D01*
X116101543Y-109702087D01*
X116121498Y-109474000D01*
X116101543Y-109245913D01*
X116087057Y-109191851D01*
X116043707Y-109030067D01*
X116043706Y-109030065D01*
X116042284Y-109024757D01*
X116014219Y-108964570D01*
X115947849Y-108822238D01*
X115947846Y-108822233D01*
X115945523Y-108817251D01*
X115814198Y-108629700D01*
X115652300Y-108467802D01*
X115647792Y-108464645D01*
X115647789Y-108464643D01*
X115507499Y-108366411D01*
X115464749Y-108336477D01*
X115459767Y-108334154D01*
X115459762Y-108334151D01*
X115425543Y-108318195D01*
X115372258Y-108271278D01*
X115352797Y-108203001D01*
X115373339Y-108135041D01*
X115425543Y-108089805D01*
X115459762Y-108073849D01*
X115459767Y-108073846D01*
X115464749Y-108071523D01*
X115569611Y-107998098D01*
X115647789Y-107943357D01*
X115647792Y-107943355D01*
X115652300Y-107940198D01*
X115814198Y-107778300D01*
X115945523Y-107590749D01*
X116022492Y-107425687D01*
X116069409Y-107372402D01*
X116137686Y-107352941D01*
X116205646Y-107373483D01*
X116251712Y-107427505D01*
X116256518Y-107439994D01*
X116259473Y-107449090D01*
X116262776Y-107454812D01*
X116262777Y-107454813D01*
X116293667Y-107508316D01*
X116296814Y-107514111D01*
X116327871Y-107575064D01*
X116332024Y-107580192D01*
X116332025Y-107580194D01*
X116336727Y-107586000D01*
X116347927Y-107602297D01*
X116351657Y-107608758D01*
X116351660Y-107608762D01*
X116354960Y-107614478D01*
X116359377Y-107619384D01*
X116359381Y-107619389D01*
X116400722Y-107665303D01*
X116405006Y-107670318D01*
X116417928Y-107686275D01*
X116432443Y-107700790D01*
X116436984Y-107705575D01*
X116482747Y-107756400D01*
X116488086Y-107760279D01*
X116488087Y-107760280D01*
X116494135Y-107764674D01*
X116509168Y-107777515D01*
X127156004Y-118424351D01*
X127168845Y-118439384D01*
X127177119Y-118450772D01*
X127182028Y-118455192D01*
X127227944Y-118496535D01*
X127232729Y-118501076D01*
X127247244Y-118515591D01*
X127249808Y-118517667D01*
X127263201Y-118528513D01*
X127268216Y-118532797D01*
X127314130Y-118574138D01*
X127314135Y-118574142D01*
X127319041Y-118578559D01*
X127324757Y-118581859D01*
X127324761Y-118581862D01*
X127331222Y-118585592D01*
X127347518Y-118596792D01*
X127358455Y-118605648D01*
X127419406Y-118636704D01*
X127425200Y-118639850D01*
X127484429Y-118674046D01*
X127490711Y-118676087D01*
X127490713Y-118676088D01*
X127497811Y-118678394D01*
X127516077Y-118685959D01*
X127528615Y-118692348D01*
X127534991Y-118694057D01*
X127534995Y-118694058D01*
X127594670Y-118710048D01*
X127600995Y-118711921D01*
X127666057Y-118733061D01*
X127672625Y-118733751D01*
X127672629Y-118733752D01*
X127680046Y-118734531D01*
X127699493Y-118738135D01*
X127713081Y-118741776D01*
X127719680Y-118742122D01*
X127719681Y-118742122D01*
X127781370Y-118745355D01*
X127787945Y-118745872D01*
X127802207Y-118747371D01*
X127808375Y-118748019D01*
X127828910Y-118748019D01*
X127835504Y-118748192D01*
X127897203Y-118751426D01*
X127897208Y-118751426D01*
X127903795Y-118751771D01*
X127917693Y-118749570D01*
X127937402Y-118748019D01*
X130048000Y-118748020D01*
X132158597Y-118748020D01*
X132178306Y-118749571D01*
X132192204Y-118751772D01*
X132198791Y-118751427D01*
X132198796Y-118751427D01*
X132260494Y-118748193D01*
X132267088Y-118748020D01*
X132287624Y-118748020D01*
X132290896Y-118747676D01*
X132290898Y-118747676D01*
X132308056Y-118745873D01*
X132314630Y-118745356D01*
X132376322Y-118742123D01*
X132376326Y-118742122D01*
X132382917Y-118741777D01*
X132389298Y-118740067D01*
X132389300Y-118740067D01*
X132396505Y-118738137D01*
X132415939Y-118734535D01*
X132423368Y-118733754D01*
X132423377Y-118733752D01*
X132429942Y-118733062D01*
X132495011Y-118711920D01*
X132501313Y-118710053D01*
X132567384Y-118692349D01*
X132579922Y-118685960D01*
X132598188Y-118678395D01*
X132605286Y-118676089D01*
X132605288Y-118676088D01*
X132611570Y-118674047D01*
X132617295Y-118670742D01*
X132670796Y-118639853D01*
X132676593Y-118636705D01*
X132676595Y-118636704D01*
X132737544Y-118605649D01*
X132748481Y-118596792D01*
X132764777Y-118585593D01*
X132771238Y-118581863D01*
X132771242Y-118581860D01*
X132776958Y-118578560D01*
X132781864Y-118574143D01*
X132781869Y-118574139D01*
X132827783Y-118532798D01*
X132832798Y-118528514D01*
X132846191Y-118517668D01*
X132848755Y-118515592D01*
X132863271Y-118501076D01*
X132868055Y-118496536D01*
X132913971Y-118455193D01*
X132913972Y-118455192D01*
X132918880Y-118450773D01*
X132927155Y-118439384D01*
X132939995Y-118424352D01*
X139308832Y-112055515D01*
X139323865Y-112042674D01*
X139329913Y-112038280D01*
X139329914Y-112038279D01*
X139335253Y-112034400D01*
X139381016Y-111983575D01*
X139385557Y-111978790D01*
X139400072Y-111964275D01*
X139412994Y-111948318D01*
X139417278Y-111943303D01*
X139458619Y-111897389D01*
X139458623Y-111897384D01*
X139463040Y-111892478D01*
X139466340Y-111886762D01*
X139466343Y-111886758D01*
X139470073Y-111880297D01*
X139481273Y-111864000D01*
X139485975Y-111858194D01*
X139485976Y-111858192D01*
X139490129Y-111853064D01*
X139521188Y-111792108D01*
X139524336Y-111786311D01*
X139539527Y-111760000D01*
X145752502Y-111760000D01*
X145772457Y-111988087D01*
X145773881Y-111993400D01*
X145773881Y-111993402D01*
X145787084Y-112042674D01*
X145831716Y-112209243D01*
X145834039Y-112214224D01*
X145834039Y-112214225D01*
X145926151Y-112411762D01*
X145926154Y-112411767D01*
X145928477Y-112416749D01*
X146059802Y-112604300D01*
X146221700Y-112766198D01*
X146226208Y-112769355D01*
X146226211Y-112769357D01*
X146304389Y-112824098D01*
X146409251Y-112897523D01*
X146414233Y-112899846D01*
X146414238Y-112899849D01*
X146583212Y-112978642D01*
X146616757Y-112994284D01*
X146622065Y-112995706D01*
X146622067Y-112995707D01*
X146832598Y-113052119D01*
X146832600Y-113052119D01*
X146837913Y-113053543D01*
X147066000Y-113073498D01*
X147294087Y-113053543D01*
X147299400Y-113052119D01*
X147299402Y-113052119D01*
X147509933Y-112995707D01*
X147509935Y-112995706D01*
X147515243Y-112994284D01*
X147548788Y-112978642D01*
X147717762Y-112899849D01*
X147717767Y-112899846D01*
X147722749Y-112897523D01*
X147827611Y-112824098D01*
X147905789Y-112769357D01*
X147905792Y-112769355D01*
X147910300Y-112766198D01*
X148072198Y-112604300D01*
X148203523Y-112416749D01*
X148205846Y-112411767D01*
X148205849Y-112411762D01*
X148297961Y-112214225D01*
X148297961Y-112214224D01*
X148300284Y-112209243D01*
X148344917Y-112042674D01*
X148358119Y-111993402D01*
X148358119Y-111993400D01*
X148359543Y-111988087D01*
X148379498Y-111760000D01*
X148359543Y-111531913D01*
X148356781Y-111521604D01*
X148301707Y-111316067D01*
X148301706Y-111316065D01*
X148300284Y-111310757D01*
X148295832Y-111301209D01*
X148205849Y-111108238D01*
X148205846Y-111108233D01*
X148203523Y-111103251D01*
X148072198Y-110915700D01*
X147910300Y-110753802D01*
X147905792Y-110750645D01*
X147905789Y-110750643D01*
X147800613Y-110676998D01*
X147722749Y-110622477D01*
X147717767Y-110620154D01*
X147717762Y-110620151D01*
X147520225Y-110528039D01*
X147520224Y-110528039D01*
X147515243Y-110525716D01*
X147509935Y-110524294D01*
X147509933Y-110524293D01*
X147299402Y-110467881D01*
X147299400Y-110467881D01*
X147294087Y-110466457D01*
X147066000Y-110446502D01*
X146837913Y-110466457D01*
X146832600Y-110467881D01*
X146832598Y-110467881D01*
X146622067Y-110524293D01*
X146622065Y-110524294D01*
X146616757Y-110525716D01*
X146611776Y-110528039D01*
X146611775Y-110528039D01*
X146414238Y-110620151D01*
X146414233Y-110620154D01*
X146409251Y-110622477D01*
X146331387Y-110676998D01*
X146226211Y-110750643D01*
X146226208Y-110750645D01*
X146221700Y-110753802D01*
X146059802Y-110915700D01*
X145928477Y-111103251D01*
X145926154Y-111108233D01*
X145926151Y-111108238D01*
X145836168Y-111301209D01*
X145831716Y-111310757D01*
X145830294Y-111316065D01*
X145830293Y-111316067D01*
X145775219Y-111521604D01*
X145772457Y-111531913D01*
X145752502Y-111760000D01*
X139539527Y-111760000D01*
X139555224Y-111732811D01*
X139558527Y-111727090D01*
X139562875Y-111713708D01*
X139570438Y-111695449D01*
X139576830Y-111682904D01*
X139594537Y-111616822D01*
X139596409Y-111610503D01*
X139615501Y-111551744D01*
X139615501Y-111551743D01*
X139617542Y-111545462D01*
X139619014Y-111531459D01*
X139622615Y-111512030D01*
X139626257Y-111498437D01*
X139629836Y-111430150D01*
X139630353Y-111423576D01*
X139632156Y-111406418D01*
X139632156Y-111406416D01*
X139632500Y-111403144D01*
X139632500Y-111382608D01*
X139632673Y-111376014D01*
X139635907Y-111314316D01*
X139635907Y-111314311D01*
X139636252Y-111307724D01*
X139634051Y-111293826D01*
X139632500Y-111274117D01*
X139632500Y-106856607D01*
X139652502Y-106788486D01*
X139689323Y-106756581D01*
X139688606Y-106755633D01*
X139702807Y-106744897D01*
X139706158Y-106741993D01*
X139706901Y-106741801D01*
X139715726Y-106735129D01*
X139720000Y-106723503D01*
X139720000Y-106720182D01*
X140228000Y-106720182D01*
X140231973Y-106733713D01*
X140242468Y-106735222D01*
X140249675Y-106733690D01*
X140262161Y-106729633D01*
X140424471Y-106657368D01*
X140435839Y-106650804D01*
X140443263Y-106645410D01*
X140510130Y-106621551D01*
X140582597Y-106639569D01*
X140710785Y-106717202D01*
X140718032Y-106719473D01*
X140718034Y-106719474D01*
X140764917Y-106734166D01*
X140866723Y-106766070D01*
X140936699Y-106772500D01*
X140939597Y-106772500D01*
X141224745Y-106772499D01*
X141511300Y-106772499D01*
X141514158Y-106772236D01*
X141514167Y-106772236D01*
X141547604Y-106769164D01*
X141581277Y-106766070D01*
X141607153Y-106757961D01*
X141729966Y-106719474D01*
X141729968Y-106719473D01*
X141737215Y-106717202D01*
X141876996Y-106632548D01*
X141992548Y-106516996D01*
X142077202Y-106377215D01*
X142126070Y-106221277D01*
X142132500Y-106151301D01*
X142132500Y-105664000D01*
X142132499Y-105179583D01*
X142132499Y-105176700D01*
X142126070Y-105106723D01*
X142077202Y-104950785D01*
X141992548Y-104811004D01*
X141876996Y-104695452D01*
X141737215Y-104610798D01*
X141729968Y-104608527D01*
X141729966Y-104608526D01*
X141666642Y-104588682D01*
X141581277Y-104561930D01*
X141511301Y-104555500D01*
X141508403Y-104555500D01*
X141223255Y-104555501D01*
X140936700Y-104555501D01*
X140933842Y-104555764D01*
X140933833Y-104555764D01*
X140900396Y-104558836D01*
X140866723Y-104561930D01*
X140860345Y-104563929D01*
X140860344Y-104563929D01*
X140718034Y-104608526D01*
X140718032Y-104608527D01*
X140710785Y-104610798D01*
X140612705Y-104670197D01*
X140582597Y-104688431D01*
X140513967Y-104706610D01*
X140443263Y-104682590D01*
X140435839Y-104677196D01*
X140424471Y-104670632D01*
X140262161Y-104598367D01*
X140249675Y-104594310D01*
X140245722Y-104593470D01*
X140231659Y-104594543D01*
X140228000Y-104604497D01*
X140228000Y-106720182D01*
X139720000Y-106720182D01*
X139720000Y-104607818D01*
X139716027Y-104594287D01*
X139705532Y-104592778D01*
X139698325Y-104594310D01*
X139685839Y-104598367D01*
X139523529Y-104670632D01*
X139512157Y-104677198D01*
X139423485Y-104741622D01*
X139356617Y-104765481D01*
X139287466Y-104749400D01*
X139275380Y-104741634D01*
X139180752Y-104672882D01*
X139174724Y-104670198D01*
X139174722Y-104670197D01*
X139012319Y-104597891D01*
X139012318Y-104597891D01*
X139006288Y-104595206D01*
X138912888Y-104575353D01*
X138825944Y-104556872D01*
X138825939Y-104556872D01*
X138819487Y-104555500D01*
X138628513Y-104555500D01*
X138622061Y-104556872D01*
X138622056Y-104556872D01*
X138535112Y-104575353D01*
X138441712Y-104595206D01*
X138435682Y-104597891D01*
X138435681Y-104597891D01*
X138273278Y-104670197D01*
X138273276Y-104670198D01*
X138267248Y-104672882D01*
X138261907Y-104676762D01*
X138261906Y-104676763D01*
X138173061Y-104741313D01*
X138106193Y-104765172D01*
X138037042Y-104749091D01*
X138024939Y-104741313D01*
X137936094Y-104676763D01*
X137936093Y-104676762D01*
X137930752Y-104672882D01*
X137924724Y-104670198D01*
X137924722Y-104670197D01*
X137762319Y-104597891D01*
X137762318Y-104597891D01*
X137756288Y-104595206D01*
X137662888Y-104575353D01*
X137575944Y-104556872D01*
X137575939Y-104556872D01*
X137569487Y-104555500D01*
X137378513Y-104555500D01*
X137372061Y-104556872D01*
X137372056Y-104556872D01*
X137285112Y-104575353D01*
X137191712Y-104595206D01*
X137185682Y-104597891D01*
X137185681Y-104597891D01*
X137023278Y-104670197D01*
X137023276Y-104670198D01*
X137017248Y-104672882D01*
X137011907Y-104676762D01*
X137011906Y-104676763D01*
X136923061Y-104741313D01*
X136856193Y-104765172D01*
X136787042Y-104749091D01*
X136774939Y-104741313D01*
X136686094Y-104676763D01*
X136686093Y-104676762D01*
X136680752Y-104672882D01*
X136674724Y-104670198D01*
X136674722Y-104670197D01*
X136512319Y-104597891D01*
X136512318Y-104597891D01*
X136506288Y-104595206D01*
X136412888Y-104575353D01*
X136325944Y-104556872D01*
X136325939Y-104556872D01*
X136319487Y-104555500D01*
X136128513Y-104555500D01*
X136122061Y-104556872D01*
X136122056Y-104556872D01*
X136035112Y-104575353D01*
X135941712Y-104595206D01*
X135935682Y-104597891D01*
X135935681Y-104597891D01*
X135773278Y-104670197D01*
X135773276Y-104670198D01*
X135767248Y-104672882D01*
X135761907Y-104676762D01*
X135761906Y-104676763D01*
X135673061Y-104741313D01*
X135606193Y-104765172D01*
X135537042Y-104749091D01*
X135524939Y-104741313D01*
X135436094Y-104676763D01*
X135436093Y-104676762D01*
X135430752Y-104672882D01*
X135424724Y-104670198D01*
X135424722Y-104670197D01*
X135262319Y-104597891D01*
X135262318Y-104597891D01*
X135256288Y-104595206D01*
X135162888Y-104575353D01*
X135075944Y-104556872D01*
X135075939Y-104556872D01*
X135069487Y-104555500D01*
X134878513Y-104555500D01*
X134872061Y-104556872D01*
X134872056Y-104556872D01*
X134785112Y-104575353D01*
X134691712Y-104595206D01*
X134685682Y-104597891D01*
X134685681Y-104597891D01*
X134523278Y-104670197D01*
X134523276Y-104670198D01*
X134517248Y-104672882D01*
X134511907Y-104676762D01*
X134511906Y-104676763D01*
X134503886Y-104682590D01*
X134362747Y-104785134D01*
X134358326Y-104790044D01*
X134358325Y-104790045D01*
X134315207Y-104837933D01*
X134234960Y-104927056D01*
X134139473Y-105092444D01*
X134080458Y-105274072D01*
X134065500Y-105416390D01*
X134065500Y-105911610D01*
X134080458Y-106053928D01*
X134139473Y-106235556D01*
X134234960Y-106400944D01*
X134239378Y-106405851D01*
X134239379Y-106405852D01*
X134344294Y-106522372D01*
X134362747Y-106542866D01*
X134517248Y-106655118D01*
X134523276Y-106657802D01*
X134523278Y-106657803D01*
X134670844Y-106723503D01*
X134691712Y-106732794D01*
X134785112Y-106752647D01*
X134872056Y-106771128D01*
X134872061Y-106771128D01*
X134878513Y-106772500D01*
X135069487Y-106772500D01*
X135075939Y-106771128D01*
X135075944Y-106771128D01*
X135162888Y-106752647D01*
X135256288Y-106732794D01*
X135277156Y-106723503D01*
X135424722Y-106657803D01*
X135424724Y-106657802D01*
X135430752Y-106655118D01*
X135452154Y-106639569D01*
X135524939Y-106586687D01*
X135591807Y-106562828D01*
X135660958Y-106578909D01*
X135673061Y-106586687D01*
X135745847Y-106639569D01*
X135767248Y-106655118D01*
X135773276Y-106657802D01*
X135773278Y-106657803D01*
X135920844Y-106723503D01*
X135941712Y-106732794D01*
X136035112Y-106752647D01*
X136122056Y-106771128D01*
X136122061Y-106771128D01*
X136128513Y-106772500D01*
X136319487Y-106772500D01*
X136325939Y-106771128D01*
X136325944Y-106771128D01*
X136413303Y-106752559D01*
X136484094Y-106757961D01*
X136540727Y-106800778D01*
X136565220Y-106867416D01*
X136565500Y-106875806D01*
X136565500Y-110763497D01*
X136545498Y-110831618D01*
X136528595Y-110852592D01*
X135853548Y-111527639D01*
X135791236Y-111561665D01*
X135720421Y-111556600D01*
X135663585Y-111514053D01*
X135642746Y-111471156D01*
X135601235Y-111316236D01*
X135597490Y-111305947D01*
X135505414Y-111108489D01*
X135499931Y-111098994D01*
X135463491Y-111046952D01*
X135453012Y-111038576D01*
X135439566Y-111045644D01*
X133650923Y-112834287D01*
X133644493Y-112846062D01*
X133653789Y-112858077D01*
X133704994Y-112893931D01*
X133714489Y-112899414D01*
X133911947Y-112991490D01*
X133922236Y-112995235D01*
X134077156Y-113036746D01*
X134137778Y-113073698D01*
X134168800Y-113137559D01*
X134160371Y-113208053D01*
X134133639Y-113247548D01*
X131486592Y-115894595D01*
X131424280Y-115928621D01*
X131397497Y-115931500D01*
X131299413Y-115931500D01*
X131231292Y-115911498D01*
X131184799Y-115857842D01*
X131174695Y-115787568D01*
X131204189Y-115722988D01*
X131205504Y-115721576D01*
X131211261Y-115717261D01*
X131298615Y-115600705D01*
X131349745Y-115464316D01*
X131356500Y-115402134D01*
X131356500Y-113705866D01*
X131349745Y-113643684D01*
X131298615Y-113507295D01*
X131211261Y-113390739D01*
X131094705Y-113303385D01*
X130958316Y-113252255D01*
X130947526Y-113251083D01*
X130945394Y-113250197D01*
X130942778Y-113249575D01*
X130942879Y-113249152D01*
X130881965Y-113223845D01*
X130841537Y-113165483D01*
X130839078Y-113094529D01*
X130875371Y-113033510D01*
X130884035Y-113026507D01*
X130887790Y-113023356D01*
X130892300Y-113020198D01*
X131054198Y-112858300D01*
X131061203Y-112848297D01*
X131145635Y-112727715D01*
X131185523Y-112670749D01*
X131187846Y-112665767D01*
X131187849Y-112665762D01*
X131279961Y-112468225D01*
X131279961Y-112468224D01*
X131282284Y-112463243D01*
X131293602Y-112421006D01*
X131340119Y-112247402D01*
X131340119Y-112247400D01*
X131341543Y-112242087D01*
X131361498Y-112014000D01*
X131341543Y-111785913D01*
X131336067Y-111765475D01*
X133053483Y-111765475D01*
X133072472Y-111982519D01*
X133074375Y-111993312D01*
X133130764Y-112203761D01*
X133134510Y-112214053D01*
X133226586Y-112411511D01*
X133232069Y-112421006D01*
X133268509Y-112473048D01*
X133278988Y-112481424D01*
X133292434Y-112474356D01*
X133993978Y-111772812D01*
X134001592Y-111758868D01*
X134001461Y-111757035D01*
X133997210Y-111750420D01*
X133291713Y-111044923D01*
X133279938Y-111038493D01*
X133267923Y-111047789D01*
X133232069Y-111098994D01*
X133226586Y-111108489D01*
X133134510Y-111305947D01*
X133130764Y-111316239D01*
X133074375Y-111526688D01*
X133072472Y-111537481D01*
X133053483Y-111754525D01*
X133053483Y-111765475D01*
X131336067Y-111765475D01*
X131324098Y-111720808D01*
X131283707Y-111570067D01*
X131283706Y-111570065D01*
X131282284Y-111564757D01*
X131273287Y-111545462D01*
X131187849Y-111362238D01*
X131187846Y-111362233D01*
X131185523Y-111357251D01*
X131054198Y-111169700D01*
X130892300Y-111007802D01*
X130887792Y-111004645D01*
X130887789Y-111004643D01*
X130760765Y-110915700D01*
X130704749Y-110876477D01*
X130699767Y-110874154D01*
X130699762Y-110874151D01*
X130665543Y-110858195D01*
X130612258Y-110811278D01*
X130592797Y-110743001D01*
X130613339Y-110675041D01*
X130615708Y-110672988D01*
X133644576Y-110672988D01*
X133651644Y-110686434D01*
X134353188Y-111387978D01*
X134367132Y-111395592D01*
X134368965Y-111395461D01*
X134375580Y-111391210D01*
X135081077Y-110685713D01*
X135087507Y-110673938D01*
X135078211Y-110661923D01*
X135027006Y-110626069D01*
X135017511Y-110620586D01*
X134820053Y-110528510D01*
X134809761Y-110524764D01*
X134599312Y-110468375D01*
X134588519Y-110466472D01*
X134371475Y-110447483D01*
X134360525Y-110447483D01*
X134143481Y-110466472D01*
X134132688Y-110468375D01*
X133922239Y-110524764D01*
X133911947Y-110528510D01*
X133714489Y-110620586D01*
X133704994Y-110626069D01*
X133652952Y-110662509D01*
X133644576Y-110672988D01*
X130615708Y-110672988D01*
X130665543Y-110629805D01*
X130699762Y-110613849D01*
X130699767Y-110613846D01*
X130704749Y-110611523D01*
X130829326Y-110524293D01*
X130887789Y-110483357D01*
X130887792Y-110483355D01*
X130892300Y-110480198D01*
X131054198Y-110318300D01*
X131062982Y-110305756D01*
X131131622Y-110207727D01*
X131185523Y-110130749D01*
X131187846Y-110125767D01*
X131187849Y-110125762D01*
X131279961Y-109928225D01*
X131279961Y-109928224D01*
X131282284Y-109923243D01*
X131283840Y-109917438D01*
X131340119Y-109707402D01*
X131340119Y-109707400D01*
X131341543Y-109702087D01*
X131361498Y-109474000D01*
X131341543Y-109245913D01*
X131327057Y-109191851D01*
X131283707Y-109030067D01*
X131283706Y-109030065D01*
X131282284Y-109024757D01*
X131254219Y-108964570D01*
X131187849Y-108822238D01*
X131187846Y-108822233D01*
X131185523Y-108817251D01*
X131054198Y-108629700D01*
X130892300Y-108467802D01*
X130887792Y-108464645D01*
X130887789Y-108464643D01*
X130747499Y-108366411D01*
X130704749Y-108336477D01*
X130699767Y-108334154D01*
X130699762Y-108334151D01*
X130664951Y-108317919D01*
X130611666Y-108271002D01*
X130592205Y-108202725D01*
X130612747Y-108134765D01*
X130664951Y-108089529D01*
X130699511Y-108073414D01*
X130709007Y-108067931D01*
X130887467Y-107942972D01*
X130895875Y-107935916D01*
X131049916Y-107781875D01*
X131056972Y-107773467D01*
X131181931Y-107595007D01*
X131187414Y-107585511D01*
X131279490Y-107388053D01*
X131283236Y-107377761D01*
X131329394Y-107205497D01*
X131329058Y-107191401D01*
X131321116Y-107188000D01*
X128780033Y-107188000D01*
X128766502Y-107191973D01*
X128765273Y-107200522D01*
X128812764Y-107377761D01*
X128816510Y-107388053D01*
X128908586Y-107585511D01*
X128914069Y-107595007D01*
X129039028Y-107773467D01*
X129046084Y-107781875D01*
X129200125Y-107935916D01*
X129208533Y-107942972D01*
X129386993Y-108067931D01*
X129396489Y-108073414D01*
X129431049Y-108089529D01*
X129484334Y-108136446D01*
X129503795Y-108204723D01*
X129483253Y-108272683D01*
X129431049Y-108317919D01*
X129396238Y-108334151D01*
X129396233Y-108334154D01*
X129391251Y-108336477D01*
X129348501Y-108366411D01*
X129208211Y-108464643D01*
X129208208Y-108464645D01*
X129203700Y-108467802D01*
X129041802Y-108629700D01*
X128910477Y-108817251D01*
X128908154Y-108822233D01*
X128908151Y-108822238D01*
X128841781Y-108964570D01*
X128813716Y-109024757D01*
X128812294Y-109030065D01*
X128812293Y-109030067D01*
X128768943Y-109191851D01*
X128754457Y-109245913D01*
X128734502Y-109474000D01*
X128754457Y-109702087D01*
X128755881Y-109707400D01*
X128755881Y-109707402D01*
X128812161Y-109917438D01*
X128813716Y-109923243D01*
X128816039Y-109928224D01*
X128816039Y-109928225D01*
X128908151Y-110125762D01*
X128908154Y-110125767D01*
X128910477Y-110130749D01*
X128964378Y-110207727D01*
X129033019Y-110305756D01*
X129041802Y-110318300D01*
X129203700Y-110480198D01*
X129208208Y-110483355D01*
X129208211Y-110483357D01*
X129266674Y-110524293D01*
X129391251Y-110611523D01*
X129396233Y-110613846D01*
X129396238Y-110613849D01*
X129430457Y-110629805D01*
X129483742Y-110676722D01*
X129503203Y-110744999D01*
X129482661Y-110812959D01*
X129430457Y-110858195D01*
X129396238Y-110874151D01*
X129396233Y-110874154D01*
X129391251Y-110876477D01*
X129335235Y-110915700D01*
X129208211Y-111004643D01*
X129208208Y-111004645D01*
X129203700Y-111007802D01*
X129041802Y-111169700D01*
X128910477Y-111357251D01*
X128908154Y-111362233D01*
X128908151Y-111362238D01*
X128822713Y-111545462D01*
X128813716Y-111564757D01*
X128812294Y-111570065D01*
X128812293Y-111570067D01*
X128771902Y-111720808D01*
X128754457Y-111785913D01*
X128734502Y-112014000D01*
X128754457Y-112242087D01*
X128755881Y-112247400D01*
X128755881Y-112247402D01*
X128802399Y-112421006D01*
X128813716Y-112463243D01*
X128816039Y-112468224D01*
X128816039Y-112468225D01*
X128908151Y-112665762D01*
X128908154Y-112665767D01*
X128910477Y-112670749D01*
X128950365Y-112727715D01*
X129034798Y-112848297D01*
X129041802Y-112858300D01*
X129203700Y-113020198D01*
X129208211Y-113023357D01*
X129212424Y-113026892D01*
X129211473Y-113028026D01*
X129251471Y-113078071D01*
X129258776Y-113148690D01*
X129226742Y-113212049D01*
X129165538Y-113248030D01*
X129148483Y-113251082D01*
X129137684Y-113252255D01*
X129001295Y-113303385D01*
X128884739Y-113390739D01*
X128797385Y-113507295D01*
X128746255Y-113643684D01*
X128739500Y-113705866D01*
X128739500Y-115402134D01*
X128746255Y-115464316D01*
X128797385Y-115600705D01*
X128884739Y-115717261D01*
X128887127Y-115719050D01*
X128919708Y-115778717D01*
X128914643Y-115849532D01*
X128872096Y-115906368D01*
X128805576Y-115931179D01*
X128796587Y-115931500D01*
X128698503Y-115931500D01*
X128630382Y-115911498D01*
X128609408Y-115894595D01*
X119817405Y-107102592D01*
X119783379Y-107040280D01*
X119780500Y-107013497D01*
X119780500Y-103459417D01*
X119782051Y-103439705D01*
X119783220Y-103432325D01*
X119784252Y-103425810D01*
X119782465Y-103391699D01*
X119780673Y-103357520D01*
X119780500Y-103350926D01*
X119780500Y-103330390D01*
X119780156Y-103327116D01*
X119778353Y-103309958D01*
X119777836Y-103303384D01*
X119774603Y-103241696D01*
X119774603Y-103241694D01*
X119774257Y-103235097D01*
X119770615Y-103221504D01*
X119767014Y-103202075D01*
X119766232Y-103194639D01*
X119765542Y-103188072D01*
X119744407Y-103123025D01*
X119742535Y-103116706D01*
X119726538Y-103057003D01*
X119726537Y-103057000D01*
X119724830Y-103050630D01*
X119718438Y-103038085D01*
X119710874Y-103019823D01*
X119708568Y-103012726D01*
X119706527Y-103006444D01*
X119685707Y-102970383D01*
X119672336Y-102947223D01*
X119669188Y-102941426D01*
X119641126Y-102886351D01*
X119641124Y-102886348D01*
X119638129Y-102880470D01*
X119629273Y-102869533D01*
X119618073Y-102853237D01*
X119614343Y-102846776D01*
X119614340Y-102846772D01*
X119611040Y-102841056D01*
X119606623Y-102836150D01*
X119606619Y-102836145D01*
X119565278Y-102790231D01*
X119560994Y-102785216D01*
X119550148Y-102771823D01*
X119548072Y-102769259D01*
X119533557Y-102754744D01*
X119529016Y-102749959D01*
X119487673Y-102704043D01*
X119483253Y-102699134D01*
X119475897Y-102693789D01*
X119471865Y-102690860D01*
X119456832Y-102678019D01*
X116156677Y-99377864D01*
X116122651Y-99315552D01*
X116120251Y-99299750D01*
X116102023Y-99091394D01*
X116102022Y-99091389D01*
X116101543Y-99085913D01*
X116042284Y-98864757D01*
X116039961Y-98859775D01*
X115947849Y-98662238D01*
X115947846Y-98662233D01*
X115945523Y-98657251D01*
X115872098Y-98552389D01*
X115817357Y-98474211D01*
X115817355Y-98474208D01*
X115814198Y-98469700D01*
X115652300Y-98307802D01*
X115647792Y-98304645D01*
X115647789Y-98304643D01*
X115507950Y-98206727D01*
X115464749Y-98176477D01*
X115459767Y-98174154D01*
X115459762Y-98174151D01*
X115425543Y-98158195D01*
X115372258Y-98111278D01*
X115352797Y-98043001D01*
X115373339Y-97975041D01*
X115425543Y-97929805D01*
X115459762Y-97913849D01*
X115459767Y-97913846D01*
X115464749Y-97911523D01*
X115582561Y-97829030D01*
X115647789Y-97783357D01*
X115647792Y-97783355D01*
X115652300Y-97780198D01*
X115814198Y-97618300D01*
X115856751Y-97557529D01*
X115942366Y-97435257D01*
X115945523Y-97430749D01*
X115947846Y-97425767D01*
X115947849Y-97425762D01*
X116039961Y-97228225D01*
X116039961Y-97228224D01*
X116042284Y-97223243D01*
X116043840Y-97217438D01*
X116100119Y-97007402D01*
X116100119Y-97007400D01*
X116101543Y-97002087D01*
X116121498Y-96774000D01*
X116101543Y-96545913D01*
X116087057Y-96491851D01*
X116043707Y-96330067D01*
X116043706Y-96330065D01*
X116042284Y-96324757D01*
X116014219Y-96264570D01*
X115947849Y-96122238D01*
X115947846Y-96122233D01*
X115945523Y-96117251D01*
X115814198Y-95929700D01*
X115652300Y-95767802D01*
X115647792Y-95764645D01*
X115647789Y-95764643D01*
X115507499Y-95666411D01*
X115464749Y-95636477D01*
X115459767Y-95634154D01*
X115459762Y-95634151D01*
X115425543Y-95618195D01*
X115372258Y-95571278D01*
X115352797Y-95503001D01*
X115373339Y-95435041D01*
X115425543Y-95389805D01*
X115459762Y-95373849D01*
X115459767Y-95373846D01*
X115464749Y-95371523D01*
X115569611Y-95298098D01*
X115647789Y-95243357D01*
X115647792Y-95243355D01*
X115652300Y-95240198D01*
X115814198Y-95078300D01*
X115819612Y-95070569D01*
X115920255Y-94926835D01*
X115945523Y-94890749D01*
X115947846Y-94885767D01*
X115947849Y-94885762D01*
X116039961Y-94688225D01*
X116039961Y-94688224D01*
X116042284Y-94683243D01*
X116043840Y-94677438D01*
X116100119Y-94467402D01*
X116100119Y-94467400D01*
X116101543Y-94462087D01*
X116121498Y-94234000D01*
X116101543Y-94005913D01*
X116087057Y-93951851D01*
X116043707Y-93790067D01*
X116043706Y-93790065D01*
X116042284Y-93784757D01*
X116014219Y-93724570D01*
X115947849Y-93582238D01*
X115947846Y-93582233D01*
X115945523Y-93577251D01*
X115814198Y-93389700D01*
X115652300Y-93227802D01*
X115647792Y-93224645D01*
X115647789Y-93224643D01*
X115507499Y-93126411D01*
X115464749Y-93096477D01*
X115459767Y-93094154D01*
X115459762Y-93094151D01*
X115425543Y-93078195D01*
X115372258Y-93031278D01*
X115352797Y-92963001D01*
X115373339Y-92895041D01*
X115425543Y-92849805D01*
X115459762Y-92833849D01*
X115459767Y-92833846D01*
X115464749Y-92831523D01*
X115602271Y-92735229D01*
X115647789Y-92703357D01*
X115647792Y-92703355D01*
X115652300Y-92700198D01*
X115814198Y-92538300D01*
X115821203Y-92528297D01*
X115906644Y-92406274D01*
X115945523Y-92350749D01*
X115947846Y-92345767D01*
X115947849Y-92345762D01*
X116039961Y-92148225D01*
X116039961Y-92148224D01*
X116042284Y-92143243D01*
X116045516Y-92131183D01*
X116100119Y-91927402D01*
X116100119Y-91927400D01*
X116101543Y-91922087D01*
X116121498Y-91694000D01*
X116101543Y-91465913D01*
X116042284Y-91244757D01*
X116020703Y-91198476D01*
X115947849Y-91042238D01*
X115947846Y-91042233D01*
X115945523Y-91037251D01*
X115814198Y-90849700D01*
X115652300Y-90687802D01*
X115647792Y-90684645D01*
X115647789Y-90684643D01*
X115524137Y-90598061D01*
X115464749Y-90556477D01*
X115459767Y-90554154D01*
X115459762Y-90554151D01*
X115425543Y-90538195D01*
X115372258Y-90491278D01*
X115352797Y-90423001D01*
X115373339Y-90355041D01*
X115425543Y-90309805D01*
X115459762Y-90293849D01*
X115459767Y-90293846D01*
X115464749Y-90291523D01*
X115605033Y-90193295D01*
X115647789Y-90163357D01*
X115647792Y-90163355D01*
X115652300Y-90160198D01*
X115814198Y-89998300D01*
X115820441Y-89989385D01*
X115919089Y-89848500D01*
X115945523Y-89810749D01*
X115947846Y-89805767D01*
X115947849Y-89805762D01*
X116039961Y-89608225D01*
X116039961Y-89608224D01*
X116042284Y-89603243D01*
X116044896Y-89593497D01*
X116100119Y-89387402D01*
X116100119Y-89387400D01*
X116101543Y-89382087D01*
X116121498Y-89154000D01*
X116101543Y-88925913D01*
X116042284Y-88704757D01*
X116039961Y-88699775D01*
X115947849Y-88502238D01*
X115947846Y-88502233D01*
X115945523Y-88497251D01*
X115814198Y-88309700D01*
X115652300Y-88147802D01*
X115647792Y-88144645D01*
X115647789Y-88144643D01*
X115569611Y-88089902D01*
X115464749Y-88016477D01*
X115459767Y-88014154D01*
X115459762Y-88014151D01*
X115425543Y-87998195D01*
X115372258Y-87951278D01*
X115352797Y-87883001D01*
X115373339Y-87815041D01*
X115425543Y-87769805D01*
X115459762Y-87753849D01*
X115459767Y-87753846D01*
X115464749Y-87751523D01*
X115569611Y-87678098D01*
X115647789Y-87623357D01*
X115647792Y-87623355D01*
X115652300Y-87620198D01*
X115814198Y-87458300D01*
X115945523Y-87270749D01*
X115947846Y-87265767D01*
X115947849Y-87265762D01*
X116039961Y-87068225D01*
X116039961Y-87068224D01*
X116042284Y-87063243D01*
X116088870Y-86889385D01*
X116100119Y-86847402D01*
X116100119Y-86847400D01*
X116101543Y-86842087D01*
X116121498Y-86614000D01*
X116101543Y-86385913D01*
X116042284Y-86164757D01*
X116039961Y-86159775D01*
X115947849Y-85962238D01*
X115947846Y-85962233D01*
X115945523Y-85957251D01*
X115866836Y-85844875D01*
X115817357Y-85774211D01*
X115817355Y-85774208D01*
X115814198Y-85769700D01*
X115652300Y-85607802D01*
X115647792Y-85604645D01*
X115647789Y-85604643D01*
X115569611Y-85549902D01*
X115464749Y-85476477D01*
X115459767Y-85474154D01*
X115459762Y-85474151D01*
X115425543Y-85458195D01*
X115372258Y-85411278D01*
X115352797Y-85343001D01*
X115373339Y-85275041D01*
X115425543Y-85229805D01*
X115459762Y-85213849D01*
X115459767Y-85213846D01*
X115464749Y-85211523D01*
X115569611Y-85138098D01*
X115647789Y-85083357D01*
X115647792Y-85083355D01*
X115652300Y-85080198D01*
X115814198Y-84918300D01*
X115945523Y-84730749D01*
X115947846Y-84725767D01*
X115947849Y-84725762D01*
X116039961Y-84528225D01*
X116039961Y-84528224D01*
X116042284Y-84523243D01*
X116101543Y-84302087D01*
X116121498Y-84074000D01*
X116101543Y-83845913D01*
X116042284Y-83624757D01*
X116039961Y-83619775D01*
X115947849Y-83422238D01*
X115947846Y-83422233D01*
X115945523Y-83417251D01*
X115866836Y-83304875D01*
X115817357Y-83234211D01*
X115817355Y-83234208D01*
X115814198Y-83229700D01*
X115652300Y-83067802D01*
X115647792Y-83064645D01*
X115647789Y-83064643D01*
X115569611Y-83009902D01*
X115464749Y-82936477D01*
X115459767Y-82934154D01*
X115459762Y-82934151D01*
X115425543Y-82918195D01*
X115372258Y-82871278D01*
X115352797Y-82803001D01*
X115373339Y-82735041D01*
X115425543Y-82689805D01*
X115459762Y-82673849D01*
X115459767Y-82673846D01*
X115464749Y-82671523D01*
X115569611Y-82598098D01*
X115647789Y-82543357D01*
X115647792Y-82543355D01*
X115652300Y-82540198D01*
X115814198Y-82378300D01*
X115945523Y-82190749D01*
X115947846Y-82185767D01*
X115947849Y-82185762D01*
X116039961Y-81988225D01*
X116039961Y-81988224D01*
X116042284Y-81983243D01*
X116053628Y-81940909D01*
X116100119Y-81767402D01*
X116100119Y-81767400D01*
X116101543Y-81762087D01*
X116121498Y-81534000D01*
X116101543Y-81305913D01*
X116093764Y-81276880D01*
X116043707Y-81090067D01*
X116043706Y-81090065D01*
X116042284Y-81084757D01*
X116039961Y-81079775D01*
X115947849Y-80882238D01*
X115947846Y-80882233D01*
X115945523Y-80877251D01*
X115814198Y-80689700D01*
X115652300Y-80527802D01*
X115647792Y-80524645D01*
X115647789Y-80524643D01*
X115567927Y-80468723D01*
X115464749Y-80396477D01*
X115459767Y-80394154D01*
X115459762Y-80394151D01*
X115425543Y-80378195D01*
X115372258Y-80331278D01*
X115352797Y-80263001D01*
X115373339Y-80195041D01*
X115425543Y-80149805D01*
X115459762Y-80133849D01*
X115459767Y-80133846D01*
X115464749Y-80131523D01*
X115588902Y-80044590D01*
X115647789Y-80003357D01*
X115647792Y-80003355D01*
X115652300Y-80000198D01*
X115814198Y-79838300D01*
X115945523Y-79650749D01*
X115947846Y-79645767D01*
X115947849Y-79645762D01*
X116039961Y-79448225D01*
X116039961Y-79448224D01*
X116042284Y-79443243D01*
X116101543Y-79222087D01*
X116121498Y-78994000D01*
X116101543Y-78765913D01*
X116042284Y-78544757D01*
X116039961Y-78539775D01*
X115947849Y-78342238D01*
X115947846Y-78342233D01*
X115945523Y-78337251D01*
X115814198Y-78149700D01*
X115652300Y-77987802D01*
X115647792Y-77984645D01*
X115647789Y-77984643D01*
X115569611Y-77929902D01*
X115464749Y-77856477D01*
X115459767Y-77854154D01*
X115459762Y-77854151D01*
X115262225Y-77762039D01*
X115262224Y-77762039D01*
X115257243Y-77759716D01*
X115251935Y-77758294D01*
X115251933Y-77758293D01*
X115041402Y-77701881D01*
X115041400Y-77701881D01*
X115036087Y-77700457D01*
X114808000Y-77680502D01*
X114579913Y-77700457D01*
X114574600Y-77701881D01*
X114574598Y-77701881D01*
X114364067Y-77758293D01*
X114364065Y-77758294D01*
X114358757Y-77759716D01*
X114353776Y-77762039D01*
X114353775Y-77762039D01*
X114156238Y-77854151D01*
X114156233Y-77854154D01*
X114151251Y-77856477D01*
X114046389Y-77929902D01*
X113968211Y-77984643D01*
X113968208Y-77984645D01*
X113963700Y-77987802D01*
X113801802Y-78149700D01*
X113670477Y-78337251D01*
X113668154Y-78342233D01*
X113668151Y-78342238D01*
X113576039Y-78539775D01*
X113573716Y-78544757D01*
X113514457Y-78765913D01*
X113494502Y-78994000D01*
X113514457Y-79222087D01*
X113573716Y-79443243D01*
X113576039Y-79448224D01*
X113576039Y-79448225D01*
X113668151Y-79645762D01*
X113668154Y-79645767D01*
X113670477Y-79650749D01*
X113801802Y-79838300D01*
X113963700Y-80000198D01*
X113968208Y-80003355D01*
X113968211Y-80003357D01*
X114027098Y-80044590D01*
X114151251Y-80131523D01*
X114156233Y-80133846D01*
X114156238Y-80133849D01*
X114190457Y-80149805D01*
X114243742Y-80196722D01*
X114263203Y-80264999D01*
X114242661Y-80332959D01*
X114190457Y-80378195D01*
X114156238Y-80394151D01*
X114156233Y-80394154D01*
X114151251Y-80396477D01*
X114048073Y-80468723D01*
X113968211Y-80524643D01*
X113968208Y-80524645D01*
X113963700Y-80527802D01*
X113801802Y-80689700D01*
X113670477Y-80877251D01*
X113668154Y-80882233D01*
X113668151Y-80882238D01*
X113576039Y-81079775D01*
X113573716Y-81084757D01*
X113572294Y-81090065D01*
X113572293Y-81090067D01*
X113522236Y-81276880D01*
X113514457Y-81305913D01*
X113494502Y-81534000D01*
X113514457Y-81762087D01*
X113515881Y-81767400D01*
X113515881Y-81767402D01*
X113562373Y-81940909D01*
X113573716Y-81983243D01*
X113576039Y-81988224D01*
X113576039Y-81988225D01*
X113668151Y-82185762D01*
X113668154Y-82185767D01*
X113670477Y-82190749D01*
X113801802Y-82378300D01*
X113963700Y-82540198D01*
X113968208Y-82543355D01*
X113968211Y-82543357D01*
X114046389Y-82598098D01*
X114151251Y-82671523D01*
X114156233Y-82673846D01*
X114156238Y-82673849D01*
X114190457Y-82689805D01*
X114243742Y-82736722D01*
X114263203Y-82804999D01*
X114242661Y-82872959D01*
X114190457Y-82918195D01*
X114156238Y-82934151D01*
X114156233Y-82934154D01*
X114151251Y-82936477D01*
X114046389Y-83009902D01*
X113968211Y-83064643D01*
X113968208Y-83064645D01*
X113963700Y-83067802D01*
X113801802Y-83229700D01*
X113798645Y-83234208D01*
X113798643Y-83234211D01*
X113749164Y-83304875D01*
X113670477Y-83417251D01*
X113668154Y-83422233D01*
X113668151Y-83422238D01*
X113576039Y-83619775D01*
X113573716Y-83624757D01*
X113514457Y-83845913D01*
X113494502Y-84074000D01*
X113514457Y-84302087D01*
X113573716Y-84523243D01*
X113576039Y-84528224D01*
X113576039Y-84528225D01*
X113668151Y-84725762D01*
X113668154Y-84725767D01*
X113670477Y-84730749D01*
X113801802Y-84918300D01*
X113963700Y-85080198D01*
X113968208Y-85083355D01*
X113968211Y-85083357D01*
X114046389Y-85138098D01*
X114151251Y-85211523D01*
X114156233Y-85213846D01*
X114156238Y-85213849D01*
X114190457Y-85229805D01*
X114243742Y-85276722D01*
X114263203Y-85344999D01*
X114242661Y-85412959D01*
X114190457Y-85458195D01*
X114156238Y-85474151D01*
X114156233Y-85474154D01*
X114151251Y-85476477D01*
X114046389Y-85549902D01*
X113968211Y-85604643D01*
X113968208Y-85604645D01*
X113963700Y-85607802D01*
X113801802Y-85769700D01*
X113798645Y-85774208D01*
X113798643Y-85774211D01*
X113749164Y-85844875D01*
X113670477Y-85957251D01*
X113668154Y-85962233D01*
X113668151Y-85962238D01*
X113576039Y-86159775D01*
X113573716Y-86164757D01*
X113514457Y-86385913D01*
X113494502Y-86614000D01*
X113514457Y-86842087D01*
X113515881Y-86847400D01*
X113515881Y-86847402D01*
X113527131Y-86889385D01*
X113573716Y-87063243D01*
X113576039Y-87068224D01*
X113576039Y-87068225D01*
X113668151Y-87265762D01*
X113668154Y-87265767D01*
X113670477Y-87270749D01*
X113801802Y-87458300D01*
X113963700Y-87620198D01*
X113968208Y-87623355D01*
X113968211Y-87623357D01*
X114046389Y-87678098D01*
X114151251Y-87751523D01*
X114156233Y-87753846D01*
X114156238Y-87753849D01*
X114190457Y-87769805D01*
X114243742Y-87816722D01*
X114263203Y-87884999D01*
X114242661Y-87952959D01*
X114190457Y-87998195D01*
X114156238Y-88014151D01*
X114156233Y-88014154D01*
X114151251Y-88016477D01*
X114046389Y-88089902D01*
X113968211Y-88144643D01*
X113968208Y-88144645D01*
X113963700Y-88147802D01*
X113801802Y-88309700D01*
X113670477Y-88497251D01*
X113668154Y-88502233D01*
X113668151Y-88502238D01*
X113576039Y-88699775D01*
X113573716Y-88704757D01*
X113514457Y-88925913D01*
X113494502Y-89154000D01*
X113514457Y-89382087D01*
X113515881Y-89387400D01*
X113515881Y-89387402D01*
X113571105Y-89593497D01*
X113573716Y-89603243D01*
X113576039Y-89608224D01*
X113576039Y-89608225D01*
X113668151Y-89805762D01*
X113668154Y-89805767D01*
X113670477Y-89810749D01*
X113696911Y-89848500D01*
X113795560Y-89989385D01*
X113801802Y-89998300D01*
X113963700Y-90160198D01*
X113968208Y-90163355D01*
X113968211Y-90163357D01*
X114010967Y-90193295D01*
X114151251Y-90291523D01*
X114156233Y-90293846D01*
X114156238Y-90293849D01*
X114190457Y-90309805D01*
X114243742Y-90356722D01*
X114263203Y-90424999D01*
X114242661Y-90492959D01*
X114190457Y-90538195D01*
X114156238Y-90554151D01*
X114156233Y-90554154D01*
X114151251Y-90556477D01*
X114091863Y-90598061D01*
X113968211Y-90684643D01*
X113968208Y-90684645D01*
X113963700Y-90687802D01*
X113801802Y-90849700D01*
X113670477Y-91037251D01*
X113668154Y-91042233D01*
X113668151Y-91042238D01*
X113595297Y-91198476D01*
X113573716Y-91244757D01*
X113514457Y-91465913D01*
X113494502Y-91694000D01*
X113514457Y-91922087D01*
X113515881Y-91927400D01*
X113515881Y-91927402D01*
X113570485Y-92131183D01*
X113573716Y-92143243D01*
X113576039Y-92148224D01*
X113576039Y-92148225D01*
X113668151Y-92345762D01*
X113668154Y-92345767D01*
X113670477Y-92350749D01*
X113709356Y-92406274D01*
X113794798Y-92528297D01*
X113801802Y-92538300D01*
X113963700Y-92700198D01*
X113968208Y-92703355D01*
X113968211Y-92703357D01*
X114013729Y-92735229D01*
X114151251Y-92831523D01*
X114156233Y-92833846D01*
X114156238Y-92833849D01*
X114190457Y-92849805D01*
X114243742Y-92896722D01*
X114263203Y-92964999D01*
X114242661Y-93032959D01*
X114190457Y-93078195D01*
X114156238Y-93094151D01*
X114156233Y-93094154D01*
X114151251Y-93096477D01*
X114108501Y-93126411D01*
X113968211Y-93224643D01*
X113968208Y-93224645D01*
X113963700Y-93227802D01*
X113801802Y-93389700D01*
X113670477Y-93577251D01*
X113668154Y-93582233D01*
X113668151Y-93582238D01*
X113601781Y-93724570D01*
X113573716Y-93784757D01*
X113572294Y-93790065D01*
X113572293Y-93790067D01*
X113528943Y-93951851D01*
X113514457Y-94005913D01*
X113494502Y-94234000D01*
X113514457Y-94462087D01*
X113515881Y-94467400D01*
X113515881Y-94467402D01*
X113572161Y-94677438D01*
X113573716Y-94683243D01*
X113576039Y-94688224D01*
X113576039Y-94688225D01*
X113668151Y-94885762D01*
X113668154Y-94885767D01*
X113670477Y-94890749D01*
X113695745Y-94926835D01*
X113796389Y-95070569D01*
X113801802Y-95078300D01*
X113963700Y-95240198D01*
X113968208Y-95243355D01*
X113968211Y-95243357D01*
X114046389Y-95298098D01*
X114151251Y-95371523D01*
X114156233Y-95373846D01*
X114156238Y-95373849D01*
X114190457Y-95389805D01*
X114243742Y-95436722D01*
X114263203Y-95504999D01*
X114242661Y-95572959D01*
X114190457Y-95618195D01*
X114156238Y-95634151D01*
X114156233Y-95634154D01*
X114151251Y-95636477D01*
X114108501Y-95666411D01*
X113968211Y-95764643D01*
X113968208Y-95764645D01*
X113963700Y-95767802D01*
X113801802Y-95929700D01*
X113670477Y-96117251D01*
X113668154Y-96122233D01*
X113668151Y-96122238D01*
X113601781Y-96264570D01*
X113573716Y-96324757D01*
X113572294Y-96330065D01*
X113572293Y-96330067D01*
X113528943Y-96491851D01*
X113514457Y-96545913D01*
X113494502Y-96774000D01*
X113514457Y-97002087D01*
X113515881Y-97007400D01*
X113515881Y-97007402D01*
X113572161Y-97217438D01*
X113573716Y-97223243D01*
X113576039Y-97228224D01*
X113576039Y-97228225D01*
X113668151Y-97425762D01*
X113668154Y-97425767D01*
X113670477Y-97430749D01*
X113673634Y-97435257D01*
X113759250Y-97557529D01*
X113801802Y-97618300D01*
X113963700Y-97780198D01*
X113968208Y-97783355D01*
X113968211Y-97783357D01*
X114033439Y-97829030D01*
X114151251Y-97911523D01*
X114156233Y-97913846D01*
X114156238Y-97913849D01*
X114190457Y-97929805D01*
X114243742Y-97976722D01*
X114263203Y-98044999D01*
X114242661Y-98112959D01*
X114190457Y-98158195D01*
X114156238Y-98174151D01*
X114156233Y-98174154D01*
X114151251Y-98176477D01*
X114108050Y-98206727D01*
X113968211Y-98304643D01*
X113968208Y-98304645D01*
X113963700Y-98307802D01*
X113801802Y-98469700D01*
X113798645Y-98474208D01*
X113798643Y-98474211D01*
X113743902Y-98552389D01*
X113670477Y-98657251D01*
X113668154Y-98662233D01*
X113668151Y-98662238D01*
X113576039Y-98859775D01*
X113573716Y-98864757D01*
X113514457Y-99085913D01*
X113494502Y-99314000D01*
X113514457Y-99542087D01*
X113573716Y-99763243D01*
X113576039Y-99768224D01*
X113576039Y-99768225D01*
X113668151Y-99965762D01*
X113668154Y-99965767D01*
X113670477Y-99970749D01*
X113801802Y-100158300D01*
X113963700Y-100320198D01*
X113968208Y-100323355D01*
X113968211Y-100323357D01*
X114046389Y-100378098D01*
X114151251Y-100451523D01*
X114156233Y-100453846D01*
X114156238Y-100453849D01*
X114190457Y-100469805D01*
X114243742Y-100516722D01*
X114263203Y-100584999D01*
X114242661Y-100652959D01*
X114190457Y-100698195D01*
X114156238Y-100714151D01*
X114156233Y-100714154D01*
X114151251Y-100716477D01*
X114108501Y-100746411D01*
X113968211Y-100844643D01*
X113968208Y-100844645D01*
X113963700Y-100847802D01*
X113801802Y-101009700D01*
X113798645Y-101014208D01*
X113798643Y-101014211D01*
X113774892Y-101048131D01*
X113670477Y-101197251D01*
X113668154Y-101202233D01*
X113668151Y-101202238D01*
X113601781Y-101344570D01*
X113573716Y-101404757D01*
X113572294Y-101410065D01*
X113572293Y-101410067D01*
X113528943Y-101571851D01*
X113514457Y-101625913D01*
X113494502Y-101854000D01*
X113514457Y-102082087D01*
X113515881Y-102087400D01*
X113515881Y-102087402D01*
X113572161Y-102297438D01*
X113573716Y-102303243D01*
X113576039Y-102308224D01*
X113576039Y-102308225D01*
X113668151Y-102505762D01*
X113668154Y-102505767D01*
X113670477Y-102510749D01*
X113673634Y-102515257D01*
X113759250Y-102637529D01*
X113801802Y-102698300D01*
X113963700Y-102860198D01*
X113968208Y-102863355D01*
X113968211Y-102863357D01*
X113985325Y-102875340D01*
X114151251Y-102991523D01*
X114156233Y-102993846D01*
X114156238Y-102993849D01*
X114190457Y-103009805D01*
X114243742Y-103056722D01*
X114263203Y-103124999D01*
X114242661Y-103192959D01*
X114190457Y-103238195D01*
X114156238Y-103254151D01*
X114156233Y-103254154D01*
X114151251Y-103256477D01*
X114050368Y-103327116D01*
X113968211Y-103384643D01*
X113968208Y-103384645D01*
X113963700Y-103387802D01*
X113801802Y-103549700D01*
X113670477Y-103737251D01*
X113668154Y-103742233D01*
X113668151Y-103742238D01*
X113578914Y-103933610D01*
X113573716Y-103944757D01*
X113514457Y-104165913D01*
X113494502Y-104394000D01*
X113514457Y-104622087D01*
X113515881Y-104627400D01*
X113515881Y-104627402D01*
X113565078Y-104811004D01*
X113573716Y-104843243D01*
X113576039Y-104848224D01*
X113576039Y-104848225D01*
X113668151Y-105045762D01*
X113668154Y-105045767D01*
X113670477Y-105050749D01*
X113801802Y-105238300D01*
X113963700Y-105400198D01*
X113968208Y-105403355D01*
X113968211Y-105403357D01*
X113991523Y-105419680D01*
X114151251Y-105531523D01*
X114156233Y-105533846D01*
X114156238Y-105533849D01*
X114190457Y-105549805D01*
X114243742Y-105596722D01*
X114263203Y-105664999D01*
X114242661Y-105732959D01*
X114190457Y-105778195D01*
X114156238Y-105794151D01*
X114156233Y-105794154D01*
X114151251Y-105796477D01*
X114046389Y-105869902D01*
X113968211Y-105924643D01*
X113968208Y-105924645D01*
X113963700Y-105927802D01*
X113801802Y-106089700D01*
X113798645Y-106094208D01*
X113798643Y-106094211D01*
X113758669Y-106151300D01*
X113670477Y-106277251D01*
X113668154Y-106282233D01*
X113668151Y-106282238D01*
X113576039Y-106479775D01*
X113573716Y-106484757D01*
X113572294Y-106490065D01*
X113572293Y-106490067D01*
X113527465Y-106657368D01*
X113514457Y-106705913D01*
X113494502Y-106934000D01*
X113514457Y-107162087D01*
X113515881Y-107167400D01*
X113515881Y-107167402D01*
X113565597Y-107352941D01*
X113573716Y-107383243D01*
X113576039Y-107388224D01*
X113576039Y-107388225D01*
X113668151Y-107585762D01*
X113668154Y-107585767D01*
X113670477Y-107590749D01*
X113801802Y-107778300D01*
X113963700Y-107940198D01*
X113968208Y-107943355D01*
X113968211Y-107943357D01*
X114046389Y-107998098D01*
X114151251Y-108071523D01*
X114156233Y-108073846D01*
X114156238Y-108073849D01*
X114190457Y-108089805D01*
X114243742Y-108136722D01*
X114263203Y-108204999D01*
X114242661Y-108272959D01*
X114190457Y-108318195D01*
X114156238Y-108334151D01*
X114156233Y-108334154D01*
X114151251Y-108336477D01*
X114108501Y-108366411D01*
X113968211Y-108464643D01*
X113968208Y-108464645D01*
X113963700Y-108467802D01*
X113801802Y-108629700D01*
X113670477Y-108817251D01*
X113668154Y-108822233D01*
X113668151Y-108822238D01*
X113601781Y-108964570D01*
X113573716Y-109024757D01*
X113572294Y-109030065D01*
X113572293Y-109030067D01*
X113528943Y-109191851D01*
X113514457Y-109245913D01*
X113494502Y-109474000D01*
X99568000Y-109474000D01*
X99568000Y-101566695D01*
X101405651Y-101566695D01*
X101405948Y-101571848D01*
X101405948Y-101571851D01*
X101411411Y-101666590D01*
X101418510Y-101789715D01*
X101419647Y-101794761D01*
X101419648Y-101794767D01*
X101432997Y-101854000D01*
X101467622Y-102007639D01*
X101551666Y-102214616D01*
X101668387Y-102405088D01*
X101814650Y-102573938D01*
X101986526Y-102716632D01*
X102179400Y-102829338D01*
X102184225Y-102831180D01*
X102184226Y-102831181D01*
X102210086Y-102841056D01*
X102388092Y-102909030D01*
X102393160Y-102910061D01*
X102393163Y-102910062D01*
X102500417Y-102931883D01*
X102606997Y-102953567D01*
X102612172Y-102953757D01*
X102612174Y-102953757D01*
X102825073Y-102961564D01*
X102825077Y-102961564D01*
X102830237Y-102961753D01*
X102835357Y-102961097D01*
X102835359Y-102961097D01*
X103046688Y-102934025D01*
X103046689Y-102934025D01*
X103051816Y-102933368D01*
X103056766Y-102931883D01*
X103260829Y-102870661D01*
X103260834Y-102870659D01*
X103265784Y-102869174D01*
X103466394Y-102770896D01*
X103648260Y-102641173D01*
X103806496Y-102483489D01*
X103865994Y-102400689D01*
X103933835Y-102306277D01*
X103936853Y-102302077D01*
X104035830Y-102101811D01*
X104100770Y-101888069D01*
X104129929Y-101666590D01*
X104131556Y-101600000D01*
X104113252Y-101377361D01*
X104058831Y-101160702D01*
X103969754Y-100955840D01*
X103899861Y-100847802D01*
X103851222Y-100772617D01*
X103851220Y-100772614D01*
X103848414Y-100768277D01*
X103698070Y-100603051D01*
X103694019Y-100599852D01*
X103694015Y-100599848D01*
X103526814Y-100467800D01*
X103526810Y-100467798D01*
X103522759Y-100464598D01*
X103480969Y-100441529D01*
X103430998Y-100391097D01*
X103416226Y-100321654D01*
X103441342Y-100255248D01*
X103468694Y-100228641D01*
X103643728Y-100103792D01*
X103651600Y-100097139D01*
X103802452Y-99946812D01*
X103809130Y-99938965D01*
X103933403Y-99766020D01*
X103938713Y-99757183D01*
X104033070Y-99566267D01*
X104036869Y-99556672D01*
X104098777Y-99352910D01*
X104100955Y-99342837D01*
X104102386Y-99331962D01*
X104100175Y-99317778D01*
X104087017Y-99314000D01*
X101451625Y-99314000D01*
X101438094Y-99317973D01*
X101436657Y-99327966D01*
X101466965Y-99462446D01*
X101470045Y-99472275D01*
X101550170Y-99669603D01*
X101554813Y-99678794D01*
X101666094Y-99860388D01*
X101672177Y-99868699D01*
X101811613Y-100029667D01*
X101818980Y-100036883D01*
X101982834Y-100172916D01*
X101991281Y-100178831D01*
X102060369Y-100219203D01*
X102109093Y-100270842D01*
X102122164Y-100340625D01*
X102095433Y-100406396D01*
X102054984Y-100439752D01*
X102042007Y-100446507D01*
X102037874Y-100449610D01*
X102037871Y-100449612D01*
X101886161Y-100563519D01*
X101863365Y-100580635D01*
X101709029Y-100742138D01*
X101706115Y-100746410D01*
X101706114Y-100746411D01*
X101639105Y-100844643D01*
X101583143Y-100926680D01*
X101542513Y-101014211D01*
X101526768Y-101048131D01*
X101489088Y-101129305D01*
X101429389Y-101344570D01*
X101405651Y-101566695D01*
X99568000Y-101566695D01*
X99568000Y-96486695D01*
X101405651Y-96486695D01*
X101405948Y-96491848D01*
X101405948Y-96491851D01*
X101418212Y-96704547D01*
X101418510Y-96709715D01*
X101419647Y-96714761D01*
X101419648Y-96714767D01*
X101432997Y-96774000D01*
X101467622Y-96927639D01*
X101551666Y-97134616D01*
X101554365Y-97139020D01*
X101657859Y-97307907D01*
X101668387Y-97325088D01*
X101814650Y-97493938D01*
X101986526Y-97636632D01*
X102047240Y-97672110D01*
X102060355Y-97679774D01*
X102109079Y-97731412D01*
X102122150Y-97801195D01*
X102095419Y-97866967D01*
X102054962Y-97900327D01*
X102046857Y-97904546D01*
X102038138Y-97910036D01*
X101867833Y-98037905D01*
X101860126Y-98044748D01*
X101712990Y-98198717D01*
X101706504Y-98206727D01*
X101586498Y-98382649D01*
X101581400Y-98391623D01*
X101491738Y-98584783D01*
X101488175Y-98594470D01*
X101432789Y-98794183D01*
X101434312Y-98802607D01*
X101446692Y-98806000D01*
X104086744Y-98806000D01*
X104100275Y-98802027D01*
X104101580Y-98792947D01*
X104059614Y-98625875D01*
X104056294Y-98616124D01*
X103971372Y-98420814D01*
X103966505Y-98411739D01*
X103850826Y-98232926D01*
X103844536Y-98224757D01*
X103701206Y-98067240D01*
X103693673Y-98060215D01*
X103526539Y-97928222D01*
X103517956Y-97922520D01*
X103481002Y-97902120D01*
X103431031Y-97851687D01*
X103416259Y-97782245D01*
X103441375Y-97715839D01*
X103468727Y-97689232D01*
X103509302Y-97660290D01*
X103648260Y-97561173D01*
X103806496Y-97403489D01*
X103857027Y-97333168D01*
X103933835Y-97226277D01*
X103936853Y-97222077D01*
X103981776Y-97131183D01*
X104033536Y-97026453D01*
X104033537Y-97026451D01*
X104035830Y-97021811D01*
X104100770Y-96808069D01*
X104129929Y-96586590D01*
X104131556Y-96520000D01*
X104113252Y-96297361D01*
X104058831Y-96080702D01*
X103969754Y-95875840D01*
X103899861Y-95767802D01*
X103851222Y-95692617D01*
X103851220Y-95692614D01*
X103848414Y-95688277D01*
X103698070Y-95523051D01*
X103694019Y-95519852D01*
X103694015Y-95519848D01*
X103526814Y-95387800D01*
X103526810Y-95387798D01*
X103522759Y-95384598D01*
X103481453Y-95361796D01*
X103431484Y-95311364D01*
X103416712Y-95241921D01*
X103441828Y-95175516D01*
X103469180Y-95148909D01*
X103531396Y-95104531D01*
X103648260Y-95021173D01*
X103669290Y-95000217D01*
X103776659Y-94893222D01*
X103806496Y-94863489D01*
X103846436Y-94807907D01*
X103933835Y-94686277D01*
X103936853Y-94682077D01*
X103962118Y-94630958D01*
X104033536Y-94486453D01*
X104033537Y-94486451D01*
X104035830Y-94481811D01*
X104100770Y-94268069D01*
X104129929Y-94046590D01*
X104131556Y-93980000D01*
X104113252Y-93757361D01*
X104058831Y-93540702D01*
X103969754Y-93335840D01*
X103899861Y-93227802D01*
X103851222Y-93152617D01*
X103851220Y-93152614D01*
X103848414Y-93148277D01*
X103844932Y-93144450D01*
X103701198Y-92986488D01*
X103670146Y-92922642D01*
X103678541Y-92852143D01*
X103723717Y-92797375D01*
X103750161Y-92783706D01*
X103856697Y-92743767D01*
X103865105Y-92740615D01*
X103981661Y-92653261D01*
X104069015Y-92536705D01*
X104120145Y-92400316D01*
X104126900Y-92338134D01*
X104126900Y-90541866D01*
X104120145Y-90479684D01*
X104069015Y-90343295D01*
X103981661Y-90226739D01*
X103865105Y-90139385D01*
X103728716Y-90088255D01*
X103666534Y-90081500D01*
X101870266Y-90081500D01*
X101808084Y-90088255D01*
X101671695Y-90139385D01*
X101555139Y-90226739D01*
X101467785Y-90343295D01*
X101416655Y-90479684D01*
X101409900Y-90541866D01*
X101409900Y-92338134D01*
X101416655Y-92400316D01*
X101467785Y-92536705D01*
X101555139Y-92653261D01*
X101671695Y-92740615D01*
X101680104Y-92743767D01*
X101680105Y-92743768D01*
X101788851Y-92784535D01*
X101845616Y-92827176D01*
X101870316Y-92893738D01*
X101855109Y-92963087D01*
X101835716Y-92989568D01*
X101826018Y-92999716D01*
X101794251Y-93032959D01*
X101709029Y-93122138D01*
X101583143Y-93306680D01*
X101544607Y-93389700D01*
X101508267Y-93467988D01*
X101489088Y-93509305D01*
X101429389Y-93724570D01*
X101405651Y-93946695D01*
X101405948Y-93951848D01*
X101405948Y-93951851D01*
X101411411Y-94046590D01*
X101418510Y-94169715D01*
X101419647Y-94174761D01*
X101419648Y-94174767D01*
X101432997Y-94234000D01*
X101467622Y-94387639D01*
X101551666Y-94594616D01*
X101668387Y-94785088D01*
X101814650Y-94953938D01*
X101948694Y-95065223D01*
X101976776Y-95088537D01*
X101986526Y-95096632D01*
X102000044Y-95104531D01*
X102059845Y-95139476D01*
X102108569Y-95191114D01*
X102121640Y-95260897D01*
X102094909Y-95326669D01*
X102054455Y-95360027D01*
X102042007Y-95366507D01*
X102037874Y-95369610D01*
X102037871Y-95369612D01*
X101881084Y-95487331D01*
X101863365Y-95500635D01*
X101709029Y-95662138D01*
X101583143Y-95846680D01*
X101544607Y-95929700D01*
X101522478Y-95977373D01*
X101489088Y-96049305D01*
X101429389Y-96264570D01*
X101405651Y-96486695D01*
X99568000Y-96486695D01*
X99568000Y-75564000D01*
X99588002Y-75495879D01*
X99641658Y-75449386D01*
X99694000Y-75438000D01*
X156592000Y-75438000D01*
X156660121Y-75458002D01*
G37*
G04 #@! TD.AperFunction*
M02*
