G04 #@! TF.GenerationSoftware,KiCad,Pcbnew,(6.0.2)*
G04 #@! TF.CreationDate,2023-01-26T14:19:39+00:00*
G04 #@! TF.ProjectId,bomb-diffusal-combolock,626f6d62-2d64-4696-9666-7573616c2d63,rev?*
G04 #@! TF.SameCoordinates,Original*
G04 #@! TF.FileFunction,Soldermask,Top*
G04 #@! TF.FilePolarity,Negative*
%FSLAX46Y46*%
G04 Gerber Fmt 4.6, Leading zero omitted, Abs format (unit mm)*
G04 Created by KiCad (PCBNEW (6.0.2)) date 2023-01-26 14:19:39*
%MOMM*%
%LPD*%
G01*
G04 APERTURE LIST*
G04 Aperture macros list*
%AMRoundRect*
0 Rectangle with rounded corners*
0 $1 Rounding radius*
0 $2 $3 $4 $5 $6 $7 $8 $9 X,Y pos of 4 corners*
0 Add a 4 corners polygon primitive as box body*
4,1,4,$2,$3,$4,$5,$6,$7,$8,$9,$2,$3,0*
0 Add four circle primitives for the rounded corners*
1,1,$1+$1,$2,$3*
1,1,$1+$1,$4,$5*
1,1,$1+$1,$6,$7*
1,1,$1+$1,$8,$9*
0 Add four rect primitives between the rounded corners*
20,1,$1+$1,$2,$3,$4,$5,0*
20,1,$1+$1,$4,$5,$6,$7,0*
20,1,$1+$1,$6,$7,$8,$9,0*
20,1,$1+$1,$8,$9,$2,$3,0*%
G04 Aperture macros list end*
%ADD10RoundRect,0.166666X0.233334X0.433334X-0.233334X0.433334X-0.233334X-0.433334X0.233334X-0.433334X0*%
%ADD11O,0.800000X1.200000*%
%ADD12R,2.000000X2.000000*%
%ADD13C,2.000000*%
%ADD14R,3.200000X2.000000*%
%ADD15R,1.600000X1.600000*%
%ADD16O,1.600000X1.600000*%
%ADD17R,1.700000X1.700000*%
%ADD18O,1.700000X1.700000*%
%ADD19C,1.600000*%
G04 APERTURE END LIST*
D10*
X141224000Y-81026000D03*
D11*
X139974000Y-81026000D03*
X138724000Y-81026000D03*
X137474000Y-81026000D03*
X136224000Y-81026000D03*
X134974000Y-81026000D03*
D10*
X141224000Y-105664000D03*
D11*
X139974000Y-105664000D03*
X138724000Y-105664000D03*
X137474000Y-105664000D03*
X136224000Y-105664000D03*
X134974000Y-105664000D03*
D12*
X140768400Y-91440000D03*
D13*
X140768400Y-96440000D03*
X140768400Y-93940000D03*
D14*
X148268400Y-88340000D03*
X148268400Y-99540000D03*
D13*
X155268400Y-96440000D03*
X155268400Y-91440000D03*
D15*
X130048000Y-114554000D03*
D16*
X130048000Y-112014000D03*
X130048000Y-109474000D03*
X130048000Y-106934000D03*
X130048000Y-104394000D03*
X130048000Y-101854000D03*
X130048000Y-99314000D03*
X130048000Y-96774000D03*
X130048000Y-94234000D03*
X130048000Y-91694000D03*
X130048000Y-89154000D03*
X130048000Y-86614000D03*
X130048000Y-84074000D03*
X130048000Y-81534000D03*
X130048000Y-78994000D03*
X114808000Y-78994000D03*
X114808000Y-81534000D03*
X114808000Y-84074000D03*
X114808000Y-86614000D03*
X114808000Y-89154000D03*
X114808000Y-91694000D03*
X114808000Y-94234000D03*
X114808000Y-96774000D03*
X114808000Y-99314000D03*
X114808000Y-101854000D03*
X114808000Y-104394000D03*
X114808000Y-106934000D03*
X114808000Y-109474000D03*
X114808000Y-112014000D03*
X114808000Y-114554000D03*
D17*
X102768400Y-91440000D03*
D18*
X102768400Y-93980000D03*
X102768400Y-96520000D03*
X102768400Y-99060000D03*
X102768400Y-101600000D03*
D19*
X134366000Y-111760000D03*
D16*
X147066000Y-111760000D03*
D17*
X154940000Y-111760000D03*
D18*
X154940000Y-109220000D03*
M02*
