M48
; DRILL file {KiCad (6.0.2)} date Thu Jan 26 14:19:42 2023
; FORMAT={-:-/ absolute / metric / decimal}
; #@! TF.CreationDate,2023-01-26T14:19:42+00:00
; #@! TF.GenerationSoftware,Kicad,Pcbnew,(6.0.2)
; #@! TF.FileFunction,Plated,1,2,PTH
FMAT,2
METRIC
; #@! TA.AperFunction,Plated,PTH,ViaDrill
T1C0.400
; #@! TA.AperFunction,Plated,PTH,ComponentDrill
T2C0.500
; #@! TA.AperFunction,Plated,PTH,ComponentDrill
T3C0.800
; #@! TA.AperFunction,Plated,PTH,ComponentDrill
T4C1.000
; #@! TA.AperFunction,Plated,PTH,ComponentDrill
T5C1.100
; #@! TA.AperFunction,Plated,PTH,ComponentDrill
T6C1.500
%
G90
G05
T1
X117.094Y-103.886
X152.146Y-93.218
T2
X134.974Y-81.026
X134.974Y-105.664
X136.224Y-81.026
X136.224Y-105.664
X137.474Y-81.026
X137.474Y-105.664
X138.724Y-81.026
X138.724Y-105.664
X139.974Y-81.026
X139.974Y-105.664
X141.224Y-81.026
X141.224Y-105.664
T3
X134.366Y-111.76
X147.066Y-111.76
T4
X102.768Y-91.44
X102.768Y-93.98
X102.768Y-96.52
X102.768Y-99.06
X102.768Y-101.6
X114.808Y-78.994
X114.808Y-81.534
X114.808Y-84.074
X114.808Y-86.614
X114.808Y-89.154
X114.808Y-91.694
X114.808Y-94.234
X114.808Y-96.774
X114.808Y-99.314
X114.808Y-101.854
X114.808Y-104.394
X114.808Y-106.934
X114.808Y-109.474
X114.808Y-112.014
X114.808Y-114.554
X130.048Y-78.994
X130.048Y-81.534
X130.048Y-84.074
X130.048Y-86.614
X130.048Y-89.154
X130.048Y-91.694
X130.048Y-94.234
X130.048Y-96.774
X130.048Y-99.314
X130.048Y-101.854
X130.048Y-104.394
X130.048Y-106.934
X130.048Y-109.474
X130.048Y-112.014
X130.048Y-114.554
X154.94Y-109.22
X154.94Y-111.76
T5
X140.768Y-91.44
X140.768Y-93.94
X140.768Y-96.44
X155.268Y-91.44
X155.268Y-96.44
T6
X147.618Y-88.34G85X148.918Y-88.34
G05
X147.618Y-99.54G85X148.918Y-99.54
G05
T0
M30
