G04 #@! TF.GenerationSoftware,KiCad,Pcbnew,(6.0.2)*
G04 #@! TF.CreationDate,2023-01-26T14:22:11+00:00*
G04 #@! TF.ProjectId,bomb-diffusal-maze,626f6d62-2d64-4696-9666-7573616c2d6d,rev?*
G04 #@! TF.SameCoordinates,Original*
G04 #@! TF.FileFunction,Copper,L1,Top*
G04 #@! TF.FilePolarity,Positive*
%FSLAX46Y46*%
G04 Gerber Fmt 4.6, Leading zero omitted, Abs format (unit mm)*
G04 Created by KiCad (PCBNEW (6.0.2)) date 2023-01-26 14:22:11*
%MOMM*%
%LPD*%
G01*
G04 APERTURE LIST*
G04 Aperture macros list*
%AMRoundRect*
0 Rectangle with rounded corners*
0 $1 Rounding radius*
0 $2 $3 $4 $5 $6 $7 $8 $9 X,Y pos of 4 corners*
0 Add a 4 corners polygon primitive as box body*
4,1,4,$2,$3,$4,$5,$6,$7,$8,$9,$2,$3,0*
0 Add four circle primitives for the rounded corners*
1,1,$1+$1,$2,$3*
1,1,$1+$1,$4,$5*
1,1,$1+$1,$6,$7*
1,1,$1+$1,$8,$9*
0 Add four rect primitives between the rounded corners*
20,1,$1+$1,$2,$3,$4,$5,0*
20,1,$1+$1,$4,$5,$6,$7,0*
20,1,$1+$1,$6,$7,$8,$9,0*
20,1,$1+$1,$8,$9,$2,$3,0*%
G04 Aperture macros list end*
G04 #@! TA.AperFunction,ComponentPad*
%ADD10R,1.700000X1.700000*%
G04 #@! TD*
G04 #@! TA.AperFunction,ComponentPad*
%ADD11O,1.700000X1.700000*%
G04 #@! TD*
G04 #@! TA.AperFunction,ComponentPad*
%ADD12RoundRect,0.166666X-0.433334X0.233334X-0.433334X-0.233334X0.433334X-0.233334X0.433334X0.233334X0*%
G04 #@! TD*
G04 #@! TA.AperFunction,ComponentPad*
%ADD13O,1.200000X0.800000*%
G04 #@! TD*
G04 #@! TA.AperFunction,ComponentPad*
%ADD14C,1.600000*%
G04 #@! TD*
G04 #@! TA.AperFunction,ComponentPad*
%ADD15O,1.600000X1.600000*%
G04 #@! TD*
G04 #@! TA.AperFunction,WasherPad*
%ADD16C,4.000000*%
G04 #@! TD*
G04 #@! TA.AperFunction,ComponentPad*
%ADD17R,1.350000X1.350000*%
G04 #@! TD*
G04 #@! TA.AperFunction,ComponentPad*
%ADD18O,1.350000X1.350000*%
G04 #@! TD*
G04 #@! TA.AperFunction,ComponentPad*
%ADD19R,1.600000X1.600000*%
G04 #@! TD*
G04 #@! TA.AperFunction,ViaPad*
%ADD20C,0.800000*%
G04 #@! TD*
G04 #@! TA.AperFunction,Conductor*
%ADD21C,0.800000*%
G04 #@! TD*
G04 APERTURE END LIST*
D10*
X174498000Y-76962000D03*
D11*
X174498000Y-74422000D03*
X174498000Y-71882000D03*
X174498000Y-69342000D03*
X174498000Y-66802000D03*
D12*
X176784000Y-104140000D03*
D13*
X176784000Y-105390000D03*
X176784000Y-106640000D03*
X176784000Y-107890000D03*
X176784000Y-109140000D03*
X176784000Y-110390000D03*
D10*
X141698000Y-94162000D03*
D11*
X139158000Y-94162000D03*
X136618000Y-94162000D03*
D14*
X145542000Y-88392000D03*
D15*
X145542000Y-75692000D03*
D16*
X190948000Y-94162000D03*
D17*
X125698000Y-53162000D03*
D18*
X125698000Y-51162000D03*
D19*
X166614000Y-102362000D03*
D15*
X166614000Y-99822000D03*
X166614000Y-97282000D03*
X166614000Y-94742000D03*
X166614000Y-92202000D03*
X166614000Y-89662000D03*
X166614000Y-87122000D03*
X166614000Y-84582000D03*
X166614000Y-82042000D03*
X166614000Y-79502000D03*
X166614000Y-76962000D03*
X166614000Y-74422000D03*
X166614000Y-71882000D03*
X166614000Y-69342000D03*
X166614000Y-66802000D03*
X151374000Y-66802000D03*
X151374000Y-69342000D03*
X151374000Y-71882000D03*
X151374000Y-74422000D03*
X151374000Y-76962000D03*
X151374000Y-79502000D03*
X151374000Y-82042000D03*
X151374000Y-84582000D03*
X151374000Y-87122000D03*
X151374000Y-89662000D03*
X151374000Y-92202000D03*
X151374000Y-94742000D03*
X151374000Y-97282000D03*
X151374000Y-99822000D03*
X151374000Y-102362000D03*
D16*
X129198000Y-94162000D03*
D12*
X139700000Y-104140000D03*
D13*
X139700000Y-105390000D03*
X139700000Y-106640000D03*
X139700000Y-107890000D03*
X139700000Y-109140000D03*
X139700000Y-110390000D03*
D20*
X163322000Y-109220000D03*
X159512000Y-106680000D03*
X157032000Y-107890000D03*
D21*
X174498000Y-74422000D02*
X171694000Y-74422000D01*
X171694000Y-74422000D02*
X166614000Y-69342000D01*
X177038000Y-65532000D02*
X175514000Y-64008000D01*
X175514000Y-64008000D02*
X154168000Y-64008000D01*
X177038000Y-75438000D02*
X177038000Y-65532000D01*
X154168000Y-64008000D02*
X151374000Y-66802000D01*
X174498000Y-76962000D02*
X175514000Y-76962000D01*
X175514000Y-76962000D02*
X177038000Y-75438000D01*
X163322000Y-109220000D02*
X163322000Y-86370000D01*
X163322000Y-86370000D02*
X151374000Y-74422000D01*
X151374000Y-84582000D02*
X159512000Y-92720000D01*
X159512000Y-92720000D02*
X159512000Y-106680000D01*
X157032000Y-92780000D02*
X157032000Y-107890000D01*
X151374000Y-87122000D02*
X157032000Y-92780000D01*
G04 #@! TA.AperFunction,Conductor*
G36*
X197554121Y-48788002D02*
G01*
X197600614Y-48841658D01*
X197612000Y-48894000D01*
X197612000Y-113666000D01*
X197591998Y-113734121D01*
X197538342Y-113780614D01*
X197486000Y-113792000D01*
X122554000Y-113792000D01*
X122485879Y-113771998D01*
X122439386Y-113718342D01*
X122428000Y-113666000D01*
X122428000Y-110485487D01*
X138591500Y-110485487D01*
X138631206Y-110672288D01*
X138708882Y-110846752D01*
X138821134Y-111001253D01*
X138963056Y-111129040D01*
X139128444Y-111224527D01*
X139310072Y-111283542D01*
X139316633Y-111284232D01*
X139316635Y-111284232D01*
X139369889Y-111289829D01*
X139452390Y-111298500D01*
X139947610Y-111298500D01*
X140030111Y-111289829D01*
X140083365Y-111284232D01*
X140083367Y-111284232D01*
X140089928Y-111283542D01*
X140271556Y-111224527D01*
X140436944Y-111129040D01*
X140578866Y-111001253D01*
X140691118Y-110846752D01*
X140768794Y-110672288D01*
X140808500Y-110485487D01*
X175675500Y-110485487D01*
X175715206Y-110672288D01*
X175792882Y-110846752D01*
X175905134Y-111001253D01*
X176047056Y-111129040D01*
X176212444Y-111224527D01*
X176394072Y-111283542D01*
X176400633Y-111284232D01*
X176400635Y-111284232D01*
X176453889Y-111289829D01*
X176536390Y-111298500D01*
X177031610Y-111298500D01*
X177114111Y-111289829D01*
X177167365Y-111284232D01*
X177167367Y-111284232D01*
X177173928Y-111283542D01*
X177355556Y-111224527D01*
X177520944Y-111129040D01*
X177662866Y-111001253D01*
X177775118Y-110846752D01*
X177852794Y-110672288D01*
X177892500Y-110485487D01*
X177892500Y-110294513D01*
X177852794Y-110107712D01*
X177775118Y-109933248D01*
X177706687Y-109839061D01*
X177682828Y-109772193D01*
X177698909Y-109703042D01*
X177706687Y-109690939D01*
X177771237Y-109602094D01*
X177771238Y-109602093D01*
X177775118Y-109596752D01*
X177852794Y-109422288D01*
X177892500Y-109235487D01*
X177892500Y-109044513D01*
X177852794Y-108857712D01*
X177826431Y-108798500D01*
X177777803Y-108689278D01*
X177777802Y-108689276D01*
X177775118Y-108683248D01*
X177706687Y-108589061D01*
X177682828Y-108522193D01*
X177698909Y-108453042D01*
X177706687Y-108440939D01*
X177771237Y-108352094D01*
X177771238Y-108352093D01*
X177775118Y-108346752D01*
X177810502Y-108267279D01*
X177850109Y-108178319D01*
X177850109Y-108178318D01*
X177852794Y-108172288D01*
X177892500Y-107985487D01*
X177892500Y-107794513D01*
X177852794Y-107607712D01*
X177844240Y-107588500D01*
X177777803Y-107439278D01*
X177777802Y-107439276D01*
X177775118Y-107433248D01*
X177706687Y-107339061D01*
X177682828Y-107272193D01*
X177698909Y-107203042D01*
X177706687Y-107190939D01*
X177771237Y-107102094D01*
X177771238Y-107102093D01*
X177775118Y-107096752D01*
X177792693Y-107057279D01*
X177850109Y-106928319D01*
X177850109Y-106928318D01*
X177852794Y-106922288D01*
X177892500Y-106735487D01*
X177892500Y-106544513D01*
X177852794Y-106357712D01*
X177775118Y-106183248D01*
X177706377Y-106088634D01*
X177682520Y-106021770D01*
X177698600Y-105952618D01*
X177706378Y-105940515D01*
X177770802Y-105851843D01*
X177777368Y-105840471D01*
X177849633Y-105678161D01*
X177853690Y-105665675D01*
X177854530Y-105661722D01*
X177853457Y-105647659D01*
X177843503Y-105644000D01*
X175727818Y-105644000D01*
X175714287Y-105647973D01*
X175712778Y-105658468D01*
X175714310Y-105665675D01*
X175718367Y-105678161D01*
X175790632Y-105840471D01*
X175797198Y-105851843D01*
X175861622Y-105940515D01*
X175885481Y-106007383D01*
X175869400Y-106076534D01*
X175861634Y-106088620D01*
X175792882Y-106183248D01*
X175715206Y-106357712D01*
X175675500Y-106544513D01*
X175675500Y-106735487D01*
X175715206Y-106922288D01*
X175717891Y-106928318D01*
X175717891Y-106928319D01*
X175775308Y-107057279D01*
X175792882Y-107096752D01*
X175796762Y-107102093D01*
X175796763Y-107102094D01*
X175861313Y-107190939D01*
X175885172Y-107257807D01*
X175869091Y-107326958D01*
X175861313Y-107339061D01*
X175792882Y-107433248D01*
X175790198Y-107439276D01*
X175790197Y-107439278D01*
X175723760Y-107588500D01*
X175715206Y-107607712D01*
X175675500Y-107794513D01*
X175675500Y-107985487D01*
X175715206Y-108172288D01*
X175717891Y-108178318D01*
X175717891Y-108178319D01*
X175757499Y-108267279D01*
X175792882Y-108346752D01*
X175796762Y-108352093D01*
X175796763Y-108352094D01*
X175861313Y-108440939D01*
X175885172Y-108507807D01*
X175869091Y-108576958D01*
X175861313Y-108589061D01*
X175792882Y-108683248D01*
X175790198Y-108689276D01*
X175790197Y-108689278D01*
X175741569Y-108798500D01*
X175715206Y-108857712D01*
X175675500Y-109044513D01*
X175675500Y-109235487D01*
X175715206Y-109422288D01*
X175792882Y-109596752D01*
X175796762Y-109602093D01*
X175796763Y-109602094D01*
X175861313Y-109690939D01*
X175885172Y-109757807D01*
X175869091Y-109826958D01*
X175861313Y-109839061D01*
X175792882Y-109933248D01*
X175715206Y-110107712D01*
X175675500Y-110294513D01*
X175675500Y-110485487D01*
X140808500Y-110485487D01*
X140808500Y-110294513D01*
X140768794Y-110107712D01*
X140691118Y-109933248D01*
X140622687Y-109839061D01*
X140598828Y-109772193D01*
X140614909Y-109703042D01*
X140622687Y-109690939D01*
X140687237Y-109602094D01*
X140687238Y-109602093D01*
X140691118Y-109596752D01*
X140768794Y-109422288D01*
X140808500Y-109235487D01*
X140808500Y-109044513D01*
X140768794Y-108857712D01*
X140742431Y-108798500D01*
X140693803Y-108689278D01*
X140693802Y-108689276D01*
X140691118Y-108683248D01*
X140622687Y-108589061D01*
X140598828Y-108522193D01*
X140614909Y-108453042D01*
X140622687Y-108440939D01*
X140687237Y-108352094D01*
X140687238Y-108352093D01*
X140691118Y-108346752D01*
X140726502Y-108267279D01*
X140766109Y-108178319D01*
X140766109Y-108178318D01*
X140768794Y-108172288D01*
X140808500Y-107985487D01*
X140808500Y-107794513D01*
X140768794Y-107607712D01*
X140760240Y-107588500D01*
X140693803Y-107439278D01*
X140693802Y-107439276D01*
X140691118Y-107433248D01*
X140622687Y-107339061D01*
X140598828Y-107272193D01*
X140614909Y-107203042D01*
X140622687Y-107190939D01*
X140687237Y-107102094D01*
X140687238Y-107102093D01*
X140691118Y-107096752D01*
X140708693Y-107057279D01*
X140766109Y-106928319D01*
X140766109Y-106928318D01*
X140768794Y-106922288D01*
X140808500Y-106735487D01*
X140808500Y-106544513D01*
X140768794Y-106357712D01*
X140691118Y-106183248D01*
X140622377Y-106088634D01*
X140598520Y-106021770D01*
X140614600Y-105952618D01*
X140622378Y-105940515D01*
X140686802Y-105851843D01*
X140693368Y-105840471D01*
X140765633Y-105678161D01*
X140769690Y-105665675D01*
X140770530Y-105661722D01*
X140769457Y-105647659D01*
X140759503Y-105644000D01*
X138643818Y-105644000D01*
X138630287Y-105647973D01*
X138628778Y-105658468D01*
X138630310Y-105665675D01*
X138634367Y-105678161D01*
X138706632Y-105840471D01*
X138713198Y-105851843D01*
X138777622Y-105940515D01*
X138801481Y-106007383D01*
X138785400Y-106076534D01*
X138777634Y-106088620D01*
X138708882Y-106183248D01*
X138631206Y-106357712D01*
X138591500Y-106544513D01*
X138591500Y-106735487D01*
X138631206Y-106922288D01*
X138633891Y-106928318D01*
X138633891Y-106928319D01*
X138691308Y-107057279D01*
X138708882Y-107096752D01*
X138712762Y-107102093D01*
X138712763Y-107102094D01*
X138777313Y-107190939D01*
X138801172Y-107257807D01*
X138785091Y-107326958D01*
X138777313Y-107339061D01*
X138708882Y-107433248D01*
X138706198Y-107439276D01*
X138706197Y-107439278D01*
X138639760Y-107588500D01*
X138631206Y-107607712D01*
X138591500Y-107794513D01*
X138591500Y-107985487D01*
X138631206Y-108172288D01*
X138633891Y-108178318D01*
X138633891Y-108178319D01*
X138673499Y-108267279D01*
X138708882Y-108346752D01*
X138712762Y-108352093D01*
X138712763Y-108352094D01*
X138777313Y-108440939D01*
X138801172Y-108507807D01*
X138785091Y-108576958D01*
X138777313Y-108589061D01*
X138708882Y-108683248D01*
X138706198Y-108689276D01*
X138706197Y-108689278D01*
X138657569Y-108798500D01*
X138631206Y-108857712D01*
X138591500Y-109044513D01*
X138591500Y-109235487D01*
X138631206Y-109422288D01*
X138708882Y-109596752D01*
X138712762Y-109602093D01*
X138712763Y-109602094D01*
X138777313Y-109690939D01*
X138801172Y-109757807D01*
X138785091Y-109826958D01*
X138777313Y-109839061D01*
X138708882Y-109933248D01*
X138631206Y-110107712D01*
X138591500Y-110294513D01*
X138591500Y-110485487D01*
X122428000Y-110485487D01*
X122428000Y-103852699D01*
X138591500Y-103852699D01*
X138591501Y-104427300D01*
X138591764Y-104430158D01*
X138591764Y-104430167D01*
X138594836Y-104463604D01*
X138597930Y-104497277D01*
X138646798Y-104653215D01*
X138650733Y-104659712D01*
X138724431Y-104781403D01*
X138742610Y-104850033D01*
X138718590Y-104920737D01*
X138713196Y-104928161D01*
X138706632Y-104939529D01*
X138634367Y-105101839D01*
X138630310Y-105114325D01*
X138629470Y-105118278D01*
X138630543Y-105132341D01*
X138640497Y-105136000D01*
X140756182Y-105136000D01*
X140769713Y-105132027D01*
X140771222Y-105121532D01*
X140769690Y-105114325D01*
X140765633Y-105101839D01*
X140693368Y-104939529D01*
X140686804Y-104928161D01*
X140681410Y-104920737D01*
X140657551Y-104853870D01*
X140675569Y-104781403D01*
X140749267Y-104659712D01*
X140753202Y-104653215D01*
X140802070Y-104497277D01*
X140808500Y-104427301D01*
X140808499Y-103852700D01*
X140808234Y-103849808D01*
X140802681Y-103789377D01*
X140802070Y-103782723D01*
X140768318Y-103675019D01*
X140755474Y-103634034D01*
X140755473Y-103634032D01*
X140753202Y-103626785D01*
X140668548Y-103487004D01*
X140552996Y-103371452D01*
X140413215Y-103286798D01*
X140405968Y-103284527D01*
X140405966Y-103284526D01*
X140341934Y-103264460D01*
X140257277Y-103237930D01*
X140187301Y-103231500D01*
X140184403Y-103231500D01*
X139698736Y-103231501D01*
X139212700Y-103231501D01*
X139209842Y-103231764D01*
X139209833Y-103231764D01*
X139176396Y-103234836D01*
X139142723Y-103237930D01*
X139136345Y-103239929D01*
X139136344Y-103239929D01*
X138994034Y-103284526D01*
X138994032Y-103284527D01*
X138986785Y-103286798D01*
X138847004Y-103371452D01*
X138731452Y-103487004D01*
X138646798Y-103626785D01*
X138644527Y-103634032D01*
X138644526Y-103634034D01*
X138631682Y-103675019D01*
X138597930Y-103782723D01*
X138591500Y-103852699D01*
X122428000Y-103852699D01*
X122428000Y-102362000D01*
X150060502Y-102362000D01*
X150080457Y-102590087D01*
X150139716Y-102811243D01*
X150142039Y-102816224D01*
X150142039Y-102816225D01*
X150234151Y-103013762D01*
X150234154Y-103013767D01*
X150236477Y-103018749D01*
X150367802Y-103206300D01*
X150529700Y-103368198D01*
X150534208Y-103371355D01*
X150534211Y-103371357D01*
X150575542Y-103400297D01*
X150717251Y-103499523D01*
X150722233Y-103501846D01*
X150722238Y-103501849D01*
X150919775Y-103593961D01*
X150924757Y-103596284D01*
X150930065Y-103597706D01*
X150930067Y-103597707D01*
X151140598Y-103654119D01*
X151140600Y-103654119D01*
X151145913Y-103655543D01*
X151374000Y-103675498D01*
X151602087Y-103655543D01*
X151607400Y-103654119D01*
X151607402Y-103654119D01*
X151817933Y-103597707D01*
X151817935Y-103597706D01*
X151823243Y-103596284D01*
X151828225Y-103593961D01*
X152025762Y-103501849D01*
X152025767Y-103501846D01*
X152030749Y-103499523D01*
X152172458Y-103400297D01*
X152213789Y-103371357D01*
X152213792Y-103371355D01*
X152218300Y-103368198D01*
X152380198Y-103206300D01*
X152511523Y-103018749D01*
X152513846Y-103013767D01*
X152513849Y-103013762D01*
X152605961Y-102816225D01*
X152605961Y-102816224D01*
X152608284Y-102811243D01*
X152667543Y-102590087D01*
X152687498Y-102362000D01*
X152667543Y-102133913D01*
X152608284Y-101912757D01*
X152605961Y-101907775D01*
X152513849Y-101710238D01*
X152513846Y-101710233D01*
X152511523Y-101705251D01*
X152380198Y-101517700D01*
X152218300Y-101355802D01*
X152213792Y-101352645D01*
X152213789Y-101352643D01*
X152135611Y-101297902D01*
X152030749Y-101224477D01*
X152025767Y-101222154D01*
X152025762Y-101222151D01*
X151990951Y-101205919D01*
X151937666Y-101159002D01*
X151918205Y-101090725D01*
X151938747Y-101022765D01*
X151990951Y-100977529D01*
X152025511Y-100961414D01*
X152035007Y-100955931D01*
X152213467Y-100830972D01*
X152221875Y-100823916D01*
X152375916Y-100669875D01*
X152382972Y-100661467D01*
X152507931Y-100483007D01*
X152513414Y-100473511D01*
X152605490Y-100276053D01*
X152609236Y-100265761D01*
X152655394Y-100093497D01*
X152655058Y-100079401D01*
X152647116Y-100076000D01*
X150106033Y-100076000D01*
X150092502Y-100079973D01*
X150091273Y-100088522D01*
X150138764Y-100265761D01*
X150142510Y-100276053D01*
X150234586Y-100473511D01*
X150240069Y-100483007D01*
X150365028Y-100661467D01*
X150372084Y-100669875D01*
X150526125Y-100823916D01*
X150534533Y-100830972D01*
X150712993Y-100955931D01*
X150722489Y-100961414D01*
X150757049Y-100977529D01*
X150810334Y-101024446D01*
X150829795Y-101092723D01*
X150809253Y-101160683D01*
X150757049Y-101205919D01*
X150722238Y-101222151D01*
X150722233Y-101222154D01*
X150717251Y-101224477D01*
X150612389Y-101297902D01*
X150534211Y-101352643D01*
X150534208Y-101352645D01*
X150529700Y-101355802D01*
X150367802Y-101517700D01*
X150236477Y-101705251D01*
X150234154Y-101710233D01*
X150234151Y-101710238D01*
X150142039Y-101907775D01*
X150139716Y-101912757D01*
X150080457Y-102133913D01*
X150060502Y-102362000D01*
X122428000Y-102362000D01*
X122428000Y-97282000D01*
X150060502Y-97282000D01*
X150080457Y-97510087D01*
X150139716Y-97731243D01*
X150142039Y-97736224D01*
X150142039Y-97736225D01*
X150234151Y-97933762D01*
X150234154Y-97933767D01*
X150236477Y-97938749D01*
X150367802Y-98126300D01*
X150529700Y-98288198D01*
X150534208Y-98291355D01*
X150534211Y-98291357D01*
X150612389Y-98346098D01*
X150717251Y-98419523D01*
X150722233Y-98421846D01*
X150722238Y-98421849D01*
X150757049Y-98438081D01*
X150810334Y-98484998D01*
X150829795Y-98553275D01*
X150809253Y-98621235D01*
X150757049Y-98666471D01*
X150722489Y-98682586D01*
X150712993Y-98688069D01*
X150534533Y-98813028D01*
X150526125Y-98820084D01*
X150372084Y-98974125D01*
X150365028Y-98982533D01*
X150240069Y-99160993D01*
X150234586Y-99170489D01*
X150142510Y-99367947D01*
X150138764Y-99378239D01*
X150092606Y-99550503D01*
X150092942Y-99564599D01*
X150100884Y-99568000D01*
X152641967Y-99568000D01*
X152655498Y-99564027D01*
X152656727Y-99555478D01*
X152609236Y-99378239D01*
X152605490Y-99367947D01*
X152513414Y-99170489D01*
X152507931Y-99160993D01*
X152382972Y-98982533D01*
X152375916Y-98974125D01*
X152221875Y-98820084D01*
X152213467Y-98813028D01*
X152035007Y-98688069D01*
X152025511Y-98682586D01*
X151990951Y-98666471D01*
X151937666Y-98619554D01*
X151918205Y-98551277D01*
X151938747Y-98483317D01*
X151990951Y-98438081D01*
X152025762Y-98421849D01*
X152025767Y-98421846D01*
X152030749Y-98419523D01*
X152135611Y-98346098D01*
X152213789Y-98291357D01*
X152213792Y-98291355D01*
X152218300Y-98288198D01*
X152380198Y-98126300D01*
X152511523Y-97938749D01*
X152513846Y-97933767D01*
X152513849Y-97933762D01*
X152605961Y-97736225D01*
X152605961Y-97736224D01*
X152608284Y-97731243D01*
X152667543Y-97510087D01*
X152687498Y-97282000D01*
X152667543Y-97053913D01*
X152608284Y-96832757D01*
X152532623Y-96670500D01*
X152513849Y-96630238D01*
X152513846Y-96630233D01*
X152511523Y-96625251D01*
X152380198Y-96437700D01*
X152218300Y-96275802D01*
X152213792Y-96272645D01*
X152213789Y-96272643D01*
X152135611Y-96217902D01*
X152030749Y-96144477D01*
X152025767Y-96142154D01*
X152025762Y-96142151D01*
X151991543Y-96126195D01*
X151938258Y-96079278D01*
X151918797Y-96011001D01*
X151939339Y-95943041D01*
X151991543Y-95897805D01*
X152025762Y-95881849D01*
X152025767Y-95881846D01*
X152030749Y-95879523D01*
X152135611Y-95806098D01*
X152213789Y-95751357D01*
X152213792Y-95751355D01*
X152218300Y-95748198D01*
X152380198Y-95586300D01*
X152511523Y-95398749D01*
X152513846Y-95393767D01*
X152513849Y-95393762D01*
X152605961Y-95196225D01*
X152605961Y-95196224D01*
X152608284Y-95191243D01*
X152624248Y-95131667D01*
X152666119Y-94975402D01*
X152666119Y-94975400D01*
X152667543Y-94970087D01*
X152687498Y-94742000D01*
X152667543Y-94513913D01*
X152658702Y-94480918D01*
X152609707Y-94298067D01*
X152609706Y-94298065D01*
X152608284Y-94292757D01*
X152549157Y-94165958D01*
X152513849Y-94090238D01*
X152513846Y-94090233D01*
X152511523Y-94085251D01*
X152386409Y-93906570D01*
X152383357Y-93902211D01*
X152383355Y-93902208D01*
X152380198Y-93897700D01*
X152218300Y-93735802D01*
X152213792Y-93732645D01*
X152213789Y-93732643D01*
X152135611Y-93677902D01*
X152030749Y-93604477D01*
X152025767Y-93602154D01*
X152025762Y-93602151D01*
X151991543Y-93586195D01*
X151938258Y-93539278D01*
X151918797Y-93471001D01*
X151939339Y-93403041D01*
X151991543Y-93357805D01*
X152025762Y-93341849D01*
X152025767Y-93341846D01*
X152030749Y-93339523D01*
X152138798Y-93263866D01*
X152213789Y-93211357D01*
X152213792Y-93211355D01*
X152218300Y-93208198D01*
X152380198Y-93046300D01*
X152391752Y-93029800D01*
X152470797Y-92916912D01*
X152511523Y-92858749D01*
X152513846Y-92853767D01*
X152513849Y-92853762D01*
X152605961Y-92656225D01*
X152605961Y-92656224D01*
X152608284Y-92651243D01*
X152615882Y-92622889D01*
X152666119Y-92435402D01*
X152666119Y-92435400D01*
X152667543Y-92430087D01*
X152687498Y-92202000D01*
X152667543Y-91973913D01*
X152644456Y-91887753D01*
X152609707Y-91758067D01*
X152609706Y-91758065D01*
X152608284Y-91752757D01*
X152605961Y-91747775D01*
X152513849Y-91550238D01*
X152513846Y-91550233D01*
X152511523Y-91545251D01*
X152380198Y-91357700D01*
X152218300Y-91195802D01*
X152213792Y-91192645D01*
X152213789Y-91192643D01*
X152135611Y-91137902D01*
X152030749Y-91064477D01*
X152025767Y-91062154D01*
X152025762Y-91062151D01*
X151991543Y-91046195D01*
X151938258Y-90999278D01*
X151918797Y-90931001D01*
X151939339Y-90863041D01*
X151991543Y-90817805D01*
X152025762Y-90801849D01*
X152025767Y-90801846D01*
X152030749Y-90799523D01*
X152135611Y-90726098D01*
X152213789Y-90671357D01*
X152213792Y-90671355D01*
X152218300Y-90668198D01*
X152380198Y-90506300D01*
X152511523Y-90318749D01*
X152513846Y-90313767D01*
X152513849Y-90313762D01*
X152605961Y-90116225D01*
X152605961Y-90116224D01*
X152608284Y-90111243D01*
X152651154Y-89951252D01*
X152688106Y-89890630D01*
X152751967Y-89859608D01*
X152822461Y-89868037D01*
X152861956Y-89894769D01*
X156086595Y-93119408D01*
X156120621Y-93181720D01*
X156123500Y-93208503D01*
X156123500Y-107835784D01*
X156122810Y-107848955D01*
X156118496Y-107890000D01*
X156138458Y-108079928D01*
X156197473Y-108261556D01*
X156292960Y-108426944D01*
X156420747Y-108568866D01*
X156575248Y-108681118D01*
X156581276Y-108683802D01*
X156581278Y-108683803D01*
X156743681Y-108756109D01*
X156749712Y-108758794D01*
X156843113Y-108778647D01*
X156930056Y-108797128D01*
X156930061Y-108797128D01*
X156936513Y-108798500D01*
X157127487Y-108798500D01*
X157133939Y-108797128D01*
X157133944Y-108797128D01*
X157220887Y-108778647D01*
X157314288Y-108758794D01*
X157320319Y-108756109D01*
X157482722Y-108683803D01*
X157482724Y-108683802D01*
X157488752Y-108681118D01*
X157643253Y-108568866D01*
X157771040Y-108426944D01*
X157866527Y-108261556D01*
X157925542Y-108079928D01*
X157945504Y-107890000D01*
X157941190Y-107848955D01*
X157940500Y-107835784D01*
X157940500Y-92861416D01*
X157942051Y-92841704D01*
X157943009Y-92835660D01*
X157944252Y-92827809D01*
X157943478Y-92813029D01*
X157940673Y-92759519D01*
X157940500Y-92752925D01*
X157940500Y-92737503D01*
X157960502Y-92669382D01*
X158014158Y-92622889D01*
X158084432Y-92612785D01*
X158149012Y-92642279D01*
X158155595Y-92648408D01*
X158566595Y-93059408D01*
X158600621Y-93121720D01*
X158603500Y-93148503D01*
X158603500Y-106625784D01*
X158602810Y-106638955D01*
X158598496Y-106680000D01*
X158618458Y-106869928D01*
X158677473Y-107051556D01*
X158680776Y-107057278D01*
X158680777Y-107057279D01*
X158703567Y-107096752D01*
X158772960Y-107216944D01*
X158777378Y-107221851D01*
X158777379Y-107221852D01*
X158896325Y-107353955D01*
X158900747Y-107358866D01*
X159055248Y-107471118D01*
X159061276Y-107473802D01*
X159061278Y-107473803D01*
X159223681Y-107546109D01*
X159229712Y-107548794D01*
X159323113Y-107568647D01*
X159410056Y-107587128D01*
X159410061Y-107587128D01*
X159416513Y-107588500D01*
X159607487Y-107588500D01*
X159613939Y-107587128D01*
X159613944Y-107587128D01*
X159700888Y-107568647D01*
X159794288Y-107548794D01*
X159800319Y-107546109D01*
X159962722Y-107473803D01*
X159962724Y-107473802D01*
X159968752Y-107471118D01*
X160123253Y-107358866D01*
X160127675Y-107353955D01*
X160246621Y-107221852D01*
X160246622Y-107221851D01*
X160251040Y-107216944D01*
X160320433Y-107096752D01*
X160343223Y-107057279D01*
X160343224Y-107057278D01*
X160346527Y-107051556D01*
X160405542Y-106869928D01*
X160425504Y-106680000D01*
X160421190Y-106638955D01*
X160420500Y-106625784D01*
X160420500Y-92801417D01*
X160422051Y-92781705D01*
X160423220Y-92774325D01*
X160424252Y-92767810D01*
X160423818Y-92759519D01*
X160420673Y-92699520D01*
X160420500Y-92692926D01*
X160420500Y-92672390D01*
X160418801Y-92656225D01*
X160418353Y-92651958D01*
X160417836Y-92645384D01*
X160414603Y-92583692D01*
X160414602Y-92583688D01*
X160414257Y-92577097D01*
X160412547Y-92570714D01*
X160410617Y-92563509D01*
X160407015Y-92544075D01*
X160406234Y-92536646D01*
X160406232Y-92536637D01*
X160405542Y-92530072D01*
X160384400Y-92465003D01*
X160382531Y-92458695D01*
X160378720Y-92444470D01*
X160364829Y-92392630D01*
X160358440Y-92380092D01*
X160350875Y-92361826D01*
X160348569Y-92354728D01*
X160348568Y-92354726D01*
X160346527Y-92348444D01*
X160312331Y-92289215D01*
X160309185Y-92283421D01*
X160278129Y-92222470D01*
X160269273Y-92211533D01*
X160258073Y-92195237D01*
X160254343Y-92188776D01*
X160254340Y-92188772D01*
X160251040Y-92183056D01*
X160246623Y-92178150D01*
X160246619Y-92178145D01*
X160205278Y-92132231D01*
X160200994Y-92127216D01*
X160190148Y-92113823D01*
X160188072Y-92111259D01*
X160173557Y-92096744D01*
X160169016Y-92091959D01*
X160127673Y-92046043D01*
X160123253Y-92041134D01*
X160111865Y-92032860D01*
X160096832Y-92020019D01*
X152722677Y-84645864D01*
X152688651Y-84583552D01*
X152686251Y-84567750D01*
X152668023Y-84359394D01*
X152668022Y-84359389D01*
X152667543Y-84353913D01*
X152608284Y-84132757D01*
X152605961Y-84127775D01*
X152513849Y-83930238D01*
X152513846Y-83930233D01*
X152511523Y-83925251D01*
X152380198Y-83737700D01*
X152218300Y-83575802D01*
X152213792Y-83572645D01*
X152213789Y-83572643D01*
X152135611Y-83517902D01*
X152030749Y-83444477D01*
X152025767Y-83442154D01*
X152025762Y-83442151D01*
X151991543Y-83426195D01*
X151938258Y-83379278D01*
X151918797Y-83311001D01*
X151939339Y-83243041D01*
X151991543Y-83197805D01*
X152025762Y-83181849D01*
X152025767Y-83181846D01*
X152030749Y-83179523D01*
X152135611Y-83106098D01*
X152213789Y-83051357D01*
X152213792Y-83051355D01*
X152218300Y-83048198D01*
X152380198Y-82886300D01*
X152511523Y-82698749D01*
X152513846Y-82693767D01*
X152513849Y-82693762D01*
X152605961Y-82496225D01*
X152605961Y-82496224D01*
X152608284Y-82491243D01*
X152667543Y-82270087D01*
X152687498Y-82042000D01*
X152667543Y-81813913D01*
X152608284Y-81592757D01*
X152605961Y-81587775D01*
X152513849Y-81390238D01*
X152513846Y-81390233D01*
X152511523Y-81385251D01*
X152380198Y-81197700D01*
X152218300Y-81035802D01*
X152213792Y-81032645D01*
X152213789Y-81032643D01*
X152135611Y-80977902D01*
X152030749Y-80904477D01*
X152025767Y-80902154D01*
X152025762Y-80902151D01*
X151991543Y-80886195D01*
X151938258Y-80839278D01*
X151918797Y-80771001D01*
X151939339Y-80703041D01*
X151991543Y-80657805D01*
X152025762Y-80641849D01*
X152025767Y-80641846D01*
X152030749Y-80639523D01*
X152135611Y-80566098D01*
X152213789Y-80511357D01*
X152213792Y-80511355D01*
X152218300Y-80508198D01*
X152380198Y-80346300D01*
X152511523Y-80158749D01*
X152513846Y-80153767D01*
X152513849Y-80153762D01*
X152605961Y-79956225D01*
X152605961Y-79956224D01*
X152608284Y-79951243D01*
X152667543Y-79730087D01*
X152687498Y-79502000D01*
X152667543Y-79273913D01*
X152608284Y-79052757D01*
X152605961Y-79047775D01*
X152513849Y-78850238D01*
X152513846Y-78850233D01*
X152511523Y-78845251D01*
X152380198Y-78657700D01*
X152218300Y-78495802D01*
X152213792Y-78492645D01*
X152213789Y-78492643D01*
X152135611Y-78437902D01*
X152030749Y-78364477D01*
X152025767Y-78362154D01*
X152025762Y-78362151D01*
X151991543Y-78346195D01*
X151938258Y-78299278D01*
X151918797Y-78231001D01*
X151939339Y-78163041D01*
X151991543Y-78117805D01*
X152025762Y-78101849D01*
X152025767Y-78101846D01*
X152030749Y-78099523D01*
X152135611Y-78026098D01*
X152213789Y-77971357D01*
X152213792Y-77971355D01*
X152218300Y-77968198D01*
X152380198Y-77806300D01*
X152413189Y-77759185D01*
X152485945Y-77655278D01*
X152511523Y-77618749D01*
X152513846Y-77613767D01*
X152513849Y-77613762D01*
X152605961Y-77416225D01*
X152605961Y-77416224D01*
X152608284Y-77411243D01*
X152651154Y-77251252D01*
X152688106Y-77190630D01*
X152751967Y-77159608D01*
X152822461Y-77168037D01*
X152861956Y-77194769D01*
X162376595Y-86709408D01*
X162410621Y-86771720D01*
X162413500Y-86798503D01*
X162413500Y-109165784D01*
X162412810Y-109178955D01*
X162408496Y-109220000D01*
X162413500Y-109267610D01*
X162428458Y-109409928D01*
X162430498Y-109416205D01*
X162430498Y-109416207D01*
X162462234Y-109513880D01*
X162487473Y-109591556D01*
X162582960Y-109756944D01*
X162587378Y-109761851D01*
X162587379Y-109761852D01*
X162596690Y-109772193D01*
X162710747Y-109898866D01*
X162865248Y-110011118D01*
X162871276Y-110013802D01*
X162871278Y-110013803D01*
X163033681Y-110086109D01*
X163039712Y-110088794D01*
X163128714Y-110107712D01*
X163220056Y-110127128D01*
X163220061Y-110127128D01*
X163226513Y-110128500D01*
X163417487Y-110128500D01*
X163423939Y-110127128D01*
X163423944Y-110127128D01*
X163515286Y-110107712D01*
X163604288Y-110088794D01*
X163610319Y-110086109D01*
X163772722Y-110013803D01*
X163772724Y-110013802D01*
X163778752Y-110011118D01*
X163933253Y-109898866D01*
X164047310Y-109772193D01*
X164056621Y-109761852D01*
X164056622Y-109761851D01*
X164061040Y-109756944D01*
X164156527Y-109591556D01*
X164215542Y-109409928D01*
X164230500Y-109267610D01*
X164235504Y-109220000D01*
X164231190Y-109178955D01*
X164230500Y-109165784D01*
X164230500Y-103852699D01*
X175675500Y-103852699D01*
X175675501Y-104427300D01*
X175675764Y-104430158D01*
X175675764Y-104430167D01*
X175678836Y-104463604D01*
X175681930Y-104497277D01*
X175730798Y-104653215D01*
X175734733Y-104659712D01*
X175808431Y-104781403D01*
X175826610Y-104850033D01*
X175802590Y-104920737D01*
X175797196Y-104928161D01*
X175790632Y-104939529D01*
X175718367Y-105101839D01*
X175714310Y-105114325D01*
X175713470Y-105118278D01*
X175714543Y-105132341D01*
X175724497Y-105136000D01*
X177840182Y-105136000D01*
X177853713Y-105132027D01*
X177855222Y-105121532D01*
X177853690Y-105114325D01*
X177849633Y-105101839D01*
X177777368Y-104939529D01*
X177770804Y-104928161D01*
X177765410Y-104920737D01*
X177741551Y-104853870D01*
X177759569Y-104781403D01*
X177833267Y-104659712D01*
X177837202Y-104653215D01*
X177886070Y-104497277D01*
X177892500Y-104427301D01*
X177892499Y-103852700D01*
X177892234Y-103849808D01*
X177886681Y-103789377D01*
X177886070Y-103782723D01*
X177852318Y-103675019D01*
X177839474Y-103634034D01*
X177839473Y-103634032D01*
X177837202Y-103626785D01*
X177752548Y-103487004D01*
X177636996Y-103371452D01*
X177497215Y-103286798D01*
X177489968Y-103284527D01*
X177489966Y-103284526D01*
X177425934Y-103264460D01*
X177341277Y-103237930D01*
X177271301Y-103231500D01*
X177268403Y-103231500D01*
X176782736Y-103231501D01*
X176296700Y-103231501D01*
X176293842Y-103231764D01*
X176293833Y-103231764D01*
X176260396Y-103234836D01*
X176226723Y-103237930D01*
X176220345Y-103239929D01*
X176220344Y-103239929D01*
X176078034Y-103284526D01*
X176078032Y-103284527D01*
X176070785Y-103286798D01*
X175931004Y-103371452D01*
X175815452Y-103487004D01*
X175730798Y-103626785D01*
X175728527Y-103634032D01*
X175728526Y-103634034D01*
X175715682Y-103675019D01*
X175681930Y-103782723D01*
X175675500Y-103852699D01*
X164230500Y-103852699D01*
X164230500Y-99822000D01*
X165300502Y-99822000D01*
X165320457Y-100050087D01*
X165379716Y-100271243D01*
X165382039Y-100276224D01*
X165382039Y-100276225D01*
X165474151Y-100473762D01*
X165474154Y-100473767D01*
X165476477Y-100478749D01*
X165607802Y-100666300D01*
X165769700Y-100828198D01*
X165774211Y-100831357D01*
X165778424Y-100834892D01*
X165777473Y-100836026D01*
X165817471Y-100886071D01*
X165824776Y-100956690D01*
X165792742Y-101020049D01*
X165731538Y-101056030D01*
X165714483Y-101059082D01*
X165703684Y-101060255D01*
X165567295Y-101111385D01*
X165450739Y-101198739D01*
X165363385Y-101315295D01*
X165312255Y-101451684D01*
X165305500Y-101513866D01*
X165305500Y-103210134D01*
X165312255Y-103272316D01*
X165363385Y-103408705D01*
X165450739Y-103525261D01*
X165567295Y-103612615D01*
X165703684Y-103663745D01*
X165765866Y-103670500D01*
X167462134Y-103670500D01*
X167524316Y-103663745D01*
X167660705Y-103612615D01*
X167777261Y-103525261D01*
X167864615Y-103408705D01*
X167915745Y-103272316D01*
X167922500Y-103210134D01*
X167922500Y-101513866D01*
X167915745Y-101451684D01*
X167864615Y-101315295D01*
X167777261Y-101198739D01*
X167660705Y-101111385D01*
X167524316Y-101060255D01*
X167513526Y-101059083D01*
X167511394Y-101058197D01*
X167508778Y-101057575D01*
X167508879Y-101057152D01*
X167447965Y-101031845D01*
X167407537Y-100973483D01*
X167405078Y-100902529D01*
X167441371Y-100841510D01*
X167450035Y-100834507D01*
X167453790Y-100831356D01*
X167458300Y-100828198D01*
X167620198Y-100666300D01*
X167751523Y-100478749D01*
X167753846Y-100473767D01*
X167753849Y-100473762D01*
X167845961Y-100276225D01*
X167845961Y-100276224D01*
X167848284Y-100271243D01*
X167907543Y-100050087D01*
X167927498Y-99822000D01*
X167907543Y-99593913D01*
X167848284Y-99372757D01*
X167753966Y-99170489D01*
X167753849Y-99170238D01*
X167753846Y-99170233D01*
X167751523Y-99165251D01*
X167620198Y-98977700D01*
X167458300Y-98815802D01*
X167453792Y-98812645D01*
X167453789Y-98812643D01*
X167375611Y-98757902D01*
X167270749Y-98684477D01*
X167265767Y-98682154D01*
X167265762Y-98682151D01*
X167231543Y-98666195D01*
X167178258Y-98619278D01*
X167158797Y-98551001D01*
X167179339Y-98483041D01*
X167231543Y-98437805D01*
X167265762Y-98421849D01*
X167265767Y-98421846D01*
X167270749Y-98419523D01*
X167375611Y-98346098D01*
X167453789Y-98291357D01*
X167453792Y-98291355D01*
X167458300Y-98288198D01*
X167620198Y-98126300D01*
X167751523Y-97938749D01*
X167753846Y-97933767D01*
X167753849Y-97933762D01*
X167845961Y-97736225D01*
X167845961Y-97736224D01*
X167848284Y-97731243D01*
X167907543Y-97510087D01*
X167927498Y-97282000D01*
X167907543Y-97053913D01*
X167848284Y-96832757D01*
X167772623Y-96670500D01*
X167753849Y-96630238D01*
X167753846Y-96630233D01*
X167751523Y-96625251D01*
X167620198Y-96437700D01*
X167458300Y-96275802D01*
X167453792Y-96272645D01*
X167453789Y-96272643D01*
X167375611Y-96217902D01*
X167270749Y-96144477D01*
X167265767Y-96142154D01*
X167265762Y-96142151D01*
X167230951Y-96125919D01*
X167177666Y-96079002D01*
X167158205Y-96010725D01*
X167178747Y-95942765D01*
X167230951Y-95897529D01*
X167265511Y-95881414D01*
X167275007Y-95875931D01*
X167453467Y-95750972D01*
X167461875Y-95743916D01*
X167615916Y-95589875D01*
X167622972Y-95581467D01*
X167747931Y-95403007D01*
X167753414Y-95393511D01*
X167845490Y-95196053D01*
X167849236Y-95185761D01*
X167895394Y-95013497D01*
X167895058Y-94999401D01*
X167887116Y-94996000D01*
X165346033Y-94996000D01*
X165332502Y-94999973D01*
X165331273Y-95008522D01*
X165378764Y-95185761D01*
X165382510Y-95196053D01*
X165474586Y-95393511D01*
X165480069Y-95403007D01*
X165605028Y-95581467D01*
X165612084Y-95589875D01*
X165766125Y-95743916D01*
X165774533Y-95750972D01*
X165952993Y-95875931D01*
X165962489Y-95881414D01*
X165997049Y-95897529D01*
X166050334Y-95944446D01*
X166069795Y-96012723D01*
X166049253Y-96080683D01*
X165997049Y-96125919D01*
X165962238Y-96142151D01*
X165962233Y-96142154D01*
X165957251Y-96144477D01*
X165852389Y-96217902D01*
X165774211Y-96272643D01*
X165774208Y-96272645D01*
X165769700Y-96275802D01*
X165607802Y-96437700D01*
X165476477Y-96625251D01*
X165474154Y-96630233D01*
X165474151Y-96630238D01*
X165455377Y-96670500D01*
X165379716Y-96832757D01*
X165320457Y-97053913D01*
X165300502Y-97282000D01*
X165320457Y-97510087D01*
X165379716Y-97731243D01*
X165382039Y-97736224D01*
X165382039Y-97736225D01*
X165474151Y-97933762D01*
X165474154Y-97933767D01*
X165476477Y-97938749D01*
X165607802Y-98126300D01*
X165769700Y-98288198D01*
X165774208Y-98291355D01*
X165774211Y-98291357D01*
X165852389Y-98346098D01*
X165957251Y-98419523D01*
X165962233Y-98421846D01*
X165962238Y-98421849D01*
X165996457Y-98437805D01*
X166049742Y-98484722D01*
X166069203Y-98552999D01*
X166048661Y-98620959D01*
X165996457Y-98666195D01*
X165962238Y-98682151D01*
X165962233Y-98682154D01*
X165957251Y-98684477D01*
X165852389Y-98757902D01*
X165774211Y-98812643D01*
X165774208Y-98812645D01*
X165769700Y-98815802D01*
X165607802Y-98977700D01*
X165476477Y-99165251D01*
X165474154Y-99170233D01*
X165474151Y-99170238D01*
X165474034Y-99170489D01*
X165379716Y-99372757D01*
X165320457Y-99593913D01*
X165300502Y-99822000D01*
X164230500Y-99822000D01*
X164230500Y-86451417D01*
X164232051Y-86431707D01*
X164233220Y-86424327D01*
X164233220Y-86424326D01*
X164234252Y-86417810D01*
X164230673Y-86349520D01*
X164230500Y-86342926D01*
X164230500Y-86322390D01*
X164230156Y-86319116D01*
X164228353Y-86301958D01*
X164227836Y-86295384D01*
X164224603Y-86233696D01*
X164224603Y-86233694D01*
X164224257Y-86227097D01*
X164220615Y-86213504D01*
X164217014Y-86194075D01*
X164216232Y-86186639D01*
X164215542Y-86180072D01*
X164194407Y-86115025D01*
X164192535Y-86108706D01*
X164176538Y-86049003D01*
X164176537Y-86049000D01*
X164174830Y-86042630D01*
X164168438Y-86030085D01*
X164160874Y-86011823D01*
X164158568Y-86004726D01*
X164156527Y-85998444D01*
X164122336Y-85939223D01*
X164119188Y-85933426D01*
X164091126Y-85878351D01*
X164091124Y-85878348D01*
X164088129Y-85872470D01*
X164079273Y-85861533D01*
X164068073Y-85845237D01*
X164064343Y-85838776D01*
X164064340Y-85838772D01*
X164061040Y-85833056D01*
X164056623Y-85828150D01*
X164056619Y-85828145D01*
X164015278Y-85782231D01*
X164010994Y-85777216D01*
X164000148Y-85763823D01*
X163998072Y-85761259D01*
X163983557Y-85746744D01*
X163979016Y-85741959D01*
X163937673Y-85696043D01*
X163933253Y-85691134D01*
X163921865Y-85682860D01*
X163906832Y-85670019D01*
X152722677Y-74485864D01*
X152688651Y-74423552D01*
X152686251Y-74407750D01*
X152668023Y-74199394D01*
X152668022Y-74199389D01*
X152667543Y-74193913D01*
X152666119Y-74188598D01*
X152609707Y-73978067D01*
X152609706Y-73978065D01*
X152608284Y-73972757D01*
X152605961Y-73967775D01*
X152513849Y-73770238D01*
X152513846Y-73770233D01*
X152511523Y-73765251D01*
X152438098Y-73660389D01*
X152383357Y-73582211D01*
X152383355Y-73582208D01*
X152380198Y-73577700D01*
X152218300Y-73415802D01*
X152213792Y-73412645D01*
X152213789Y-73412643D01*
X152135611Y-73357902D01*
X152030749Y-73284477D01*
X152025767Y-73282154D01*
X152025762Y-73282151D01*
X151991543Y-73266195D01*
X151938258Y-73219278D01*
X151918797Y-73151001D01*
X151939339Y-73083041D01*
X151991543Y-73037805D01*
X152025762Y-73021849D01*
X152025767Y-73021846D01*
X152030749Y-73019523D01*
X152173555Y-72919529D01*
X152213789Y-72891357D01*
X152213792Y-72891355D01*
X152218300Y-72888198D01*
X152380198Y-72726300D01*
X152404923Y-72690990D01*
X152508366Y-72543257D01*
X152511523Y-72538749D01*
X152513846Y-72533767D01*
X152513849Y-72533762D01*
X152605961Y-72336225D01*
X152605961Y-72336224D01*
X152608284Y-72331243D01*
X152618150Y-72294425D01*
X152666119Y-72115402D01*
X152666119Y-72115400D01*
X152667543Y-72110087D01*
X152687498Y-71882000D01*
X152667543Y-71653913D01*
X152661593Y-71631707D01*
X152609707Y-71438067D01*
X152609706Y-71438065D01*
X152608284Y-71432757D01*
X152596092Y-71406610D01*
X152513849Y-71230238D01*
X152513846Y-71230233D01*
X152511523Y-71225251D01*
X152438098Y-71120389D01*
X152383357Y-71042211D01*
X152383355Y-71042208D01*
X152380198Y-71037700D01*
X152218300Y-70875802D01*
X152213792Y-70872645D01*
X152213789Y-70872643D01*
X152135611Y-70817902D01*
X152030749Y-70744477D01*
X152025767Y-70742154D01*
X152025762Y-70742151D01*
X151991543Y-70726195D01*
X151938258Y-70679278D01*
X151918797Y-70611001D01*
X151939339Y-70543041D01*
X151991543Y-70497805D01*
X152025762Y-70481849D01*
X152025767Y-70481846D01*
X152030749Y-70479523D01*
X152135611Y-70406098D01*
X152213789Y-70351357D01*
X152213792Y-70351355D01*
X152218300Y-70348198D01*
X152380198Y-70186300D01*
X152511523Y-69998749D01*
X152513846Y-69993767D01*
X152513849Y-69993762D01*
X152605961Y-69796225D01*
X152605961Y-69796224D01*
X152608284Y-69791243D01*
X152656858Y-69609966D01*
X152666119Y-69575402D01*
X152666119Y-69575400D01*
X152667543Y-69570087D01*
X152687498Y-69342000D01*
X152667543Y-69113913D01*
X152660600Y-69088000D01*
X152609707Y-68898067D01*
X152609706Y-68898065D01*
X152608284Y-68892757D01*
X152519713Y-68702814D01*
X152513849Y-68690238D01*
X152513846Y-68690233D01*
X152511523Y-68685251D01*
X152380198Y-68497700D01*
X152218300Y-68335802D01*
X152213792Y-68332645D01*
X152213789Y-68332643D01*
X152135611Y-68277902D01*
X152030749Y-68204477D01*
X152025767Y-68202154D01*
X152025762Y-68202151D01*
X151991543Y-68186195D01*
X151938258Y-68139278D01*
X151918797Y-68071001D01*
X151939339Y-68003041D01*
X151991543Y-67957805D01*
X152025762Y-67941849D01*
X152025767Y-67941846D01*
X152030749Y-67939523D01*
X152173555Y-67839529D01*
X152213789Y-67811357D01*
X152213792Y-67811355D01*
X152218300Y-67808198D01*
X152380198Y-67646300D01*
X152404923Y-67610990D01*
X152508366Y-67463257D01*
X152511523Y-67458749D01*
X152513846Y-67453767D01*
X152513849Y-67453762D01*
X152605961Y-67256225D01*
X152605961Y-67256224D01*
X152608284Y-67251243D01*
X152618150Y-67214425D01*
X152666119Y-67035402D01*
X152666119Y-67035400D01*
X152667543Y-67030087D01*
X152668022Y-67024611D01*
X152668023Y-67024606D01*
X152686251Y-66816250D01*
X152712114Y-66750131D01*
X152722677Y-66738136D01*
X154507408Y-64953405D01*
X154569720Y-64919379D01*
X154596503Y-64916500D01*
X175085497Y-64916500D01*
X175153618Y-64936502D01*
X175174592Y-64953405D01*
X176092595Y-65871408D01*
X176126621Y-65933720D01*
X176129500Y-65960503D01*
X176129500Y-75009497D01*
X176109498Y-75077618D01*
X176092595Y-75098592D01*
X175738843Y-75452344D01*
X175676531Y-75486370D01*
X175605716Y-75481305D01*
X175548880Y-75438758D01*
X175524069Y-75372238D01*
X175539160Y-75302864D01*
X175547425Y-75289723D01*
X175663435Y-75128277D01*
X175666453Y-75124077D01*
X175671894Y-75113069D01*
X175763136Y-74928453D01*
X175763137Y-74928451D01*
X175765430Y-74923811D01*
X175830370Y-74710069D01*
X175859529Y-74488590D01*
X175860227Y-74460039D01*
X175861074Y-74425365D01*
X175861074Y-74425361D01*
X175861156Y-74422000D01*
X175842852Y-74199361D01*
X175788431Y-73982702D01*
X175699354Y-73777840D01*
X175578014Y-73590277D01*
X175427670Y-73425051D01*
X175423619Y-73421852D01*
X175423615Y-73421848D01*
X175256414Y-73289800D01*
X175256410Y-73289798D01*
X175252359Y-73286598D01*
X175211053Y-73263796D01*
X175161084Y-73213364D01*
X175146312Y-73143921D01*
X175171428Y-73077516D01*
X175198780Y-73050909D01*
X175247207Y-73016366D01*
X175377860Y-72923173D01*
X175409788Y-72891357D01*
X175532435Y-72769137D01*
X175536096Y-72765489D01*
X175567498Y-72721789D01*
X175663435Y-72588277D01*
X175666453Y-72584077D01*
X175686628Y-72543257D01*
X175763136Y-72388453D01*
X175763137Y-72388451D01*
X175765430Y-72383811D01*
X175830370Y-72170069D01*
X175859529Y-71948590D01*
X175861156Y-71882000D01*
X175842852Y-71659361D01*
X175788431Y-71442702D01*
X175699354Y-71237840D01*
X175578014Y-71050277D01*
X175427670Y-70885051D01*
X175423619Y-70881852D01*
X175423615Y-70881848D01*
X175256414Y-70749800D01*
X175256410Y-70749798D01*
X175252359Y-70746598D01*
X175210569Y-70723529D01*
X175160598Y-70673097D01*
X175145826Y-70603654D01*
X175170942Y-70537248D01*
X175198294Y-70510641D01*
X175373328Y-70385792D01*
X175381200Y-70379139D01*
X175532052Y-70228812D01*
X175538730Y-70220965D01*
X175663003Y-70048020D01*
X175668313Y-70039183D01*
X175762670Y-69848267D01*
X175766469Y-69838672D01*
X175828377Y-69634910D01*
X175830555Y-69624837D01*
X175831986Y-69613962D01*
X175829775Y-69599778D01*
X175816617Y-69596000D01*
X173181225Y-69596000D01*
X173167694Y-69599973D01*
X173166257Y-69609966D01*
X173196565Y-69744446D01*
X173199645Y-69754275D01*
X173279770Y-69951603D01*
X173284413Y-69960794D01*
X173395694Y-70142388D01*
X173401777Y-70150699D01*
X173541213Y-70311667D01*
X173548580Y-70318883D01*
X173712434Y-70454916D01*
X173720881Y-70460831D01*
X173789969Y-70501203D01*
X173838693Y-70552842D01*
X173851764Y-70622625D01*
X173825033Y-70688396D01*
X173784584Y-70721752D01*
X173771607Y-70728507D01*
X173767474Y-70731610D01*
X173767471Y-70731612D01*
X173746132Y-70747634D01*
X173592965Y-70862635D01*
X173438629Y-71024138D01*
X173435715Y-71028410D01*
X173435714Y-71028411D01*
X173426300Y-71042211D01*
X173312743Y-71208680D01*
X173218688Y-71411305D01*
X173158989Y-71626570D01*
X173135251Y-71848695D01*
X173135548Y-71853848D01*
X173135548Y-71853851D01*
X173141011Y-71948590D01*
X173148110Y-72071715D01*
X173149247Y-72076761D01*
X173149248Y-72076767D01*
X173157955Y-72115402D01*
X173197222Y-72289639D01*
X173281266Y-72496616D01*
X173397987Y-72687088D01*
X173544250Y-72855938D01*
X173716126Y-72998632D01*
X173783163Y-73037805D01*
X173789445Y-73041476D01*
X173838169Y-73093114D01*
X173851240Y-73162897D01*
X173824509Y-73228669D01*
X173784055Y-73262027D01*
X173771607Y-73268507D01*
X173767474Y-73271610D01*
X173767471Y-73271612D01*
X173746132Y-73287634D01*
X173592965Y-73402635D01*
X173567895Y-73428870D01*
X173524241Y-73474551D01*
X173462717Y-73509981D01*
X173433147Y-73513500D01*
X172122503Y-73513500D01*
X172054382Y-73493498D01*
X172033408Y-73476595D01*
X167962677Y-69405864D01*
X167928651Y-69343552D01*
X167926251Y-69327750D01*
X167908023Y-69119394D01*
X167908022Y-69119389D01*
X167907543Y-69113913D01*
X167900600Y-69088000D01*
X167849707Y-68898067D01*
X167849706Y-68898065D01*
X167848284Y-68892757D01*
X167759713Y-68702814D01*
X167753849Y-68690238D01*
X167753846Y-68690233D01*
X167751523Y-68685251D01*
X167620198Y-68497700D01*
X167458300Y-68335802D01*
X167453792Y-68332645D01*
X167453789Y-68332643D01*
X167375611Y-68277902D01*
X167270749Y-68204477D01*
X167265767Y-68202154D01*
X167265762Y-68202151D01*
X167231543Y-68186195D01*
X167178258Y-68139278D01*
X167158797Y-68071001D01*
X167179339Y-68003041D01*
X167231543Y-67957805D01*
X167265762Y-67941849D01*
X167265767Y-67941846D01*
X167270749Y-67939523D01*
X167413555Y-67839529D01*
X167453789Y-67811357D01*
X167453792Y-67811355D01*
X167458300Y-67808198D01*
X167620198Y-67646300D01*
X167644923Y-67610990D01*
X167748366Y-67463257D01*
X167751523Y-67458749D01*
X167753846Y-67453767D01*
X167753849Y-67453762D01*
X167845961Y-67256225D01*
X167845961Y-67256224D01*
X167848284Y-67251243D01*
X167858150Y-67214425D01*
X167906119Y-67035402D01*
X167906119Y-67035400D01*
X167907543Y-67030087D01*
X167927498Y-66802000D01*
X167924584Y-66768695D01*
X173135251Y-66768695D01*
X173135548Y-66773848D01*
X173135548Y-66773851D01*
X173141011Y-66868590D01*
X173148110Y-66991715D01*
X173149247Y-66996761D01*
X173149248Y-66996767D01*
X173157955Y-67035402D01*
X173197222Y-67209639D01*
X173281266Y-67416616D01*
X173397987Y-67607088D01*
X173544250Y-67775938D01*
X173716126Y-67918632D01*
X173783163Y-67957805D01*
X173789955Y-67961774D01*
X173838679Y-68013412D01*
X173851750Y-68083195D01*
X173825019Y-68148967D01*
X173784562Y-68182327D01*
X173776457Y-68186546D01*
X173767738Y-68192036D01*
X173597433Y-68319905D01*
X173589726Y-68326748D01*
X173442590Y-68480717D01*
X173436104Y-68488727D01*
X173316098Y-68664649D01*
X173311000Y-68673623D01*
X173221338Y-68866783D01*
X173217775Y-68876470D01*
X173162389Y-69076183D01*
X173163912Y-69084607D01*
X173176292Y-69088000D01*
X175816344Y-69088000D01*
X175829875Y-69084027D01*
X175831180Y-69074947D01*
X175789214Y-68907875D01*
X175785894Y-68898124D01*
X175700972Y-68702814D01*
X175696105Y-68693739D01*
X175580426Y-68514926D01*
X175574136Y-68506757D01*
X175430806Y-68349240D01*
X175423273Y-68342215D01*
X175256139Y-68210222D01*
X175247556Y-68204520D01*
X175210602Y-68184120D01*
X175160631Y-68133687D01*
X175145859Y-68064245D01*
X175170975Y-67997839D01*
X175198327Y-67971232D01*
X175221797Y-67954491D01*
X175377860Y-67843173D01*
X175409788Y-67811357D01*
X175532435Y-67689137D01*
X175536096Y-67685489D01*
X175567498Y-67641789D01*
X175663435Y-67508277D01*
X175666453Y-67504077D01*
X175686628Y-67463257D01*
X175763136Y-67308453D01*
X175763137Y-67308451D01*
X175765430Y-67303811D01*
X175830370Y-67090069D01*
X175859529Y-66868590D01*
X175861156Y-66802000D01*
X175842852Y-66579361D01*
X175788431Y-66362702D01*
X175699354Y-66157840D01*
X175578014Y-65970277D01*
X175427670Y-65805051D01*
X175423619Y-65801852D01*
X175423615Y-65801848D01*
X175256414Y-65669800D01*
X175256410Y-65669798D01*
X175252359Y-65666598D01*
X175244304Y-65662151D01*
X175200136Y-65637769D01*
X175056789Y-65558638D01*
X175051920Y-65556914D01*
X175051916Y-65556912D01*
X174851087Y-65485795D01*
X174851083Y-65485794D01*
X174846212Y-65484069D01*
X174841119Y-65483162D01*
X174841116Y-65483161D01*
X174631373Y-65445800D01*
X174631367Y-65445799D01*
X174626284Y-65444894D01*
X174552452Y-65443992D01*
X174408081Y-65442228D01*
X174408079Y-65442228D01*
X174402911Y-65442165D01*
X174182091Y-65475955D01*
X173969756Y-65545357D01*
X173771607Y-65648507D01*
X173767474Y-65651610D01*
X173767471Y-65651612D01*
X173746132Y-65667634D01*
X173592965Y-65782635D01*
X173438629Y-65944138D01*
X173435715Y-65948410D01*
X173435714Y-65948411D01*
X173426300Y-65962211D01*
X173312743Y-66128680D01*
X173218688Y-66331305D01*
X173158989Y-66546570D01*
X173135251Y-66768695D01*
X167924584Y-66768695D01*
X167907543Y-66573913D01*
X167901593Y-66551707D01*
X167849707Y-66358067D01*
X167849706Y-66358065D01*
X167848284Y-66352757D01*
X167836092Y-66326610D01*
X167753849Y-66150238D01*
X167753846Y-66150233D01*
X167751523Y-66145251D01*
X167678098Y-66040389D01*
X167623357Y-65962211D01*
X167623355Y-65962208D01*
X167620198Y-65957700D01*
X167458300Y-65795802D01*
X167453792Y-65792645D01*
X167453789Y-65792643D01*
X167375611Y-65737902D01*
X167270749Y-65664477D01*
X167265767Y-65662154D01*
X167265762Y-65662151D01*
X167068225Y-65570039D01*
X167068224Y-65570039D01*
X167063243Y-65567716D01*
X167057935Y-65566294D01*
X167057933Y-65566293D01*
X166847402Y-65509881D01*
X166847400Y-65509881D01*
X166842087Y-65508457D01*
X166614000Y-65488502D01*
X166385913Y-65508457D01*
X166380600Y-65509881D01*
X166380598Y-65509881D01*
X166170067Y-65566293D01*
X166170065Y-65566294D01*
X166164757Y-65567716D01*
X166159776Y-65570039D01*
X166159775Y-65570039D01*
X165962238Y-65662151D01*
X165962233Y-65662154D01*
X165957251Y-65664477D01*
X165852389Y-65737902D01*
X165774211Y-65792643D01*
X165774208Y-65792645D01*
X165769700Y-65795802D01*
X165607802Y-65957700D01*
X165604645Y-65962208D01*
X165604643Y-65962211D01*
X165549902Y-66040389D01*
X165476477Y-66145251D01*
X165474154Y-66150233D01*
X165474151Y-66150238D01*
X165391908Y-66326610D01*
X165379716Y-66352757D01*
X165378294Y-66358065D01*
X165378293Y-66358067D01*
X165326407Y-66551707D01*
X165320457Y-66573913D01*
X165300502Y-66802000D01*
X165320457Y-67030087D01*
X165321881Y-67035400D01*
X165321881Y-67035402D01*
X165369851Y-67214425D01*
X165379716Y-67251243D01*
X165382039Y-67256224D01*
X165382039Y-67256225D01*
X165474151Y-67453762D01*
X165474154Y-67453767D01*
X165476477Y-67458749D01*
X165479634Y-67463257D01*
X165583078Y-67610990D01*
X165607802Y-67646300D01*
X165769700Y-67808198D01*
X165774208Y-67811355D01*
X165774211Y-67811357D01*
X165814445Y-67839529D01*
X165957251Y-67939523D01*
X165962233Y-67941846D01*
X165962238Y-67941849D01*
X165996457Y-67957805D01*
X166049742Y-68004722D01*
X166069203Y-68072999D01*
X166048661Y-68140959D01*
X165996457Y-68186195D01*
X165962238Y-68202151D01*
X165962233Y-68202154D01*
X165957251Y-68204477D01*
X165852389Y-68277902D01*
X165774211Y-68332643D01*
X165774208Y-68332645D01*
X165769700Y-68335802D01*
X165607802Y-68497700D01*
X165476477Y-68685251D01*
X165474154Y-68690233D01*
X165474151Y-68690238D01*
X165468287Y-68702814D01*
X165379716Y-68892757D01*
X165378294Y-68898065D01*
X165378293Y-68898067D01*
X165327400Y-69088000D01*
X165320457Y-69113913D01*
X165300502Y-69342000D01*
X165320457Y-69570087D01*
X165321881Y-69575400D01*
X165321881Y-69575402D01*
X165331143Y-69609966D01*
X165379716Y-69791243D01*
X165382039Y-69796224D01*
X165382039Y-69796225D01*
X165474151Y-69993762D01*
X165474154Y-69993767D01*
X165476477Y-69998749D01*
X165607802Y-70186300D01*
X165769700Y-70348198D01*
X165774208Y-70351355D01*
X165774211Y-70351357D01*
X165852389Y-70406098D01*
X165957251Y-70479523D01*
X165962233Y-70481846D01*
X165962238Y-70481849D01*
X165996457Y-70497805D01*
X166049742Y-70544722D01*
X166069203Y-70612999D01*
X166048661Y-70680959D01*
X165996457Y-70726195D01*
X165962238Y-70742151D01*
X165962233Y-70742154D01*
X165957251Y-70744477D01*
X165852389Y-70817902D01*
X165774211Y-70872643D01*
X165774208Y-70872645D01*
X165769700Y-70875802D01*
X165607802Y-71037700D01*
X165604645Y-71042208D01*
X165604643Y-71042211D01*
X165549902Y-71120389D01*
X165476477Y-71225251D01*
X165474154Y-71230233D01*
X165474151Y-71230238D01*
X165391908Y-71406610D01*
X165379716Y-71432757D01*
X165378294Y-71438065D01*
X165378293Y-71438067D01*
X165326407Y-71631707D01*
X165320457Y-71653913D01*
X165300502Y-71882000D01*
X165320457Y-72110087D01*
X165321881Y-72115400D01*
X165321881Y-72115402D01*
X165369851Y-72294425D01*
X165379716Y-72331243D01*
X165382039Y-72336224D01*
X165382039Y-72336225D01*
X165474151Y-72533762D01*
X165474154Y-72533767D01*
X165476477Y-72538749D01*
X165479634Y-72543257D01*
X165583078Y-72690990D01*
X165607802Y-72726300D01*
X165769700Y-72888198D01*
X165774208Y-72891355D01*
X165774211Y-72891357D01*
X165814445Y-72919529D01*
X165957251Y-73019523D01*
X165962233Y-73021846D01*
X165962238Y-73021849D01*
X165996457Y-73037805D01*
X166049742Y-73084722D01*
X166069203Y-73152999D01*
X166048661Y-73220959D01*
X165996457Y-73266195D01*
X165962238Y-73282151D01*
X165962233Y-73282154D01*
X165957251Y-73284477D01*
X165852389Y-73357902D01*
X165774211Y-73412643D01*
X165774208Y-73412645D01*
X165769700Y-73415802D01*
X165607802Y-73577700D01*
X165604645Y-73582208D01*
X165604643Y-73582211D01*
X165549902Y-73660389D01*
X165476477Y-73765251D01*
X165474154Y-73770233D01*
X165474151Y-73770238D01*
X165382039Y-73967775D01*
X165379716Y-73972757D01*
X165378294Y-73978065D01*
X165378293Y-73978067D01*
X165321881Y-74188598D01*
X165320457Y-74193913D01*
X165300502Y-74422000D01*
X165320457Y-74650087D01*
X165321881Y-74655400D01*
X165321881Y-74655402D01*
X165373408Y-74847700D01*
X165379716Y-74871243D01*
X165382039Y-74876224D01*
X165382039Y-74876225D01*
X165474151Y-75073762D01*
X165474154Y-75073767D01*
X165476477Y-75078749D01*
X165502055Y-75115278D01*
X165604003Y-75260874D01*
X165607802Y-75266300D01*
X165769700Y-75428198D01*
X165774208Y-75431355D01*
X165774211Y-75431357D01*
X165828532Y-75469393D01*
X165957251Y-75559523D01*
X165962233Y-75561846D01*
X165962238Y-75561849D01*
X165996457Y-75577805D01*
X166049742Y-75624722D01*
X166069203Y-75692999D01*
X166048661Y-75760959D01*
X165996457Y-75806195D01*
X165962238Y-75822151D01*
X165962233Y-75822154D01*
X165957251Y-75824477D01*
X165909220Y-75858109D01*
X165774211Y-75952643D01*
X165774208Y-75952645D01*
X165769700Y-75955802D01*
X165607802Y-76117700D01*
X165604645Y-76122208D01*
X165604643Y-76122211D01*
X165549902Y-76200389D01*
X165476477Y-76305251D01*
X165474154Y-76310233D01*
X165474151Y-76310238D01*
X165382039Y-76507775D01*
X165379716Y-76512757D01*
X165378294Y-76518065D01*
X165378293Y-76518067D01*
X165372363Y-76540197D01*
X165320457Y-76733913D01*
X165300502Y-76962000D01*
X165320457Y-77190087D01*
X165379716Y-77411243D01*
X165382039Y-77416224D01*
X165382039Y-77416225D01*
X165474151Y-77613762D01*
X165474154Y-77613767D01*
X165476477Y-77618749D01*
X165502055Y-77655278D01*
X165574812Y-77759185D01*
X165607802Y-77806300D01*
X165769700Y-77968198D01*
X165774208Y-77971355D01*
X165774211Y-77971357D01*
X165852389Y-78026098D01*
X165957251Y-78099523D01*
X165962233Y-78101846D01*
X165962238Y-78101849D01*
X165996457Y-78117805D01*
X166049742Y-78164722D01*
X166069203Y-78232999D01*
X166048661Y-78300959D01*
X165996457Y-78346195D01*
X165962238Y-78362151D01*
X165962233Y-78362154D01*
X165957251Y-78364477D01*
X165852389Y-78437902D01*
X165774211Y-78492643D01*
X165774208Y-78492645D01*
X165769700Y-78495802D01*
X165607802Y-78657700D01*
X165476477Y-78845251D01*
X165474154Y-78850233D01*
X165474151Y-78850238D01*
X165382039Y-79047775D01*
X165379716Y-79052757D01*
X165320457Y-79273913D01*
X165300502Y-79502000D01*
X165320457Y-79730087D01*
X165379716Y-79951243D01*
X165382039Y-79956224D01*
X165382039Y-79956225D01*
X165474151Y-80153762D01*
X165474154Y-80153767D01*
X165476477Y-80158749D01*
X165607802Y-80346300D01*
X165769700Y-80508198D01*
X165774208Y-80511355D01*
X165774211Y-80511357D01*
X165852389Y-80566098D01*
X165957251Y-80639523D01*
X165962233Y-80641846D01*
X165962238Y-80641849D01*
X165996457Y-80657805D01*
X166049742Y-80704722D01*
X166069203Y-80772999D01*
X166048661Y-80840959D01*
X165996457Y-80886195D01*
X165962238Y-80902151D01*
X165962233Y-80902154D01*
X165957251Y-80904477D01*
X165852389Y-80977902D01*
X165774211Y-81032643D01*
X165774208Y-81032645D01*
X165769700Y-81035802D01*
X165607802Y-81197700D01*
X165476477Y-81385251D01*
X165474154Y-81390233D01*
X165474151Y-81390238D01*
X165382039Y-81587775D01*
X165379716Y-81592757D01*
X165320457Y-81813913D01*
X165300502Y-82042000D01*
X165320457Y-82270087D01*
X165379716Y-82491243D01*
X165382039Y-82496224D01*
X165382039Y-82496225D01*
X165474151Y-82693762D01*
X165474154Y-82693767D01*
X165476477Y-82698749D01*
X165607802Y-82886300D01*
X165769700Y-83048198D01*
X165774208Y-83051355D01*
X165774211Y-83051357D01*
X165852389Y-83106098D01*
X165957251Y-83179523D01*
X165962233Y-83181846D01*
X165962238Y-83181849D01*
X165996457Y-83197805D01*
X166049742Y-83244722D01*
X166069203Y-83312999D01*
X166048661Y-83380959D01*
X165996457Y-83426195D01*
X165962238Y-83442151D01*
X165962233Y-83442154D01*
X165957251Y-83444477D01*
X165852389Y-83517902D01*
X165774211Y-83572643D01*
X165774208Y-83572645D01*
X165769700Y-83575802D01*
X165607802Y-83737700D01*
X165476477Y-83925251D01*
X165474154Y-83930233D01*
X165474151Y-83930238D01*
X165382039Y-84127775D01*
X165379716Y-84132757D01*
X165320457Y-84353913D01*
X165300502Y-84582000D01*
X165320457Y-84810087D01*
X165379716Y-85031243D01*
X165382039Y-85036224D01*
X165382039Y-85036225D01*
X165474151Y-85233762D01*
X165474154Y-85233767D01*
X165476477Y-85238749D01*
X165607802Y-85426300D01*
X165769700Y-85588198D01*
X165774208Y-85591355D01*
X165774211Y-85591357D01*
X165852389Y-85646098D01*
X165957251Y-85719523D01*
X165962233Y-85721846D01*
X165962238Y-85721849D01*
X165996457Y-85737805D01*
X166049742Y-85784722D01*
X166069203Y-85852999D01*
X166048661Y-85920959D01*
X165996457Y-85966195D01*
X165962238Y-85982151D01*
X165962233Y-85982154D01*
X165957251Y-85984477D01*
X165928333Y-86004726D01*
X165774211Y-86112643D01*
X165774208Y-86112645D01*
X165769700Y-86115802D01*
X165607802Y-86277700D01*
X165604645Y-86282208D01*
X165604643Y-86282211D01*
X165574206Y-86325680D01*
X165476477Y-86465251D01*
X165474154Y-86470233D01*
X165474151Y-86470238D01*
X165382039Y-86667775D01*
X165379716Y-86672757D01*
X165378294Y-86678065D01*
X165378293Y-86678067D01*
X165353199Y-86771720D01*
X165320457Y-86893913D01*
X165300502Y-87122000D01*
X165320457Y-87350087D01*
X165379716Y-87571243D01*
X165382039Y-87576224D01*
X165382039Y-87576225D01*
X165474151Y-87773762D01*
X165474154Y-87773767D01*
X165476477Y-87778749D01*
X165479634Y-87783257D01*
X165595156Y-87948239D01*
X165607802Y-87966300D01*
X165769700Y-88128198D01*
X165774208Y-88131355D01*
X165774211Y-88131357D01*
X165813244Y-88158688D01*
X165957251Y-88259523D01*
X165962233Y-88261846D01*
X165962238Y-88261849D01*
X165996457Y-88277805D01*
X166049742Y-88324722D01*
X166069203Y-88392999D01*
X166048661Y-88460959D01*
X165996457Y-88506195D01*
X165962238Y-88522151D01*
X165962233Y-88522154D01*
X165957251Y-88524477D01*
X165852389Y-88597902D01*
X165774211Y-88652643D01*
X165774208Y-88652645D01*
X165769700Y-88655802D01*
X165607802Y-88817700D01*
X165604645Y-88822208D01*
X165604643Y-88822211D01*
X165587949Y-88846053D01*
X165476477Y-89005251D01*
X165474154Y-89010233D01*
X165474151Y-89010238D01*
X165382039Y-89207775D01*
X165379716Y-89212757D01*
X165320457Y-89433913D01*
X165300502Y-89662000D01*
X165320457Y-89890087D01*
X165379716Y-90111243D01*
X165382039Y-90116224D01*
X165382039Y-90116225D01*
X165474151Y-90313762D01*
X165474154Y-90313767D01*
X165476477Y-90318749D01*
X165607802Y-90506300D01*
X165769700Y-90668198D01*
X165774208Y-90671355D01*
X165774211Y-90671357D01*
X165852389Y-90726098D01*
X165957251Y-90799523D01*
X165962233Y-90801846D01*
X165962238Y-90801849D01*
X165996457Y-90817805D01*
X166049742Y-90864722D01*
X166069203Y-90932999D01*
X166048661Y-91000959D01*
X165996457Y-91046195D01*
X165962238Y-91062151D01*
X165962233Y-91062154D01*
X165957251Y-91064477D01*
X165852389Y-91137902D01*
X165774211Y-91192643D01*
X165774208Y-91192645D01*
X165769700Y-91195802D01*
X165607802Y-91357700D01*
X165476477Y-91545251D01*
X165474154Y-91550233D01*
X165474151Y-91550238D01*
X165382039Y-91747775D01*
X165379716Y-91752757D01*
X165378294Y-91758065D01*
X165378293Y-91758067D01*
X165343544Y-91887753D01*
X165320457Y-91973913D01*
X165300502Y-92202000D01*
X165320457Y-92430087D01*
X165321881Y-92435400D01*
X165321881Y-92435402D01*
X165372119Y-92622889D01*
X165379716Y-92651243D01*
X165382039Y-92656224D01*
X165382039Y-92656225D01*
X165474151Y-92853762D01*
X165474154Y-92853767D01*
X165476477Y-92858749D01*
X165517203Y-92916912D01*
X165596249Y-93029800D01*
X165607802Y-93046300D01*
X165769700Y-93208198D01*
X165774208Y-93211355D01*
X165774211Y-93211357D01*
X165849202Y-93263866D01*
X165957251Y-93339523D01*
X165962233Y-93341846D01*
X165962238Y-93341849D01*
X165997049Y-93358081D01*
X166050334Y-93404998D01*
X166069795Y-93473275D01*
X166049253Y-93541235D01*
X165997049Y-93586471D01*
X165962489Y-93602586D01*
X165952993Y-93608069D01*
X165774533Y-93733028D01*
X165766125Y-93740084D01*
X165612084Y-93894125D01*
X165605028Y-93902533D01*
X165480069Y-94080993D01*
X165474586Y-94090489D01*
X165382510Y-94287947D01*
X165378764Y-94298239D01*
X165332606Y-94470503D01*
X165332942Y-94484599D01*
X165340884Y-94488000D01*
X167881967Y-94488000D01*
X167895498Y-94484027D01*
X167896727Y-94475478D01*
X167849236Y-94298239D01*
X167845490Y-94287947D01*
X167786760Y-94162000D01*
X188434540Y-94162000D01*
X188454359Y-94477020D01*
X188513505Y-94787072D01*
X188538735Y-94864722D01*
X188598550Y-95048812D01*
X188611044Y-95087266D01*
X188612731Y-95090852D01*
X188612733Y-95090856D01*
X188743750Y-95369283D01*
X188743754Y-95369290D01*
X188745438Y-95372869D01*
X188914568Y-95639375D01*
X188917093Y-95642427D01*
X189110625Y-95876366D01*
X189115767Y-95882582D01*
X189345860Y-96098654D01*
X189601221Y-96284184D01*
X189877821Y-96436247D01*
X189881490Y-96437700D01*
X189881495Y-96437702D01*
X190167628Y-96550990D01*
X190171298Y-96552443D01*
X190477025Y-96630940D01*
X190790179Y-96670500D01*
X191105821Y-96670500D01*
X191418975Y-96630940D01*
X191724702Y-96552443D01*
X191728372Y-96550990D01*
X192014505Y-96437702D01*
X192014510Y-96437700D01*
X192018179Y-96436247D01*
X192294779Y-96284184D01*
X192550140Y-96098654D01*
X192780233Y-95882582D01*
X192785376Y-95876366D01*
X192978907Y-95642427D01*
X192981432Y-95639375D01*
X193150562Y-95372869D01*
X193152246Y-95369290D01*
X193152250Y-95369283D01*
X193283267Y-95090856D01*
X193283269Y-95090852D01*
X193284956Y-95087266D01*
X193297451Y-95048812D01*
X193357265Y-94864722D01*
X193382495Y-94787072D01*
X193441641Y-94477020D01*
X193461460Y-94162000D01*
X193441641Y-93846980D01*
X193382495Y-93536928D01*
X193284956Y-93236734D01*
X193271528Y-93208198D01*
X193152250Y-92954717D01*
X193152246Y-92954710D01*
X193150562Y-92951131D01*
X192981432Y-92684625D01*
X192794526Y-92458695D01*
X192782758Y-92444470D01*
X192782757Y-92444469D01*
X192780233Y-92441418D01*
X192550140Y-92225346D01*
X192531130Y-92211534D01*
X192485173Y-92178145D01*
X192294779Y-92039816D01*
X192282127Y-92032860D01*
X192021648Y-91889660D01*
X192021647Y-91889659D01*
X192018179Y-91887753D01*
X192014510Y-91886300D01*
X192014505Y-91886298D01*
X191728372Y-91773010D01*
X191728371Y-91773010D01*
X191724702Y-91771557D01*
X191418975Y-91693060D01*
X191105821Y-91653500D01*
X190790179Y-91653500D01*
X190477025Y-91693060D01*
X190171298Y-91771557D01*
X190167629Y-91773010D01*
X190167628Y-91773010D01*
X189881495Y-91886298D01*
X189881490Y-91886300D01*
X189877821Y-91887753D01*
X189874353Y-91889659D01*
X189874352Y-91889660D01*
X189613874Y-92032860D01*
X189601221Y-92039816D01*
X189410827Y-92178145D01*
X189364871Y-92211534D01*
X189345860Y-92225346D01*
X189115767Y-92441418D01*
X189113243Y-92444469D01*
X189113242Y-92444470D01*
X189101474Y-92458695D01*
X188914568Y-92684625D01*
X188745438Y-92951131D01*
X188743754Y-92954710D01*
X188743750Y-92954717D01*
X188624472Y-93208198D01*
X188611044Y-93236734D01*
X188513505Y-93536928D01*
X188454359Y-93846980D01*
X188434540Y-94162000D01*
X167786760Y-94162000D01*
X167753414Y-94090489D01*
X167747931Y-94080993D01*
X167622972Y-93902533D01*
X167615916Y-93894125D01*
X167461875Y-93740084D01*
X167453467Y-93733028D01*
X167275007Y-93608069D01*
X167265511Y-93602586D01*
X167230951Y-93586471D01*
X167177666Y-93539554D01*
X167158205Y-93471277D01*
X167178747Y-93403317D01*
X167230951Y-93358081D01*
X167265762Y-93341849D01*
X167265767Y-93341846D01*
X167270749Y-93339523D01*
X167378798Y-93263866D01*
X167453789Y-93211357D01*
X167453792Y-93211355D01*
X167458300Y-93208198D01*
X167620198Y-93046300D01*
X167631752Y-93029800D01*
X167710797Y-92916912D01*
X167751523Y-92858749D01*
X167753846Y-92853767D01*
X167753849Y-92853762D01*
X167845961Y-92656225D01*
X167845961Y-92656224D01*
X167848284Y-92651243D01*
X167855882Y-92622889D01*
X167906119Y-92435402D01*
X167906119Y-92435400D01*
X167907543Y-92430087D01*
X167927498Y-92202000D01*
X167907543Y-91973913D01*
X167884456Y-91887753D01*
X167849707Y-91758067D01*
X167849706Y-91758065D01*
X167848284Y-91752757D01*
X167845961Y-91747775D01*
X167753849Y-91550238D01*
X167753846Y-91550233D01*
X167751523Y-91545251D01*
X167620198Y-91357700D01*
X167458300Y-91195802D01*
X167453792Y-91192645D01*
X167453789Y-91192643D01*
X167375611Y-91137902D01*
X167270749Y-91064477D01*
X167265767Y-91062154D01*
X167265762Y-91062151D01*
X167231543Y-91046195D01*
X167178258Y-90999278D01*
X167158797Y-90931001D01*
X167179339Y-90863041D01*
X167231543Y-90817805D01*
X167265762Y-90801849D01*
X167265767Y-90801846D01*
X167270749Y-90799523D01*
X167375611Y-90726098D01*
X167453789Y-90671357D01*
X167453792Y-90671355D01*
X167458300Y-90668198D01*
X167620198Y-90506300D01*
X167751523Y-90318749D01*
X167753846Y-90313767D01*
X167753849Y-90313762D01*
X167845961Y-90116225D01*
X167845961Y-90116224D01*
X167848284Y-90111243D01*
X167907543Y-89890087D01*
X167927498Y-89662000D01*
X167907543Y-89433913D01*
X167848284Y-89212757D01*
X167845961Y-89207775D01*
X167753849Y-89010238D01*
X167753846Y-89010233D01*
X167751523Y-89005251D01*
X167640051Y-88846053D01*
X167623357Y-88822211D01*
X167623355Y-88822208D01*
X167620198Y-88817700D01*
X167458300Y-88655802D01*
X167453792Y-88652645D01*
X167453789Y-88652643D01*
X167375611Y-88597902D01*
X167270749Y-88524477D01*
X167265767Y-88522154D01*
X167265762Y-88522151D01*
X167231543Y-88506195D01*
X167178258Y-88459278D01*
X167158797Y-88391001D01*
X167179339Y-88323041D01*
X167231543Y-88277805D01*
X167265762Y-88261849D01*
X167265767Y-88261846D01*
X167270749Y-88259523D01*
X167414756Y-88158688D01*
X167453789Y-88131357D01*
X167453792Y-88131355D01*
X167458300Y-88128198D01*
X167620198Y-87966300D01*
X167632845Y-87948239D01*
X167748366Y-87783257D01*
X167751523Y-87778749D01*
X167753846Y-87773767D01*
X167753849Y-87773762D01*
X167845961Y-87576225D01*
X167845961Y-87576224D01*
X167848284Y-87571243D01*
X167907543Y-87350087D01*
X167927498Y-87122000D01*
X167907543Y-86893913D01*
X167874801Y-86771720D01*
X167849707Y-86678067D01*
X167849706Y-86678065D01*
X167848284Y-86672757D01*
X167845961Y-86667775D01*
X167753849Y-86470238D01*
X167753846Y-86470233D01*
X167751523Y-86465251D01*
X167653794Y-86325680D01*
X167623357Y-86282211D01*
X167623355Y-86282208D01*
X167620198Y-86277700D01*
X167458300Y-86115802D01*
X167453792Y-86112645D01*
X167453789Y-86112643D01*
X167299667Y-86004726D01*
X167270749Y-85984477D01*
X167265767Y-85982154D01*
X167265762Y-85982151D01*
X167231543Y-85966195D01*
X167178258Y-85919278D01*
X167158797Y-85851001D01*
X167179339Y-85783041D01*
X167231543Y-85737805D01*
X167265762Y-85721849D01*
X167265767Y-85721846D01*
X167270749Y-85719523D01*
X167375611Y-85646098D01*
X167453789Y-85591357D01*
X167453792Y-85591355D01*
X167458300Y-85588198D01*
X167620198Y-85426300D01*
X167751523Y-85238749D01*
X167753846Y-85233767D01*
X167753849Y-85233762D01*
X167845961Y-85036225D01*
X167845961Y-85036224D01*
X167848284Y-85031243D01*
X167907543Y-84810087D01*
X167927498Y-84582000D01*
X167907543Y-84353913D01*
X167848284Y-84132757D01*
X167845961Y-84127775D01*
X167753849Y-83930238D01*
X167753846Y-83930233D01*
X167751523Y-83925251D01*
X167620198Y-83737700D01*
X167458300Y-83575802D01*
X167453792Y-83572645D01*
X167453789Y-83572643D01*
X167375611Y-83517902D01*
X167270749Y-83444477D01*
X167265767Y-83442154D01*
X167265762Y-83442151D01*
X167231543Y-83426195D01*
X167178258Y-83379278D01*
X167158797Y-83311001D01*
X167179339Y-83243041D01*
X167231543Y-83197805D01*
X167265762Y-83181849D01*
X167265767Y-83181846D01*
X167270749Y-83179523D01*
X167375611Y-83106098D01*
X167453789Y-83051357D01*
X167453792Y-83051355D01*
X167458300Y-83048198D01*
X167620198Y-82886300D01*
X167751523Y-82698749D01*
X167753846Y-82693767D01*
X167753849Y-82693762D01*
X167845961Y-82496225D01*
X167845961Y-82496224D01*
X167848284Y-82491243D01*
X167907543Y-82270087D01*
X167927498Y-82042000D01*
X167907543Y-81813913D01*
X167848284Y-81592757D01*
X167845961Y-81587775D01*
X167753849Y-81390238D01*
X167753846Y-81390233D01*
X167751523Y-81385251D01*
X167620198Y-81197700D01*
X167458300Y-81035802D01*
X167453792Y-81032645D01*
X167453789Y-81032643D01*
X167375611Y-80977902D01*
X167270749Y-80904477D01*
X167265767Y-80902154D01*
X167265762Y-80902151D01*
X167231543Y-80886195D01*
X167178258Y-80839278D01*
X167158797Y-80771001D01*
X167179339Y-80703041D01*
X167231543Y-80657805D01*
X167265762Y-80641849D01*
X167265767Y-80641846D01*
X167270749Y-80639523D01*
X167375611Y-80566098D01*
X167453789Y-80511357D01*
X167453792Y-80511355D01*
X167458300Y-80508198D01*
X167620198Y-80346300D01*
X167751523Y-80158749D01*
X167753846Y-80153767D01*
X167753849Y-80153762D01*
X167845961Y-79956225D01*
X167845961Y-79956224D01*
X167848284Y-79951243D01*
X167907543Y-79730087D01*
X167927498Y-79502000D01*
X167907543Y-79273913D01*
X167848284Y-79052757D01*
X167845961Y-79047775D01*
X167753849Y-78850238D01*
X167753846Y-78850233D01*
X167751523Y-78845251D01*
X167620198Y-78657700D01*
X167458300Y-78495802D01*
X167453792Y-78492645D01*
X167453789Y-78492643D01*
X167375611Y-78437902D01*
X167270749Y-78364477D01*
X167265767Y-78362154D01*
X167265762Y-78362151D01*
X167231543Y-78346195D01*
X167178258Y-78299278D01*
X167158797Y-78231001D01*
X167179339Y-78163041D01*
X167231543Y-78117805D01*
X167265762Y-78101849D01*
X167265767Y-78101846D01*
X167270749Y-78099523D01*
X167375611Y-78026098D01*
X167453789Y-77971357D01*
X167453792Y-77971355D01*
X167458300Y-77968198D01*
X167620198Y-77806300D01*
X167653189Y-77759185D01*
X167725945Y-77655278D01*
X167751523Y-77618749D01*
X167753846Y-77613767D01*
X167753849Y-77613762D01*
X167845961Y-77416225D01*
X167845961Y-77416224D01*
X167848284Y-77411243D01*
X167907543Y-77190087D01*
X167927498Y-76962000D01*
X167907543Y-76733913D01*
X167855637Y-76540197D01*
X167849707Y-76518067D01*
X167849706Y-76518065D01*
X167848284Y-76512757D01*
X167845961Y-76507775D01*
X167753849Y-76310238D01*
X167753846Y-76310233D01*
X167751523Y-76305251D01*
X167678098Y-76200389D01*
X167623357Y-76122211D01*
X167623355Y-76122208D01*
X167620198Y-76117700D01*
X167458300Y-75955802D01*
X167453792Y-75952645D01*
X167453789Y-75952643D01*
X167318780Y-75858109D01*
X167270749Y-75824477D01*
X167265767Y-75822154D01*
X167265762Y-75822151D01*
X167231543Y-75806195D01*
X167178258Y-75759278D01*
X167158797Y-75691001D01*
X167179339Y-75623041D01*
X167231543Y-75577805D01*
X167265762Y-75561849D01*
X167265767Y-75561846D01*
X167270749Y-75559523D01*
X167399468Y-75469393D01*
X167453789Y-75431357D01*
X167453792Y-75431355D01*
X167458300Y-75428198D01*
X167620198Y-75266300D01*
X167623998Y-75260874D01*
X167725945Y-75115278D01*
X167751523Y-75078749D01*
X167753846Y-75073767D01*
X167753849Y-75073762D01*
X167845961Y-74876225D01*
X167845961Y-74876224D01*
X167848284Y-74871243D01*
X167854593Y-74847700D01*
X167906119Y-74655402D01*
X167906119Y-74655400D01*
X167907543Y-74650087D01*
X167927498Y-74422000D01*
X167907543Y-74193913D01*
X167906119Y-74188598D01*
X167849707Y-73978067D01*
X167849706Y-73978065D01*
X167848284Y-73972757D01*
X167845961Y-73967775D01*
X167753849Y-73770238D01*
X167753846Y-73770233D01*
X167751523Y-73765251D01*
X167678098Y-73660389D01*
X167623357Y-73582211D01*
X167623355Y-73582208D01*
X167620198Y-73577700D01*
X167458300Y-73415802D01*
X167453792Y-73412645D01*
X167453789Y-73412643D01*
X167375611Y-73357902D01*
X167270749Y-73284477D01*
X167265767Y-73282154D01*
X167265762Y-73282151D01*
X167231543Y-73266195D01*
X167178258Y-73219278D01*
X167158797Y-73151001D01*
X167179339Y-73083041D01*
X167231543Y-73037805D01*
X167265762Y-73021849D01*
X167265767Y-73021846D01*
X167270749Y-73019523D01*
X167413555Y-72919529D01*
X167453789Y-72891357D01*
X167453792Y-72891355D01*
X167458300Y-72888198D01*
X167620198Y-72726300D01*
X167644923Y-72690990D01*
X167748366Y-72543257D01*
X167751523Y-72538749D01*
X167753846Y-72533767D01*
X167753849Y-72533762D01*
X167845961Y-72336225D01*
X167845961Y-72336224D01*
X167848284Y-72331243D01*
X167860783Y-72284596D01*
X167891154Y-72171252D01*
X167928106Y-72110630D01*
X167991967Y-72079608D01*
X168062461Y-72088037D01*
X168101956Y-72114769D01*
X170994019Y-75006832D01*
X171006860Y-75021865D01*
X171015134Y-75033253D01*
X171020043Y-75037673D01*
X171065959Y-75079016D01*
X171070744Y-75083557D01*
X171085259Y-75098072D01*
X171087823Y-75100148D01*
X171101216Y-75110994D01*
X171106231Y-75115278D01*
X171152145Y-75156619D01*
X171152150Y-75156623D01*
X171157056Y-75161040D01*
X171162772Y-75164340D01*
X171162776Y-75164343D01*
X171169237Y-75168073D01*
X171185533Y-75179273D01*
X171196470Y-75188129D01*
X171202348Y-75191124D01*
X171202351Y-75191126D01*
X171257426Y-75219188D01*
X171263223Y-75222336D01*
X171307791Y-75248067D01*
X171322444Y-75256527D01*
X171335826Y-75260875D01*
X171354085Y-75268438D01*
X171366630Y-75274830D01*
X171373000Y-75276537D01*
X171373003Y-75276538D01*
X171412074Y-75287007D01*
X171432712Y-75292537D01*
X171439025Y-75294407D01*
X171504072Y-75315542D01*
X171518075Y-75317014D01*
X171537504Y-75320615D01*
X171551097Y-75324257D01*
X171557694Y-75324603D01*
X171557696Y-75324603D01*
X171619384Y-75327836D01*
X171625958Y-75328353D01*
X171643116Y-75330156D01*
X171643118Y-75330156D01*
X171646390Y-75330500D01*
X171666926Y-75330500D01*
X171673520Y-75330673D01*
X171735218Y-75333907D01*
X171735223Y-75333907D01*
X171741810Y-75334252D01*
X171755708Y-75332051D01*
X171775417Y-75330500D01*
X173430011Y-75330500D01*
X173498132Y-75350502D01*
X173525248Y-75374002D01*
X173540864Y-75392030D01*
X173540869Y-75392035D01*
X173544250Y-75395938D01*
X173548230Y-75399242D01*
X173552981Y-75403187D01*
X173592616Y-75462090D01*
X173594113Y-75533071D01*
X173556997Y-75593593D01*
X173516724Y-75618112D01*
X173401295Y-75661385D01*
X173284739Y-75748739D01*
X173197385Y-75865295D01*
X173146255Y-76001684D01*
X173139500Y-76063866D01*
X173139500Y-77860134D01*
X173146255Y-77922316D01*
X173197385Y-78058705D01*
X173284739Y-78175261D01*
X173401295Y-78262615D01*
X173537684Y-78313745D01*
X173599866Y-78320500D01*
X175396134Y-78320500D01*
X175458316Y-78313745D01*
X175594705Y-78262615D01*
X175711261Y-78175261D01*
X175798615Y-78058705D01*
X175849745Y-77922316D01*
X175855024Y-77873718D01*
X175882265Y-77808157D01*
X175917286Y-77778208D01*
X175944798Y-77762324D01*
X175950579Y-77759185D01*
X176011530Y-77728129D01*
X176022467Y-77719273D01*
X176038763Y-77708073D01*
X176045224Y-77704343D01*
X176045228Y-77704340D01*
X176050944Y-77701040D01*
X176055850Y-77696623D01*
X176055855Y-77696619D01*
X176101769Y-77655278D01*
X176106784Y-77650994D01*
X176120177Y-77640148D01*
X176122741Y-77638072D01*
X176137256Y-77623557D01*
X176142041Y-77619016D01*
X176187957Y-77577673D01*
X176192866Y-77573253D01*
X176201140Y-77561865D01*
X176213981Y-77546832D01*
X177622832Y-76137981D01*
X177637865Y-76125140D01*
X177643913Y-76120746D01*
X177643914Y-76120745D01*
X177649253Y-76116866D01*
X177695016Y-76066041D01*
X177699557Y-76061256D01*
X177714072Y-76046741D01*
X177726997Y-76030780D01*
X177731269Y-76025779D01*
X177772619Y-75979855D01*
X177772623Y-75979850D01*
X177777040Y-75974944D01*
X177784073Y-75962763D01*
X177795267Y-75946474D01*
X177804129Y-75935531D01*
X177814791Y-75914607D01*
X177835188Y-75874574D01*
X177838336Y-75868777D01*
X177869223Y-75815279D01*
X177869223Y-75815278D01*
X177872527Y-75809556D01*
X177876875Y-75796173D01*
X177884441Y-75777907D01*
X177887832Y-75771252D01*
X177890829Y-75765370D01*
X177893362Y-75755919D01*
X177908529Y-75699315D01*
X177910402Y-75692991D01*
X177929500Y-75634212D01*
X177931542Y-75627928D01*
X177933012Y-75613939D01*
X177936617Y-75594486D01*
X177936857Y-75593593D01*
X177940257Y-75580904D01*
X177941256Y-75561849D01*
X177943836Y-75512615D01*
X177944353Y-75506040D01*
X177946156Y-75488882D01*
X177946500Y-75485610D01*
X177946500Y-75465075D01*
X177946673Y-75458481D01*
X177949907Y-75396783D01*
X177949907Y-75396778D01*
X177950252Y-75390191D01*
X177948051Y-75376293D01*
X177946500Y-75356584D01*
X177946500Y-65613416D01*
X177948051Y-65593704D01*
X177949220Y-65586324D01*
X177950252Y-65579809D01*
X177949619Y-65567716D01*
X177946673Y-65511519D01*
X177946500Y-65504925D01*
X177946500Y-65484390D01*
X177944353Y-65463960D01*
X177943836Y-65457385D01*
X177940603Y-65395696D01*
X177940603Y-65395695D01*
X177940257Y-65389096D01*
X177936616Y-65375508D01*
X177933012Y-65356061D01*
X177932233Y-65348644D01*
X177932232Y-65348640D01*
X177931542Y-65342072D01*
X177910402Y-65277009D01*
X177908529Y-65270685D01*
X177892539Y-65211010D01*
X177892538Y-65211006D01*
X177890829Y-65204630D01*
X177884440Y-65192092D01*
X177876875Y-65173826D01*
X177874569Y-65166728D01*
X177874568Y-65166726D01*
X177872527Y-65160444D01*
X177838335Y-65101220D01*
X177835188Y-65095426D01*
X177807127Y-65040352D01*
X177807125Y-65040349D01*
X177804129Y-65034469D01*
X177795267Y-65023526D01*
X177784073Y-65007237D01*
X177777040Y-64995056D01*
X177772623Y-64990150D01*
X177772619Y-64990145D01*
X177731269Y-64944221D01*
X177726997Y-64939220D01*
X177714072Y-64923259D01*
X177699557Y-64908744D01*
X177695016Y-64903959D01*
X177653673Y-64858043D01*
X177649253Y-64853134D01*
X177637865Y-64844860D01*
X177622832Y-64832019D01*
X176213981Y-63423168D01*
X176201140Y-63408135D01*
X176196746Y-63402087D01*
X176196745Y-63402086D01*
X176192866Y-63396747D01*
X176142041Y-63350984D01*
X176137256Y-63346443D01*
X176122741Y-63331928D01*
X176115282Y-63325888D01*
X176106784Y-63319006D01*
X176101769Y-63314722D01*
X176055855Y-63273381D01*
X176055850Y-63273377D01*
X176050944Y-63268960D01*
X176045228Y-63265660D01*
X176045224Y-63265657D01*
X176038763Y-63261927D01*
X176022466Y-63250727D01*
X176016660Y-63246025D01*
X176016658Y-63246024D01*
X176011530Y-63241871D01*
X175950573Y-63210812D01*
X175944782Y-63207667D01*
X175891279Y-63176777D01*
X175891278Y-63176776D01*
X175885556Y-63173473D01*
X175879274Y-63171432D01*
X175879272Y-63171431D01*
X175872174Y-63169125D01*
X175853907Y-63161559D01*
X175853903Y-63161557D01*
X175841370Y-63155171D01*
X175775291Y-63137465D01*
X175768997Y-63135600D01*
X175703928Y-63114458D01*
X175697363Y-63113768D01*
X175697354Y-63113766D01*
X175689925Y-63112985D01*
X175670491Y-63109383D01*
X175663286Y-63107453D01*
X175663284Y-63107453D01*
X175656903Y-63105743D01*
X175650312Y-63105398D01*
X175650308Y-63105397D01*
X175588616Y-63102164D01*
X175582042Y-63101647D01*
X175564884Y-63099844D01*
X175564882Y-63099844D01*
X175561610Y-63099500D01*
X175541074Y-63099500D01*
X175534480Y-63099327D01*
X175472782Y-63096093D01*
X175472777Y-63096093D01*
X175466190Y-63095748D01*
X175452292Y-63097949D01*
X175432583Y-63099500D01*
X154249417Y-63099500D01*
X154229707Y-63097949D01*
X154222327Y-63096780D01*
X154222326Y-63096780D01*
X154215810Y-63095748D01*
X154209223Y-63096093D01*
X154209218Y-63096093D01*
X154147520Y-63099327D01*
X154140926Y-63099500D01*
X154120390Y-63099500D01*
X154117118Y-63099844D01*
X154117116Y-63099844D01*
X154099958Y-63101647D01*
X154093384Y-63102164D01*
X154031696Y-63105397D01*
X154031694Y-63105397D01*
X154025097Y-63105743D01*
X154011504Y-63109385D01*
X153992075Y-63112986D01*
X153978072Y-63114458D01*
X153913025Y-63135593D01*
X153906712Y-63137463D01*
X153886074Y-63142993D01*
X153847003Y-63153462D01*
X153847000Y-63153463D01*
X153840630Y-63155170D01*
X153828085Y-63161562D01*
X153809826Y-63169125D01*
X153796444Y-63173473D01*
X153790723Y-63176776D01*
X153737223Y-63207664D01*
X153731426Y-63210812D01*
X153676351Y-63238874D01*
X153676348Y-63238876D01*
X153670470Y-63241871D01*
X153665342Y-63246024D01*
X153665340Y-63246025D01*
X153659534Y-63250727D01*
X153643237Y-63261927D01*
X153636776Y-63265657D01*
X153636772Y-63265660D01*
X153631056Y-63268960D01*
X153626150Y-63273377D01*
X153626145Y-63273381D01*
X153580231Y-63314722D01*
X153575216Y-63319006D01*
X153566718Y-63325888D01*
X153559259Y-63331928D01*
X153544744Y-63346443D01*
X153539959Y-63350984D01*
X153489134Y-63396747D01*
X153485255Y-63402086D01*
X153485254Y-63402087D01*
X153480860Y-63408135D01*
X153468019Y-63423168D01*
X151437864Y-65453323D01*
X151375552Y-65487349D01*
X151359754Y-65489748D01*
X151281096Y-65496630D01*
X151151394Y-65507977D01*
X151151389Y-65507978D01*
X151145913Y-65508457D01*
X151140600Y-65509881D01*
X151140598Y-65509881D01*
X150930067Y-65566293D01*
X150930065Y-65566294D01*
X150924757Y-65567716D01*
X150919776Y-65570039D01*
X150919775Y-65570039D01*
X150722238Y-65662151D01*
X150722233Y-65662154D01*
X150717251Y-65664477D01*
X150612389Y-65737902D01*
X150534211Y-65792643D01*
X150534208Y-65792645D01*
X150529700Y-65795802D01*
X150367802Y-65957700D01*
X150364645Y-65962208D01*
X150364643Y-65962211D01*
X150309902Y-66040389D01*
X150236477Y-66145251D01*
X150234154Y-66150233D01*
X150234151Y-66150238D01*
X150151908Y-66326610D01*
X150139716Y-66352757D01*
X150138294Y-66358065D01*
X150138293Y-66358067D01*
X150086407Y-66551707D01*
X150080457Y-66573913D01*
X150060502Y-66802000D01*
X150080457Y-67030087D01*
X150081881Y-67035400D01*
X150081881Y-67035402D01*
X150129851Y-67214425D01*
X150139716Y-67251243D01*
X150142039Y-67256224D01*
X150142039Y-67256225D01*
X150234151Y-67453762D01*
X150234154Y-67453767D01*
X150236477Y-67458749D01*
X150239634Y-67463257D01*
X150343078Y-67610990D01*
X150367802Y-67646300D01*
X150529700Y-67808198D01*
X150534208Y-67811355D01*
X150534211Y-67811357D01*
X150574445Y-67839529D01*
X150717251Y-67939523D01*
X150722233Y-67941846D01*
X150722238Y-67941849D01*
X150756457Y-67957805D01*
X150809742Y-68004722D01*
X150829203Y-68072999D01*
X150808661Y-68140959D01*
X150756457Y-68186195D01*
X150722238Y-68202151D01*
X150722233Y-68202154D01*
X150717251Y-68204477D01*
X150612389Y-68277902D01*
X150534211Y-68332643D01*
X150534208Y-68332645D01*
X150529700Y-68335802D01*
X150367802Y-68497700D01*
X150236477Y-68685251D01*
X150234154Y-68690233D01*
X150234151Y-68690238D01*
X150228287Y-68702814D01*
X150139716Y-68892757D01*
X150138294Y-68898065D01*
X150138293Y-68898067D01*
X150087400Y-69088000D01*
X150080457Y-69113913D01*
X150060502Y-69342000D01*
X150080457Y-69570087D01*
X150081881Y-69575400D01*
X150081881Y-69575402D01*
X150091143Y-69609966D01*
X150139716Y-69791243D01*
X150142039Y-69796224D01*
X150142039Y-69796225D01*
X150234151Y-69993762D01*
X150234154Y-69993767D01*
X150236477Y-69998749D01*
X150367802Y-70186300D01*
X150529700Y-70348198D01*
X150534208Y-70351355D01*
X150534211Y-70351357D01*
X150612389Y-70406098D01*
X150717251Y-70479523D01*
X150722233Y-70481846D01*
X150722238Y-70481849D01*
X150756457Y-70497805D01*
X150809742Y-70544722D01*
X150829203Y-70612999D01*
X150808661Y-70680959D01*
X150756457Y-70726195D01*
X150722238Y-70742151D01*
X150722233Y-70742154D01*
X150717251Y-70744477D01*
X150612389Y-70817902D01*
X150534211Y-70872643D01*
X150534208Y-70872645D01*
X150529700Y-70875802D01*
X150367802Y-71037700D01*
X150364645Y-71042208D01*
X150364643Y-71042211D01*
X150309902Y-71120389D01*
X150236477Y-71225251D01*
X150234154Y-71230233D01*
X150234151Y-71230238D01*
X150151908Y-71406610D01*
X150139716Y-71432757D01*
X150138294Y-71438065D01*
X150138293Y-71438067D01*
X150086407Y-71631707D01*
X150080457Y-71653913D01*
X150060502Y-71882000D01*
X150080457Y-72110087D01*
X150081881Y-72115400D01*
X150081881Y-72115402D01*
X150129851Y-72294425D01*
X150139716Y-72331243D01*
X150142039Y-72336224D01*
X150142039Y-72336225D01*
X150234151Y-72533762D01*
X150234154Y-72533767D01*
X150236477Y-72538749D01*
X150239634Y-72543257D01*
X150343078Y-72690990D01*
X150367802Y-72726300D01*
X150529700Y-72888198D01*
X150534208Y-72891355D01*
X150534211Y-72891357D01*
X150574445Y-72919529D01*
X150717251Y-73019523D01*
X150722233Y-73021846D01*
X150722238Y-73021849D01*
X150756457Y-73037805D01*
X150809742Y-73084722D01*
X150829203Y-73152999D01*
X150808661Y-73220959D01*
X150756457Y-73266195D01*
X150722238Y-73282151D01*
X150722233Y-73282154D01*
X150717251Y-73284477D01*
X150612389Y-73357902D01*
X150534211Y-73412643D01*
X150534208Y-73412645D01*
X150529700Y-73415802D01*
X150367802Y-73577700D01*
X150364645Y-73582208D01*
X150364643Y-73582211D01*
X150309902Y-73660389D01*
X150236477Y-73765251D01*
X150234154Y-73770233D01*
X150234151Y-73770238D01*
X150142039Y-73967775D01*
X150139716Y-73972757D01*
X150138294Y-73978065D01*
X150138293Y-73978067D01*
X150081881Y-74188598D01*
X150080457Y-74193913D01*
X150060502Y-74422000D01*
X150080457Y-74650087D01*
X150081881Y-74655400D01*
X150081881Y-74655402D01*
X150133408Y-74847700D01*
X150139716Y-74871243D01*
X150142039Y-74876224D01*
X150142039Y-74876225D01*
X150234151Y-75073762D01*
X150234154Y-75073767D01*
X150236477Y-75078749D01*
X150262055Y-75115278D01*
X150364003Y-75260874D01*
X150367802Y-75266300D01*
X150529700Y-75428198D01*
X150534208Y-75431355D01*
X150534211Y-75431357D01*
X150588532Y-75469393D01*
X150717251Y-75559523D01*
X150722233Y-75561846D01*
X150722238Y-75561849D01*
X150756457Y-75577805D01*
X150809742Y-75624722D01*
X150829203Y-75692999D01*
X150808661Y-75760959D01*
X150756457Y-75806195D01*
X150722238Y-75822151D01*
X150722233Y-75822154D01*
X150717251Y-75824477D01*
X150669220Y-75858109D01*
X150534211Y-75952643D01*
X150534208Y-75952645D01*
X150529700Y-75955802D01*
X150367802Y-76117700D01*
X150364645Y-76122208D01*
X150364643Y-76122211D01*
X150309902Y-76200389D01*
X150236477Y-76305251D01*
X150234154Y-76310233D01*
X150234151Y-76310238D01*
X150142039Y-76507775D01*
X150139716Y-76512757D01*
X150138294Y-76518065D01*
X150138293Y-76518067D01*
X150132363Y-76540197D01*
X150080457Y-76733913D01*
X150060502Y-76962000D01*
X150080457Y-77190087D01*
X150139716Y-77411243D01*
X150142039Y-77416224D01*
X150142039Y-77416225D01*
X150234151Y-77613762D01*
X150234154Y-77613767D01*
X150236477Y-77618749D01*
X150262055Y-77655278D01*
X150334812Y-77759185D01*
X150367802Y-77806300D01*
X150529700Y-77968198D01*
X150534208Y-77971355D01*
X150534211Y-77971357D01*
X150612389Y-78026098D01*
X150717251Y-78099523D01*
X150722233Y-78101846D01*
X150722238Y-78101849D01*
X150756457Y-78117805D01*
X150809742Y-78164722D01*
X150829203Y-78232999D01*
X150808661Y-78300959D01*
X150756457Y-78346195D01*
X150722238Y-78362151D01*
X150722233Y-78362154D01*
X150717251Y-78364477D01*
X150612389Y-78437902D01*
X150534211Y-78492643D01*
X150534208Y-78492645D01*
X150529700Y-78495802D01*
X150367802Y-78657700D01*
X150236477Y-78845251D01*
X150234154Y-78850233D01*
X150234151Y-78850238D01*
X150142039Y-79047775D01*
X150139716Y-79052757D01*
X150080457Y-79273913D01*
X150060502Y-79502000D01*
X150080457Y-79730087D01*
X150139716Y-79951243D01*
X150142039Y-79956224D01*
X150142039Y-79956225D01*
X150234151Y-80153762D01*
X150234154Y-80153767D01*
X150236477Y-80158749D01*
X150367802Y-80346300D01*
X150529700Y-80508198D01*
X150534208Y-80511355D01*
X150534211Y-80511357D01*
X150612389Y-80566098D01*
X150717251Y-80639523D01*
X150722233Y-80641846D01*
X150722238Y-80641849D01*
X150756457Y-80657805D01*
X150809742Y-80704722D01*
X150829203Y-80772999D01*
X150808661Y-80840959D01*
X150756457Y-80886195D01*
X150722238Y-80902151D01*
X150722233Y-80902154D01*
X150717251Y-80904477D01*
X150612389Y-80977902D01*
X150534211Y-81032643D01*
X150534208Y-81032645D01*
X150529700Y-81035802D01*
X150367802Y-81197700D01*
X150236477Y-81385251D01*
X150234154Y-81390233D01*
X150234151Y-81390238D01*
X150142039Y-81587775D01*
X150139716Y-81592757D01*
X150080457Y-81813913D01*
X150060502Y-82042000D01*
X150080457Y-82270087D01*
X150139716Y-82491243D01*
X150142039Y-82496224D01*
X150142039Y-82496225D01*
X150234151Y-82693762D01*
X150234154Y-82693767D01*
X150236477Y-82698749D01*
X150367802Y-82886300D01*
X150529700Y-83048198D01*
X150534208Y-83051355D01*
X150534211Y-83051357D01*
X150612389Y-83106098D01*
X150717251Y-83179523D01*
X150722233Y-83181846D01*
X150722238Y-83181849D01*
X150756457Y-83197805D01*
X150809742Y-83244722D01*
X150829203Y-83312999D01*
X150808661Y-83380959D01*
X150756457Y-83426195D01*
X150722238Y-83442151D01*
X150722233Y-83442154D01*
X150717251Y-83444477D01*
X150612389Y-83517902D01*
X150534211Y-83572643D01*
X150534208Y-83572645D01*
X150529700Y-83575802D01*
X150367802Y-83737700D01*
X150236477Y-83925251D01*
X150234154Y-83930233D01*
X150234151Y-83930238D01*
X150142039Y-84127775D01*
X150139716Y-84132757D01*
X150080457Y-84353913D01*
X150060502Y-84582000D01*
X150080457Y-84810087D01*
X150139716Y-85031243D01*
X150142039Y-85036224D01*
X150142039Y-85036225D01*
X150234151Y-85233762D01*
X150234154Y-85233767D01*
X150236477Y-85238749D01*
X150367802Y-85426300D01*
X150529700Y-85588198D01*
X150534208Y-85591355D01*
X150534211Y-85591357D01*
X150612389Y-85646098D01*
X150717251Y-85719523D01*
X150722233Y-85721846D01*
X150722238Y-85721849D01*
X150756457Y-85737805D01*
X150809742Y-85784722D01*
X150829203Y-85852999D01*
X150808661Y-85920959D01*
X150756457Y-85966195D01*
X150722238Y-85982151D01*
X150722233Y-85982154D01*
X150717251Y-85984477D01*
X150688333Y-86004726D01*
X150534211Y-86112643D01*
X150534208Y-86112645D01*
X150529700Y-86115802D01*
X150367802Y-86277700D01*
X150364645Y-86282208D01*
X150364643Y-86282211D01*
X150334206Y-86325680D01*
X150236477Y-86465251D01*
X150234154Y-86470233D01*
X150234151Y-86470238D01*
X150142039Y-86667775D01*
X150139716Y-86672757D01*
X150138294Y-86678065D01*
X150138293Y-86678067D01*
X150113199Y-86771720D01*
X150080457Y-86893913D01*
X150060502Y-87122000D01*
X150080457Y-87350087D01*
X150139716Y-87571243D01*
X150142039Y-87576224D01*
X150142039Y-87576225D01*
X150234151Y-87773762D01*
X150234154Y-87773767D01*
X150236477Y-87778749D01*
X150239634Y-87783257D01*
X150355156Y-87948239D01*
X150367802Y-87966300D01*
X150529700Y-88128198D01*
X150534208Y-88131355D01*
X150534211Y-88131357D01*
X150573244Y-88158688D01*
X150717251Y-88259523D01*
X150722233Y-88261846D01*
X150722238Y-88261849D01*
X150756457Y-88277805D01*
X150809742Y-88324722D01*
X150829203Y-88392999D01*
X150808661Y-88460959D01*
X150756457Y-88506195D01*
X150722238Y-88522151D01*
X150722233Y-88522154D01*
X150717251Y-88524477D01*
X150612389Y-88597902D01*
X150534211Y-88652643D01*
X150534208Y-88652645D01*
X150529700Y-88655802D01*
X150367802Y-88817700D01*
X150364645Y-88822208D01*
X150364643Y-88822211D01*
X150347949Y-88846053D01*
X150236477Y-89005251D01*
X150234154Y-89010233D01*
X150234151Y-89010238D01*
X150142039Y-89207775D01*
X150139716Y-89212757D01*
X150080457Y-89433913D01*
X150060502Y-89662000D01*
X150080457Y-89890087D01*
X150139716Y-90111243D01*
X150142039Y-90116224D01*
X150142039Y-90116225D01*
X150234151Y-90313762D01*
X150234154Y-90313767D01*
X150236477Y-90318749D01*
X150367802Y-90506300D01*
X150529700Y-90668198D01*
X150534208Y-90671355D01*
X150534211Y-90671357D01*
X150612389Y-90726098D01*
X150717251Y-90799523D01*
X150722233Y-90801846D01*
X150722238Y-90801849D01*
X150756457Y-90817805D01*
X150809742Y-90864722D01*
X150829203Y-90932999D01*
X150808661Y-91000959D01*
X150756457Y-91046195D01*
X150722238Y-91062151D01*
X150722233Y-91062154D01*
X150717251Y-91064477D01*
X150612389Y-91137902D01*
X150534211Y-91192643D01*
X150534208Y-91192645D01*
X150529700Y-91195802D01*
X150367802Y-91357700D01*
X150236477Y-91545251D01*
X150234154Y-91550233D01*
X150234151Y-91550238D01*
X150142039Y-91747775D01*
X150139716Y-91752757D01*
X150138294Y-91758065D01*
X150138293Y-91758067D01*
X150103544Y-91887753D01*
X150080457Y-91973913D01*
X150060502Y-92202000D01*
X150080457Y-92430087D01*
X150081881Y-92435400D01*
X150081881Y-92435402D01*
X150132119Y-92622889D01*
X150139716Y-92651243D01*
X150142039Y-92656224D01*
X150142039Y-92656225D01*
X150234151Y-92853762D01*
X150234154Y-92853767D01*
X150236477Y-92858749D01*
X150277203Y-92916912D01*
X150356249Y-93029800D01*
X150367802Y-93046300D01*
X150529700Y-93208198D01*
X150534208Y-93211355D01*
X150534211Y-93211357D01*
X150609202Y-93263866D01*
X150717251Y-93339523D01*
X150722233Y-93341846D01*
X150722238Y-93341849D01*
X150756457Y-93357805D01*
X150809742Y-93404722D01*
X150829203Y-93472999D01*
X150808661Y-93540959D01*
X150756457Y-93586195D01*
X150722238Y-93602151D01*
X150722233Y-93602154D01*
X150717251Y-93604477D01*
X150612389Y-93677902D01*
X150534211Y-93732643D01*
X150534208Y-93732645D01*
X150529700Y-93735802D01*
X150367802Y-93897700D01*
X150364645Y-93902208D01*
X150364643Y-93902211D01*
X150361591Y-93906570D01*
X150236477Y-94085251D01*
X150234154Y-94090233D01*
X150234151Y-94090238D01*
X150198843Y-94165958D01*
X150139716Y-94292757D01*
X150138294Y-94298065D01*
X150138293Y-94298067D01*
X150089298Y-94480918D01*
X150080457Y-94513913D01*
X150060502Y-94742000D01*
X150080457Y-94970087D01*
X150081881Y-94975400D01*
X150081881Y-94975402D01*
X150123753Y-95131667D01*
X150139716Y-95191243D01*
X150142039Y-95196224D01*
X150142039Y-95196225D01*
X150234151Y-95393762D01*
X150234154Y-95393767D01*
X150236477Y-95398749D01*
X150367802Y-95586300D01*
X150529700Y-95748198D01*
X150534208Y-95751355D01*
X150534211Y-95751357D01*
X150612389Y-95806098D01*
X150717251Y-95879523D01*
X150722233Y-95881846D01*
X150722238Y-95881849D01*
X150756457Y-95897805D01*
X150809742Y-95944722D01*
X150829203Y-96012999D01*
X150808661Y-96080959D01*
X150756457Y-96126195D01*
X150722238Y-96142151D01*
X150722233Y-96142154D01*
X150717251Y-96144477D01*
X150612389Y-96217902D01*
X150534211Y-96272643D01*
X150534208Y-96272645D01*
X150529700Y-96275802D01*
X150367802Y-96437700D01*
X150236477Y-96625251D01*
X150234154Y-96630233D01*
X150234151Y-96630238D01*
X150215377Y-96670500D01*
X150139716Y-96832757D01*
X150080457Y-97053913D01*
X150060502Y-97282000D01*
X122428000Y-97282000D01*
X122428000Y-94162000D01*
X126684540Y-94162000D01*
X126704359Y-94477020D01*
X126763505Y-94787072D01*
X126788735Y-94864722D01*
X126848550Y-95048812D01*
X126861044Y-95087266D01*
X126862731Y-95090852D01*
X126862733Y-95090856D01*
X126993750Y-95369283D01*
X126993754Y-95369290D01*
X126995438Y-95372869D01*
X127164568Y-95639375D01*
X127167093Y-95642427D01*
X127360625Y-95876366D01*
X127365767Y-95882582D01*
X127595860Y-96098654D01*
X127851221Y-96284184D01*
X128127821Y-96436247D01*
X128131490Y-96437700D01*
X128131495Y-96437702D01*
X128417628Y-96550990D01*
X128421298Y-96552443D01*
X128727025Y-96630940D01*
X129040179Y-96670500D01*
X129355821Y-96670500D01*
X129668975Y-96630940D01*
X129974702Y-96552443D01*
X129978372Y-96550990D01*
X130264505Y-96437702D01*
X130264510Y-96437700D01*
X130268179Y-96436247D01*
X130544779Y-96284184D01*
X130800140Y-96098654D01*
X131030233Y-95882582D01*
X131035376Y-95876366D01*
X131228907Y-95642427D01*
X131231432Y-95639375D01*
X131400562Y-95372869D01*
X131402246Y-95369290D01*
X131402250Y-95369283D01*
X131533267Y-95090856D01*
X131533269Y-95090852D01*
X131534956Y-95087266D01*
X131547451Y-95048812D01*
X131607265Y-94864722D01*
X131632495Y-94787072D01*
X131691641Y-94477020D01*
X131694601Y-94429966D01*
X135286257Y-94429966D01*
X135316565Y-94564446D01*
X135319645Y-94574275D01*
X135399770Y-94771603D01*
X135404413Y-94780794D01*
X135515694Y-94962388D01*
X135521777Y-94970699D01*
X135661213Y-95131667D01*
X135668580Y-95138883D01*
X135832434Y-95274916D01*
X135840881Y-95280831D01*
X136024756Y-95388279D01*
X136034042Y-95392729D01*
X136233001Y-95468703D01*
X136242899Y-95471579D01*
X136346250Y-95492606D01*
X136360299Y-95491410D01*
X136364000Y-95481065D01*
X136364000Y-95480517D01*
X136872000Y-95480517D01*
X136876064Y-95494359D01*
X136889478Y-95496393D01*
X136896184Y-95495534D01*
X136906262Y-95493392D01*
X137110255Y-95432191D01*
X137119842Y-95428433D01*
X137311095Y-95334739D01*
X137319945Y-95329464D01*
X137493328Y-95205792D01*
X137501200Y-95199139D01*
X137652052Y-95048812D01*
X137658730Y-95040965D01*
X137786022Y-94863819D01*
X137787279Y-94864722D01*
X137834373Y-94821362D01*
X137904311Y-94809145D01*
X137969751Y-94836678D01*
X137997579Y-94868511D01*
X138057987Y-94967088D01*
X138204250Y-95135938D01*
X138376126Y-95278632D01*
X138569000Y-95391338D01*
X138573825Y-95393180D01*
X138573826Y-95393181D01*
X138646612Y-95420975D01*
X138777692Y-95471030D01*
X138782760Y-95472061D01*
X138782763Y-95472062D01*
X138877862Y-95491410D01*
X138996597Y-95515567D01*
X139001772Y-95515757D01*
X139001774Y-95515757D01*
X139214673Y-95523564D01*
X139214677Y-95523564D01*
X139219837Y-95523753D01*
X139224957Y-95523097D01*
X139224959Y-95523097D01*
X139436288Y-95496025D01*
X139436289Y-95496025D01*
X139441416Y-95495368D01*
X139446366Y-95493883D01*
X139650429Y-95432661D01*
X139650434Y-95432659D01*
X139655384Y-95431174D01*
X139855994Y-95332896D01*
X140037860Y-95203173D01*
X140146091Y-95095319D01*
X140208462Y-95061404D01*
X140279268Y-95066592D01*
X140336030Y-95109238D01*
X140353012Y-95140341D01*
X140373898Y-95196053D01*
X140397385Y-95258705D01*
X140484739Y-95375261D01*
X140601295Y-95462615D01*
X140737684Y-95513745D01*
X140799866Y-95520500D01*
X142596134Y-95520500D01*
X142658316Y-95513745D01*
X142794705Y-95462615D01*
X142911261Y-95375261D01*
X142998615Y-95258705D01*
X143049745Y-95122316D01*
X143056500Y-95060134D01*
X143056500Y-93263866D01*
X143049745Y-93201684D01*
X142998615Y-93065295D01*
X142911261Y-92948739D01*
X142794705Y-92861385D01*
X142658316Y-92810255D01*
X142596134Y-92803500D01*
X140799866Y-92803500D01*
X140737684Y-92810255D01*
X140601295Y-92861385D01*
X140484739Y-92948739D01*
X140397385Y-93065295D01*
X140394233Y-93073703D01*
X140352919Y-93183907D01*
X140310277Y-93240671D01*
X140243716Y-93265371D01*
X140174367Y-93250163D01*
X140141743Y-93224476D01*
X140091151Y-93168875D01*
X140091142Y-93168866D01*
X140087670Y-93165051D01*
X140083619Y-93161852D01*
X140083615Y-93161848D01*
X139916414Y-93029800D01*
X139916410Y-93029798D01*
X139912359Y-93026598D01*
X139876028Y-93006542D01*
X139860136Y-92997769D01*
X139716789Y-92918638D01*
X139711920Y-92916914D01*
X139711916Y-92916912D01*
X139511087Y-92845795D01*
X139511083Y-92845794D01*
X139506212Y-92844069D01*
X139501119Y-92843162D01*
X139501116Y-92843161D01*
X139291373Y-92805800D01*
X139291367Y-92805799D01*
X139286284Y-92804894D01*
X139212452Y-92803992D01*
X139068081Y-92802228D01*
X139068079Y-92802228D01*
X139062911Y-92802165D01*
X138842091Y-92835955D01*
X138629756Y-92905357D01*
X138431607Y-93008507D01*
X138427474Y-93011610D01*
X138427471Y-93011612D01*
X138280821Y-93121720D01*
X138252965Y-93142635D01*
X138213525Y-93183907D01*
X138159280Y-93240671D01*
X138098629Y-93304138D01*
X138095715Y-93308410D01*
X138095714Y-93308411D01*
X137990898Y-93462066D01*
X137935987Y-93507069D01*
X137865462Y-93515240D01*
X137801715Y-93483986D01*
X137781018Y-93459502D01*
X137700426Y-93334926D01*
X137694136Y-93326757D01*
X137550806Y-93169240D01*
X137543273Y-93162215D01*
X137376139Y-93030222D01*
X137367552Y-93024517D01*
X137181117Y-92921599D01*
X137171705Y-92917369D01*
X136970959Y-92846280D01*
X136960988Y-92843646D01*
X136889837Y-92830972D01*
X136876540Y-92832432D01*
X136872000Y-92846989D01*
X136872000Y-95480517D01*
X136364000Y-95480517D01*
X136364000Y-94434115D01*
X136359525Y-94418876D01*
X136358135Y-94417671D01*
X136350452Y-94416000D01*
X135301225Y-94416000D01*
X135287694Y-94419973D01*
X135286257Y-94429966D01*
X131694601Y-94429966D01*
X131711460Y-94162000D01*
X131694737Y-93896183D01*
X135282389Y-93896183D01*
X135283912Y-93904607D01*
X135296292Y-93908000D01*
X136345885Y-93908000D01*
X136361124Y-93903525D01*
X136362329Y-93902135D01*
X136364000Y-93894452D01*
X136364000Y-92845102D01*
X136360082Y-92831758D01*
X136345806Y-92829771D01*
X136307324Y-92835660D01*
X136297288Y-92838051D01*
X136094868Y-92904212D01*
X136085359Y-92908209D01*
X135896463Y-93006542D01*
X135887738Y-93012036D01*
X135717433Y-93139905D01*
X135709726Y-93146748D01*
X135562590Y-93300717D01*
X135556104Y-93308727D01*
X135436098Y-93484649D01*
X135431000Y-93493623D01*
X135341338Y-93686783D01*
X135337775Y-93696470D01*
X135282389Y-93896183D01*
X131694737Y-93896183D01*
X131691641Y-93846980D01*
X131632495Y-93536928D01*
X131534956Y-93236734D01*
X131521528Y-93208198D01*
X131402250Y-92954717D01*
X131402246Y-92954710D01*
X131400562Y-92951131D01*
X131231432Y-92684625D01*
X131044526Y-92458695D01*
X131032758Y-92444470D01*
X131032757Y-92444469D01*
X131030233Y-92441418D01*
X130800140Y-92225346D01*
X130781130Y-92211534D01*
X130735173Y-92178145D01*
X130544779Y-92039816D01*
X130532127Y-92032860D01*
X130271648Y-91889660D01*
X130271647Y-91889659D01*
X130268179Y-91887753D01*
X130264510Y-91886300D01*
X130264505Y-91886298D01*
X129978372Y-91773010D01*
X129978371Y-91773010D01*
X129974702Y-91771557D01*
X129668975Y-91693060D01*
X129355821Y-91653500D01*
X129040179Y-91653500D01*
X128727025Y-91693060D01*
X128421298Y-91771557D01*
X128417629Y-91773010D01*
X128417628Y-91773010D01*
X128131495Y-91886298D01*
X128131490Y-91886300D01*
X128127821Y-91887753D01*
X128124353Y-91889659D01*
X128124352Y-91889660D01*
X127863874Y-92032860D01*
X127851221Y-92039816D01*
X127660827Y-92178145D01*
X127614871Y-92211534D01*
X127595860Y-92225346D01*
X127365767Y-92441418D01*
X127363243Y-92444469D01*
X127363242Y-92444470D01*
X127351474Y-92458695D01*
X127164568Y-92684625D01*
X126995438Y-92951131D01*
X126993754Y-92954710D01*
X126993750Y-92954717D01*
X126874472Y-93208198D01*
X126861044Y-93236734D01*
X126763505Y-93536928D01*
X126704359Y-93846980D01*
X126684540Y-94162000D01*
X122428000Y-94162000D01*
X122428000Y-89478062D01*
X144820493Y-89478062D01*
X144829789Y-89490077D01*
X144880994Y-89525931D01*
X144890489Y-89531414D01*
X145087947Y-89623490D01*
X145098239Y-89627236D01*
X145308688Y-89683625D01*
X145319481Y-89685528D01*
X145536525Y-89704517D01*
X145547475Y-89704517D01*
X145764519Y-89685528D01*
X145775312Y-89683625D01*
X145985761Y-89627236D01*
X145996053Y-89623490D01*
X146193511Y-89531414D01*
X146203006Y-89525931D01*
X146255048Y-89489491D01*
X146263424Y-89479012D01*
X146256356Y-89465566D01*
X145554812Y-88764022D01*
X145540868Y-88756408D01*
X145539035Y-88756539D01*
X145532420Y-88760790D01*
X144826923Y-89466287D01*
X144820493Y-89478062D01*
X122428000Y-89478062D01*
X122428000Y-88397475D01*
X144229483Y-88397475D01*
X144248472Y-88614519D01*
X144250375Y-88625312D01*
X144306764Y-88835761D01*
X144310510Y-88846053D01*
X144402586Y-89043511D01*
X144408069Y-89053006D01*
X144444509Y-89105048D01*
X144454988Y-89113424D01*
X144468434Y-89106356D01*
X145169978Y-88404812D01*
X145176356Y-88393132D01*
X145906408Y-88393132D01*
X145906539Y-88394965D01*
X145910790Y-88401580D01*
X146616287Y-89107077D01*
X146628062Y-89113507D01*
X146640077Y-89104211D01*
X146675931Y-89053006D01*
X146681414Y-89043511D01*
X146773490Y-88846053D01*
X146777236Y-88835761D01*
X146833625Y-88625312D01*
X146835528Y-88614519D01*
X146854517Y-88397475D01*
X146854517Y-88386525D01*
X146835528Y-88169481D01*
X146833625Y-88158688D01*
X146777236Y-87948239D01*
X146773490Y-87937947D01*
X146681414Y-87740489D01*
X146675931Y-87730994D01*
X146639491Y-87678952D01*
X146629012Y-87670576D01*
X146615566Y-87677644D01*
X145914022Y-88379188D01*
X145906408Y-88393132D01*
X145176356Y-88393132D01*
X145177592Y-88390868D01*
X145177461Y-88389035D01*
X145173210Y-88382420D01*
X144467713Y-87676923D01*
X144455938Y-87670493D01*
X144443923Y-87679789D01*
X144408069Y-87730994D01*
X144402586Y-87740489D01*
X144310510Y-87937947D01*
X144306764Y-87948239D01*
X144250375Y-88158688D01*
X144248472Y-88169481D01*
X144229483Y-88386525D01*
X144229483Y-88397475D01*
X122428000Y-88397475D01*
X122428000Y-87304988D01*
X144820576Y-87304988D01*
X144827644Y-87318434D01*
X145529188Y-88019978D01*
X145543132Y-88027592D01*
X145544965Y-88027461D01*
X145551580Y-88023210D01*
X146257077Y-87317713D01*
X146263507Y-87305938D01*
X146254211Y-87293923D01*
X146203006Y-87258069D01*
X146193511Y-87252586D01*
X145996053Y-87160510D01*
X145985761Y-87156764D01*
X145775312Y-87100375D01*
X145764519Y-87098472D01*
X145547475Y-87079483D01*
X145536525Y-87079483D01*
X145319481Y-87098472D01*
X145308688Y-87100375D01*
X145098239Y-87156764D01*
X145087947Y-87160510D01*
X144890489Y-87252586D01*
X144880994Y-87258069D01*
X144828952Y-87294509D01*
X144820576Y-87304988D01*
X122428000Y-87304988D01*
X122428000Y-75692000D01*
X144228502Y-75692000D01*
X144248457Y-75920087D01*
X144249881Y-75925400D01*
X144249881Y-75925402D01*
X144301408Y-76117700D01*
X144307716Y-76141243D01*
X144310039Y-76146224D01*
X144310039Y-76146225D01*
X144402151Y-76343762D01*
X144402154Y-76343767D01*
X144404477Y-76348749D01*
X144407634Y-76353257D01*
X144515829Y-76507775D01*
X144535802Y-76536300D01*
X144697700Y-76698198D01*
X144702208Y-76701355D01*
X144702211Y-76701357D01*
X144748706Y-76733913D01*
X144885251Y-76829523D01*
X144890233Y-76831846D01*
X144890238Y-76831849D01*
X145087775Y-76923961D01*
X145092757Y-76926284D01*
X145098065Y-76927706D01*
X145098067Y-76927707D01*
X145308598Y-76984119D01*
X145308600Y-76984119D01*
X145313913Y-76985543D01*
X145542000Y-77005498D01*
X145770087Y-76985543D01*
X145775400Y-76984119D01*
X145775402Y-76984119D01*
X145985933Y-76927707D01*
X145985935Y-76927706D01*
X145991243Y-76926284D01*
X145996225Y-76923961D01*
X146193762Y-76831849D01*
X146193767Y-76831846D01*
X146198749Y-76829523D01*
X146335294Y-76733913D01*
X146381789Y-76701357D01*
X146381792Y-76701355D01*
X146386300Y-76698198D01*
X146548198Y-76536300D01*
X146568172Y-76507775D01*
X146676366Y-76353257D01*
X146679523Y-76348749D01*
X146681846Y-76343767D01*
X146681849Y-76343762D01*
X146773961Y-76146225D01*
X146773961Y-76146224D01*
X146776284Y-76141243D01*
X146782593Y-76117700D01*
X146834119Y-75925402D01*
X146834119Y-75925400D01*
X146835543Y-75920087D01*
X146855498Y-75692000D01*
X146835543Y-75463913D01*
X146834119Y-75458598D01*
X146777707Y-75248067D01*
X146777706Y-75248065D01*
X146776284Y-75242757D01*
X146738179Y-75161040D01*
X146681849Y-75040238D01*
X146681846Y-75040233D01*
X146679523Y-75035251D01*
X146598023Y-74918857D01*
X146551357Y-74852211D01*
X146551355Y-74852208D01*
X146548198Y-74847700D01*
X146386300Y-74685802D01*
X146381792Y-74682645D01*
X146381789Y-74682643D01*
X146303611Y-74627902D01*
X146198749Y-74554477D01*
X146193767Y-74552154D01*
X146193762Y-74552151D01*
X145996225Y-74460039D01*
X145996224Y-74460039D01*
X145991243Y-74457716D01*
X145985935Y-74456294D01*
X145985933Y-74456293D01*
X145775402Y-74399881D01*
X145775400Y-74399881D01*
X145770087Y-74398457D01*
X145542000Y-74378502D01*
X145313913Y-74398457D01*
X145308600Y-74399881D01*
X145308598Y-74399881D01*
X145098067Y-74456293D01*
X145098065Y-74456294D01*
X145092757Y-74457716D01*
X145087776Y-74460039D01*
X145087775Y-74460039D01*
X144890238Y-74552151D01*
X144890233Y-74552154D01*
X144885251Y-74554477D01*
X144780389Y-74627902D01*
X144702211Y-74682643D01*
X144702208Y-74682645D01*
X144697700Y-74685802D01*
X144535802Y-74847700D01*
X144532645Y-74852208D01*
X144532643Y-74852211D01*
X144485977Y-74918857D01*
X144404477Y-75035251D01*
X144402154Y-75040233D01*
X144402151Y-75040238D01*
X144345821Y-75161040D01*
X144307716Y-75242757D01*
X144306294Y-75248065D01*
X144306293Y-75248067D01*
X144249881Y-75458598D01*
X144248457Y-75463913D01*
X144228502Y-75692000D01*
X122428000Y-75692000D01*
X122428000Y-51130887D01*
X124509837Y-51130887D01*
X124524063Y-51347933D01*
X124525484Y-51353529D01*
X124525485Y-51353534D01*
X124576184Y-51553158D01*
X124577605Y-51558753D01*
X124668668Y-51756285D01*
X124764630Y-51892068D01*
X124787610Y-51959240D01*
X124770626Y-52028175D01*
X124737297Y-52065612D01*
X124666920Y-52118357D01*
X124659739Y-52123739D01*
X124572385Y-52240295D01*
X124521255Y-52376684D01*
X124514500Y-52438866D01*
X124514500Y-53885134D01*
X124521255Y-53947316D01*
X124572385Y-54083705D01*
X124659739Y-54200261D01*
X124776295Y-54287615D01*
X124912684Y-54338745D01*
X124974866Y-54345500D01*
X126421134Y-54345500D01*
X126483316Y-54338745D01*
X126619705Y-54287615D01*
X126736261Y-54200261D01*
X126823615Y-54083705D01*
X126874745Y-53947316D01*
X126881500Y-53885134D01*
X126881500Y-52438866D01*
X126874745Y-52376684D01*
X126823615Y-52240295D01*
X126736261Y-52123739D01*
X126658322Y-52065327D01*
X126615807Y-52008468D01*
X126610781Y-51937649D01*
X126637013Y-51883932D01*
X126673834Y-51839659D01*
X126677532Y-51835213D01*
X126783813Y-51645435D01*
X126785669Y-51639968D01*
X126785671Y-51639963D01*
X126851874Y-51444935D01*
X126851875Y-51444930D01*
X126853730Y-51439466D01*
X126884941Y-51224205D01*
X126886570Y-51162000D01*
X126866667Y-50945400D01*
X126807626Y-50736055D01*
X126711423Y-50540974D01*
X126581280Y-50366691D01*
X126421556Y-50219044D01*
X126237599Y-50102976D01*
X126035572Y-50022376D01*
X125822239Y-49979941D01*
X125816464Y-49979865D01*
X125816460Y-49979865D01*
X125707419Y-49978438D01*
X125604746Y-49977094D01*
X125599049Y-49978073D01*
X125599048Y-49978073D01*
X125396065Y-50012952D01*
X125396062Y-50012953D01*
X125390375Y-50013930D01*
X125186307Y-50089214D01*
X124999376Y-50200427D01*
X124835842Y-50343842D01*
X124701181Y-50514658D01*
X124599905Y-50707154D01*
X124535403Y-50914882D01*
X124509837Y-51130887D01*
X122428000Y-51130887D01*
X122428000Y-48894000D01*
X122448002Y-48825879D01*
X122501658Y-48779386D01*
X122554000Y-48768000D01*
X197486000Y-48768000D01*
X197554121Y-48788002D01*
G37*
G04 #@! TD.AperFunction*
M02*
