G04 #@! TF.GenerationSoftware,KiCad,Pcbnew,(6.0.2)*
G04 #@! TF.CreationDate,2023-01-26T14:22:11+00:00*
G04 #@! TF.ProjectId,bomb-diffusal-maze,626f6d62-2d64-4696-9666-7573616c2d6d,rev?*
G04 #@! TF.SameCoordinates,Original*
G04 #@! TF.FileFunction,Soldermask,Top*
G04 #@! TF.FilePolarity,Negative*
%FSLAX46Y46*%
G04 Gerber Fmt 4.6, Leading zero omitted, Abs format (unit mm)*
G04 Created by KiCad (PCBNEW (6.0.2)) date 2023-01-26 14:22:11*
%MOMM*%
%LPD*%
G01*
G04 APERTURE LIST*
G04 Aperture macros list*
%AMRoundRect*
0 Rectangle with rounded corners*
0 $1 Rounding radius*
0 $2 $3 $4 $5 $6 $7 $8 $9 X,Y pos of 4 corners*
0 Add a 4 corners polygon primitive as box body*
4,1,4,$2,$3,$4,$5,$6,$7,$8,$9,$2,$3,0*
0 Add four circle primitives for the rounded corners*
1,1,$1+$1,$2,$3*
1,1,$1+$1,$4,$5*
1,1,$1+$1,$6,$7*
1,1,$1+$1,$8,$9*
0 Add four rect primitives between the rounded corners*
20,1,$1+$1,$2,$3,$4,$5,0*
20,1,$1+$1,$4,$5,$6,$7,0*
20,1,$1+$1,$6,$7,$8,$9,0*
20,1,$1+$1,$8,$9,$2,$3,0*%
G04 Aperture macros list end*
%ADD10R,1.700000X1.700000*%
%ADD11O,1.700000X1.700000*%
%ADD12RoundRect,0.166666X-0.433334X0.233334X-0.433334X-0.233334X0.433334X-0.233334X0.433334X0.233334X0*%
%ADD13O,1.200000X0.800000*%
%ADD14C,1.600000*%
%ADD15O,1.600000X1.600000*%
%ADD16C,4.000000*%
%ADD17R,1.350000X1.350000*%
%ADD18O,1.350000X1.350000*%
%ADD19R,1.600000X1.600000*%
G04 APERTURE END LIST*
D10*
X174498000Y-76962000D03*
D11*
X174498000Y-74422000D03*
X174498000Y-71882000D03*
X174498000Y-69342000D03*
X174498000Y-66802000D03*
D12*
X176784000Y-104140000D03*
D13*
X176784000Y-105390000D03*
X176784000Y-106640000D03*
X176784000Y-107890000D03*
X176784000Y-109140000D03*
X176784000Y-110390000D03*
D10*
X141698000Y-94162000D03*
D11*
X139158000Y-94162000D03*
X136618000Y-94162000D03*
D14*
X145542000Y-88392000D03*
D15*
X145542000Y-75692000D03*
D16*
X190948000Y-94162000D03*
D17*
X125698000Y-53162000D03*
D18*
X125698000Y-51162000D03*
D19*
X166614000Y-102362000D03*
D15*
X166614000Y-99822000D03*
X166614000Y-97282000D03*
X166614000Y-94742000D03*
X166614000Y-92202000D03*
X166614000Y-89662000D03*
X166614000Y-87122000D03*
X166614000Y-84582000D03*
X166614000Y-82042000D03*
X166614000Y-79502000D03*
X166614000Y-76962000D03*
X166614000Y-74422000D03*
X166614000Y-71882000D03*
X166614000Y-69342000D03*
X166614000Y-66802000D03*
X151374000Y-66802000D03*
X151374000Y-69342000D03*
X151374000Y-71882000D03*
X151374000Y-74422000D03*
X151374000Y-76962000D03*
X151374000Y-79502000D03*
X151374000Y-82042000D03*
X151374000Y-84582000D03*
X151374000Y-87122000D03*
X151374000Y-89662000D03*
X151374000Y-92202000D03*
X151374000Y-94742000D03*
X151374000Y-97282000D03*
X151374000Y-99822000D03*
X151374000Y-102362000D03*
D16*
X129198000Y-94162000D03*
D12*
X139700000Y-104140000D03*
D13*
X139700000Y-105390000D03*
X139700000Y-106640000D03*
X139700000Y-107890000D03*
X139700000Y-109140000D03*
X139700000Y-110390000D03*
M02*
