G04 #@! TF.GenerationSoftware,KiCad,Pcbnew,(6.0.2)*
G04 #@! TF.CreationDate,2023-01-26T14:22:11+00:00*
G04 #@! TF.ProjectId,bomb-diffusal-maze,626f6d62-2d64-4696-9666-7573616c2d6d,rev?*
G04 #@! TF.SameCoordinates,Original*
G04 #@! TF.FileFunction,Legend,Top*
G04 #@! TF.FilePolarity,Positive*
%FSLAX46Y46*%
G04 Gerber Fmt 4.6, Leading zero omitted, Abs format (unit mm)*
G04 Created by KiCad (PCBNEW (6.0.2)) date 2023-01-26 14:22:11*
%MOMM*%
%LPD*%
G01*
G04 APERTURE LIST*
G04 Aperture macros list*
%AMRoundRect*
0 Rectangle with rounded corners*
0 $1 Rounding radius*
0 $2 $3 $4 $5 $6 $7 $8 $9 X,Y pos of 4 corners*
0 Add a 4 corners polygon primitive as box body*
4,1,4,$2,$3,$4,$5,$6,$7,$8,$9,$2,$3,0*
0 Add four circle primitives for the rounded corners*
1,1,$1+$1,$2,$3*
1,1,$1+$1,$4,$5*
1,1,$1+$1,$6,$7*
1,1,$1+$1,$8,$9*
0 Add four rect primitives between the rounded corners*
20,1,$1+$1,$2,$3,$4,$5,0*
20,1,$1+$1,$4,$5,$6,$7,0*
20,1,$1+$1,$6,$7,$8,$9,0*
20,1,$1+$1,$8,$9,$2,$3,0*%
G04 Aperture macros list end*
%ADD10C,0.300000*%
%ADD11C,0.150000*%
%ADD12C,0.120000*%
%ADD13R,1.700000X1.700000*%
%ADD14O,1.700000X1.700000*%
%ADD15RoundRect,0.166666X-0.433334X0.233334X-0.433334X-0.233334X0.433334X-0.233334X0.433334X0.233334X0*%
%ADD16O,1.200000X0.800000*%
%ADD17C,1.600000*%
%ADD18O,1.600000X1.600000*%
%ADD19C,4.000000*%
%ADD20R,1.350000X1.350000*%
%ADD21O,1.350000X1.350000*%
%ADD22R,1.600000X1.600000*%
G04 APERTURE END LIST*
D10*
X180824857Y-53256571D02*
X180824857Y-51756571D01*
X181324857Y-52828000D01*
X181824857Y-51756571D01*
X181824857Y-53256571D01*
X183182000Y-53256571D02*
X183182000Y-52470857D01*
X183110571Y-52328000D01*
X182967714Y-52256571D01*
X182682000Y-52256571D01*
X182539142Y-52328000D01*
X183182000Y-53185142D02*
X183039142Y-53256571D01*
X182682000Y-53256571D01*
X182539142Y-53185142D01*
X182467714Y-53042285D01*
X182467714Y-52899428D01*
X182539142Y-52756571D01*
X182682000Y-52685142D01*
X183039142Y-52685142D01*
X183182000Y-52613714D01*
X183753428Y-52256571D02*
X184539142Y-52256571D01*
X183753428Y-53256571D01*
X184539142Y-53256571D01*
X185682000Y-53185142D02*
X185539142Y-53256571D01*
X185253428Y-53256571D01*
X185110571Y-53185142D01*
X185039142Y-53042285D01*
X185039142Y-52470857D01*
X185110571Y-52328000D01*
X185253428Y-52256571D01*
X185539142Y-52256571D01*
X185682000Y-52328000D01*
X185753428Y-52470857D01*
X185753428Y-52613714D01*
X185039142Y-52756571D01*
X187396285Y-52256571D02*
X187753428Y-53256571D01*
X188110571Y-52256571D01*
X189467714Y-53256571D02*
X188610571Y-53256571D01*
X189039142Y-53256571D02*
X189039142Y-51756571D01*
X188896285Y-51970857D01*
X188753428Y-52113714D01*
X188610571Y-52185142D01*
X190110571Y-53113714D02*
X190182000Y-53185142D01*
X190110571Y-53256571D01*
X190039142Y-53185142D01*
X190110571Y-53113714D01*
X190110571Y-53256571D01*
X191110571Y-51756571D02*
X191253428Y-51756571D01*
X191396285Y-51828000D01*
X191467714Y-51899428D01*
X191539142Y-52042285D01*
X191610571Y-52328000D01*
X191610571Y-52685142D01*
X191539142Y-52970857D01*
X191467714Y-53113714D01*
X191396285Y-53185142D01*
X191253428Y-53256571D01*
X191110571Y-53256571D01*
X190967714Y-53185142D01*
X190896285Y-53113714D01*
X190824857Y-52970857D01*
X190753428Y-52685142D01*
X190753428Y-52328000D01*
X190824857Y-52042285D01*
X190896285Y-51899428D01*
X190967714Y-51828000D01*
X191110571Y-51756571D01*
D11*
X145994380Y-81954666D02*
X145518190Y-82288000D01*
X145994380Y-82526095D02*
X144994380Y-82526095D01*
X144994380Y-82145142D01*
X145042000Y-82049904D01*
X145089619Y-82002285D01*
X145184857Y-81954666D01*
X145327714Y-81954666D01*
X145422952Y-82002285D01*
X145470571Y-82049904D01*
X145518190Y-82145142D01*
X145518190Y-82526095D01*
X145994380Y-81002285D02*
X145994380Y-81573714D01*
X145994380Y-81288000D02*
X144994380Y-81288000D01*
X145137238Y-81383238D01*
X145232476Y-81478476D01*
X145280095Y-81573714D01*
D12*
X175828000Y-75692000D02*
X175828000Y-65472000D01*
X175828000Y-78292000D02*
X174498000Y-78292000D01*
X175828000Y-76962000D02*
X175828000Y-78292000D01*
X173168000Y-75692000D02*
X173168000Y-65472000D01*
X175828000Y-65472000D02*
X173168000Y-65472000D01*
X175828000Y-75692000D02*
X173168000Y-75692000D01*
X177184000Y-111995000D02*
X177184000Y-111385000D01*
X178484000Y-111995000D02*
X178484000Y-111385000D01*
X178934000Y-103200000D02*
X175634000Y-103200000D01*
X179194000Y-103580000D02*
X179194000Y-102330000D01*
X179144000Y-103840000D02*
X179144000Y-103540000D01*
X179144000Y-103540000D02*
X178944000Y-103540000D01*
X178434000Y-102590000D02*
X178434000Y-103200000D01*
X178984000Y-111350000D02*
X175634000Y-111350000D01*
X178944000Y-112040000D02*
X178934000Y-102590000D01*
X175634000Y-112040000D02*
X178944000Y-112040000D01*
X179044000Y-103840000D02*
X179044000Y-103540000D01*
X175634000Y-112040000D02*
X175634000Y-102590000D01*
X177134000Y-102590000D02*
X177134000Y-103200000D01*
X179194000Y-102330000D02*
X177944000Y-102330000D01*
X178944000Y-103840000D02*
X179144000Y-103840000D01*
X178934000Y-102590000D02*
X175634000Y-102590000D01*
X143028000Y-92832000D02*
X143028000Y-94162000D01*
X135288000Y-92832000D02*
X135288000Y-95492000D01*
X141698000Y-92832000D02*
X143028000Y-92832000D01*
X140428000Y-92832000D02*
X135288000Y-92832000D01*
X140428000Y-92832000D02*
X140428000Y-95492000D01*
X140428000Y-95492000D02*
X135288000Y-95492000D01*
X147262000Y-86662000D02*
X147262000Y-77422000D01*
X143822000Y-77422000D02*
X143822000Y-86662000D01*
X147262000Y-77422000D02*
X143822000Y-77422000D01*
X143822000Y-86662000D02*
X147262000Y-86662000D01*
X145542000Y-87352000D02*
X145542000Y-86662000D01*
X145542000Y-76732000D02*
X145542000Y-77422000D01*
X126758000Y-52162000D02*
X124638000Y-52162000D01*
X126758000Y-54222000D02*
X125698000Y-54222000D01*
X126758000Y-50102000D02*
X124638000Y-50102000D01*
X126758000Y-53162000D02*
X126758000Y-54222000D01*
X124638000Y-52162000D02*
X124638000Y-50102000D01*
X126758000Y-52162000D02*
X126758000Y-50102000D01*
X152644000Y-103632000D02*
X149974000Y-103632000D01*
X168014000Y-106302000D02*
X168014000Y-103632000D01*
X165344000Y-101092000D02*
X165344000Y-65532000D01*
X165344000Y-101092000D02*
X165344000Y-103632000D01*
X168014000Y-101092000D02*
X168014000Y-62862000D01*
X149974000Y-62862000D02*
X149974000Y-106302000D01*
X165344000Y-101092000D02*
X168014000Y-101092000D01*
X152644000Y-103632000D02*
X152644000Y-65532000D01*
X168014000Y-62862000D02*
X149974000Y-62862000D01*
X152644000Y-65532000D02*
X149974000Y-65532000D01*
X165344000Y-103632000D02*
X168014000Y-103632000D01*
X149974000Y-106302000D02*
X168014000Y-106302000D01*
X165344000Y-65532000D02*
X168014000Y-65532000D01*
X141960000Y-103840000D02*
X141960000Y-103540000D01*
X141400000Y-111995000D02*
X141400000Y-111385000D01*
X138550000Y-112040000D02*
X141860000Y-112040000D01*
X141860000Y-103840000D02*
X142060000Y-103840000D01*
X141900000Y-111350000D02*
X138550000Y-111350000D01*
X141850000Y-102590000D02*
X138550000Y-102590000D01*
X142110000Y-102330000D02*
X140860000Y-102330000D01*
X142060000Y-103840000D02*
X142060000Y-103540000D01*
X141850000Y-103200000D02*
X138550000Y-103200000D01*
X138550000Y-112040000D02*
X138550000Y-102590000D01*
X140050000Y-102590000D02*
X140050000Y-103200000D01*
X140100000Y-111995000D02*
X140100000Y-111385000D01*
X141350000Y-102590000D02*
X141350000Y-103200000D01*
X142060000Y-103540000D02*
X141860000Y-103540000D01*
X142110000Y-103580000D02*
X142110000Y-102330000D01*
X141860000Y-112040000D02*
X141850000Y-102590000D01*
%LPC*%
D13*
X174498000Y-76962000D03*
D14*
X174498000Y-74422000D03*
X174498000Y-71882000D03*
X174498000Y-69342000D03*
X174498000Y-66802000D03*
D15*
X176784000Y-104140000D03*
D16*
X176784000Y-105390000D03*
X176784000Y-106640000D03*
X176784000Y-107890000D03*
X176784000Y-109140000D03*
X176784000Y-110390000D03*
D13*
X141698000Y-94162000D03*
D14*
X139158000Y-94162000D03*
X136618000Y-94162000D03*
D17*
X145542000Y-88392000D03*
D18*
X145542000Y-75692000D03*
D19*
X190948000Y-94162000D03*
D20*
X125698000Y-53162000D03*
D21*
X125698000Y-51162000D03*
D22*
X166614000Y-102362000D03*
D18*
X166614000Y-99822000D03*
X166614000Y-97282000D03*
X166614000Y-94742000D03*
X166614000Y-92202000D03*
X166614000Y-89662000D03*
X166614000Y-87122000D03*
X166614000Y-84582000D03*
X166614000Y-82042000D03*
X166614000Y-79502000D03*
X166614000Y-76962000D03*
X166614000Y-74422000D03*
X166614000Y-71882000D03*
X166614000Y-69342000D03*
X166614000Y-66802000D03*
X151374000Y-66802000D03*
X151374000Y-69342000D03*
X151374000Y-71882000D03*
X151374000Y-74422000D03*
X151374000Y-76962000D03*
X151374000Y-79502000D03*
X151374000Y-82042000D03*
X151374000Y-84582000D03*
X151374000Y-87122000D03*
X151374000Y-89662000D03*
X151374000Y-92202000D03*
X151374000Y-94742000D03*
X151374000Y-97282000D03*
X151374000Y-99822000D03*
X151374000Y-102362000D03*
D19*
X129198000Y-94162000D03*
D15*
X139700000Y-104140000D03*
D16*
X139700000Y-105390000D03*
X139700000Y-106640000D03*
X139700000Y-107890000D03*
X139700000Y-109140000D03*
X139700000Y-110390000D03*
M02*
