G04 #@! TF.GenerationSoftware,KiCad,Pcbnew,(6.0.2)*
G04 #@! TF.CreationDate,2023-01-26T14:22:11+00:00*
G04 #@! TF.ProjectId,bomb-diffusal-maze,626f6d62-2d64-4696-9666-7573616c2d6d,rev?*
G04 #@! TF.SameCoordinates,Original*
G04 #@! TF.FileFunction,Copper,L2,Bot*
G04 #@! TF.FilePolarity,Positive*
%FSLAX46Y46*%
G04 Gerber Fmt 4.6, Leading zero omitted, Abs format (unit mm)*
G04 Created by KiCad (PCBNEW (6.0.2)) date 2023-01-26 14:22:11*
%MOMM*%
%LPD*%
G01*
G04 APERTURE LIST*
G04 Aperture macros list*
%AMRoundRect*
0 Rectangle with rounded corners*
0 $1 Rounding radius*
0 $2 $3 $4 $5 $6 $7 $8 $9 X,Y pos of 4 corners*
0 Add a 4 corners polygon primitive as box body*
4,1,4,$2,$3,$4,$5,$6,$7,$8,$9,$2,$3,0*
0 Add four circle primitives for the rounded corners*
1,1,$1+$1,$2,$3*
1,1,$1+$1,$4,$5*
1,1,$1+$1,$6,$7*
1,1,$1+$1,$8,$9*
0 Add four rect primitives between the rounded corners*
20,1,$1+$1,$2,$3,$4,$5,0*
20,1,$1+$1,$4,$5,$6,$7,0*
20,1,$1+$1,$6,$7,$8,$9,0*
20,1,$1+$1,$8,$9,$2,$3,0*%
G04 Aperture macros list end*
G04 #@! TA.AperFunction,ComponentPad*
%ADD10R,1.700000X1.700000*%
G04 #@! TD*
G04 #@! TA.AperFunction,ComponentPad*
%ADD11O,1.700000X1.700000*%
G04 #@! TD*
G04 #@! TA.AperFunction,ComponentPad*
%ADD12RoundRect,0.166666X-0.433334X0.233334X-0.433334X-0.233334X0.433334X-0.233334X0.433334X0.233334X0*%
G04 #@! TD*
G04 #@! TA.AperFunction,ComponentPad*
%ADD13O,1.200000X0.800000*%
G04 #@! TD*
G04 #@! TA.AperFunction,ComponentPad*
%ADD14C,1.600000*%
G04 #@! TD*
G04 #@! TA.AperFunction,ComponentPad*
%ADD15O,1.600000X1.600000*%
G04 #@! TD*
G04 #@! TA.AperFunction,WasherPad*
%ADD16C,4.000000*%
G04 #@! TD*
G04 #@! TA.AperFunction,ComponentPad*
%ADD17R,1.350000X1.350000*%
G04 #@! TD*
G04 #@! TA.AperFunction,ComponentPad*
%ADD18O,1.350000X1.350000*%
G04 #@! TD*
G04 #@! TA.AperFunction,ComponentPad*
%ADD19R,1.600000X1.600000*%
G04 #@! TD*
G04 #@! TA.AperFunction,ViaPad*
%ADD20C,0.800000*%
G04 #@! TD*
G04 #@! TA.AperFunction,Conductor*
%ADD21C,1.000000*%
G04 #@! TD*
G04 #@! TA.AperFunction,Conductor*
%ADD22C,0.800000*%
G04 #@! TD*
G04 APERTURE END LIST*
D10*
X174498000Y-76962000D03*
D11*
X174498000Y-74422000D03*
X174498000Y-71882000D03*
X174498000Y-69342000D03*
X174498000Y-66802000D03*
D12*
X176784000Y-104140000D03*
D13*
X176784000Y-105390000D03*
X176784000Y-106640000D03*
X176784000Y-107890000D03*
X176784000Y-109140000D03*
X176784000Y-110390000D03*
D10*
X141698000Y-94162000D03*
D11*
X139158000Y-94162000D03*
X136618000Y-94162000D03*
D14*
X145542000Y-88392000D03*
D15*
X145542000Y-75692000D03*
D16*
X190948000Y-94162000D03*
D17*
X125698000Y-53162000D03*
D18*
X125698000Y-51162000D03*
D19*
X166614000Y-102362000D03*
D15*
X166614000Y-99822000D03*
X166614000Y-97282000D03*
X166614000Y-94742000D03*
X166614000Y-92202000D03*
X166614000Y-89662000D03*
X166614000Y-87122000D03*
X166614000Y-84582000D03*
X166614000Y-82042000D03*
X166614000Y-79502000D03*
X166614000Y-76962000D03*
X166614000Y-74422000D03*
X166614000Y-71882000D03*
X166614000Y-69342000D03*
X166614000Y-66802000D03*
X151374000Y-66802000D03*
X151374000Y-69342000D03*
X151374000Y-71882000D03*
X151374000Y-74422000D03*
X151374000Y-76962000D03*
X151374000Y-79502000D03*
X151374000Y-82042000D03*
X151374000Y-84582000D03*
X151374000Y-87122000D03*
X151374000Y-89662000D03*
X151374000Y-92202000D03*
X151374000Y-94742000D03*
X151374000Y-97282000D03*
X151374000Y-99822000D03*
X151374000Y-102362000D03*
D16*
X129198000Y-94162000D03*
D12*
X139700000Y-104140000D03*
D13*
X139700000Y-105390000D03*
X139700000Y-106640000D03*
X139700000Y-107890000D03*
X139700000Y-109140000D03*
X139700000Y-110390000D03*
D20*
X163322000Y-109220000D03*
X159512000Y-106680000D03*
X157032000Y-107890000D03*
D21*
X139700000Y-105390000D02*
X176784000Y-105390000D01*
D22*
X141698000Y-94162000D02*
X141698000Y-85632000D01*
X147828000Y-79502000D02*
X151374000Y-79502000D01*
X141698000Y-85632000D02*
X147828000Y-79502000D01*
X145542000Y-75692000D02*
X145542000Y-73006000D01*
X145542000Y-73006000D02*
X125698000Y-53162000D01*
X166614000Y-71882000D02*
X174498000Y-71882000D01*
X139700000Y-109140000D02*
X176784000Y-109140000D01*
X139700000Y-106640000D02*
X176784000Y-106640000D01*
X157032000Y-107890000D02*
X176784000Y-107890000D01*
X139700000Y-107890000D02*
X157032000Y-107890000D01*
D21*
X141478000Y-102362000D02*
X151374000Y-102362000D01*
X151374000Y-102362000D02*
X153152000Y-104140000D01*
X153152000Y-104140000D02*
X176784000Y-104140000D01*
X139700000Y-104140000D02*
X139158000Y-103598000D01*
X174498000Y-66802000D02*
X176784000Y-69088000D01*
X139700000Y-104140000D02*
X141478000Y-102362000D01*
X139158000Y-103598000D02*
X139158000Y-94162000D01*
X176784000Y-69088000D02*
X176784000Y-104140000D01*
D22*
X139700000Y-110390000D02*
X176784000Y-110390000D01*
X126652594Y-51162000D02*
X125698000Y-51162000D01*
X151374000Y-76962000D02*
X127762000Y-53350000D01*
X127762000Y-52271406D02*
X126652594Y-51162000D01*
X127762000Y-53350000D02*
X127762000Y-52271406D01*
G04 #@! TA.AperFunction,Conductor*
G36*
X197554121Y-48788002D02*
G01*
X197600614Y-48841658D01*
X197612000Y-48894000D01*
X197612000Y-113666000D01*
X197591998Y-113734121D01*
X197538342Y-113780614D01*
X197486000Y-113792000D01*
X122554000Y-113792000D01*
X122485879Y-113771998D01*
X122439386Y-113718342D01*
X122428000Y-113666000D01*
X122428000Y-110485487D01*
X138591500Y-110485487D01*
X138631206Y-110672288D01*
X138708882Y-110846752D01*
X138821134Y-111001253D01*
X138963056Y-111129040D01*
X139128444Y-111224527D01*
X139310072Y-111283542D01*
X139316633Y-111284232D01*
X139316635Y-111284232D01*
X139369889Y-111289829D01*
X139452390Y-111298500D01*
X177031610Y-111298500D01*
X177114111Y-111289829D01*
X177167365Y-111284232D01*
X177167367Y-111284232D01*
X177173928Y-111283542D01*
X177355556Y-111224527D01*
X177520944Y-111129040D01*
X177662866Y-111001253D01*
X177775118Y-110846752D01*
X177852794Y-110672288D01*
X177892500Y-110485487D01*
X177892500Y-110294513D01*
X177852794Y-110107712D01*
X177775118Y-109933248D01*
X177706687Y-109839061D01*
X177682828Y-109772193D01*
X177698909Y-109703042D01*
X177706687Y-109690939D01*
X177771237Y-109602094D01*
X177771238Y-109602093D01*
X177775118Y-109596752D01*
X177852794Y-109422288D01*
X177892500Y-109235487D01*
X177892500Y-109044513D01*
X177852794Y-108857712D01*
X177775118Y-108683248D01*
X177706687Y-108589061D01*
X177682828Y-108522193D01*
X177698909Y-108453042D01*
X177706687Y-108440939D01*
X177771237Y-108352094D01*
X177771238Y-108352093D01*
X177775118Y-108346752D01*
X177852794Y-108172288D01*
X177892500Y-107985487D01*
X177892500Y-107794513D01*
X177852794Y-107607712D01*
X177775118Y-107433248D01*
X177706687Y-107339061D01*
X177682828Y-107272193D01*
X177698909Y-107203042D01*
X177706687Y-107190939D01*
X177771237Y-107102094D01*
X177771238Y-107102093D01*
X177775118Y-107096752D01*
X177852794Y-106922288D01*
X177892500Y-106735487D01*
X177892500Y-106544513D01*
X177852794Y-106357712D01*
X177775118Y-106183248D01*
X177706377Y-106088634D01*
X177682520Y-106021770D01*
X177698600Y-105952618D01*
X177706378Y-105940515D01*
X177770802Y-105851843D01*
X177777368Y-105840471D01*
X177849633Y-105678161D01*
X177853690Y-105665675D01*
X177854530Y-105661722D01*
X177853457Y-105647659D01*
X177843503Y-105644000D01*
X175727818Y-105644000D01*
X175712579Y-105648475D01*
X175699471Y-105663602D01*
X175688324Y-105688011D01*
X175628599Y-105726396D01*
X175593099Y-105731500D01*
X140892607Y-105731500D01*
X140824486Y-105711498D01*
X140792581Y-105674677D01*
X140791633Y-105675394D01*
X140780897Y-105661193D01*
X140777993Y-105657842D01*
X140777801Y-105657099D01*
X140771129Y-105648274D01*
X140759503Y-105644000D01*
X138643818Y-105644000D01*
X138630287Y-105647973D01*
X138628778Y-105658468D01*
X138630310Y-105665675D01*
X138634367Y-105678161D01*
X138706632Y-105840471D01*
X138713198Y-105851843D01*
X138777622Y-105940515D01*
X138801481Y-106007383D01*
X138785400Y-106076534D01*
X138777634Y-106088620D01*
X138708882Y-106183248D01*
X138631206Y-106357712D01*
X138591500Y-106544513D01*
X138591500Y-106735487D01*
X138631206Y-106922288D01*
X138708882Y-107096752D01*
X138712762Y-107102093D01*
X138712763Y-107102094D01*
X138777313Y-107190939D01*
X138801172Y-107257807D01*
X138785091Y-107326958D01*
X138777313Y-107339061D01*
X138708882Y-107433248D01*
X138631206Y-107607712D01*
X138591500Y-107794513D01*
X138591500Y-107985487D01*
X138631206Y-108172288D01*
X138708882Y-108346752D01*
X138712762Y-108352093D01*
X138712763Y-108352094D01*
X138777313Y-108440939D01*
X138801172Y-108507807D01*
X138785091Y-108576958D01*
X138777313Y-108589061D01*
X138708882Y-108683248D01*
X138631206Y-108857712D01*
X138591500Y-109044513D01*
X138591500Y-109235487D01*
X138631206Y-109422288D01*
X138708882Y-109596752D01*
X138712762Y-109602093D01*
X138712763Y-109602094D01*
X138777313Y-109690939D01*
X138801172Y-109757807D01*
X138785091Y-109826958D01*
X138777313Y-109839061D01*
X138708882Y-109933248D01*
X138631206Y-110107712D01*
X138591500Y-110294513D01*
X138591500Y-110485487D01*
X122428000Y-110485487D01*
X122428000Y-94162000D01*
X126684540Y-94162000D01*
X126704359Y-94477020D01*
X126763505Y-94787072D01*
X126788735Y-94864722D01*
X126848550Y-95048812D01*
X126861044Y-95087266D01*
X126862731Y-95090852D01*
X126862733Y-95090856D01*
X126993750Y-95369283D01*
X126993754Y-95369290D01*
X126995438Y-95372869D01*
X127164568Y-95639375D01*
X127167093Y-95642427D01*
X127360625Y-95876366D01*
X127365767Y-95882582D01*
X127595860Y-96098654D01*
X127851221Y-96284184D01*
X128127821Y-96436247D01*
X128131490Y-96437700D01*
X128131495Y-96437702D01*
X128417628Y-96550990D01*
X128421298Y-96552443D01*
X128727025Y-96630940D01*
X129040179Y-96670500D01*
X129355821Y-96670500D01*
X129668975Y-96630940D01*
X129974702Y-96552443D01*
X129978372Y-96550990D01*
X130264505Y-96437702D01*
X130264510Y-96437700D01*
X130268179Y-96436247D01*
X130544779Y-96284184D01*
X130800140Y-96098654D01*
X131030233Y-95882582D01*
X131035376Y-95876366D01*
X131228907Y-95642427D01*
X131231432Y-95639375D01*
X131400562Y-95372869D01*
X131402246Y-95369290D01*
X131402250Y-95369283D01*
X131533267Y-95090856D01*
X131533269Y-95090852D01*
X131534956Y-95087266D01*
X131547451Y-95048812D01*
X131607265Y-94864722D01*
X131632495Y-94787072D01*
X131691641Y-94477020D01*
X131694601Y-94429966D01*
X135286257Y-94429966D01*
X135316565Y-94564446D01*
X135319645Y-94574275D01*
X135399770Y-94771603D01*
X135404413Y-94780794D01*
X135515694Y-94962388D01*
X135521777Y-94970699D01*
X135661213Y-95131667D01*
X135668580Y-95138883D01*
X135832434Y-95274916D01*
X135840881Y-95280831D01*
X136024756Y-95388279D01*
X136034042Y-95392729D01*
X136233001Y-95468703D01*
X136242899Y-95471579D01*
X136346250Y-95492606D01*
X136360299Y-95491410D01*
X136364000Y-95481065D01*
X136364000Y-94434115D01*
X136359525Y-94418876D01*
X136358135Y-94417671D01*
X136350452Y-94416000D01*
X135301225Y-94416000D01*
X135287694Y-94419973D01*
X135286257Y-94429966D01*
X131694601Y-94429966D01*
X131711460Y-94162000D01*
X131694737Y-93896183D01*
X135282389Y-93896183D01*
X135283912Y-93904607D01*
X135296292Y-93908000D01*
X136345885Y-93908000D01*
X136361124Y-93903525D01*
X136362329Y-93902135D01*
X136364000Y-93894452D01*
X136364000Y-92845102D01*
X136360082Y-92831758D01*
X136345806Y-92829771D01*
X136307324Y-92835660D01*
X136297288Y-92838051D01*
X136094868Y-92904212D01*
X136085359Y-92908209D01*
X135896463Y-93006542D01*
X135887738Y-93012036D01*
X135717433Y-93139905D01*
X135709726Y-93146748D01*
X135562590Y-93300717D01*
X135556104Y-93308727D01*
X135436098Y-93484649D01*
X135431000Y-93493623D01*
X135341338Y-93686783D01*
X135337775Y-93696470D01*
X135282389Y-93896183D01*
X131694737Y-93896183D01*
X131691641Y-93846980D01*
X131632495Y-93536928D01*
X131534956Y-93236734D01*
X131521528Y-93208198D01*
X131402250Y-92954717D01*
X131402246Y-92954710D01*
X131400562Y-92951131D01*
X131231432Y-92684625D01*
X131030233Y-92441418D01*
X130800140Y-92225346D01*
X130544779Y-92039816D01*
X130268179Y-91887753D01*
X130264510Y-91886300D01*
X130264505Y-91886298D01*
X129978372Y-91773010D01*
X129978371Y-91773010D01*
X129974702Y-91771557D01*
X129668975Y-91693060D01*
X129355821Y-91653500D01*
X129040179Y-91653500D01*
X128727025Y-91693060D01*
X128421298Y-91771557D01*
X128417629Y-91773010D01*
X128417628Y-91773010D01*
X128131495Y-91886298D01*
X128131490Y-91886300D01*
X128127821Y-91887753D01*
X127851221Y-92039816D01*
X127595860Y-92225346D01*
X127365767Y-92441418D01*
X127164568Y-92684625D01*
X126995438Y-92951131D01*
X126993754Y-92954710D01*
X126993750Y-92954717D01*
X126874472Y-93208198D01*
X126861044Y-93236734D01*
X126763505Y-93536928D01*
X126704359Y-93846980D01*
X126684540Y-94162000D01*
X122428000Y-94162000D01*
X122428000Y-51130887D01*
X124509837Y-51130887D01*
X124524063Y-51347933D01*
X124577605Y-51558753D01*
X124580022Y-51563996D01*
X124661244Y-51740182D01*
X124668668Y-51756285D01*
X124764630Y-51892068D01*
X124787610Y-51959240D01*
X124770626Y-52028175D01*
X124737297Y-52065612D01*
X124671513Y-52114915D01*
X124659739Y-52123739D01*
X124572385Y-52240295D01*
X124521255Y-52376684D01*
X124514500Y-52438866D01*
X124514500Y-53885134D01*
X124521255Y-53947316D01*
X124572385Y-54083705D01*
X124659739Y-54200261D01*
X124776295Y-54287615D01*
X124912684Y-54338745D01*
X124974866Y-54345500D01*
X125544497Y-54345500D01*
X125612618Y-54365502D01*
X125633592Y-54382405D01*
X144596595Y-73345408D01*
X144630621Y-73407720D01*
X144633500Y-73434503D01*
X144633500Y-74697812D01*
X144613498Y-74765933D01*
X144596595Y-74786907D01*
X144535802Y-74847700D01*
X144532645Y-74852208D01*
X144532643Y-74852211D01*
X144505716Y-74890667D01*
X144404477Y-75035251D01*
X144402154Y-75040233D01*
X144402151Y-75040238D01*
X144313203Y-75230990D01*
X144307716Y-75242757D01*
X144306294Y-75248065D01*
X144306293Y-75248067D01*
X144262976Y-75409727D01*
X144248457Y-75463913D01*
X144228502Y-75692000D01*
X144248457Y-75920087D01*
X144249881Y-75925400D01*
X144249881Y-75925402D01*
X144301408Y-76117700D01*
X144307716Y-76141243D01*
X144310039Y-76146224D01*
X144310039Y-76146225D01*
X144402151Y-76343762D01*
X144402154Y-76343767D01*
X144404477Y-76348749D01*
X144407634Y-76353257D01*
X144515829Y-76507775D01*
X144535802Y-76536300D01*
X144697700Y-76698198D01*
X144702208Y-76701355D01*
X144702211Y-76701357D01*
X144748706Y-76733913D01*
X144885251Y-76829523D01*
X144890233Y-76831846D01*
X144890238Y-76831849D01*
X145087775Y-76923961D01*
X145092757Y-76926284D01*
X145098065Y-76927706D01*
X145098067Y-76927707D01*
X145308598Y-76984119D01*
X145308600Y-76984119D01*
X145313913Y-76985543D01*
X145542000Y-77005498D01*
X145770087Y-76985543D01*
X145775400Y-76984119D01*
X145775402Y-76984119D01*
X145985933Y-76927707D01*
X145985935Y-76927706D01*
X145991243Y-76926284D01*
X145996225Y-76923961D01*
X146193762Y-76831849D01*
X146193767Y-76831846D01*
X146198749Y-76829523D01*
X146335294Y-76733913D01*
X146381789Y-76701357D01*
X146381792Y-76701355D01*
X146386300Y-76698198D01*
X146548198Y-76536300D01*
X146568172Y-76507775D01*
X146676366Y-76353257D01*
X146679523Y-76348749D01*
X146681846Y-76343767D01*
X146681849Y-76343762D01*
X146773961Y-76146225D01*
X146773961Y-76146224D01*
X146776284Y-76141243D01*
X146782593Y-76117700D01*
X146834119Y-75925402D01*
X146834119Y-75925400D01*
X146835543Y-75920087D01*
X146855498Y-75692000D01*
X146835543Y-75463913D01*
X146821024Y-75409727D01*
X146777707Y-75248067D01*
X146777706Y-75248065D01*
X146776284Y-75242757D01*
X146770797Y-75230990D01*
X146681849Y-75040238D01*
X146681846Y-75040233D01*
X146679523Y-75035251D01*
X146578284Y-74890667D01*
X146551357Y-74852211D01*
X146551355Y-74852208D01*
X146548198Y-74847700D01*
X146487405Y-74786907D01*
X146453379Y-74724595D01*
X146450500Y-74697812D01*
X146450500Y-73627503D01*
X146470502Y-73559382D01*
X146524158Y-73512889D01*
X146594432Y-73502785D01*
X146659012Y-73532279D01*
X146665595Y-73538408D01*
X150025323Y-76898136D01*
X150059349Y-76960448D01*
X150061749Y-76976250D01*
X150079977Y-77184606D01*
X150079978Y-77184611D01*
X150080457Y-77190087D01*
X150139716Y-77411243D01*
X150142039Y-77416224D01*
X150142039Y-77416225D01*
X150234151Y-77613762D01*
X150234154Y-77613767D01*
X150236477Y-77618749D01*
X150367802Y-77806300D01*
X150529700Y-77968198D01*
X150534208Y-77971355D01*
X150534211Y-77971357D01*
X150612389Y-78026098D01*
X150717251Y-78099523D01*
X150722233Y-78101846D01*
X150722238Y-78101849D01*
X150756457Y-78117805D01*
X150809742Y-78164722D01*
X150829203Y-78232999D01*
X150808661Y-78300959D01*
X150756457Y-78346195D01*
X150722238Y-78362151D01*
X150722233Y-78362154D01*
X150717251Y-78364477D01*
X150702490Y-78374813D01*
X150534211Y-78492643D01*
X150534208Y-78492645D01*
X150529700Y-78495802D01*
X150468907Y-78556595D01*
X150406595Y-78590621D01*
X150379812Y-78593500D01*
X147909417Y-78593500D01*
X147889708Y-78591949D01*
X147875810Y-78589748D01*
X147869223Y-78590093D01*
X147869218Y-78590093D01*
X147807519Y-78593327D01*
X147800925Y-78593500D01*
X147780390Y-78593500D01*
X147774222Y-78594148D01*
X147759960Y-78595647D01*
X147753385Y-78596164D01*
X147691696Y-78599397D01*
X147691695Y-78599397D01*
X147685096Y-78599743D01*
X147671508Y-78603384D01*
X147652061Y-78606988D01*
X147644644Y-78607767D01*
X147644640Y-78607768D01*
X147638072Y-78608458D01*
X147581276Y-78626912D01*
X147573009Y-78629598D01*
X147566685Y-78631471D01*
X147507010Y-78647461D01*
X147507006Y-78647462D01*
X147500630Y-78649171D01*
X147494748Y-78652168D01*
X147488093Y-78655559D01*
X147469826Y-78663125D01*
X147462728Y-78665431D01*
X147462726Y-78665432D01*
X147456444Y-78667473D01*
X147450722Y-78670776D01*
X147450721Y-78670777D01*
X147397218Y-78701667D01*
X147391423Y-78704814D01*
X147330470Y-78735871D01*
X147325342Y-78740024D01*
X147325340Y-78740025D01*
X147319534Y-78744727D01*
X147303237Y-78755927D01*
X147296776Y-78759657D01*
X147296772Y-78759660D01*
X147291056Y-78762960D01*
X147286150Y-78767377D01*
X147286145Y-78767381D01*
X147240231Y-78808722D01*
X147235216Y-78813006D01*
X147226718Y-78819888D01*
X147219259Y-78825928D01*
X147204744Y-78840443D01*
X147199959Y-78844984D01*
X147149134Y-78890747D01*
X147145255Y-78896086D01*
X147145254Y-78896087D01*
X147140860Y-78902135D01*
X147128019Y-78917168D01*
X141113168Y-84932019D01*
X141098135Y-84944860D01*
X141086747Y-84953134D01*
X141082327Y-84958043D01*
X141040984Y-85003959D01*
X141036443Y-85008744D01*
X141021928Y-85023259D01*
X141019852Y-85025823D01*
X141009006Y-85039216D01*
X141004722Y-85044231D01*
X140963381Y-85090145D01*
X140963377Y-85090150D01*
X140958960Y-85095056D01*
X140955660Y-85100772D01*
X140955657Y-85100776D01*
X140951927Y-85107237D01*
X140940727Y-85123533D01*
X140931871Y-85134470D01*
X140900815Y-85195421D01*
X140897667Y-85201218D01*
X140875999Y-85238749D01*
X140863473Y-85260444D01*
X140861432Y-85266726D01*
X140861431Y-85266728D01*
X140859125Y-85273826D01*
X140851560Y-85292092D01*
X140845171Y-85304630D01*
X140843463Y-85311003D01*
X140843463Y-85311004D01*
X140827469Y-85370695D01*
X140825600Y-85377003D01*
X140804458Y-85442072D01*
X140803768Y-85448637D01*
X140803766Y-85448646D01*
X140802985Y-85456075D01*
X140799383Y-85475509D01*
X140797453Y-85482714D01*
X140795743Y-85489097D01*
X140795398Y-85495688D01*
X140795397Y-85495692D01*
X140792164Y-85557384D01*
X140791647Y-85563958D01*
X140789844Y-85581116D01*
X140789500Y-85584390D01*
X140789500Y-85604926D01*
X140789327Y-85611520D01*
X140785748Y-85679810D01*
X140786780Y-85686325D01*
X140787949Y-85693705D01*
X140789500Y-85713417D01*
X140789500Y-92703502D01*
X140769498Y-92771623D01*
X140715842Y-92818116D01*
X140707730Y-92821484D01*
X140639696Y-92846989D01*
X140601295Y-92861385D01*
X140484739Y-92948739D01*
X140397385Y-93065295D01*
X140394233Y-93073703D01*
X140352919Y-93183907D01*
X140310277Y-93240671D01*
X140243716Y-93265371D01*
X140174367Y-93250163D01*
X140141743Y-93224476D01*
X140091151Y-93168875D01*
X140091142Y-93168866D01*
X140087670Y-93165051D01*
X140083619Y-93161852D01*
X140083615Y-93161848D01*
X139916414Y-93029800D01*
X139916410Y-93029798D01*
X139912359Y-93026598D01*
X139876028Y-93006542D01*
X139860136Y-92997769D01*
X139716789Y-92918638D01*
X139711920Y-92916914D01*
X139711916Y-92916912D01*
X139511087Y-92845795D01*
X139511083Y-92845794D01*
X139506212Y-92844069D01*
X139501119Y-92843162D01*
X139501116Y-92843161D01*
X139291373Y-92805800D01*
X139291367Y-92805799D01*
X139286284Y-92804894D01*
X139212452Y-92803992D01*
X139068081Y-92802228D01*
X139068079Y-92802228D01*
X139062911Y-92802165D01*
X138842091Y-92835955D01*
X138629756Y-92905357D01*
X138431607Y-93008507D01*
X138427474Y-93011610D01*
X138427471Y-93011612D01*
X138257100Y-93139530D01*
X138252965Y-93142635D01*
X138227541Y-93169240D01*
X138159280Y-93240671D01*
X138098629Y-93304138D01*
X138095715Y-93308410D01*
X138095714Y-93308411D01*
X137990898Y-93462066D01*
X137935987Y-93507069D01*
X137865462Y-93515240D01*
X137801715Y-93483986D01*
X137781018Y-93459502D01*
X137700426Y-93334926D01*
X137694136Y-93326757D01*
X137550806Y-93169240D01*
X137543273Y-93162215D01*
X137376139Y-93030222D01*
X137367552Y-93024517D01*
X137181117Y-92921599D01*
X137171705Y-92917369D01*
X136970959Y-92846280D01*
X136960988Y-92843646D01*
X136889837Y-92830972D01*
X136876540Y-92832432D01*
X136872000Y-92846989D01*
X136872000Y-95480517D01*
X136876064Y-95494359D01*
X136889478Y-95496393D01*
X136896184Y-95495534D01*
X136906262Y-95493392D01*
X137110255Y-95432191D01*
X137119842Y-95428433D01*
X137311095Y-95334739D01*
X137319945Y-95329464D01*
X137493328Y-95205792D01*
X137501200Y-95199139D01*
X137652052Y-95048812D01*
X137658730Y-95040965D01*
X137786022Y-94863819D01*
X137787279Y-94864722D01*
X137834373Y-94821362D01*
X137904311Y-94809145D01*
X137969751Y-94836678D01*
X137997579Y-94868511D01*
X138057987Y-94967088D01*
X138093879Y-95008522D01*
X138118737Y-95037219D01*
X138148220Y-95101804D01*
X138149500Y-95119717D01*
X138149500Y-103536157D01*
X138148763Y-103549764D01*
X138148415Y-103552973D01*
X138144676Y-103587388D01*
X138145579Y-103597707D01*
X138149050Y-103637388D01*
X138149379Y-103642214D01*
X138149500Y-103644686D01*
X138149500Y-103647769D01*
X138149801Y-103650837D01*
X138153690Y-103690506D01*
X138153812Y-103691819D01*
X138161913Y-103784413D01*
X138163400Y-103789532D01*
X138163920Y-103794833D01*
X138190791Y-103883834D01*
X138191126Y-103884967D01*
X138217091Y-103974336D01*
X138219544Y-103979068D01*
X138221084Y-103984169D01*
X138223978Y-103989612D01*
X138264731Y-104066260D01*
X138265343Y-104067426D01*
X138308108Y-104149926D01*
X138311431Y-104154089D01*
X138313934Y-104158796D01*
X138372755Y-104230918D01*
X138373446Y-104231774D01*
X138404738Y-104270973D01*
X138407242Y-104273477D01*
X138407884Y-104274195D01*
X138411585Y-104278528D01*
X138438935Y-104312062D01*
X138474258Y-104341283D01*
X138483040Y-104349274D01*
X138563577Y-104429812D01*
X138597564Y-104493295D01*
X138597930Y-104497277D01*
X138646798Y-104653215D01*
X138650733Y-104659712D01*
X138724431Y-104781403D01*
X138742610Y-104850033D01*
X138718590Y-104920737D01*
X138713196Y-104928161D01*
X138706632Y-104939529D01*
X138634367Y-105101839D01*
X138630310Y-105114325D01*
X138629470Y-105118278D01*
X138630543Y-105132341D01*
X138640497Y-105136000D01*
X139519030Y-105136000D01*
X139531762Y-105136645D01*
X139547476Y-105138241D01*
X139594237Y-105142991D01*
X139595110Y-105143083D01*
X139683265Y-105152659D01*
X139683266Y-105152659D01*
X139689388Y-105153324D01*
X139692925Y-105153015D01*
X139696463Y-105153374D01*
X139791130Y-105144426D01*
X139791821Y-105144363D01*
X139864720Y-105137985D01*
X139881933Y-105136479D01*
X139892914Y-105136000D01*
X140756182Y-105136000D01*
X140769713Y-105132027D01*
X140771222Y-105121532D01*
X140769690Y-105114325D01*
X140765633Y-105101839D01*
X140693368Y-104939529D01*
X140686804Y-104928161D01*
X140681410Y-104920737D01*
X140657551Y-104853870D01*
X140675569Y-104781403D01*
X140749267Y-104659712D01*
X140753202Y-104653215D01*
X140802070Y-104497277D01*
X140802436Y-104493297D01*
X140836423Y-104429812D01*
X141858829Y-103407405D01*
X141921141Y-103373380D01*
X141947924Y-103370500D01*
X150493260Y-103370500D01*
X150565531Y-103393287D01*
X150717251Y-103499523D01*
X150722233Y-103501846D01*
X150722238Y-103501849D01*
X150892542Y-103581262D01*
X150924757Y-103596284D01*
X150930065Y-103597706D01*
X150930067Y-103597707D01*
X150998141Y-103615947D01*
X151145913Y-103655543D01*
X151204771Y-103660692D01*
X151270888Y-103686555D01*
X151282884Y-103697118D01*
X152395145Y-104809379D01*
X152404247Y-104819522D01*
X152427968Y-104849025D01*
X152432696Y-104852992D01*
X152466421Y-104881291D01*
X152470069Y-104884472D01*
X152471881Y-104886115D01*
X152474075Y-104888309D01*
X152507349Y-104915642D01*
X152508147Y-104916304D01*
X152579474Y-104976154D01*
X152584144Y-104978722D01*
X152588261Y-104982103D01*
X152670120Y-105025995D01*
X152671280Y-105026624D01*
X152747389Y-105068466D01*
X152747394Y-105068468D01*
X152752787Y-105071433D01*
X152757865Y-105073044D01*
X152762563Y-105075563D01*
X152851498Y-105102753D01*
X152852702Y-105103128D01*
X152941306Y-105131235D01*
X152946597Y-105131828D01*
X152951698Y-105133388D01*
X153044311Y-105142795D01*
X153045431Y-105142915D01*
X153095227Y-105148500D01*
X153098756Y-105148500D01*
X153099739Y-105148555D01*
X153105426Y-105149003D01*
X153125683Y-105151060D01*
X153142336Y-105152752D01*
X153142339Y-105152752D01*
X153148463Y-105153374D01*
X153194112Y-105149059D01*
X153205969Y-105148500D01*
X176724127Y-105148500D01*
X176737297Y-105149190D01*
X176770796Y-105152711D01*
X176770798Y-105152711D01*
X176776925Y-105153355D01*
X176827173Y-105148782D01*
X176831207Y-105148500D01*
X176833769Y-105148500D01*
X176836827Y-105148200D01*
X176836831Y-105148200D01*
X176878596Y-105144105D01*
X176879471Y-105144023D01*
X176961922Y-105136519D01*
X176973342Y-105136000D01*
X177840182Y-105136000D01*
X177853713Y-105132027D01*
X177855222Y-105121532D01*
X177853690Y-105114325D01*
X177849633Y-105101839D01*
X177777368Y-104939529D01*
X177770804Y-104928161D01*
X177765410Y-104920737D01*
X177741551Y-104853870D01*
X177759569Y-104781403D01*
X177833267Y-104659712D01*
X177837202Y-104653215D01*
X177886070Y-104497277D01*
X177892500Y-104427301D01*
X177892499Y-103852700D01*
X177886070Y-103782723D01*
X177859243Y-103697118D01*
X177839474Y-103634034D01*
X177839473Y-103634032D01*
X177837202Y-103626785D01*
X177813343Y-103587388D01*
X177810724Y-103583064D01*
X177792500Y-103517793D01*
X177792500Y-94162000D01*
X188434540Y-94162000D01*
X188454359Y-94477020D01*
X188513505Y-94787072D01*
X188538735Y-94864722D01*
X188598550Y-95048812D01*
X188611044Y-95087266D01*
X188612731Y-95090852D01*
X188612733Y-95090856D01*
X188743750Y-95369283D01*
X188743754Y-95369290D01*
X188745438Y-95372869D01*
X188914568Y-95639375D01*
X188917093Y-95642427D01*
X189110625Y-95876366D01*
X189115767Y-95882582D01*
X189345860Y-96098654D01*
X189601221Y-96284184D01*
X189877821Y-96436247D01*
X189881490Y-96437700D01*
X189881495Y-96437702D01*
X190167628Y-96550990D01*
X190171298Y-96552443D01*
X190477025Y-96630940D01*
X190790179Y-96670500D01*
X191105821Y-96670500D01*
X191418975Y-96630940D01*
X191724702Y-96552443D01*
X191728372Y-96550990D01*
X192014505Y-96437702D01*
X192014510Y-96437700D01*
X192018179Y-96436247D01*
X192294779Y-96284184D01*
X192550140Y-96098654D01*
X192780233Y-95882582D01*
X192785376Y-95876366D01*
X192978907Y-95642427D01*
X192981432Y-95639375D01*
X193150562Y-95372869D01*
X193152246Y-95369290D01*
X193152250Y-95369283D01*
X193283267Y-95090856D01*
X193283269Y-95090852D01*
X193284956Y-95087266D01*
X193297451Y-95048812D01*
X193357265Y-94864722D01*
X193382495Y-94787072D01*
X193441641Y-94477020D01*
X193461460Y-94162000D01*
X193441641Y-93846980D01*
X193382495Y-93536928D01*
X193284956Y-93236734D01*
X193271528Y-93208198D01*
X193152250Y-92954717D01*
X193152246Y-92954710D01*
X193150562Y-92951131D01*
X192981432Y-92684625D01*
X192780233Y-92441418D01*
X192550140Y-92225346D01*
X192294779Y-92039816D01*
X192018179Y-91887753D01*
X192014510Y-91886300D01*
X192014505Y-91886298D01*
X191728372Y-91773010D01*
X191728371Y-91773010D01*
X191724702Y-91771557D01*
X191418975Y-91693060D01*
X191105821Y-91653500D01*
X190790179Y-91653500D01*
X190477025Y-91693060D01*
X190171298Y-91771557D01*
X190167629Y-91773010D01*
X190167628Y-91773010D01*
X189881495Y-91886298D01*
X189881490Y-91886300D01*
X189877821Y-91887753D01*
X189601221Y-92039816D01*
X189345860Y-92225346D01*
X189115767Y-92441418D01*
X188914568Y-92684625D01*
X188745438Y-92951131D01*
X188743754Y-92954710D01*
X188743750Y-92954717D01*
X188624472Y-93208198D01*
X188611044Y-93236734D01*
X188513505Y-93536928D01*
X188454359Y-93846980D01*
X188434540Y-94162000D01*
X177792500Y-94162000D01*
X177792500Y-69149842D01*
X177793237Y-69136235D01*
X177796659Y-69104737D01*
X177796659Y-69104732D01*
X177797324Y-69098611D01*
X177792950Y-69048609D01*
X177792621Y-69043784D01*
X177792500Y-69041313D01*
X177792500Y-69038231D01*
X177788309Y-68995489D01*
X177788187Y-68994174D01*
X177780623Y-68907719D01*
X177780087Y-68901587D01*
X177778600Y-68896468D01*
X177778080Y-68891167D01*
X177751218Y-68802194D01*
X177750862Y-68800994D01*
X177724909Y-68711663D01*
X177722455Y-68706929D01*
X177720916Y-68701831D01*
X177677316Y-68619831D01*
X177676702Y-68618663D01*
X177636726Y-68541541D01*
X177636725Y-68541540D01*
X177633892Y-68536074D01*
X177630569Y-68531911D01*
X177628066Y-68527204D01*
X177569245Y-68455082D01*
X177568554Y-68454226D01*
X177537262Y-68415027D01*
X177534758Y-68412523D01*
X177534116Y-68411805D01*
X177530415Y-68407472D01*
X177503065Y-68373938D01*
X177467737Y-68344712D01*
X177458958Y-68336723D01*
X175888199Y-66765964D01*
X175854173Y-66703652D01*
X175851718Y-66687194D01*
X175843276Y-66584521D01*
X175842852Y-66579361D01*
X175788431Y-66362702D01*
X175699354Y-66157840D01*
X175578014Y-65970277D01*
X175427670Y-65805051D01*
X175423619Y-65801852D01*
X175423615Y-65801848D01*
X175256414Y-65669800D01*
X175256410Y-65669798D01*
X175252359Y-65666598D01*
X175244304Y-65662151D01*
X175200136Y-65637769D01*
X175056789Y-65558638D01*
X175051920Y-65556914D01*
X175051916Y-65556912D01*
X174851087Y-65485795D01*
X174851083Y-65485794D01*
X174846212Y-65484069D01*
X174841119Y-65483162D01*
X174841116Y-65483161D01*
X174631373Y-65445800D01*
X174631367Y-65445799D01*
X174626284Y-65444894D01*
X174552452Y-65443992D01*
X174408081Y-65442228D01*
X174408079Y-65442228D01*
X174402911Y-65442165D01*
X174182091Y-65475955D01*
X173969756Y-65545357D01*
X173771607Y-65648507D01*
X173767474Y-65651610D01*
X173767471Y-65651612D01*
X173746132Y-65667634D01*
X173592965Y-65782635D01*
X173438629Y-65944138D01*
X173435715Y-65948410D01*
X173435714Y-65948411D01*
X173426300Y-65962211D01*
X173312743Y-66128680D01*
X173218688Y-66331305D01*
X173158989Y-66546570D01*
X173135251Y-66768695D01*
X173135548Y-66773848D01*
X173135548Y-66773851D01*
X173137171Y-66802000D01*
X173148110Y-66991715D01*
X173149247Y-66996761D01*
X173149248Y-66996767D01*
X173157955Y-67035402D01*
X173197222Y-67209639D01*
X173281266Y-67416616D01*
X173397987Y-67607088D01*
X173544250Y-67775938D01*
X173716126Y-67918632D01*
X173783163Y-67957805D01*
X173789955Y-67961774D01*
X173838679Y-68013412D01*
X173851750Y-68083195D01*
X173825019Y-68148967D01*
X173784562Y-68182327D01*
X173776457Y-68186546D01*
X173767738Y-68192036D01*
X173597433Y-68319905D01*
X173589726Y-68326748D01*
X173442590Y-68480717D01*
X173436104Y-68488727D01*
X173316098Y-68664649D01*
X173311000Y-68673623D01*
X173221338Y-68866783D01*
X173217775Y-68876470D01*
X173162389Y-69076183D01*
X173163912Y-69084607D01*
X173176292Y-69088000D01*
X174626000Y-69088000D01*
X174694121Y-69108002D01*
X174740614Y-69161658D01*
X174752000Y-69214000D01*
X174752000Y-69470000D01*
X174731998Y-69538121D01*
X174678342Y-69584614D01*
X174626000Y-69596000D01*
X173181225Y-69596000D01*
X173167694Y-69599973D01*
X173166257Y-69609966D01*
X173196565Y-69744446D01*
X173199645Y-69754275D01*
X173279770Y-69951603D01*
X173284413Y-69960794D01*
X173395694Y-70142388D01*
X173401777Y-70150699D01*
X173541213Y-70311667D01*
X173548580Y-70318883D01*
X173712434Y-70454916D01*
X173720881Y-70460831D01*
X173789969Y-70501203D01*
X173838693Y-70552842D01*
X173851764Y-70622625D01*
X173825033Y-70688396D01*
X173784584Y-70721752D01*
X173771607Y-70728507D01*
X173767474Y-70731610D01*
X173767471Y-70731612D01*
X173746132Y-70747634D01*
X173592965Y-70862635D01*
X173589393Y-70866373D01*
X173524241Y-70934551D01*
X173462717Y-70969981D01*
X173433147Y-70973500D01*
X167608188Y-70973500D01*
X167540067Y-70953498D01*
X167519093Y-70936595D01*
X167458300Y-70875802D01*
X167453792Y-70872645D01*
X167453789Y-70872643D01*
X167375611Y-70817902D01*
X167270749Y-70744477D01*
X167265767Y-70742154D01*
X167265762Y-70742151D01*
X167231543Y-70726195D01*
X167178258Y-70679278D01*
X167158797Y-70611001D01*
X167179339Y-70543041D01*
X167231543Y-70497805D01*
X167265762Y-70481849D01*
X167265767Y-70481846D01*
X167270749Y-70479523D01*
X167375611Y-70406098D01*
X167453789Y-70351357D01*
X167453792Y-70351355D01*
X167458300Y-70348198D01*
X167620198Y-70186300D01*
X167634721Y-70165560D01*
X167748366Y-70003257D01*
X167751523Y-69998749D01*
X167753846Y-69993767D01*
X167753849Y-69993762D01*
X167845961Y-69796225D01*
X167845961Y-69796224D01*
X167848284Y-69791243D01*
X167896858Y-69609966D01*
X167906119Y-69575402D01*
X167906119Y-69575400D01*
X167907543Y-69570087D01*
X167927498Y-69342000D01*
X167907543Y-69113913D01*
X167900600Y-69088000D01*
X167849707Y-68898067D01*
X167849706Y-68898065D01*
X167848284Y-68892757D01*
X167836172Y-68866783D01*
X167753849Y-68690238D01*
X167753846Y-68690233D01*
X167751523Y-68685251D01*
X167640857Y-68527204D01*
X167623357Y-68502211D01*
X167623355Y-68502208D01*
X167620198Y-68497700D01*
X167458300Y-68335802D01*
X167453792Y-68332645D01*
X167453789Y-68332643D01*
X167375611Y-68277902D01*
X167270749Y-68204477D01*
X167265767Y-68202154D01*
X167265762Y-68202151D01*
X167231543Y-68186195D01*
X167178258Y-68139278D01*
X167158797Y-68071001D01*
X167179339Y-68003041D01*
X167231543Y-67957805D01*
X167265762Y-67941849D01*
X167265767Y-67941846D01*
X167270749Y-67939523D01*
X167375611Y-67866098D01*
X167453789Y-67811357D01*
X167453792Y-67811355D01*
X167458300Y-67808198D01*
X167620198Y-67646300D01*
X167644923Y-67610990D01*
X167748366Y-67463257D01*
X167751523Y-67458749D01*
X167753846Y-67453767D01*
X167753849Y-67453762D01*
X167845961Y-67256225D01*
X167845961Y-67256224D01*
X167848284Y-67251243D01*
X167858150Y-67214425D01*
X167906119Y-67035402D01*
X167906119Y-67035400D01*
X167907543Y-67030087D01*
X167927498Y-66802000D01*
X167907543Y-66573913D01*
X167901593Y-66551707D01*
X167849707Y-66358067D01*
X167849706Y-66358065D01*
X167848284Y-66352757D01*
X167836092Y-66326610D01*
X167753849Y-66150238D01*
X167753846Y-66150233D01*
X167751523Y-66145251D01*
X167678098Y-66040389D01*
X167623357Y-65962211D01*
X167623355Y-65962208D01*
X167620198Y-65957700D01*
X167458300Y-65795802D01*
X167453792Y-65792645D01*
X167453789Y-65792643D01*
X167375611Y-65737902D01*
X167270749Y-65664477D01*
X167265767Y-65662154D01*
X167265762Y-65662151D01*
X167068225Y-65570039D01*
X167068224Y-65570039D01*
X167063243Y-65567716D01*
X167057935Y-65566294D01*
X167057933Y-65566293D01*
X166847402Y-65509881D01*
X166847400Y-65509881D01*
X166842087Y-65508457D01*
X166614000Y-65488502D01*
X166385913Y-65508457D01*
X166380600Y-65509881D01*
X166380598Y-65509881D01*
X166170067Y-65566293D01*
X166170065Y-65566294D01*
X166164757Y-65567716D01*
X166159776Y-65570039D01*
X166159775Y-65570039D01*
X165962238Y-65662151D01*
X165962233Y-65662154D01*
X165957251Y-65664477D01*
X165852389Y-65737902D01*
X165774211Y-65792643D01*
X165774208Y-65792645D01*
X165769700Y-65795802D01*
X165607802Y-65957700D01*
X165604645Y-65962208D01*
X165604643Y-65962211D01*
X165549902Y-66040389D01*
X165476477Y-66145251D01*
X165474154Y-66150233D01*
X165474151Y-66150238D01*
X165391908Y-66326610D01*
X165379716Y-66352757D01*
X165378294Y-66358065D01*
X165378293Y-66358067D01*
X165326407Y-66551707D01*
X165320457Y-66573913D01*
X165300502Y-66802000D01*
X165320457Y-67030087D01*
X165321881Y-67035400D01*
X165321881Y-67035402D01*
X165369851Y-67214425D01*
X165379716Y-67251243D01*
X165382039Y-67256224D01*
X165382039Y-67256225D01*
X165474151Y-67453762D01*
X165474154Y-67453767D01*
X165476477Y-67458749D01*
X165479634Y-67463257D01*
X165583078Y-67610990D01*
X165607802Y-67646300D01*
X165769700Y-67808198D01*
X165774208Y-67811355D01*
X165774211Y-67811357D01*
X165852389Y-67866098D01*
X165957251Y-67939523D01*
X165962233Y-67941846D01*
X165962238Y-67941849D01*
X165996457Y-67957805D01*
X166049742Y-68004722D01*
X166069203Y-68072999D01*
X166048661Y-68140959D01*
X165996457Y-68186195D01*
X165962238Y-68202151D01*
X165962233Y-68202154D01*
X165957251Y-68204477D01*
X165852389Y-68277902D01*
X165774211Y-68332643D01*
X165774208Y-68332645D01*
X165769700Y-68335802D01*
X165607802Y-68497700D01*
X165604645Y-68502208D01*
X165604643Y-68502211D01*
X165587143Y-68527204D01*
X165476477Y-68685251D01*
X165474154Y-68690233D01*
X165474151Y-68690238D01*
X165391828Y-68866783D01*
X165379716Y-68892757D01*
X165378294Y-68898065D01*
X165378293Y-68898067D01*
X165327400Y-69088000D01*
X165320457Y-69113913D01*
X165300502Y-69342000D01*
X165320457Y-69570087D01*
X165321881Y-69575400D01*
X165321881Y-69575402D01*
X165331143Y-69609966D01*
X165379716Y-69791243D01*
X165382039Y-69796224D01*
X165382039Y-69796225D01*
X165474151Y-69993762D01*
X165474154Y-69993767D01*
X165476477Y-69998749D01*
X165479634Y-70003257D01*
X165593280Y-70165560D01*
X165607802Y-70186300D01*
X165769700Y-70348198D01*
X165774208Y-70351355D01*
X165774211Y-70351357D01*
X165852389Y-70406098D01*
X165957251Y-70479523D01*
X165962233Y-70481846D01*
X165962238Y-70481849D01*
X165996457Y-70497805D01*
X166049742Y-70544722D01*
X166069203Y-70612999D01*
X166048661Y-70680959D01*
X165996457Y-70726195D01*
X165962238Y-70742151D01*
X165962233Y-70742154D01*
X165957251Y-70744477D01*
X165852389Y-70817902D01*
X165774211Y-70872643D01*
X165774208Y-70872645D01*
X165769700Y-70875802D01*
X165607802Y-71037700D01*
X165476477Y-71225251D01*
X165474154Y-71230233D01*
X165474151Y-71230238D01*
X165388946Y-71412963D01*
X165379716Y-71432757D01*
X165320457Y-71653913D01*
X165300502Y-71882000D01*
X165320457Y-72110087D01*
X165379716Y-72331243D01*
X165382039Y-72336224D01*
X165382039Y-72336225D01*
X165474151Y-72533762D01*
X165474154Y-72533767D01*
X165476477Y-72538749D01*
X165607802Y-72726300D01*
X165769700Y-72888198D01*
X165774208Y-72891355D01*
X165774211Y-72891357D01*
X165814445Y-72919529D01*
X165957251Y-73019523D01*
X165962233Y-73021846D01*
X165962238Y-73021849D01*
X165996457Y-73037805D01*
X166049742Y-73084722D01*
X166069203Y-73152999D01*
X166048661Y-73220959D01*
X165996457Y-73266195D01*
X165962238Y-73282151D01*
X165962233Y-73282154D01*
X165957251Y-73284477D01*
X165901788Y-73323313D01*
X165774211Y-73412643D01*
X165774208Y-73412645D01*
X165769700Y-73415802D01*
X165607802Y-73577700D01*
X165476477Y-73765251D01*
X165474154Y-73770233D01*
X165474151Y-73770238D01*
X165391908Y-73946610D01*
X165379716Y-73972757D01*
X165378294Y-73978064D01*
X165378293Y-73978067D01*
X165326407Y-74171707D01*
X165320457Y-74193913D01*
X165300502Y-74422000D01*
X165320457Y-74650087D01*
X165321881Y-74655400D01*
X165321881Y-74655402D01*
X165373408Y-74847700D01*
X165379716Y-74871243D01*
X165382039Y-74876224D01*
X165382039Y-74876225D01*
X165474151Y-75073762D01*
X165474154Y-75073767D01*
X165476477Y-75078749D01*
X165479634Y-75083257D01*
X165587829Y-75237775D01*
X165607802Y-75266300D01*
X165769700Y-75428198D01*
X165774208Y-75431355D01*
X165774211Y-75431357D01*
X165819649Y-75463173D01*
X165957251Y-75559523D01*
X165962233Y-75561846D01*
X165962238Y-75561849D01*
X165996457Y-75577805D01*
X166049742Y-75624722D01*
X166069203Y-75692999D01*
X166048661Y-75760959D01*
X165996457Y-75806195D01*
X165962238Y-75822151D01*
X165962233Y-75822154D01*
X165957251Y-75824477D01*
X165943004Y-75834453D01*
X165774211Y-75952643D01*
X165774208Y-75952645D01*
X165769700Y-75955802D01*
X165607802Y-76117700D01*
X165604645Y-76122208D01*
X165604643Y-76122211D01*
X165549902Y-76200389D01*
X165476477Y-76305251D01*
X165474154Y-76310233D01*
X165474151Y-76310238D01*
X165382039Y-76507775D01*
X165379716Y-76512757D01*
X165378294Y-76518065D01*
X165378293Y-76518067D01*
X165372363Y-76540197D01*
X165320457Y-76733913D01*
X165300502Y-76962000D01*
X165320457Y-77190087D01*
X165379716Y-77411243D01*
X165382039Y-77416224D01*
X165382039Y-77416225D01*
X165474151Y-77613762D01*
X165474154Y-77613767D01*
X165476477Y-77618749D01*
X165607802Y-77806300D01*
X165769700Y-77968198D01*
X165774208Y-77971355D01*
X165774211Y-77971357D01*
X165852389Y-78026098D01*
X165957251Y-78099523D01*
X165962233Y-78101846D01*
X165962238Y-78101849D01*
X165996457Y-78117805D01*
X166049742Y-78164722D01*
X166069203Y-78232999D01*
X166048661Y-78300959D01*
X165996457Y-78346195D01*
X165962238Y-78362151D01*
X165962233Y-78362154D01*
X165957251Y-78364477D01*
X165942490Y-78374813D01*
X165774211Y-78492643D01*
X165774208Y-78492645D01*
X165769700Y-78495802D01*
X165607802Y-78657700D01*
X165604645Y-78662208D01*
X165604643Y-78662211D01*
X165555164Y-78732875D01*
X165476477Y-78845251D01*
X165474154Y-78850233D01*
X165474151Y-78850238D01*
X165382039Y-79047775D01*
X165379716Y-79052757D01*
X165320457Y-79273913D01*
X165300502Y-79502000D01*
X165320457Y-79730087D01*
X165379716Y-79951243D01*
X165382039Y-79956224D01*
X165382039Y-79956225D01*
X165474151Y-80153762D01*
X165474154Y-80153767D01*
X165476477Y-80158749D01*
X165607802Y-80346300D01*
X165769700Y-80508198D01*
X165774208Y-80511355D01*
X165774211Y-80511357D01*
X165852389Y-80566098D01*
X165957251Y-80639523D01*
X165962233Y-80641846D01*
X165962238Y-80641849D01*
X165996457Y-80657805D01*
X166049742Y-80704722D01*
X166069203Y-80772999D01*
X166048661Y-80840959D01*
X165996457Y-80886195D01*
X165962238Y-80902151D01*
X165962233Y-80902154D01*
X165957251Y-80904477D01*
X165852389Y-80977902D01*
X165774211Y-81032643D01*
X165774208Y-81032645D01*
X165769700Y-81035802D01*
X165607802Y-81197700D01*
X165476477Y-81385251D01*
X165474154Y-81390233D01*
X165474151Y-81390238D01*
X165382039Y-81587775D01*
X165379716Y-81592757D01*
X165320457Y-81813913D01*
X165300502Y-82042000D01*
X165320457Y-82270087D01*
X165379716Y-82491243D01*
X165382039Y-82496224D01*
X165382039Y-82496225D01*
X165474151Y-82693762D01*
X165474154Y-82693767D01*
X165476477Y-82698749D01*
X165607802Y-82886300D01*
X165769700Y-83048198D01*
X165774208Y-83051355D01*
X165774211Y-83051357D01*
X165852389Y-83106098D01*
X165957251Y-83179523D01*
X165962233Y-83181846D01*
X165962238Y-83181849D01*
X165996457Y-83197805D01*
X166049742Y-83244722D01*
X166069203Y-83312999D01*
X166048661Y-83380959D01*
X165996457Y-83426195D01*
X165962238Y-83442151D01*
X165962233Y-83442154D01*
X165957251Y-83444477D01*
X165852389Y-83517902D01*
X165774211Y-83572643D01*
X165774208Y-83572645D01*
X165769700Y-83575802D01*
X165607802Y-83737700D01*
X165476477Y-83925251D01*
X165474154Y-83930233D01*
X165474151Y-83930238D01*
X165382039Y-84127775D01*
X165379716Y-84132757D01*
X165320457Y-84353913D01*
X165300502Y-84582000D01*
X165320457Y-84810087D01*
X165321881Y-84815400D01*
X165321881Y-84815402D01*
X165377577Y-85023259D01*
X165379716Y-85031243D01*
X165382039Y-85036224D01*
X165382039Y-85036225D01*
X165474151Y-85233762D01*
X165474154Y-85233767D01*
X165476477Y-85238749D01*
X165607802Y-85426300D01*
X165769700Y-85588198D01*
X165774208Y-85591355D01*
X165774211Y-85591357D01*
X165793590Y-85604926D01*
X165957251Y-85719523D01*
X165962233Y-85721846D01*
X165962238Y-85721849D01*
X165996457Y-85737805D01*
X166049742Y-85784722D01*
X166069203Y-85852999D01*
X166048661Y-85920959D01*
X165996457Y-85966195D01*
X165962238Y-85982151D01*
X165962233Y-85982154D01*
X165957251Y-85984477D01*
X165945962Y-85992382D01*
X165774211Y-86112643D01*
X165774208Y-86112645D01*
X165769700Y-86115802D01*
X165607802Y-86277700D01*
X165476477Y-86465251D01*
X165474154Y-86470233D01*
X165474151Y-86470238D01*
X165382039Y-86667775D01*
X165379716Y-86672757D01*
X165320457Y-86893913D01*
X165300502Y-87122000D01*
X165320457Y-87350087D01*
X165379716Y-87571243D01*
X165382039Y-87576224D01*
X165382039Y-87576225D01*
X165474151Y-87773762D01*
X165474154Y-87773767D01*
X165476477Y-87778749D01*
X165479634Y-87783257D01*
X165595156Y-87948239D01*
X165607802Y-87966300D01*
X165769700Y-88128198D01*
X165774208Y-88131355D01*
X165774211Y-88131357D01*
X165813244Y-88158688D01*
X165957251Y-88259523D01*
X165962233Y-88261846D01*
X165962238Y-88261849D01*
X165996457Y-88277805D01*
X166049742Y-88324722D01*
X166069203Y-88392999D01*
X166048661Y-88460959D01*
X165996457Y-88506195D01*
X165962238Y-88522151D01*
X165962233Y-88522154D01*
X165957251Y-88524477D01*
X165852389Y-88597902D01*
X165774211Y-88652643D01*
X165774208Y-88652645D01*
X165769700Y-88655802D01*
X165607802Y-88817700D01*
X165604645Y-88822208D01*
X165604643Y-88822211D01*
X165587949Y-88846053D01*
X165476477Y-89005251D01*
X165474154Y-89010233D01*
X165474151Y-89010238D01*
X165382039Y-89207775D01*
X165379716Y-89212757D01*
X165320457Y-89433913D01*
X165300502Y-89662000D01*
X165320457Y-89890087D01*
X165379716Y-90111243D01*
X165382039Y-90116224D01*
X165382039Y-90116225D01*
X165474151Y-90313762D01*
X165474154Y-90313767D01*
X165476477Y-90318749D01*
X165607802Y-90506300D01*
X165769700Y-90668198D01*
X165774208Y-90671355D01*
X165774211Y-90671357D01*
X165852389Y-90726098D01*
X165957251Y-90799523D01*
X165962233Y-90801846D01*
X165962238Y-90801849D01*
X165996457Y-90817805D01*
X166049742Y-90864722D01*
X166069203Y-90932999D01*
X166048661Y-91000959D01*
X165996457Y-91046195D01*
X165962238Y-91062151D01*
X165962233Y-91062154D01*
X165957251Y-91064477D01*
X165852389Y-91137902D01*
X165774211Y-91192643D01*
X165774208Y-91192645D01*
X165769700Y-91195802D01*
X165607802Y-91357700D01*
X165476477Y-91545251D01*
X165474154Y-91550233D01*
X165474151Y-91550238D01*
X165382039Y-91747775D01*
X165379716Y-91752757D01*
X165378294Y-91758065D01*
X165378293Y-91758067D01*
X165343544Y-91887753D01*
X165320457Y-91973913D01*
X165300502Y-92202000D01*
X165320457Y-92430087D01*
X165379716Y-92651243D01*
X165382039Y-92656224D01*
X165382039Y-92656225D01*
X165474151Y-92853762D01*
X165474154Y-92853767D01*
X165476477Y-92858749D01*
X165517203Y-92916912D01*
X165596249Y-93029800D01*
X165607802Y-93046300D01*
X165769700Y-93208198D01*
X165774208Y-93211355D01*
X165774211Y-93211357D01*
X165849202Y-93263866D01*
X165957251Y-93339523D01*
X165962233Y-93341846D01*
X165962238Y-93341849D01*
X165997049Y-93358081D01*
X166050334Y-93404998D01*
X166069795Y-93473275D01*
X166049253Y-93541235D01*
X165997049Y-93586471D01*
X165962489Y-93602586D01*
X165952993Y-93608069D01*
X165774533Y-93733028D01*
X165766125Y-93740084D01*
X165612084Y-93894125D01*
X165605028Y-93902533D01*
X165480069Y-94080993D01*
X165474586Y-94090489D01*
X165382510Y-94287947D01*
X165378764Y-94298239D01*
X165332606Y-94470503D01*
X165332942Y-94484599D01*
X165340884Y-94488000D01*
X167881967Y-94488000D01*
X167895498Y-94484027D01*
X167896727Y-94475478D01*
X167849236Y-94298239D01*
X167845490Y-94287947D01*
X167753414Y-94090489D01*
X167747931Y-94080993D01*
X167622972Y-93902533D01*
X167615916Y-93894125D01*
X167461875Y-93740084D01*
X167453467Y-93733028D01*
X167275007Y-93608069D01*
X167265511Y-93602586D01*
X167230951Y-93586471D01*
X167177666Y-93539554D01*
X167158205Y-93471277D01*
X167178747Y-93403317D01*
X167230951Y-93358081D01*
X167265762Y-93341849D01*
X167265767Y-93341846D01*
X167270749Y-93339523D01*
X167378798Y-93263866D01*
X167453789Y-93211357D01*
X167453792Y-93211355D01*
X167458300Y-93208198D01*
X167620198Y-93046300D01*
X167631752Y-93029800D01*
X167710797Y-92916912D01*
X167751523Y-92858749D01*
X167753846Y-92853767D01*
X167753849Y-92853762D01*
X167845961Y-92656225D01*
X167845961Y-92656224D01*
X167848284Y-92651243D01*
X167907543Y-92430087D01*
X167927498Y-92202000D01*
X167907543Y-91973913D01*
X167884456Y-91887753D01*
X167849707Y-91758067D01*
X167849706Y-91758065D01*
X167848284Y-91752757D01*
X167845961Y-91747775D01*
X167753849Y-91550238D01*
X167753846Y-91550233D01*
X167751523Y-91545251D01*
X167620198Y-91357700D01*
X167458300Y-91195802D01*
X167453792Y-91192645D01*
X167453789Y-91192643D01*
X167375611Y-91137902D01*
X167270749Y-91064477D01*
X167265767Y-91062154D01*
X167265762Y-91062151D01*
X167231543Y-91046195D01*
X167178258Y-90999278D01*
X167158797Y-90931001D01*
X167179339Y-90863041D01*
X167231543Y-90817805D01*
X167265762Y-90801849D01*
X167265767Y-90801846D01*
X167270749Y-90799523D01*
X167375611Y-90726098D01*
X167453789Y-90671357D01*
X167453792Y-90671355D01*
X167458300Y-90668198D01*
X167620198Y-90506300D01*
X167751523Y-90318749D01*
X167753846Y-90313767D01*
X167753849Y-90313762D01*
X167845961Y-90116225D01*
X167845961Y-90116224D01*
X167848284Y-90111243D01*
X167907543Y-89890087D01*
X167927498Y-89662000D01*
X167907543Y-89433913D01*
X167848284Y-89212757D01*
X167845961Y-89207775D01*
X167753849Y-89010238D01*
X167753846Y-89010233D01*
X167751523Y-89005251D01*
X167640051Y-88846053D01*
X167623357Y-88822211D01*
X167623355Y-88822208D01*
X167620198Y-88817700D01*
X167458300Y-88655802D01*
X167453792Y-88652645D01*
X167453789Y-88652643D01*
X167375611Y-88597902D01*
X167270749Y-88524477D01*
X167265767Y-88522154D01*
X167265762Y-88522151D01*
X167231543Y-88506195D01*
X167178258Y-88459278D01*
X167158797Y-88391001D01*
X167179339Y-88323041D01*
X167231543Y-88277805D01*
X167265762Y-88261849D01*
X167265767Y-88261846D01*
X167270749Y-88259523D01*
X167414756Y-88158688D01*
X167453789Y-88131357D01*
X167453792Y-88131355D01*
X167458300Y-88128198D01*
X167620198Y-87966300D01*
X167632845Y-87948239D01*
X167748366Y-87783257D01*
X167751523Y-87778749D01*
X167753846Y-87773767D01*
X167753849Y-87773762D01*
X167845961Y-87576225D01*
X167845961Y-87576224D01*
X167848284Y-87571243D01*
X167907543Y-87350087D01*
X167927498Y-87122000D01*
X167907543Y-86893913D01*
X167848284Y-86672757D01*
X167845961Y-86667775D01*
X167753849Y-86470238D01*
X167753846Y-86470233D01*
X167751523Y-86465251D01*
X167620198Y-86277700D01*
X167458300Y-86115802D01*
X167453792Y-86112645D01*
X167453789Y-86112643D01*
X167282038Y-85992382D01*
X167270749Y-85984477D01*
X167265767Y-85982154D01*
X167265762Y-85982151D01*
X167231543Y-85966195D01*
X167178258Y-85919278D01*
X167158797Y-85851001D01*
X167179339Y-85783041D01*
X167231543Y-85737805D01*
X167265762Y-85721849D01*
X167265767Y-85721846D01*
X167270749Y-85719523D01*
X167434410Y-85604926D01*
X167453789Y-85591357D01*
X167453792Y-85591355D01*
X167458300Y-85588198D01*
X167620198Y-85426300D01*
X167751523Y-85238749D01*
X167753846Y-85233767D01*
X167753849Y-85233762D01*
X167845961Y-85036225D01*
X167845961Y-85036224D01*
X167848284Y-85031243D01*
X167850424Y-85023259D01*
X167906119Y-84815402D01*
X167906119Y-84815400D01*
X167907543Y-84810087D01*
X167927498Y-84582000D01*
X167907543Y-84353913D01*
X167848284Y-84132757D01*
X167845961Y-84127775D01*
X167753849Y-83930238D01*
X167753846Y-83930233D01*
X167751523Y-83925251D01*
X167620198Y-83737700D01*
X167458300Y-83575802D01*
X167453792Y-83572645D01*
X167453789Y-83572643D01*
X167375611Y-83517902D01*
X167270749Y-83444477D01*
X167265767Y-83442154D01*
X167265762Y-83442151D01*
X167231543Y-83426195D01*
X167178258Y-83379278D01*
X167158797Y-83311001D01*
X167179339Y-83243041D01*
X167231543Y-83197805D01*
X167265762Y-83181849D01*
X167265767Y-83181846D01*
X167270749Y-83179523D01*
X167375611Y-83106098D01*
X167453789Y-83051357D01*
X167453792Y-83051355D01*
X167458300Y-83048198D01*
X167620198Y-82886300D01*
X167751523Y-82698749D01*
X167753846Y-82693767D01*
X167753849Y-82693762D01*
X167845961Y-82496225D01*
X167845961Y-82496224D01*
X167848284Y-82491243D01*
X167907543Y-82270087D01*
X167927498Y-82042000D01*
X167907543Y-81813913D01*
X167848284Y-81592757D01*
X167845961Y-81587775D01*
X167753849Y-81390238D01*
X167753846Y-81390233D01*
X167751523Y-81385251D01*
X167620198Y-81197700D01*
X167458300Y-81035802D01*
X167453792Y-81032645D01*
X167453789Y-81032643D01*
X167375611Y-80977902D01*
X167270749Y-80904477D01*
X167265767Y-80902154D01*
X167265762Y-80902151D01*
X167231543Y-80886195D01*
X167178258Y-80839278D01*
X167158797Y-80771001D01*
X167179339Y-80703041D01*
X167231543Y-80657805D01*
X167265762Y-80641849D01*
X167265767Y-80641846D01*
X167270749Y-80639523D01*
X167375611Y-80566098D01*
X167453789Y-80511357D01*
X167453792Y-80511355D01*
X167458300Y-80508198D01*
X167620198Y-80346300D01*
X167751523Y-80158749D01*
X167753846Y-80153767D01*
X167753849Y-80153762D01*
X167845961Y-79956225D01*
X167845961Y-79956224D01*
X167848284Y-79951243D01*
X167907543Y-79730087D01*
X167927498Y-79502000D01*
X167907543Y-79273913D01*
X167848284Y-79052757D01*
X167845961Y-79047775D01*
X167753849Y-78850238D01*
X167753846Y-78850233D01*
X167751523Y-78845251D01*
X167672836Y-78732875D01*
X167623357Y-78662211D01*
X167623355Y-78662208D01*
X167620198Y-78657700D01*
X167458300Y-78495802D01*
X167453792Y-78492645D01*
X167453789Y-78492643D01*
X167285510Y-78374813D01*
X167270749Y-78364477D01*
X167265767Y-78362154D01*
X167265762Y-78362151D01*
X167231543Y-78346195D01*
X167178258Y-78299278D01*
X167158797Y-78231001D01*
X167179339Y-78163041D01*
X167231543Y-78117805D01*
X167265762Y-78101849D01*
X167265767Y-78101846D01*
X167270749Y-78099523D01*
X167375611Y-78026098D01*
X167453789Y-77971357D01*
X167453792Y-77971355D01*
X167458300Y-77968198D01*
X167620198Y-77806300D01*
X167751523Y-77618749D01*
X167753846Y-77613767D01*
X167753849Y-77613762D01*
X167845961Y-77416225D01*
X167845961Y-77416224D01*
X167848284Y-77411243D01*
X167907543Y-77190087D01*
X167927498Y-76962000D01*
X167907543Y-76733913D01*
X167855637Y-76540197D01*
X167849707Y-76518067D01*
X167849706Y-76518065D01*
X167848284Y-76512757D01*
X167845961Y-76507775D01*
X167753849Y-76310238D01*
X167753846Y-76310233D01*
X167751523Y-76305251D01*
X167678098Y-76200389D01*
X167623357Y-76122211D01*
X167623355Y-76122208D01*
X167620198Y-76117700D01*
X167458300Y-75955802D01*
X167453792Y-75952645D01*
X167453789Y-75952643D01*
X167284996Y-75834453D01*
X167270749Y-75824477D01*
X167265767Y-75822154D01*
X167265762Y-75822151D01*
X167231543Y-75806195D01*
X167178258Y-75759278D01*
X167158797Y-75691001D01*
X167179339Y-75623041D01*
X167231543Y-75577805D01*
X167265762Y-75561849D01*
X167265767Y-75561846D01*
X167270749Y-75559523D01*
X167408351Y-75463173D01*
X167453789Y-75431357D01*
X167453792Y-75431355D01*
X167458300Y-75428198D01*
X167620198Y-75266300D01*
X167640172Y-75237775D01*
X167748366Y-75083257D01*
X167751523Y-75078749D01*
X167753846Y-75073767D01*
X167753849Y-75073762D01*
X167845961Y-74876225D01*
X167845961Y-74876224D01*
X167848284Y-74871243D01*
X167854593Y-74847700D01*
X167906119Y-74655402D01*
X167906119Y-74655400D01*
X167907543Y-74650087D01*
X167927498Y-74422000D01*
X167907543Y-74193913D01*
X167901593Y-74171707D01*
X167849707Y-73978067D01*
X167849706Y-73978064D01*
X167848284Y-73972757D01*
X167836092Y-73946610D01*
X167753849Y-73770238D01*
X167753846Y-73770233D01*
X167751523Y-73765251D01*
X167620198Y-73577700D01*
X167458300Y-73415802D01*
X167453792Y-73412645D01*
X167453789Y-73412643D01*
X167326212Y-73323313D01*
X167270749Y-73284477D01*
X167265767Y-73282154D01*
X167265762Y-73282151D01*
X167231543Y-73266195D01*
X167178258Y-73219278D01*
X167158797Y-73151001D01*
X167179339Y-73083041D01*
X167231543Y-73037805D01*
X167265762Y-73021849D01*
X167265767Y-73021846D01*
X167270749Y-73019523D01*
X167413555Y-72919529D01*
X167453789Y-72891357D01*
X167453792Y-72891355D01*
X167458300Y-72888198D01*
X167519093Y-72827405D01*
X167581405Y-72793379D01*
X167608188Y-72790500D01*
X173430011Y-72790500D01*
X173498132Y-72810502D01*
X173525248Y-72834002D01*
X173540864Y-72852030D01*
X173540869Y-72852035D01*
X173544250Y-72855938D01*
X173716126Y-72998632D01*
X173783163Y-73037805D01*
X173789445Y-73041476D01*
X173838169Y-73093114D01*
X173851240Y-73162897D01*
X173824509Y-73228669D01*
X173784055Y-73262027D01*
X173771607Y-73268507D01*
X173767474Y-73271610D01*
X173767471Y-73271612D01*
X173746132Y-73287634D01*
X173592965Y-73402635D01*
X173438629Y-73564138D01*
X173435715Y-73568410D01*
X173435714Y-73568411D01*
X173409842Y-73606338D01*
X173312743Y-73748680D01*
X173218688Y-73951305D01*
X173158989Y-74166570D01*
X173135251Y-74388695D01*
X173135548Y-74393848D01*
X173135548Y-74393851D01*
X173137171Y-74422000D01*
X173148110Y-74611715D01*
X173149247Y-74616761D01*
X173149248Y-74616767D01*
X173157955Y-74655402D01*
X173197222Y-74829639D01*
X173281266Y-75036616D01*
X173397987Y-75227088D01*
X173544250Y-75395938D01*
X173548230Y-75399242D01*
X173552981Y-75403187D01*
X173592616Y-75462090D01*
X173594113Y-75533071D01*
X173556997Y-75593593D01*
X173516724Y-75618112D01*
X173401295Y-75661385D01*
X173284739Y-75748739D01*
X173197385Y-75865295D01*
X173146255Y-76001684D01*
X173139500Y-76063866D01*
X173139500Y-77860134D01*
X173146255Y-77922316D01*
X173197385Y-78058705D01*
X173284739Y-78175261D01*
X173401295Y-78262615D01*
X173537684Y-78313745D01*
X173599866Y-78320500D01*
X175396134Y-78320500D01*
X175458316Y-78313745D01*
X175564704Y-78273862D01*
X175586303Y-78265765D01*
X175586304Y-78265764D01*
X175591965Y-78263642D01*
X175591966Y-78263642D01*
X175594705Y-78262615D01*
X175594853Y-78263010D01*
X175658351Y-78249124D01*
X175724898Y-78273862D01*
X175767507Y-78330651D01*
X175775500Y-78374813D01*
X175775500Y-103005500D01*
X175755498Y-103073621D01*
X175701842Y-103120114D01*
X175649500Y-103131500D01*
X168048500Y-103131500D01*
X167980379Y-103111498D01*
X167933886Y-103057842D01*
X167922500Y-103005500D01*
X167922500Y-101513866D01*
X167915745Y-101451684D01*
X167864615Y-101315295D01*
X167777261Y-101198739D01*
X167660705Y-101111385D01*
X167524316Y-101060255D01*
X167513526Y-101059083D01*
X167511394Y-101058197D01*
X167508778Y-101057575D01*
X167508879Y-101057152D01*
X167447965Y-101031845D01*
X167407537Y-100973483D01*
X167405078Y-100902529D01*
X167441371Y-100841510D01*
X167450035Y-100834507D01*
X167453790Y-100831356D01*
X167458300Y-100828198D01*
X167620198Y-100666300D01*
X167751523Y-100478749D01*
X167753846Y-100473767D01*
X167753849Y-100473762D01*
X167845961Y-100276225D01*
X167845961Y-100276224D01*
X167848284Y-100271243D01*
X167907543Y-100050087D01*
X167927498Y-99822000D01*
X167907543Y-99593913D01*
X167848284Y-99372757D01*
X167753966Y-99170489D01*
X167753849Y-99170238D01*
X167753846Y-99170233D01*
X167751523Y-99165251D01*
X167620198Y-98977700D01*
X167458300Y-98815802D01*
X167453792Y-98812645D01*
X167453789Y-98812643D01*
X167375611Y-98757902D01*
X167270749Y-98684477D01*
X167265767Y-98682154D01*
X167265762Y-98682151D01*
X167231543Y-98666195D01*
X167178258Y-98619278D01*
X167158797Y-98551001D01*
X167179339Y-98483041D01*
X167231543Y-98437805D01*
X167265762Y-98421849D01*
X167265767Y-98421846D01*
X167270749Y-98419523D01*
X167375611Y-98346098D01*
X167453789Y-98291357D01*
X167453792Y-98291355D01*
X167458300Y-98288198D01*
X167620198Y-98126300D01*
X167751523Y-97938749D01*
X167753846Y-97933767D01*
X167753849Y-97933762D01*
X167845961Y-97736225D01*
X167845961Y-97736224D01*
X167848284Y-97731243D01*
X167907543Y-97510087D01*
X167927498Y-97282000D01*
X167907543Y-97053913D01*
X167848284Y-96832757D01*
X167772623Y-96670500D01*
X167753849Y-96630238D01*
X167753846Y-96630233D01*
X167751523Y-96625251D01*
X167620198Y-96437700D01*
X167458300Y-96275802D01*
X167453792Y-96272645D01*
X167453789Y-96272643D01*
X167375611Y-96217902D01*
X167270749Y-96144477D01*
X167265767Y-96142154D01*
X167265762Y-96142151D01*
X167230951Y-96125919D01*
X167177666Y-96079002D01*
X167158205Y-96010725D01*
X167178747Y-95942765D01*
X167230951Y-95897529D01*
X167265511Y-95881414D01*
X167275007Y-95875931D01*
X167453467Y-95750972D01*
X167461875Y-95743916D01*
X167615916Y-95589875D01*
X167622972Y-95581467D01*
X167747931Y-95403007D01*
X167753414Y-95393511D01*
X167845490Y-95196053D01*
X167849236Y-95185761D01*
X167895394Y-95013497D01*
X167895058Y-94999401D01*
X167887116Y-94996000D01*
X165346033Y-94996000D01*
X165332502Y-94999973D01*
X165331273Y-95008522D01*
X165378764Y-95185761D01*
X165382510Y-95196053D01*
X165474586Y-95393511D01*
X165480069Y-95403007D01*
X165605028Y-95581467D01*
X165612084Y-95589875D01*
X165766125Y-95743916D01*
X165774533Y-95750972D01*
X165952993Y-95875931D01*
X165962489Y-95881414D01*
X165997049Y-95897529D01*
X166050334Y-95944446D01*
X166069795Y-96012723D01*
X166049253Y-96080683D01*
X165997049Y-96125919D01*
X165962238Y-96142151D01*
X165962233Y-96142154D01*
X165957251Y-96144477D01*
X165852389Y-96217902D01*
X165774211Y-96272643D01*
X165774208Y-96272645D01*
X165769700Y-96275802D01*
X165607802Y-96437700D01*
X165476477Y-96625251D01*
X165474154Y-96630233D01*
X165474151Y-96630238D01*
X165455377Y-96670500D01*
X165379716Y-96832757D01*
X165320457Y-97053913D01*
X165300502Y-97282000D01*
X165320457Y-97510087D01*
X165379716Y-97731243D01*
X165382039Y-97736224D01*
X165382039Y-97736225D01*
X165474151Y-97933762D01*
X165474154Y-97933767D01*
X165476477Y-97938749D01*
X165607802Y-98126300D01*
X165769700Y-98288198D01*
X165774208Y-98291355D01*
X165774211Y-98291357D01*
X165852389Y-98346098D01*
X165957251Y-98419523D01*
X165962233Y-98421846D01*
X165962238Y-98421849D01*
X165996457Y-98437805D01*
X166049742Y-98484722D01*
X166069203Y-98552999D01*
X166048661Y-98620959D01*
X165996457Y-98666195D01*
X165962238Y-98682151D01*
X165962233Y-98682154D01*
X165957251Y-98684477D01*
X165852389Y-98757902D01*
X165774211Y-98812643D01*
X165774208Y-98812645D01*
X165769700Y-98815802D01*
X165607802Y-98977700D01*
X165476477Y-99165251D01*
X165474154Y-99170233D01*
X165474151Y-99170238D01*
X165474034Y-99170489D01*
X165379716Y-99372757D01*
X165320457Y-99593913D01*
X165300502Y-99822000D01*
X165320457Y-100050087D01*
X165379716Y-100271243D01*
X165382039Y-100276224D01*
X165382039Y-100276225D01*
X165474151Y-100473762D01*
X165474154Y-100473767D01*
X165476477Y-100478749D01*
X165607802Y-100666300D01*
X165769700Y-100828198D01*
X165774211Y-100831357D01*
X165778424Y-100834892D01*
X165777473Y-100836026D01*
X165817471Y-100886071D01*
X165824776Y-100956690D01*
X165792742Y-101020049D01*
X165731538Y-101056030D01*
X165714483Y-101059082D01*
X165703684Y-101060255D01*
X165567295Y-101111385D01*
X165450739Y-101198739D01*
X165363385Y-101315295D01*
X165312255Y-101451684D01*
X165305500Y-101513866D01*
X165305500Y-103005500D01*
X165285498Y-103073621D01*
X165231842Y-103120114D01*
X165179500Y-103131500D01*
X153621924Y-103131500D01*
X153553803Y-103111498D01*
X153532829Y-103094595D01*
X152709118Y-102270884D01*
X152675092Y-102208572D01*
X152672692Y-102192770D01*
X152668022Y-102139392D01*
X152667543Y-102133913D01*
X152608284Y-101912757D01*
X152605961Y-101907775D01*
X152513849Y-101710238D01*
X152513846Y-101710233D01*
X152511523Y-101705251D01*
X152438098Y-101600389D01*
X152383357Y-101522211D01*
X152383355Y-101522208D01*
X152380198Y-101517700D01*
X152218300Y-101355802D01*
X152213792Y-101352645D01*
X152213789Y-101352643D01*
X152135611Y-101297902D01*
X152030749Y-101224477D01*
X152025767Y-101222154D01*
X152025762Y-101222151D01*
X151990951Y-101205919D01*
X151937666Y-101159002D01*
X151918205Y-101090725D01*
X151938747Y-101022765D01*
X151990951Y-100977529D01*
X152025511Y-100961414D01*
X152035007Y-100955931D01*
X152213467Y-100830972D01*
X152221875Y-100823916D01*
X152375916Y-100669875D01*
X152382972Y-100661467D01*
X152507931Y-100483007D01*
X152513414Y-100473511D01*
X152605490Y-100276053D01*
X152609236Y-100265761D01*
X152655394Y-100093497D01*
X152655058Y-100079401D01*
X152647116Y-100076000D01*
X150106033Y-100076000D01*
X150092502Y-100079973D01*
X150091273Y-100088522D01*
X150138764Y-100265761D01*
X150142510Y-100276053D01*
X150234586Y-100473511D01*
X150240069Y-100483007D01*
X150365028Y-100661467D01*
X150372084Y-100669875D01*
X150526125Y-100823916D01*
X150534533Y-100830972D01*
X150712993Y-100955931D01*
X150722489Y-100961414D01*
X150757049Y-100977529D01*
X150810334Y-101024446D01*
X150829795Y-101092723D01*
X150809253Y-101160683D01*
X150757049Y-101205919D01*
X150722238Y-101222151D01*
X150722233Y-101222154D01*
X150717251Y-101224477D01*
X150597813Y-101308109D01*
X150565531Y-101330713D01*
X150493260Y-101353500D01*
X141539850Y-101353500D01*
X141526242Y-101352763D01*
X141525137Y-101352643D01*
X141488612Y-101348675D01*
X141438570Y-101353053D01*
X141433788Y-101353379D01*
X141431310Y-101353500D01*
X141428231Y-101353500D01*
X141425177Y-101353799D01*
X141425166Y-101353800D01*
X141385529Y-101357687D01*
X141384215Y-101357809D01*
X141348688Y-101360917D01*
X141291587Y-101365913D01*
X141286468Y-101367400D01*
X141281167Y-101367920D01*
X141192166Y-101394791D01*
X141191033Y-101395126D01*
X141107586Y-101419370D01*
X141107582Y-101419372D01*
X141101664Y-101421091D01*
X141096932Y-101423544D01*
X141091831Y-101425084D01*
X141086388Y-101427978D01*
X141009740Y-101468731D01*
X141008574Y-101469343D01*
X140931547Y-101509271D01*
X140926074Y-101512108D01*
X140921911Y-101515431D01*
X140917204Y-101517934D01*
X140912429Y-101521828D01*
X140912428Y-101521829D01*
X140845102Y-101576739D01*
X140844075Y-101577567D01*
X140807792Y-101606531D01*
X140807787Y-101606536D01*
X140805028Y-101608738D01*
X140802527Y-101611239D01*
X140801809Y-101611881D01*
X140797461Y-101615594D01*
X140763938Y-101642935D01*
X140760015Y-101647677D01*
X140760013Y-101647679D01*
X140734703Y-101678273D01*
X140726713Y-101687053D01*
X140381595Y-102032171D01*
X140319283Y-102066197D01*
X140248468Y-102061132D01*
X140191632Y-102018585D01*
X140166821Y-101952065D01*
X140166500Y-101943076D01*
X140166500Y-95326856D01*
X140186502Y-95258735D01*
X140240158Y-95212242D01*
X140310432Y-95202138D01*
X140375012Y-95231632D01*
X140397054Y-95258953D01*
X140397385Y-95258705D01*
X140484739Y-95375261D01*
X140601295Y-95462615D01*
X140737684Y-95513745D01*
X140799866Y-95520500D01*
X142596134Y-95520500D01*
X142658316Y-95513745D01*
X142794705Y-95462615D01*
X142911261Y-95375261D01*
X142998615Y-95258705D01*
X143049745Y-95122316D01*
X143056500Y-95060134D01*
X143056500Y-93263866D01*
X143049745Y-93201684D01*
X142998615Y-93065295D01*
X142911261Y-92948739D01*
X142794705Y-92861385D01*
X142756304Y-92846989D01*
X142688270Y-92821484D01*
X142631506Y-92778842D01*
X142606806Y-92712281D01*
X142606500Y-92703502D01*
X142606500Y-89478062D01*
X144820493Y-89478062D01*
X144829789Y-89490077D01*
X144880994Y-89525931D01*
X144890489Y-89531414D01*
X145087947Y-89623490D01*
X145098239Y-89627236D01*
X145308688Y-89683625D01*
X145319481Y-89685528D01*
X145536525Y-89704517D01*
X145547475Y-89704517D01*
X145764519Y-89685528D01*
X145775312Y-89683625D01*
X145985761Y-89627236D01*
X145996053Y-89623490D01*
X146193511Y-89531414D01*
X146203006Y-89525931D01*
X146255048Y-89489491D01*
X146263424Y-89479012D01*
X146256356Y-89465566D01*
X145554812Y-88764022D01*
X145540868Y-88756408D01*
X145539035Y-88756539D01*
X145532420Y-88760790D01*
X144826923Y-89466287D01*
X144820493Y-89478062D01*
X142606500Y-89478062D01*
X142606500Y-88397475D01*
X144229483Y-88397475D01*
X144248472Y-88614519D01*
X144250375Y-88625312D01*
X144306764Y-88835761D01*
X144310510Y-88846053D01*
X144402586Y-89043511D01*
X144408069Y-89053006D01*
X144444509Y-89105048D01*
X144454988Y-89113424D01*
X144468434Y-89106356D01*
X145169978Y-88404812D01*
X145176356Y-88393132D01*
X145906408Y-88393132D01*
X145906539Y-88394965D01*
X145910790Y-88401580D01*
X146616287Y-89107077D01*
X146628062Y-89113507D01*
X146640077Y-89104211D01*
X146675931Y-89053006D01*
X146681414Y-89043511D01*
X146773490Y-88846053D01*
X146777236Y-88835761D01*
X146833625Y-88625312D01*
X146835528Y-88614519D01*
X146854517Y-88397475D01*
X146854517Y-88386525D01*
X146835528Y-88169481D01*
X146833625Y-88158688D01*
X146777236Y-87948239D01*
X146773490Y-87937947D01*
X146681414Y-87740489D01*
X146675931Y-87730994D01*
X146639491Y-87678952D01*
X146629012Y-87670576D01*
X146615566Y-87677644D01*
X145914022Y-88379188D01*
X145906408Y-88393132D01*
X145176356Y-88393132D01*
X145177592Y-88390868D01*
X145177461Y-88389035D01*
X145173210Y-88382420D01*
X144467713Y-87676923D01*
X144455938Y-87670493D01*
X144443923Y-87679789D01*
X144408069Y-87730994D01*
X144402586Y-87740489D01*
X144310510Y-87937947D01*
X144306764Y-87948239D01*
X144250375Y-88158688D01*
X144248472Y-88169481D01*
X144229483Y-88386525D01*
X144229483Y-88397475D01*
X142606500Y-88397475D01*
X142606500Y-87304988D01*
X144820576Y-87304988D01*
X144827644Y-87318434D01*
X145529188Y-88019978D01*
X145543132Y-88027592D01*
X145544965Y-88027461D01*
X145551580Y-88023210D01*
X146257077Y-87317713D01*
X146263507Y-87305938D01*
X146254211Y-87293923D01*
X146203006Y-87258069D01*
X146193511Y-87252586D01*
X145996053Y-87160510D01*
X145985761Y-87156764D01*
X145775312Y-87100375D01*
X145764519Y-87098472D01*
X145547475Y-87079483D01*
X145536525Y-87079483D01*
X145319481Y-87098472D01*
X145308688Y-87100375D01*
X145098239Y-87156764D01*
X145087947Y-87160510D01*
X144890489Y-87252586D01*
X144880994Y-87258069D01*
X144828952Y-87294509D01*
X144820576Y-87304988D01*
X142606500Y-87304988D01*
X142606500Y-86060503D01*
X142626502Y-85992382D01*
X142643405Y-85971408D01*
X148167408Y-80447405D01*
X148229720Y-80413379D01*
X148256503Y-80410500D01*
X150379812Y-80410500D01*
X150447933Y-80430502D01*
X150468907Y-80447405D01*
X150529700Y-80508198D01*
X150534208Y-80511355D01*
X150534211Y-80511357D01*
X150612389Y-80566098D01*
X150717251Y-80639523D01*
X150722233Y-80641846D01*
X150722238Y-80641849D01*
X150756457Y-80657805D01*
X150809742Y-80704722D01*
X150829203Y-80772999D01*
X150808661Y-80840959D01*
X150756457Y-80886195D01*
X150722238Y-80902151D01*
X150722233Y-80902154D01*
X150717251Y-80904477D01*
X150612389Y-80977902D01*
X150534211Y-81032643D01*
X150534208Y-81032645D01*
X150529700Y-81035802D01*
X150367802Y-81197700D01*
X150236477Y-81385251D01*
X150234154Y-81390233D01*
X150234151Y-81390238D01*
X150142039Y-81587775D01*
X150139716Y-81592757D01*
X150080457Y-81813913D01*
X150060502Y-82042000D01*
X150080457Y-82270087D01*
X150139716Y-82491243D01*
X150142039Y-82496224D01*
X150142039Y-82496225D01*
X150234151Y-82693762D01*
X150234154Y-82693767D01*
X150236477Y-82698749D01*
X150367802Y-82886300D01*
X150529700Y-83048198D01*
X150534208Y-83051355D01*
X150534211Y-83051357D01*
X150612389Y-83106098D01*
X150717251Y-83179523D01*
X150722233Y-83181846D01*
X150722238Y-83181849D01*
X150756457Y-83197805D01*
X150809742Y-83244722D01*
X150829203Y-83312999D01*
X150808661Y-83380959D01*
X150756457Y-83426195D01*
X150722238Y-83442151D01*
X150722233Y-83442154D01*
X150717251Y-83444477D01*
X150612389Y-83517902D01*
X150534211Y-83572643D01*
X150534208Y-83572645D01*
X150529700Y-83575802D01*
X150367802Y-83737700D01*
X150236477Y-83925251D01*
X150234154Y-83930233D01*
X150234151Y-83930238D01*
X150142039Y-84127775D01*
X150139716Y-84132757D01*
X150080457Y-84353913D01*
X150060502Y-84582000D01*
X150080457Y-84810087D01*
X150081881Y-84815400D01*
X150081881Y-84815402D01*
X150137577Y-85023259D01*
X150139716Y-85031243D01*
X150142039Y-85036224D01*
X150142039Y-85036225D01*
X150234151Y-85233762D01*
X150234154Y-85233767D01*
X150236477Y-85238749D01*
X150367802Y-85426300D01*
X150529700Y-85588198D01*
X150534208Y-85591355D01*
X150534211Y-85591357D01*
X150553590Y-85604926D01*
X150717251Y-85719523D01*
X150722233Y-85721846D01*
X150722238Y-85721849D01*
X150756457Y-85737805D01*
X150809742Y-85784722D01*
X150829203Y-85852999D01*
X150808661Y-85920959D01*
X150756457Y-85966195D01*
X150722238Y-85982151D01*
X150722233Y-85982154D01*
X150717251Y-85984477D01*
X150705962Y-85992382D01*
X150534211Y-86112643D01*
X150534208Y-86112645D01*
X150529700Y-86115802D01*
X150367802Y-86277700D01*
X150236477Y-86465251D01*
X150234154Y-86470233D01*
X150234151Y-86470238D01*
X150142039Y-86667775D01*
X150139716Y-86672757D01*
X150080457Y-86893913D01*
X150060502Y-87122000D01*
X150080457Y-87350087D01*
X150139716Y-87571243D01*
X150142039Y-87576224D01*
X150142039Y-87576225D01*
X150234151Y-87773762D01*
X150234154Y-87773767D01*
X150236477Y-87778749D01*
X150239634Y-87783257D01*
X150355156Y-87948239D01*
X150367802Y-87966300D01*
X150529700Y-88128198D01*
X150534208Y-88131355D01*
X150534211Y-88131357D01*
X150573244Y-88158688D01*
X150717251Y-88259523D01*
X150722233Y-88261846D01*
X150722238Y-88261849D01*
X150756457Y-88277805D01*
X150809742Y-88324722D01*
X150829203Y-88392999D01*
X150808661Y-88460959D01*
X150756457Y-88506195D01*
X150722238Y-88522151D01*
X150722233Y-88522154D01*
X150717251Y-88524477D01*
X150612389Y-88597902D01*
X150534211Y-88652643D01*
X150534208Y-88652645D01*
X150529700Y-88655802D01*
X150367802Y-88817700D01*
X150364645Y-88822208D01*
X150364643Y-88822211D01*
X150347949Y-88846053D01*
X150236477Y-89005251D01*
X150234154Y-89010233D01*
X150234151Y-89010238D01*
X150142039Y-89207775D01*
X150139716Y-89212757D01*
X150080457Y-89433913D01*
X150060502Y-89662000D01*
X150080457Y-89890087D01*
X150139716Y-90111243D01*
X150142039Y-90116224D01*
X150142039Y-90116225D01*
X150234151Y-90313762D01*
X150234154Y-90313767D01*
X150236477Y-90318749D01*
X150367802Y-90506300D01*
X150529700Y-90668198D01*
X150534208Y-90671355D01*
X150534211Y-90671357D01*
X150612389Y-90726098D01*
X150717251Y-90799523D01*
X150722233Y-90801846D01*
X150722238Y-90801849D01*
X150756457Y-90817805D01*
X150809742Y-90864722D01*
X150829203Y-90932999D01*
X150808661Y-91000959D01*
X150756457Y-91046195D01*
X150722238Y-91062151D01*
X150722233Y-91062154D01*
X150717251Y-91064477D01*
X150612389Y-91137902D01*
X150534211Y-91192643D01*
X150534208Y-91192645D01*
X150529700Y-91195802D01*
X150367802Y-91357700D01*
X150236477Y-91545251D01*
X150234154Y-91550233D01*
X150234151Y-91550238D01*
X150142039Y-91747775D01*
X150139716Y-91752757D01*
X150138294Y-91758065D01*
X150138293Y-91758067D01*
X150103544Y-91887753D01*
X150080457Y-91973913D01*
X150060502Y-92202000D01*
X150080457Y-92430087D01*
X150139716Y-92651243D01*
X150142039Y-92656224D01*
X150142039Y-92656225D01*
X150234151Y-92853762D01*
X150234154Y-92853767D01*
X150236477Y-92858749D01*
X150277203Y-92916912D01*
X150356249Y-93029800D01*
X150367802Y-93046300D01*
X150529700Y-93208198D01*
X150534208Y-93211355D01*
X150534211Y-93211357D01*
X150609202Y-93263866D01*
X150717251Y-93339523D01*
X150722233Y-93341846D01*
X150722238Y-93341849D01*
X150756457Y-93357805D01*
X150809742Y-93404722D01*
X150829203Y-93472999D01*
X150808661Y-93540959D01*
X150756457Y-93586195D01*
X150722238Y-93602151D01*
X150722233Y-93602154D01*
X150717251Y-93604477D01*
X150612389Y-93677902D01*
X150534211Y-93732643D01*
X150534208Y-93732645D01*
X150529700Y-93735802D01*
X150367802Y-93897700D01*
X150364645Y-93902208D01*
X150364643Y-93902211D01*
X150361591Y-93906570D01*
X150236477Y-94085251D01*
X150234154Y-94090233D01*
X150234151Y-94090238D01*
X150198843Y-94165958D01*
X150139716Y-94292757D01*
X150138294Y-94298065D01*
X150138293Y-94298067D01*
X150089298Y-94480918D01*
X150080457Y-94513913D01*
X150060502Y-94742000D01*
X150080457Y-94970087D01*
X150081881Y-94975400D01*
X150081881Y-94975402D01*
X150123753Y-95131667D01*
X150139716Y-95191243D01*
X150142039Y-95196224D01*
X150142039Y-95196225D01*
X150234151Y-95393762D01*
X150234154Y-95393767D01*
X150236477Y-95398749D01*
X150367802Y-95586300D01*
X150529700Y-95748198D01*
X150534208Y-95751355D01*
X150534211Y-95751357D01*
X150612389Y-95806098D01*
X150717251Y-95879523D01*
X150722233Y-95881846D01*
X150722238Y-95881849D01*
X150756457Y-95897805D01*
X150809742Y-95944722D01*
X150829203Y-96012999D01*
X150808661Y-96080959D01*
X150756457Y-96126195D01*
X150722238Y-96142151D01*
X150722233Y-96142154D01*
X150717251Y-96144477D01*
X150612389Y-96217902D01*
X150534211Y-96272643D01*
X150534208Y-96272645D01*
X150529700Y-96275802D01*
X150367802Y-96437700D01*
X150236477Y-96625251D01*
X150234154Y-96630233D01*
X150234151Y-96630238D01*
X150215377Y-96670500D01*
X150139716Y-96832757D01*
X150080457Y-97053913D01*
X150060502Y-97282000D01*
X150080457Y-97510087D01*
X150139716Y-97731243D01*
X150142039Y-97736224D01*
X150142039Y-97736225D01*
X150234151Y-97933762D01*
X150234154Y-97933767D01*
X150236477Y-97938749D01*
X150367802Y-98126300D01*
X150529700Y-98288198D01*
X150534208Y-98291355D01*
X150534211Y-98291357D01*
X150612389Y-98346098D01*
X150717251Y-98419523D01*
X150722233Y-98421846D01*
X150722238Y-98421849D01*
X150757049Y-98438081D01*
X150810334Y-98484998D01*
X150829795Y-98553275D01*
X150809253Y-98621235D01*
X150757049Y-98666471D01*
X150722489Y-98682586D01*
X150712993Y-98688069D01*
X150534533Y-98813028D01*
X150526125Y-98820084D01*
X150372084Y-98974125D01*
X150365028Y-98982533D01*
X150240069Y-99160993D01*
X150234586Y-99170489D01*
X150142510Y-99367947D01*
X150138764Y-99378239D01*
X150092606Y-99550503D01*
X150092942Y-99564599D01*
X150100884Y-99568000D01*
X152641967Y-99568000D01*
X152655498Y-99564027D01*
X152656727Y-99555478D01*
X152609236Y-99378239D01*
X152605490Y-99367947D01*
X152513414Y-99170489D01*
X152507931Y-99160993D01*
X152382972Y-98982533D01*
X152375916Y-98974125D01*
X152221875Y-98820084D01*
X152213467Y-98813028D01*
X152035007Y-98688069D01*
X152025511Y-98682586D01*
X151990951Y-98666471D01*
X151937666Y-98619554D01*
X151918205Y-98551277D01*
X151938747Y-98483317D01*
X151990951Y-98438081D01*
X152025762Y-98421849D01*
X152025767Y-98421846D01*
X152030749Y-98419523D01*
X152135611Y-98346098D01*
X152213789Y-98291357D01*
X152213792Y-98291355D01*
X152218300Y-98288198D01*
X152380198Y-98126300D01*
X152511523Y-97938749D01*
X152513846Y-97933767D01*
X152513849Y-97933762D01*
X152605961Y-97736225D01*
X152605961Y-97736224D01*
X152608284Y-97731243D01*
X152667543Y-97510087D01*
X152687498Y-97282000D01*
X152667543Y-97053913D01*
X152608284Y-96832757D01*
X152532623Y-96670500D01*
X152513849Y-96630238D01*
X152513846Y-96630233D01*
X152511523Y-96625251D01*
X152380198Y-96437700D01*
X152218300Y-96275802D01*
X152213792Y-96272645D01*
X152213789Y-96272643D01*
X152135611Y-96217902D01*
X152030749Y-96144477D01*
X152025767Y-96142154D01*
X152025762Y-96142151D01*
X151991543Y-96126195D01*
X151938258Y-96079278D01*
X151918797Y-96011001D01*
X151939339Y-95943041D01*
X151991543Y-95897805D01*
X152025762Y-95881849D01*
X152025767Y-95881846D01*
X152030749Y-95879523D01*
X152135611Y-95806098D01*
X152213789Y-95751357D01*
X152213792Y-95751355D01*
X152218300Y-95748198D01*
X152380198Y-95586300D01*
X152511523Y-95398749D01*
X152513846Y-95393767D01*
X152513849Y-95393762D01*
X152605961Y-95196225D01*
X152605961Y-95196224D01*
X152608284Y-95191243D01*
X152624248Y-95131667D01*
X152666119Y-94975402D01*
X152666119Y-94975400D01*
X152667543Y-94970087D01*
X152687498Y-94742000D01*
X152667543Y-94513913D01*
X152658702Y-94480918D01*
X152609707Y-94298067D01*
X152609706Y-94298065D01*
X152608284Y-94292757D01*
X152549157Y-94165958D01*
X152513849Y-94090238D01*
X152513846Y-94090233D01*
X152511523Y-94085251D01*
X152386409Y-93906570D01*
X152383357Y-93902211D01*
X152383355Y-93902208D01*
X152380198Y-93897700D01*
X152218300Y-93735802D01*
X152213792Y-93732645D01*
X152213789Y-93732643D01*
X152135611Y-93677902D01*
X152030749Y-93604477D01*
X152025767Y-93602154D01*
X152025762Y-93602151D01*
X151991543Y-93586195D01*
X151938258Y-93539278D01*
X151918797Y-93471001D01*
X151939339Y-93403041D01*
X151991543Y-93357805D01*
X152025762Y-93341849D01*
X152025767Y-93341846D01*
X152030749Y-93339523D01*
X152138798Y-93263866D01*
X152213789Y-93211357D01*
X152213792Y-93211355D01*
X152218300Y-93208198D01*
X152380198Y-93046300D01*
X152391752Y-93029800D01*
X152470797Y-92916912D01*
X152511523Y-92858749D01*
X152513846Y-92853767D01*
X152513849Y-92853762D01*
X152605961Y-92656225D01*
X152605961Y-92656224D01*
X152608284Y-92651243D01*
X152667543Y-92430087D01*
X152687498Y-92202000D01*
X152667543Y-91973913D01*
X152644456Y-91887753D01*
X152609707Y-91758067D01*
X152609706Y-91758065D01*
X152608284Y-91752757D01*
X152605961Y-91747775D01*
X152513849Y-91550238D01*
X152513846Y-91550233D01*
X152511523Y-91545251D01*
X152380198Y-91357700D01*
X152218300Y-91195802D01*
X152213792Y-91192645D01*
X152213789Y-91192643D01*
X152135611Y-91137902D01*
X152030749Y-91064477D01*
X152025767Y-91062154D01*
X152025762Y-91062151D01*
X151991543Y-91046195D01*
X151938258Y-90999278D01*
X151918797Y-90931001D01*
X151939339Y-90863041D01*
X151991543Y-90817805D01*
X152025762Y-90801849D01*
X152025767Y-90801846D01*
X152030749Y-90799523D01*
X152135611Y-90726098D01*
X152213789Y-90671357D01*
X152213792Y-90671355D01*
X152218300Y-90668198D01*
X152380198Y-90506300D01*
X152511523Y-90318749D01*
X152513846Y-90313767D01*
X152513849Y-90313762D01*
X152605961Y-90116225D01*
X152605961Y-90116224D01*
X152608284Y-90111243D01*
X152667543Y-89890087D01*
X152687498Y-89662000D01*
X152667543Y-89433913D01*
X152608284Y-89212757D01*
X152605961Y-89207775D01*
X152513849Y-89010238D01*
X152513846Y-89010233D01*
X152511523Y-89005251D01*
X152400051Y-88846053D01*
X152383357Y-88822211D01*
X152383355Y-88822208D01*
X152380198Y-88817700D01*
X152218300Y-88655802D01*
X152213792Y-88652645D01*
X152213789Y-88652643D01*
X152135611Y-88597902D01*
X152030749Y-88524477D01*
X152025767Y-88522154D01*
X152025762Y-88522151D01*
X151991543Y-88506195D01*
X151938258Y-88459278D01*
X151918797Y-88391001D01*
X151939339Y-88323041D01*
X151991543Y-88277805D01*
X152025762Y-88261849D01*
X152025767Y-88261846D01*
X152030749Y-88259523D01*
X152174756Y-88158688D01*
X152213789Y-88131357D01*
X152213792Y-88131355D01*
X152218300Y-88128198D01*
X152380198Y-87966300D01*
X152392845Y-87948239D01*
X152508366Y-87783257D01*
X152511523Y-87778749D01*
X152513846Y-87773767D01*
X152513849Y-87773762D01*
X152605961Y-87576225D01*
X152605961Y-87576224D01*
X152608284Y-87571243D01*
X152667543Y-87350087D01*
X152687498Y-87122000D01*
X152667543Y-86893913D01*
X152608284Y-86672757D01*
X152605961Y-86667775D01*
X152513849Y-86470238D01*
X152513846Y-86470233D01*
X152511523Y-86465251D01*
X152380198Y-86277700D01*
X152218300Y-86115802D01*
X152213792Y-86112645D01*
X152213789Y-86112643D01*
X152042038Y-85992382D01*
X152030749Y-85984477D01*
X152025767Y-85982154D01*
X152025762Y-85982151D01*
X151991543Y-85966195D01*
X151938258Y-85919278D01*
X151918797Y-85851001D01*
X151939339Y-85783041D01*
X151991543Y-85737805D01*
X152025762Y-85721849D01*
X152025767Y-85721846D01*
X152030749Y-85719523D01*
X152194410Y-85604926D01*
X152213789Y-85591357D01*
X152213792Y-85591355D01*
X152218300Y-85588198D01*
X152380198Y-85426300D01*
X152511523Y-85238749D01*
X152513846Y-85233767D01*
X152513849Y-85233762D01*
X152605961Y-85036225D01*
X152605961Y-85036224D01*
X152608284Y-85031243D01*
X152610424Y-85023259D01*
X152666119Y-84815402D01*
X152666119Y-84815400D01*
X152667543Y-84810087D01*
X152687498Y-84582000D01*
X152667543Y-84353913D01*
X152608284Y-84132757D01*
X152605961Y-84127775D01*
X152513849Y-83930238D01*
X152513846Y-83930233D01*
X152511523Y-83925251D01*
X152380198Y-83737700D01*
X152218300Y-83575802D01*
X152213792Y-83572645D01*
X152213789Y-83572643D01*
X152135611Y-83517902D01*
X152030749Y-83444477D01*
X152025767Y-83442154D01*
X152025762Y-83442151D01*
X151991543Y-83426195D01*
X151938258Y-83379278D01*
X151918797Y-83311001D01*
X151939339Y-83243041D01*
X151991543Y-83197805D01*
X152025762Y-83181849D01*
X152025767Y-83181846D01*
X152030749Y-83179523D01*
X152135611Y-83106098D01*
X152213789Y-83051357D01*
X152213792Y-83051355D01*
X152218300Y-83048198D01*
X152380198Y-82886300D01*
X152511523Y-82698749D01*
X152513846Y-82693767D01*
X152513849Y-82693762D01*
X152605961Y-82496225D01*
X152605961Y-82496224D01*
X152608284Y-82491243D01*
X152667543Y-82270087D01*
X152687498Y-82042000D01*
X152667543Y-81813913D01*
X152608284Y-81592757D01*
X152605961Y-81587775D01*
X152513849Y-81390238D01*
X152513846Y-81390233D01*
X152511523Y-81385251D01*
X152380198Y-81197700D01*
X152218300Y-81035802D01*
X152213792Y-81032645D01*
X152213789Y-81032643D01*
X152135611Y-80977902D01*
X152030749Y-80904477D01*
X152025767Y-80902154D01*
X152025762Y-80902151D01*
X151991543Y-80886195D01*
X151938258Y-80839278D01*
X151918797Y-80771001D01*
X151939339Y-80703041D01*
X151991543Y-80657805D01*
X152025762Y-80641849D01*
X152025767Y-80641846D01*
X152030749Y-80639523D01*
X152135611Y-80566098D01*
X152213789Y-80511357D01*
X152213792Y-80511355D01*
X152218300Y-80508198D01*
X152380198Y-80346300D01*
X152511523Y-80158749D01*
X152513846Y-80153767D01*
X152513849Y-80153762D01*
X152605961Y-79956225D01*
X152605961Y-79956224D01*
X152608284Y-79951243D01*
X152667543Y-79730087D01*
X152687498Y-79502000D01*
X152667543Y-79273913D01*
X152608284Y-79052757D01*
X152605961Y-79047775D01*
X152513849Y-78850238D01*
X152513846Y-78850233D01*
X152511523Y-78845251D01*
X152432836Y-78732875D01*
X152383357Y-78662211D01*
X152383355Y-78662208D01*
X152380198Y-78657700D01*
X152218300Y-78495802D01*
X152213792Y-78492645D01*
X152213789Y-78492643D01*
X152045510Y-78374813D01*
X152030749Y-78364477D01*
X152025767Y-78362154D01*
X152025762Y-78362151D01*
X151991543Y-78346195D01*
X151938258Y-78299278D01*
X151918797Y-78231001D01*
X151939339Y-78163041D01*
X151991543Y-78117805D01*
X152025762Y-78101849D01*
X152025767Y-78101846D01*
X152030749Y-78099523D01*
X152135611Y-78026098D01*
X152213789Y-77971357D01*
X152213792Y-77971355D01*
X152218300Y-77968198D01*
X152380198Y-77806300D01*
X152511523Y-77618749D01*
X152513846Y-77613767D01*
X152513849Y-77613762D01*
X152605961Y-77416225D01*
X152605961Y-77416224D01*
X152608284Y-77411243D01*
X152667543Y-77190087D01*
X152687498Y-76962000D01*
X152667543Y-76733913D01*
X152615637Y-76540197D01*
X152609707Y-76518067D01*
X152609706Y-76518065D01*
X152608284Y-76512757D01*
X152605961Y-76507775D01*
X152513849Y-76310238D01*
X152513846Y-76310233D01*
X152511523Y-76305251D01*
X152438098Y-76200389D01*
X152383357Y-76122211D01*
X152383355Y-76122208D01*
X152380198Y-76117700D01*
X152218300Y-75955802D01*
X152213792Y-75952645D01*
X152213789Y-75952643D01*
X152044996Y-75834453D01*
X152030749Y-75824477D01*
X152025767Y-75822154D01*
X152025762Y-75822151D01*
X151991543Y-75806195D01*
X151938258Y-75759278D01*
X151918797Y-75691001D01*
X151939339Y-75623041D01*
X151991543Y-75577805D01*
X152025762Y-75561849D01*
X152025767Y-75561846D01*
X152030749Y-75559523D01*
X152168351Y-75463173D01*
X152213789Y-75431357D01*
X152213792Y-75431355D01*
X152218300Y-75428198D01*
X152380198Y-75266300D01*
X152400172Y-75237775D01*
X152508366Y-75083257D01*
X152511523Y-75078749D01*
X152513846Y-75073767D01*
X152513849Y-75073762D01*
X152605961Y-74876225D01*
X152605961Y-74876224D01*
X152608284Y-74871243D01*
X152614593Y-74847700D01*
X152666119Y-74655402D01*
X152666119Y-74655400D01*
X152667543Y-74650087D01*
X152687498Y-74422000D01*
X152667543Y-74193913D01*
X152661593Y-74171707D01*
X152609707Y-73978067D01*
X152609706Y-73978064D01*
X152608284Y-73972757D01*
X152596092Y-73946610D01*
X152513849Y-73770238D01*
X152513846Y-73770233D01*
X152511523Y-73765251D01*
X152380198Y-73577700D01*
X152218300Y-73415802D01*
X152213792Y-73412645D01*
X152213789Y-73412643D01*
X152086212Y-73323313D01*
X152030749Y-73284477D01*
X152025767Y-73282154D01*
X152025762Y-73282151D01*
X151991543Y-73266195D01*
X151938258Y-73219278D01*
X151918797Y-73151001D01*
X151939339Y-73083041D01*
X151991543Y-73037805D01*
X152025762Y-73021849D01*
X152025767Y-73021846D01*
X152030749Y-73019523D01*
X152173555Y-72919529D01*
X152213789Y-72891357D01*
X152213792Y-72891355D01*
X152218300Y-72888198D01*
X152380198Y-72726300D01*
X152511523Y-72538749D01*
X152513846Y-72533767D01*
X152513849Y-72533762D01*
X152605961Y-72336225D01*
X152605961Y-72336224D01*
X152608284Y-72331243D01*
X152667543Y-72110087D01*
X152687498Y-71882000D01*
X152667543Y-71653913D01*
X152608284Y-71432757D01*
X152599054Y-71412963D01*
X152513849Y-71230238D01*
X152513846Y-71230233D01*
X152511523Y-71225251D01*
X152380198Y-71037700D01*
X152218300Y-70875802D01*
X152213792Y-70872645D01*
X152213789Y-70872643D01*
X152135611Y-70817902D01*
X152030749Y-70744477D01*
X152025767Y-70742154D01*
X152025762Y-70742151D01*
X151991543Y-70726195D01*
X151938258Y-70679278D01*
X151918797Y-70611001D01*
X151939339Y-70543041D01*
X151991543Y-70497805D01*
X152025762Y-70481849D01*
X152025767Y-70481846D01*
X152030749Y-70479523D01*
X152135611Y-70406098D01*
X152213789Y-70351357D01*
X152213792Y-70351355D01*
X152218300Y-70348198D01*
X152380198Y-70186300D01*
X152394721Y-70165560D01*
X152508366Y-70003257D01*
X152511523Y-69998749D01*
X152513846Y-69993767D01*
X152513849Y-69993762D01*
X152605961Y-69796225D01*
X152605961Y-69796224D01*
X152608284Y-69791243D01*
X152656858Y-69609966D01*
X152666119Y-69575402D01*
X152666119Y-69575400D01*
X152667543Y-69570087D01*
X152687498Y-69342000D01*
X152667543Y-69113913D01*
X152660600Y-69088000D01*
X152609707Y-68898067D01*
X152609706Y-68898065D01*
X152608284Y-68892757D01*
X152596172Y-68866783D01*
X152513849Y-68690238D01*
X152513846Y-68690233D01*
X152511523Y-68685251D01*
X152400857Y-68527204D01*
X152383357Y-68502211D01*
X152383355Y-68502208D01*
X152380198Y-68497700D01*
X152218300Y-68335802D01*
X152213792Y-68332645D01*
X152213789Y-68332643D01*
X152135611Y-68277902D01*
X152030749Y-68204477D01*
X152025767Y-68202154D01*
X152025762Y-68202151D01*
X151991543Y-68186195D01*
X151938258Y-68139278D01*
X151918797Y-68071001D01*
X151939339Y-68003041D01*
X151991543Y-67957805D01*
X152025762Y-67941849D01*
X152025767Y-67941846D01*
X152030749Y-67939523D01*
X152135611Y-67866098D01*
X152213789Y-67811357D01*
X152213792Y-67811355D01*
X152218300Y-67808198D01*
X152380198Y-67646300D01*
X152404923Y-67610990D01*
X152508366Y-67463257D01*
X152511523Y-67458749D01*
X152513846Y-67453767D01*
X152513849Y-67453762D01*
X152605961Y-67256225D01*
X152605961Y-67256224D01*
X152608284Y-67251243D01*
X152618150Y-67214425D01*
X152666119Y-67035402D01*
X152666119Y-67035400D01*
X152667543Y-67030087D01*
X152687498Y-66802000D01*
X152667543Y-66573913D01*
X152661593Y-66551707D01*
X152609707Y-66358067D01*
X152609706Y-66358065D01*
X152608284Y-66352757D01*
X152596092Y-66326610D01*
X152513849Y-66150238D01*
X152513846Y-66150233D01*
X152511523Y-66145251D01*
X152438098Y-66040389D01*
X152383357Y-65962211D01*
X152383355Y-65962208D01*
X152380198Y-65957700D01*
X152218300Y-65795802D01*
X152213792Y-65792645D01*
X152213789Y-65792643D01*
X152135611Y-65737902D01*
X152030749Y-65664477D01*
X152025767Y-65662154D01*
X152025762Y-65662151D01*
X151828225Y-65570039D01*
X151828224Y-65570039D01*
X151823243Y-65567716D01*
X151817935Y-65566294D01*
X151817933Y-65566293D01*
X151607402Y-65509881D01*
X151607400Y-65509881D01*
X151602087Y-65508457D01*
X151374000Y-65488502D01*
X151145913Y-65508457D01*
X151140600Y-65509881D01*
X151140598Y-65509881D01*
X150930067Y-65566293D01*
X150930065Y-65566294D01*
X150924757Y-65567716D01*
X150919776Y-65570039D01*
X150919775Y-65570039D01*
X150722238Y-65662151D01*
X150722233Y-65662154D01*
X150717251Y-65664477D01*
X150612389Y-65737902D01*
X150534211Y-65792643D01*
X150534208Y-65792645D01*
X150529700Y-65795802D01*
X150367802Y-65957700D01*
X150364645Y-65962208D01*
X150364643Y-65962211D01*
X150309902Y-66040389D01*
X150236477Y-66145251D01*
X150234154Y-66150233D01*
X150234151Y-66150238D01*
X150151908Y-66326610D01*
X150139716Y-66352757D01*
X150138294Y-66358065D01*
X150138293Y-66358067D01*
X150086407Y-66551707D01*
X150080457Y-66573913D01*
X150060502Y-66802000D01*
X150080457Y-67030087D01*
X150081881Y-67035400D01*
X150081881Y-67035402D01*
X150129851Y-67214425D01*
X150139716Y-67251243D01*
X150142039Y-67256224D01*
X150142039Y-67256225D01*
X150234151Y-67453762D01*
X150234154Y-67453767D01*
X150236477Y-67458749D01*
X150239634Y-67463257D01*
X150343078Y-67610990D01*
X150367802Y-67646300D01*
X150529700Y-67808198D01*
X150534208Y-67811355D01*
X150534211Y-67811357D01*
X150612389Y-67866098D01*
X150717251Y-67939523D01*
X150722233Y-67941846D01*
X150722238Y-67941849D01*
X150756457Y-67957805D01*
X150809742Y-68004722D01*
X150829203Y-68072999D01*
X150808661Y-68140959D01*
X150756457Y-68186195D01*
X150722238Y-68202151D01*
X150722233Y-68202154D01*
X150717251Y-68204477D01*
X150612389Y-68277902D01*
X150534211Y-68332643D01*
X150534208Y-68332645D01*
X150529700Y-68335802D01*
X150367802Y-68497700D01*
X150364645Y-68502208D01*
X150364643Y-68502211D01*
X150347143Y-68527204D01*
X150236477Y-68685251D01*
X150234154Y-68690233D01*
X150234151Y-68690238D01*
X150151828Y-68866783D01*
X150139716Y-68892757D01*
X150138294Y-68898065D01*
X150138293Y-68898067D01*
X150087400Y-69088000D01*
X150080457Y-69113913D01*
X150060502Y-69342000D01*
X150080457Y-69570087D01*
X150081881Y-69575400D01*
X150081881Y-69575402D01*
X150091143Y-69609966D01*
X150139716Y-69791243D01*
X150142039Y-69796224D01*
X150142039Y-69796225D01*
X150234151Y-69993762D01*
X150234154Y-69993767D01*
X150236477Y-69998749D01*
X150239634Y-70003257D01*
X150353280Y-70165560D01*
X150367802Y-70186300D01*
X150529700Y-70348198D01*
X150534208Y-70351355D01*
X150534211Y-70351357D01*
X150612389Y-70406098D01*
X150717251Y-70479523D01*
X150722233Y-70481846D01*
X150722238Y-70481849D01*
X150756457Y-70497805D01*
X150809742Y-70544722D01*
X150829203Y-70612999D01*
X150808661Y-70680959D01*
X150756457Y-70726195D01*
X150722238Y-70742151D01*
X150722233Y-70742154D01*
X150717251Y-70744477D01*
X150612389Y-70817902D01*
X150534211Y-70872643D01*
X150534208Y-70872645D01*
X150529700Y-70875802D01*
X150367802Y-71037700D01*
X150236477Y-71225251D01*
X150234154Y-71230233D01*
X150234151Y-71230238D01*
X150148946Y-71412963D01*
X150139716Y-71432757D01*
X150080457Y-71653913D01*
X150060502Y-71882000D01*
X150080457Y-72110087D01*
X150139716Y-72331243D01*
X150142039Y-72336224D01*
X150142039Y-72336225D01*
X150234151Y-72533762D01*
X150234154Y-72533767D01*
X150236477Y-72538749D01*
X150367802Y-72726300D01*
X150529700Y-72888198D01*
X150534208Y-72891355D01*
X150534211Y-72891357D01*
X150574445Y-72919529D01*
X150717251Y-73019523D01*
X150722233Y-73021846D01*
X150722238Y-73021849D01*
X150756457Y-73037805D01*
X150809742Y-73084722D01*
X150829203Y-73152999D01*
X150808661Y-73220959D01*
X150756457Y-73266195D01*
X150722238Y-73282151D01*
X150722233Y-73282154D01*
X150717251Y-73284477D01*
X150661788Y-73323313D01*
X150534211Y-73412643D01*
X150534208Y-73412645D01*
X150529700Y-73415802D01*
X150367802Y-73577700D01*
X150236477Y-73765251D01*
X150234154Y-73770233D01*
X150234151Y-73770238D01*
X150151908Y-73946610D01*
X150139716Y-73972757D01*
X150138294Y-73978064D01*
X150096846Y-74132748D01*
X150059894Y-74193370D01*
X149996033Y-74224392D01*
X149925539Y-74215963D01*
X149886044Y-74189231D01*
X128707405Y-53010592D01*
X128673379Y-52948280D01*
X128670500Y-52921497D01*
X128670500Y-52352823D01*
X128672051Y-52333111D01*
X128673220Y-52325731D01*
X128674252Y-52319216D01*
X128670673Y-52250926D01*
X128670500Y-52244332D01*
X128670500Y-52223796D01*
X128670156Y-52220522D01*
X128668353Y-52203364D01*
X128667836Y-52196790D01*
X128664603Y-52135098D01*
X128664602Y-52135094D01*
X128664257Y-52128503D01*
X128661539Y-52118357D01*
X128660617Y-52114915D01*
X128657015Y-52095481D01*
X128656234Y-52088052D01*
X128656232Y-52088043D01*
X128655542Y-52081478D01*
X128634400Y-52016409D01*
X128632531Y-52010101D01*
X128616537Y-51950410D01*
X128616537Y-51950409D01*
X128614829Y-51944036D01*
X128608440Y-51931498D01*
X128600875Y-51913232D01*
X128598569Y-51906134D01*
X128598568Y-51906132D01*
X128596527Y-51899850D01*
X128592033Y-51892065D01*
X128562333Y-51840624D01*
X128559185Y-51834827D01*
X128528129Y-51773876D01*
X128519273Y-51762939D01*
X128508073Y-51746643D01*
X128504343Y-51740182D01*
X128504340Y-51740178D01*
X128501040Y-51734462D01*
X128496623Y-51729556D01*
X128496619Y-51729551D01*
X128455278Y-51683637D01*
X128450994Y-51678622D01*
X128440148Y-51665229D01*
X128438072Y-51662665D01*
X128423557Y-51648150D01*
X128419016Y-51643365D01*
X128377673Y-51597449D01*
X128373253Y-51592540D01*
X128361865Y-51584266D01*
X128346832Y-51571425D01*
X127352575Y-50577168D01*
X127339734Y-50562135D01*
X127335340Y-50556087D01*
X127335339Y-50556086D01*
X127331460Y-50550747D01*
X127280635Y-50504984D01*
X127275850Y-50500443D01*
X127261335Y-50485928D01*
X127253876Y-50479888D01*
X127245378Y-50473006D01*
X127240363Y-50468722D01*
X127194449Y-50427381D01*
X127194444Y-50427377D01*
X127189538Y-50422960D01*
X127183822Y-50419660D01*
X127183818Y-50419657D01*
X127177357Y-50415927D01*
X127161060Y-50404727D01*
X127155254Y-50400025D01*
X127155252Y-50400024D01*
X127150124Y-50395871D01*
X127089171Y-50364814D01*
X127083376Y-50361667D01*
X127029873Y-50330777D01*
X127029872Y-50330776D01*
X127024150Y-50327473D01*
X127017868Y-50325432D01*
X127017866Y-50325431D01*
X127010768Y-50323125D01*
X126992501Y-50315559D01*
X126979964Y-50309171D01*
X126913893Y-50291467D01*
X126907591Y-50289600D01*
X126842522Y-50268458D01*
X126835957Y-50267768D01*
X126835948Y-50267766D01*
X126828519Y-50266985D01*
X126809085Y-50263383D01*
X126801880Y-50261453D01*
X126801878Y-50261453D01*
X126795497Y-50259743D01*
X126788906Y-50259398D01*
X126788902Y-50259397D01*
X126727210Y-50256164D01*
X126720636Y-50255647D01*
X126703478Y-50253844D01*
X126703476Y-50253844D01*
X126700204Y-50253500D01*
X126679668Y-50253500D01*
X126673074Y-50253327D01*
X126611376Y-50250093D01*
X126611371Y-50250093D01*
X126604784Y-50249748D01*
X126590886Y-50251949D01*
X126571177Y-50253500D01*
X126508145Y-50253500D01*
X126440024Y-50233498D01*
X126430595Y-50226200D01*
X126430379Y-50226481D01*
X126425800Y-50222967D01*
X126421556Y-50219044D01*
X126416673Y-50215963D01*
X126416669Y-50215960D01*
X126242482Y-50106057D01*
X126242483Y-50106057D01*
X126237599Y-50102976D01*
X126035572Y-50022376D01*
X125822239Y-49979941D01*
X125816464Y-49979865D01*
X125816460Y-49979865D01*
X125707419Y-49978438D01*
X125604746Y-49977094D01*
X125599049Y-49978073D01*
X125599048Y-49978073D01*
X125396065Y-50012952D01*
X125396062Y-50012953D01*
X125390375Y-50013930D01*
X125186307Y-50089214D01*
X124999376Y-50200427D01*
X124835842Y-50343842D01*
X124832270Y-50348373D01*
X124725467Y-50483852D01*
X124701181Y-50514658D01*
X124599905Y-50707154D01*
X124535403Y-50914882D01*
X124509837Y-51130887D01*
X122428000Y-51130887D01*
X122428000Y-48894000D01*
X122448002Y-48825879D01*
X122501658Y-48779386D01*
X122554000Y-48768000D01*
X197486000Y-48768000D01*
X197554121Y-48788002D01*
G37*
G04 #@! TD.AperFunction*
M02*
