M48
; DRILL file {KiCad (6.0.2)} date Thu Jan 26 14:22:19 2023
; FORMAT={-:-/ absolute / metric / decimal}
; #@! TF.CreationDate,2023-01-26T14:22:19+00:00
; #@! TF.GenerationSoftware,Kicad,Pcbnew,(6.0.2)
; #@! TF.FileFunction,Plated,1,2,PTH
FMAT,2
METRIC
; #@! TA.AperFunction,Plated,PTH,ViaDrill
T1C0.400
; #@! TA.AperFunction,Plated,PTH,ComponentDrill
T2C0.500
; #@! TA.AperFunction,Plated,PTH,ComponentDrill
T3C0.800
; #@! TA.AperFunction,Plated,PTH,ComponentDrill
T4C1.000
%
G90
G05
T1
X157.032Y-107.89
X159.512Y-106.68
X163.322Y-109.22
T2
X139.7Y-104.14
X139.7Y-105.39
X139.7Y-106.64
X139.7Y-107.89
X139.7Y-109.14
X139.7Y-110.39
X176.784Y-104.14
X176.784Y-105.39
X176.784Y-106.64
X176.784Y-107.89
X176.784Y-109.14
X176.784Y-110.39
T3
X125.698Y-51.162
X125.698Y-53.162
X145.542Y-75.692
X145.542Y-88.392
T4
X136.618Y-94.162
X139.158Y-94.162
X141.698Y-94.162
X151.374Y-66.802
X151.374Y-69.342
X151.374Y-71.882
X151.374Y-74.422
X151.374Y-76.962
X151.374Y-79.502
X151.374Y-82.042
X151.374Y-84.582
X151.374Y-87.122
X151.374Y-89.662
X151.374Y-92.202
X151.374Y-94.742
X151.374Y-97.282
X151.374Y-99.822
X151.374Y-102.362
X166.614Y-66.802
X166.614Y-69.342
X166.614Y-71.882
X166.614Y-74.422
X166.614Y-76.962
X166.614Y-79.502
X166.614Y-82.042
X166.614Y-84.582
X166.614Y-87.122
X166.614Y-89.662
X166.614Y-92.202
X166.614Y-94.742
X166.614Y-97.282
X166.614Y-99.822
X166.614Y-102.362
X174.498Y-66.802
X174.498Y-69.342
X174.498Y-71.882
X174.498Y-74.422
X174.498Y-76.962
T0
M30
