M48
; DRILL file {KiCad (5.1.9)-1} date 08/01/21 10:02:19
; FORMAT={-:-/ absolute / inch / decimal}
; #@! TF.CreationDate,2021-08-01T10:02:19+01:00
; #@! TF.GenerationSoftware,Kicad,Pcbnew,(5.1.9)-1
; #@! TF.FileFunction,Plated,1,2,PTH
FMAT,2
INCH
T1C0.0276
T2C0.0315
T3C0.0394
%
G90
G05
T1
X5.6Y-3.4
X5.7Y-3.3
X5.7Y-3.5
X7.2Y-4.2
X7.3Y-4.1
X7.3Y-4.3
T2
X6.1Y-3.05
X6.6Y-3.05
X7.3Y-3.4
X7.3Y-3.9
T3
X5.75Y-3.85
X5.75Y-3.95
X5.75Y-4.05
X5.75Y-4.15
X5.75Y-4.25
X5.75Y-4.5
X5.75Y-4.6
X5.75Y-4.7
X5.75Y-4.8
X5.75Y-4.9
X6.05Y-3.4
X6.05Y-3.5
X6.05Y-3.6
X6.05Y-3.7
X6.05Y-3.8
X6.05Y-3.9
X6.05Y-4.0
X6.05Y-4.1
X6.05Y-4.2
X6.05Y-4.3
X6.05Y-4.4
X6.05Y-4.5
X6.05Y-4.6
X6.05Y-4.7
X6.05Y-4.8
X6.65Y-3.4
X6.65Y-3.5
X6.65Y-3.6
X6.65Y-3.7
X6.65Y-3.8
X6.65Y-3.9
X6.65Y-4.0
X6.65Y-4.1
X6.65Y-4.2
X6.65Y-4.3
X6.65Y-4.4
X6.65Y-4.5
X6.65Y-4.6
X6.65Y-4.7
X6.65Y-4.8
X6.9Y-3.4
X6.9Y-3.5
X6.9Y-4.0
X6.9Y-4.1
X6.9Y-4.2
X6.9Y-4.3
X7.1Y-3.4
X7.1Y-3.5
T0
M30
